<svg xmlns="http://www.w3.org/2000/svg" width="512" height="512" viewBox="-62.972 -66.292 1383.833 1383.833" version="1.1">
	<title>dumbbell hip thrust</title><path d="M 236.791 191.543 C 236.407 191.926, 232.585 192.317, 228.297 192.412 C 220.080 192.594, 217.602 193.574, 211.500 199.054 C 209.637 200.727, 206.795 201.997, 204 202.405 C 197.557 203.344, 189.751 207.426, 185.592 212.030 C 183.207 214.670, 181.156 216, 179.469 216 C 173.436 216, 161.684 224.530, 159.080 230.800 C 158.463 232.285, 156.527 234.400, 154.778 235.500 C 149.175 239.023, 148.515 239.460, 145.315 241.757 C 141.374 244.587, 137 253.203, 137 258.137 C 137 260.197, 136.513 262.183, 135.917 262.551 C 132.031 264.953, 129.647 279.447, 132.113 285.685 C 132.724 287.233, 133.151 291.291, 133.061 294.703 C 132.870 301.925, 134.433 308.661, 136.957 311.500 C 137.935 312.600, 139.001 315.244, 139.325 317.376 C 139.955 321.512, 143.777 327.982, 145.598 327.993 C 146.202 327.997, 147.527 329.843, 148.543 332.096 C 150.550 336.547, 158.239 344.494, 160.554 344.510 C 162.385 344.524, 171 352.819, 171 354.569 C 171 356.465, 174.813 358.862, 176.942 358.305 C 178.061 358.012, 181.503 359.791, 185.924 362.946 C 189.867 365.759, 193.503 367.807, 194.004 367.498 C 194.505 367.188, 195.604 368.267, 196.446 369.896 C 197.289 371.525, 198.843 373.133, 199.900 373.468 C 200.957 373.804, 203.010 375.636, 204.462 377.539 C 205.914 379.443, 207.779 381, 208.606 381 C 210.572 381, 215.133 391.004, 215.779 396.730 C 216.276 401.140, 216.230 401.219, 209.717 407.096 C 192.664 422.487, 185.175 438.067, 184.286 460 C 183.500 479.362, 187.380 492.736, 197.759 506.439 C 201.801 511.775, 212.310 519.407, 217.982 521.124 C 220.667 521.937, 222.294 523.484, 224.852 527.659 C 226.695 530.668, 228.045 533.247, 227.852 533.389 C 227.658 533.532, 223.675 534.654, 219 535.883 C 208.753 538.576, 183.343 545.541, 161.500 551.644 C 152.700 554.103, 140.775 557.434, 135 559.046 C 113.039 565.179, 95.260 570.193, 88.845 572.061 C 85.184 573.128, 81.714 574, 81.132 574 C 77.906 574, 68.140 578.775, 64.997 581.889 C 58.330 588.495, 57.633 592.056, 58.236 616.424 C 58.984 646.650, 59.243 646.953, 86 648.955 C 110.862 650.816, 110 650.600, 110 654.981 C 110 660.241, 112.095 661.610, 121.500 662.496 C 125.900 662.911, 130.400 663.344, 131.500 663.459 C 133.331 663.650, 133.503 664.420, 133.541 672.584 C 133.599 685.196, 133.890 685.732, 142.083 688.311 C 143.510 688.760, 143.690 697.825, 143.904 780.008 C 144.035 830.167, 144.342 871.728, 144.587 872.365 C 144.854 873.062, 141.341 874.924, 135.766 877.040 C 123.665 881.633, 123.004 882.789, 123.002 899.358 C 123 911.150, 122.987 911.214, 120.750 910.675 C 119.513 910.376, 113.985 909.595, 108.466 908.938 L 98.431 907.743 81.966 913.407 C 56.542 922.153, 57.099 921.908, 55.479 925.041 C 54.481 926.971, 54 930.964, 54 937.324 L 54 946.748 39.798 952.076 C 22.518 958.559, 22 959.003, 22 967.345 C 22 975.511, 22.838 976.197, 35.500 978.403 C 53.390 981.520, 76.109 985, 78.573 985 C 81.202 985, 107.193 975.648, 110.629 973.465 C 112.423 972.325, 114.468 972.343, 123.629 973.576 C 129.608 974.381, 137.875 975.479, 142 976.016 C 146.125 976.553, 157.375 978.103, 167 979.461 C 176.625 980.819, 193.482 983.090, 204.461 984.509 C 215.440 985.928, 224.588 987.255, 224.792 987.459 C 224.996 987.662, 224.676 988.738, 224.081 989.849 C 221.160 995.307, 223.982 1006, 228.344 1006 C 229.041 1006, 237.011 1007.179, 246.055 1008.620 C 277.206 1013.583, 285.483 1014.601, 289 1013.899 C 290.925 1013.515, 299.475 1010.198, 308 1006.528 C 316.525 1002.858, 325.300 999.201, 327.500 998.401 C 335.121 995.631, 339.918 993.021, 340.957 991.081 C 341.530 990.009, 342 986.037, 342 982.254 C 342 972.577, 340.895 971.594, 328.336 970.094 C 322.926 969.447, 317.329 968.691, 315.897 968.412 L 313.295 967.906 313.102 956.258 C 312.896 943.860, 311.528 938.888, 307.766 936.875 C 305.696 935.767, 305.261 935.693, 276.500 931.549 C 266.600 930.123, 256.025 928.533, 253 928.017 C 249.975 927.501, 242.325 926.357, 236 925.475 C 229.675 924.593, 223.712 923.645, 222.750 923.368 C 219.294 922.375, 220.978 920.062, 226.250 918.562 C 229.137 917.740, 266.825 906.988, 310 894.669 C 353.175 882.349, 395.250 870.377, 403.500 868.065 C 411.750 865.752, 425.475 861.903, 434 859.512 C 442.525 857.120, 457.150 853.050, 466.500 850.468 C 475.850 847.886, 489.800 844.007, 497.500 841.849 C 511.658 837.881, 521.713 835.109, 539 830.412 C 544.225 828.992, 551.200 826.987, 554.500 825.957 C 557.800 824.927, 565 822.947, 570.500 821.557 C 576 820.168, 583.200 818.203, 586.500 817.192 C 590.316 816.023, 593.592 815.608, 595.500 816.051 C 601.972 817.554, 618.760 819.437, 623.513 819.194 C 626.270 819.052, 636.712 819.851, 646.716 820.968 C 656.721 822.086, 665.619 823, 666.489 823 C 667.743 823, 667.856 823.401, 667.035 824.934 C 665.336 828.109, 665.780 834.491, 667.828 836.345 C 669.156 837.547, 676.109 838.868, 693.235 841.174 L 716.814 844.350 727.657 840.108 C 759.182 827.778, 757 829.286, 757 819.826 C 757 811.216, 755.737 810.082, 744.650 808.738 L 736.222 807.716 735.508 796.294 C 734.556 781.052, 733.896 780.241, 720.939 778.388 C 712.470 777.177, 685.975 773.934, 672.601 772.471 C 658.108 770.886, 659 771.206, 659 767.594 C 659 763.431, 656.705 761.415, 651.167 760.716 C 648.784 760.414, 646.688 760.018, 646.510 759.834 C 646.331 759.650, 646.017 738.002, 645.813 711.728 C 645.482 669.164, 645.608 664.020, 646.971 664.550 C 654.332 667.415, 675.497 668.259, 685.424 666.084 C 688.682 665.370, 696.763 663.008, 703.381 660.835 C 715.339 656.908, 715.440 656.894, 719.457 658.551 C 721.681 659.468, 724.501 660.605, 725.725 661.077 C 728.935 662.314, 752.944 667.605, 766.096 669.974 C 778.638 672.232, 784.564 672.497, 788.562 670.976 C 792.772 669.376, 804.287 657.185, 808.462 649.908 C 812.042 643.668, 812.519 643.247, 817.372 642.028 C 820.193 641.320, 829.850 638.313, 838.834 635.346 C 854.518 630.167, 865.044 628.036, 868.465 629.348 C 869.786 629.855, 869.025 631.536, 864.218 638.733 C 848.960 661.576, 841.494 680.725, 838.938 703.571 C 836.825 722.465, 840.746 740.808, 852.426 766.666 C 855.639 773.777, 856.429 777.545, 860.994 807.500 C 863.760 825.650, 867.905 850.625, 870.205 863 C 873.659 881.584, 874.393 887.675, 874.420 898 C 874.467 915.456, 873.902 917.680, 869.090 918.976 C 860.381 921.321, 857.149 927.132, 856.563 941.500 C 856.310 947.707, 855.384 952.969, 853.577 958.455 C 852.137 962.831, 850.676 968.231, 850.332 970.455 C 849.944 972.967, 848.489 975.864, 846.493 978.098 C 844.674 980.135, 842.966 983.389, 842.557 985.598 C 842.159 987.744, 840.926 992.200, 839.818 995.500 C 834.858 1010.261, 840.737 1018.842, 861 1026.419 C 870.006 1029.787, 876.468 1030.974, 891.170 1031.963 L 903.839 1032.815 912.789 1039.241 C 932.693 1053.533, 955.944 1060.180, 986 1060.171 C 1009.345 1060.163, 1027.225 1056.697, 1046.814 1048.379 C 1064.267 1040.969, 1067.516 1037.476, 1067.467 1026.173 C 1067.406 1011.963, 1064.177 1008.529, 1042 999.089 C 1024.848 991.788, 1012.397 984.882, 1009.178 980.884 C 1007.900 979.298, 1006.242 978, 1005.494 978 C 1004.177 978, 992.893 969.671, 990.150 966.675 C 984.575 960.584, 982.041 958.286, 979.318 956.851 C 977.598 955.944, 975.410 953.559, 974.458 951.552 C 973.436 949.398, 971.145 946.999, 968.870 945.701 C 965.672 943.875, 965.014 942.959, 965.008 940.323 C 965.002 937.949, 964.150 936.432, 961.641 934.323 C 958.450 931.641, 958.251 931.080, 957.662 923.123 C 956.898 912.787, 954.324 908.568, 948.143 907.524 C 944.354 906.884, 944.215 906.714, 942.979 901.183 C 941.218 893.299, 940.513 849.862, 941.914 835.516 C 943.715 817.068, 949.500 792.798, 960.509 757.500 C 967.090 736.398, 969.588 726.160, 970.537 716.407 C 971.227 709.314, 969.892 685.137, 967.912 668.867 C 966.898 660.538, 966.964 659.940, 969.801 651.867 C 973.132 642.387, 976.538 628.270, 977.547 619.758 C 978.295 613.457, 978.366 613.407, 989.258 611.548 C 991.325 611.195, 1001.225 608.189, 1011.258 604.868 C 1026.481 599.829, 1031.020 598.739, 1038.683 598.282 C 1051.759 597.502, 1051.530 597.245, 1047.036 607.686 C 1037.181 630.582, 1032.600 651.073, 1032.656 672 C 1032.710 692.106, 1036.142 704.838, 1045.903 721.146 C 1048.816 726.012, 1049.866 729.022, 1050.390 734 C 1055.609 783.581, 1056.185 804.102, 1053 827 C 1051.900 834.908, 1051 841.686, 1051 842.061 C 1051 842.437, 1049.286 843.018, 1047.192 843.353 C 1040.500 844.423, 1037 849.878, 1037 859.238 C 1037 863.831, 1036.055 868.414, 1033.610 875.674 C 1031.745 881.211, 1029.898 887.712, 1029.504 890.121 C 1029.111 892.529, 1027.875 895.494, 1026.759 896.709 C 1022.898 900.910, 1019.224 917.466, 1020.906 923.081 C 1024.705 935.762, 1056.729 943.727, 1084.500 938.899 C 1102.140 935.832, 1111.381 935.978, 1121 939.475 C 1148.165 949.351, 1155.860 950.993, 1175 950.996 C 1202.662 951, 1233.274 938.715, 1235.527 926.706 C 1236.978 918.976, 1233.932 909.967, 1228.713 906.548 C 1227.403 905.689, 1220.217 903.406, 1212.745 901.473 C 1197.329 897.487, 1188.588 893.967, 1187.073 891.136 C 1186.489 890.044, 1183.663 888.451, 1180.609 887.490 C 1176.634 886.240, 1173.928 884.475, 1170.494 880.892 C 1167.916 878.201, 1165.320 876, 1164.726 876 C 1162.937 876, 1153.133 868.852, 1151.496 866.354 C 1150.657 865.074, 1148.177 863.111, 1145.985 861.993 C 1143.091 860.516, 1142 859.333, 1142 857.671 C 1142 854.767, 1140.076 852.268, 1137.500 851.825 C 1135.782 851.530, 1135.351 850.263, 1134.444 842.827 C 1133.209 832.715, 1132.133 831, 1127.020 831 L 1123.285 831 1122.651 820.250 C 1122.041 809.890, 1122.261 801.803, 1123.530 788 C 1124.168 781.058, 1130.270 752.249, 1132.524 745.537 C 1137.519 730.663, 1145.230 695.036, 1147.574 676 C 1149.552 659.931, 1149.040 627.029, 1146.585 612.471 C 1145.262 604.622, 1145.247 602.829, 1146.473 598.757 C 1147.248 596.181, 1148.604 586.519, 1149.486 577.286 C 1150.369 568.054, 1151.238 560.049, 1151.419 559.497 C 1152.018 557.668, 1149.162 540.893, 1147.089 534.069 C 1145.151 527.688, 1139.027 518, 1136.931 518 C 1136.393 518, 1132.251 514.476, 1127.727 510.169 C 1115.357 498.394, 1107.346 493.476, 1088 485.779 C 1053.104 471.896, 999.595 459.213, 964 456.389 C 957.939 455.908, 954.681 455.140, 952.644 453.714 C 948.180 450.586, 919.238 448.675, 886.928 449.373 C 872.864 449.677, 860.601 450.216, 859.678 450.570 C 858.326 451.089, 858 450.602, 858 448.067 C 858 444.214, 855.880 439.959, 846.257 424.500 C 834.071 404.922, 830.636 400.149, 828 399.135 C 824.706 397.867, 813.342 396.250, 798.431 394.928 L 786.362 393.857 773.836 398.398 C 754.752 405.315, 751.752 406.756, 748.444 410.591 L 745.388 414.133 734.944 411.479 C 721.615 408.091, 716.755 408.154, 699 411.941 C 689.284 414.013, 683.170 414.836, 680.468 414.436 C 676.705 413.878, 672.139 414.680, 651.500 419.525 C 646.743 420.641, 644.775 421.732, 642 424.789 L 638.500 428.646 633.836 426.232 L 629.171 423.818 616.125 425.832 L 603.079 427.845 589.789 423.400 C 582.282 420.889, 572.367 416.648, 567 413.653 C 555.604 407.293, 547.394 403.372, 540.534 401.012 C 537.737 400.049, 532.760 397.537, 529.474 395.428 C 520.706 389.802, 509.532 385.231, 501.296 383.903 C 495.349 382.943, 493.931 382.354, 493.386 380.617 C 490.338 370.900, 480.672 362.800, 466 357.666 C 451.048 352.434, 420.481 352.332, 405.838 357.465 C 399.862 359.560, 396.737 360.027, 389 359.980 C 374.319 359.890, 347.175 364.504, 327.586 370.419 C 323.031 371.795, 322.484 371.768, 320.086 370.059 C 315.763 366.978, 314.307 364.760, 312.529 358.543 C 311.591 355.267, 310.189 351.680, 309.412 350.571 C 307.025 347.163, 307.746 346.153, 315.250 342.387 C 325.646 337.170, 327.636 335.519, 329.541 330.531 C 331.649 325.013, 331.133 322.879, 326.040 316.053 C 322.518 311.333, 322 309.964, 322 305.378 C 322 302.485, 321.550 299.840, 321 299.500 C 320.450 299.160, 320 297.361, 320 295.502 C 320 293.002, 318.971 290.932, 316.050 287.557 L 312.099 282.993 314.609 278.156 C 318.901 269.883, 317.309 267.381, 304.281 261.936 L 296.063 258.500 296.141 252.629 L 296.218 246.759 287.407 237.907 L 278.597 229.055 278.544 220.176 C 278.491 211.224, 277.255 207.581, 274.614 208.595 C 272.953 209.232, 270.434 206.197, 269.556 202.500 C 268.019 196.023, 261.820 190.698, 260.332 194.577 C 259.033 197.963, 255.264 198.141, 250.746 195.029 C 246.650 192.208, 238.229 190.104, 236.791 191.543 M 235.513 196.979 C 233.959 199.493, 236.970 201.750, 242.490 202.208 C 246.865 202.570, 248.676 203.274, 251.022 205.521 C 252.764 207.190, 254 207.817, 254 207.031 C 254 204.895, 249.167 199.138, 245.998 197.499 C 242.727 195.807, 236.430 195.495, 235.513 196.979 M 223.358 197.954 C 219.540 198.864, 214.055 202.160, 211.434 205.119 C 208.674 208.235, 200.956 213, 198.669 213 C 196.987 213, 197.086 212.721, 199.418 210.886 C 200.896 209.723, 201.900 208.567, 201.650 208.316 C 200.552 207.218, 191.893 212.849, 185 219.144 C 178.147 225.403, 175 227.308, 175 225.200 C 175 224.760, 175.515 223.885, 176.144 223.256 C 177.003 222.397, 176.711 222.263, 174.973 222.717 C 172.526 223.357, 164.728 230.750, 161.703 235.299 C 160.715 236.784, 159.112 238, 158.141 238 C 155.149 238, 149.615 246.839, 147.540 254.933 C 146.093 260.577, 144 261.518, 144 256.524 C 144 254.351, 143.597 253.131, 143 253.500 C 142.450 253.840, 142 257.466, 142 261.559 C 142 268.372, 140.750 271.497, 139.724 267.250 C 138.931 263.967, 135.998 272.678, 136.032 278.218 L 136.063 283.500 138.115 280.750 C 140.694 277.294, 143.680 276.862, 141.891 280.204 C 138.767 286.041, 136.964 298.819, 138.846 301.786 C 139.403 302.663, 140.037 301.870, 140.844 299.286 C 142.076 295.341, 144.648 291.315, 145.434 292.101 C 145.685 292.351, 145.454 294.344, 144.922 296.528 C 143.636 301.806, 143.635 317.543, 144.920 319.750 C 145.891 321.417, 145.941 321.417, 145.970 319.750 C 146.029 316.340, 147.735 318.081, 150.378 324.250 C 151.851 327.688, 153.951 331.625, 155.045 333 L 157.033 335.500 156.594 332.812 C 156.106 329.824, 156.855 326, 157.928 326 C 158.309 326, 159.214 328.311, 159.938 331.136 C 160.977 335.190, 162.450 337.456, 166.924 341.886 C 170.042 344.974, 173.336 348.625, 174.244 350 L 175.895 352.500 175.948 349.809 C 176.026 345.797, 177.577 345.579, 179.852 349.261 C 180.965 351.061, 183.084 353.651, 184.562 355.017 C 187.222 357.475, 187.242 357.478, 186.557 355.250 C 185.627 352.224, 188.488 352.174, 190.101 355.188 C 191.943 358.631, 200.127 367, 201.652 367 C 202.409 367, 203.964 368.463, 205.106 370.250 L 207.183 373.500 206.628 368 C 206.323 364.975, 205.759 361.412, 205.376 360.081 C 204.803 358.095, 204.976 357.777, 206.339 358.300 C 207.419 358.714, 208 358.427, 208 357.479 C 208 354.819, 204.186 345.932, 201.574 342.508 C 198.364 338.299, 198.351 337.620, 201.500 338.411 C 202.875 338.756, 204 338.781, 204 338.466 C 204 336.374, 198.394 330.390, 193.916 327.702 C 184.634 322.130, 179.082 312.409, 180.591 304.368 C 181.957 297.086, 190.287 291.026, 196.926 292.484 C 199.515 293.052, 199.784 292.891, 199.306 291.062 C 199.009 289.928, 199.185 289, 199.696 289 C 201.154 289, 209.315 293.066, 211.220 294.743 C 212.759 296.097, 213.312 296.080, 216.470 294.581 C 220.461 292.687, 220.877 291.104, 218.056 288.551 C 216.987 287.583, 215.940 285.826, 215.729 284.646 C 215.357 282.556, 215.320 282.563, 214.338 284.921 C 212.527 289.268, 210.637 282.513, 211.991 276.528 C 212.485 274.344, 212.753 272.420, 212.586 272.253 C 212.420 272.086, 210.425 272.942, 208.154 274.154 C 205.883 275.366, 203.738 276.071, 203.388 275.721 C 202.548 274.881, 207.589 268.940, 210.895 266.873 C 214.178 264.821, 220.531 258.197, 219.860 257.527 C 219.583 257.250, 217.839 258.143, 215.984 259.512 C 210.151 263.815, 207.993 262.523, 212.929 257.682 C 214.509 256.132, 216.031 253.989, 216.311 252.919 C 216.768 251.172, 216.525 251.222, 213.935 253.401 C 210.717 256.109, 204.236 258.579, 203.183 257.498 C 202.807 257.113, 203.562 256.055, 204.861 255.149 C 206.160 254.242, 209.310 251.661, 211.861 249.413 C 218.033 243.975, 219.809 243.389, 220.598 246.533 C 220.938 247.887, 220.954 249.677, 220.634 250.510 C 220.178 251.699, 220.586 251.891, 222.527 251.404 C 226.328 250.450, 225.785 255.159, 221.004 264.605 C 218.807 268.947, 217.007 273.408, 217.004 274.519 C 217.002 275.629, 218.769 280.060, 220.932 284.364 C 223.094 288.669, 224.647 292.711, 224.381 293.346 C 223.813 294.705, 215.469 301, 214.236 301 C 213.770 301, 211.862 299.874, 209.997 298.498 C 208.090 297.091, 206.226 296.374, 205.740 296.860 C 205.265 297.335, 201.866 297.513, 198.188 297.255 C 192.428 296.852, 191.124 297.085, 188.787 298.937 C 182.856 303.637, 184.279 313.368, 191.899 320.219 C 197.629 325.371, 201.763 326.891, 212.217 327.691 L 219.935 328.281 223.105 324.891 L 226.275 321.500 234.601 330.404 C 239.181 335.302, 242.693 339.687, 242.407 340.151 C 241.547 341.542, 236.803 338.467, 231.610 333.152 L 226.720 328.147 223.765 330.324 C 221.272 332.160, 219.653 332.465, 213.405 332.279 C 209.332 332.157, 206 332.279, 206 332.550 C 206 332.821, 207.079 334.721, 208.399 336.771 C 212.047 342.441, 213.749 347.919, 212.167 348.897 C 211.151 349.524, 211.133 350.643, 212.077 354.391 C 212.760 357.102, 213.035 362.149, 212.726 366.298 C 212.211 373.221, 212.338 373.771, 216.022 380.500 C 218.129 384.350, 220.390 389.637, 221.046 392.250 C 221.701 394.863, 222.424 397, 222.652 397 C 222.880 397, 225.189 395.938, 227.783 394.639 C 237.895 389.578, 254.883 385.379, 261.684 386.260 C 264.288 386.598, 270.580 385.404, 281.500 382.500 C 290.300 380.160, 299.188 377.944, 301.250 377.577 C 306.166 376.702, 305.981 375.875, 300.250 373.092 C 294.302 370.204, 276.189 359.114, 275.439 357.902 C 273.770 355.201, 277.020 356.708, 302.301 370.352 C 310.430 374.740, 315 375.713, 315 373.055 C 315 371.666, 312.140 369.795, 311.048 370.470 C 309.760 371.266, 308.433 368.161, 307.013 361.023 C 306.414 358.010, 304.797 353.623, 303.420 351.273 L 300.916 347 292.208 346.911 C 256.448 346.548, 247.374 345.660, 246.311 342.419 C 246.137 341.888, 253.289 341.440, 263.255 341.359 C 280.478 341.218, 306.366 338.469, 315.095 335.854 C 325.336 332.785, 327.496 326.270, 321.269 317.230 C 317.797 312.188, 317.313 311.850, 314.269 312.344 C 311.042 312.867, 309.894 311.801, 312.171 310.394 C 312.938 309.921, 312.538 309.373, 311.015 308.810 C 308.758 307.975, 308.745 307.906, 310.594 306.506 C 311.642 305.713, 313.738 305.049, 315.250 305.032 C 318.276 304.997, 318.765 303.429, 316.652 300.539 C 314.711 297.885, 308.975 298.940, 301.154 303.389 C 297.664 305.375, 294.370 307, 293.834 307 C 291.964 307, 293.490 302.522, 295.491 302.141 C 296.586 301.932, 299.884 299.564, 302.821 296.880 C 306.657 293.375, 308.983 292, 311.079 292 L 313.997 292 310.433 287.040 L 306.869 282.079 309.435 277.702 C 313.428 270.887, 313.308 270.722, 299.541 264.136 C 285.651 257.492, 284.618 256.243, 287.434 249.503 C 288.715 246.438, 288.776 245.422, 287.757 244.137 C 284.430 239.942, 268.270 225.213, 264.566 223 L 260.382 220.500 262.675 216.500 C 265.091 212.284, 265.779 204.753, 264 202 C 263.354 201, 263.026 200.917, 263.015 201.750 C 263.007 202.438, 262.078 203.922, 260.952 205.048 C 259.679 206.321, 258.446 209.632, 257.694 213.798 L 256.483 220.500 249.992 221.290 C 239.020 222.624, 232.710 224.310, 231.066 226.347 C 225.916 232.724, 223.402 235.258, 220.985 236.508 C 219.282 237.388, 218.045 239.026, 217.671 240.894 C 216.941 244.545, 206.876 251.789, 200 253.612 C 197.525 254.268, 193.363 255.732, 190.750 256.867 C 188.137 258.001, 186 258.542, 186 258.068 C 186 256.202, 193.207 251.025, 197.237 249.995 C 204.089 248.245, 206.599 247.028, 209.411 244.093 L 212.057 241.331 206.278 242.574 C 203.100 243.257, 197.881 244.290, 194.679 244.870 C 191.478 245.450, 187.540 246.582, 185.929 247.385 C 184.318 248.189, 183 248.501, 183 248.078 C 183 246.434, 187.232 243.614, 192.246 241.917 L 197.496 240.139 194.610 239.042 C 190.247 237.383, 192.316 236.534, 199.960 236.846 C 212.133 237.343, 220.839 233.477, 226.050 225.260 C 229.723 219.469, 229.773 218.339, 226.250 220.731 C 220.038 224.948, 206.204 227.757, 204.581 225.132 C 204.149 224.432, 204.654 224, 205.903 224 C 209.567 224, 219.100 219.851, 222.701 216.690 C 227.246 212.699, 230.733 207.144, 231.870 202.082 L 232.770 198.077 229.009 199.995 C 224.780 202.153, 223.156 201.590, 225.653 198.831 C 226.564 197.824, 227.128 197.046, 226.905 197.102 C 226.682 197.159, 225.086 197.542, 223.358 197.954 M 235.161 208.547 C 233.567 212.044, 233.629 212.175, 236.750 211.969 C 244.049 211.488, 245.956 212.023, 249.467 215.533 C 252.583 218.649, 253 218.821, 253 216.984 C 253 210.953, 247.233 206, 240.210 206 C 237.013 206, 236.115 206.453, 235.161 208.547 M 269 213.878 C 269 214.910, 268.325 216.315, 267.500 217 C 265.489 218.669, 265.605 220, 267.759 220 C 270.056 220, 272.263 216.404, 271.480 213.937 C 270.694 211.460, 269 211.419, 269 213.878 M 234.524 217.619 C 232.382 219.761, 233.100 220.292, 236.426 219.028 C 237.913 218.463, 240.477 218, 242.124 218 C 243.865 218, 244.859 217.582, 244.500 217 C 243.502 215.385, 236.311 215.832, 234.524 217.619 M 183.230 224.980 C 178.218 226.169, 172.409 230.698, 168.622 236.370 C 163.963 243.345, 165.181 244.272, 170.855 238.069 C 175.511 232.978, 187.201 226, 191.073 226 C 192.133 226, 193 225.550, 193 225 C 193 223.853, 188.027 223.843, 183.230 224.980 M 267.219 246.039 C 256.266 247.594, 255.121 248.034, 250.940 252.288 C 246.869 256.430, 242.395 263.728, 243.345 264.678 C 243.611 264.944, 246.337 263.120, 249.402 260.623 C 257.283 254.204, 258.342 253.786, 268.158 253.227 C 277.635 252.686, 280.781 251.035, 279.574 247.233 C 278.893 245.087, 275.938 244.802, 267.219 246.039 M 168.139 249.147 C 160.296 251.405, 153.142 258.308, 151.452 265.250 C 150.506 269.139, 152.189 268.662, 154.490 264.389 C 157.547 258.712, 165.726 252.819, 173.750 250.512 C 174.988 250.156, 176 249.446, 176 248.933 C 176 247.776, 172.579 247.870, 168.139 249.147 M 265.485 258.100 C 259.739 261.128, 255 265.966, 255 268.803 C 255 270.591, 255.409 271.057, 256.582 270.607 C 257.452 270.273, 258.802 270, 259.582 270 C 260.362 270, 261 269.433, 261 268.741 C 261 268.048, 261.887 266.927, 262.970 266.251 C 264.645 265.205, 265.101 265.320, 266.009 267.017 C 266.857 268.602, 267.998 268.978, 271.547 268.844 C 275.972 268.677, 276.002 268.652, 274.509 266.373 C 272.554 263.390, 272.605 263, 274.941 263 C 278.106 263, 278.296 261.179, 275.410 258.504 C 272.120 255.455, 270.620 255.394, 265.485 258.100 M 301.250 276.989 C 298.316 278.778, 297.528 280.009, 297.882 282.250 C 298.043 283.271, 297.228 283.192, 294.934 281.965 C 293.870 281.395, 293 280.045, 293 278.965 C 293 276.600, 291.457 276.366, 290.600 278.600 C 289.686 280.981, 292.210 285.456, 294.666 285.807 C 295.971 285.994, 297.943 285.013, 299.691 283.307 C 301.274 281.763, 303.850 279.663, 305.416 278.641 C 307.638 277.190, 307.960 276.589, 306.882 275.906 C 305.011 274.721, 304.951 274.732, 301.250 276.989 M 190.077 301.589 C 187.126 304.072, 185.745 309, 188 309 C 188.550 309, 189 308.357, 189 307.571 C 189 305.489, 191.825 303, 194.188 303 C 195.741 303, 196.107 303.481, 195.710 305 C 195.137 307.192, 196.890 307.710, 198.713 305.887 C 201.033 303.567, 201.999 306.082, 199.886 308.940 C 197.424 312.270, 197.999 317.394, 201.016 319.008 C 203.492 320.333, 208.715 320.271, 209.558 318.906 C 209.930 318.304, 211.391 318.033, 212.804 318.303 C 218.331 319.359, 219.874 316.219, 215.250 313.326 C 213.738 312.379, 212.354 311.510, 212.175 311.394 C 211.996 311.278, 211.730 310.355, 211.584 309.342 C 211.438 308.329, 210.346 307.356, 209.157 307.180 C 207.968 307.004, 206.561 306.048, 206.030 305.055 C 205.030 303.188, 197.116 299, 194.588 299 C 193.799 299, 191.769 300.165, 190.077 301.589 M 202.960 310.548 C 201.243 312.617, 202.197 316.461, 204.500 316.756 C 207.676 317.162, 209.196 315.629, 208.473 312.750 C 207.737 309.815, 204.606 308.565, 202.960 310.548 M 240 356.531 C 240 359.023, 270.837 380.554, 273.253 379.749 C 274.621 379.293, 264.009 370.998, 251.405 362.670 C 241.744 356.287, 240 355.348, 240 356.531 M 420 359.526 C 419.175 359.688, 415.238 360.351, 411.250 361.001 C 407.262 361.650, 404 362.498, 404 362.884 C 404 363.271, 406.423 364.095, 409.384 364.717 C 421.881 367.338, 436.648 375.737, 440.100 382.188 C 441.868 385.491, 440.446 385.317, 435.266 381.596 C 428.909 377.029, 418.496 372.625, 406.248 369.324 C 387.389 364.242, 365.205 366.380, 326 377.058 C 313.839 380.370, 291.818 385.740, 287.500 386.446 C 285.300 386.806, 281.961 387.588, 280.081 388.183 L 276.662 389.267 279.331 390.665 C 280.799 391.435, 282 392.252, 282 392.482 C 282 392.712, 275.813 392.849, 268.250 392.785 C 251.288 392.643, 241.718 394.517, 230.239 400.228 C 211.921 409.343, 197.290 426.277, 192.373 444.057 C 189.882 453.065, 189.922 474.134, 192.447 482.500 C 199.619 506.264, 212.084 515.581, 239.352 517.555 C 250.091 518.333, 249.551 519.529, 237.688 521.240 L 228.958 522.500 234.935 531.740 C 250.330 555.535, 269.885 570.018, 295.367 576.496 C 300.390 577.774, 308.716 580.006, 313.868 581.458 C 319.021 582.909, 323.443 583.890, 323.696 583.637 C 323.949 583.385, 322.482 581.326, 320.437 579.062 C 318.393 576.799, 316.984 574.683, 317.307 574.360 C 319.133 572.533, 329.419 582.115, 339.246 594.796 C 346.441 604.081, 353.971 605.333, 365.766 599.208 C 368.920 597.571, 376.450 594.565, 382.500 592.530 C 388.550 590.495, 399.247 585.877, 406.272 582.270 C 413.297 578.662, 419.285 575.951, 419.579 576.245 C 421.325 577.992, 395.376 593.815, 385.516 597.016 C 379.965 598.818, 382.945 599.838, 394.026 599.930 C 412.483 600.082, 441.027 594.087, 453.944 587.346 C 455.350 586.612, 456.883 586.010, 457.351 586.006 C 458.727 585.996, 477.754 576.181, 484.391 572.057 C 494.359 565.863, 536.509 539.979, 550.138 531.682 C 558.988 526.294, 562.735 523.466, 562.638 522.244 C 562.535 520.948, 563.142 520.572, 565 520.781 C 579.048 522.359, 578.784 522.381, 585.557 519.047 C 590.318 516.702, 593.382 514.252, 597.030 509.869 C 602.994 502.702, 605.769 497.756, 604.132 497.211 C 603.509 497.003, 603 495.962, 603 494.898 C 603 493.296, 603.474 493.074, 605.750 493.609 C 610.168 494.649, 610.515 494.588, 610.223 492.825 C 609.702 489.664, 612.205 489.687, 614.693 492.867 C 616.240 494.844, 618.041 496, 619.572 496 C 623.047 496, 622.609 498.592, 618.916 499.880 C 616.138 500.848, 615.897 501.256, 616.495 503.977 C 617.262 507.468, 616.094 507.867, 613.500 505 C 611.276 502.542, 610.111 502.485, 608.392 504.750 C 605.867 508.076, 606.720 509, 612.313 509 C 616.817 509, 618.019 508.581, 620.205 506.250 C 622.954 503.320, 628 493.938, 628 491.758 C 628 491.039, 624.683 487.155, 620.629 483.128 C 613.369 475.917, 613.180 475.807, 608.129 475.846 C 602.610 475.889, 602.023 475.462, 604.750 473.392 C 608.532 470.521, 614.573 472.188, 622.250 478.221 L 626 481.168 626 477.534 C 626 473.123, 624.195 469.466, 620.089 465.563 C 616.855 462.488, 615.979 459, 618.441 459 C 619.234 459, 620.160 459.450, 620.500 460 C 622.010 462.443, 624 460.913, 624 457.310 C 624 454.119, 623.256 452.933, 618.500 448.542 C 613.039 443.500, 610.806 438.756, 614.934 440.965 C 617.769 442.482, 620.075 442.243, 624.261 440 C 628.790 437.573, 628.771 437.574, 629.190 439.750 C 629.441 441.051, 630.146 440.499, 631.938 437.600 L 634.348 433.700 632.063 431.850 C 630.807 430.833, 629.041 430.001, 628.139 430.003 C 624.444 430.009, 602.914 433.975, 600.993 435.004 C 594.854 438.289, 574.088 461.037, 565.394 474 C 558.287 484.598, 555.283 488.191, 551.420 490.715 C 548.714 492.483, 544.485 495.408, 542.023 497.215 C 537.136 500.801, 534.783 502.010, 536.750 499.925 C 538.556 498.011, 538.285 496.676, 536.250 497.462 C 535.288 497.834, 525.725 500.405, 515 503.176 C 475.711 513.326, 459.359 515.328, 435.248 512.936 C 404.831 509.920, 386.206 511.632, 362.139 519.656 C 347.319 524.597, 347.210 522.905, 361.850 515.177 L 369.201 511.298 365.080 509.649 C 362.814 508.742, 360.320 508, 359.539 508 C 358.757 508, 357.809 507.500, 357.431 506.888 C 356.942 506.097, 359.047 505.881, 364.730 506.139 L 372.715 506.502 370.824 502.088 C 367.119 493.445, 357.176 482.279, 347 475.333 C 336.836 468.396, 318.375 460.662, 306.791 458.489 C 303.163 457.808, 303.119 457.841, 301.816 462.151 C 301.093 464.543, 300.568 470.212, 300.649 474.750 C 300.730 479.288, 300.629 483, 300.424 483 C 300.219 483, 299.347 481.637, 298.485 479.972 C 296.233 475.617, 295.528 465.223, 296.906 456.685 C 300 437.505, 287.848 417.195, 269.166 410.321 C 262.186 407.752, 261.797 407.471, 264.819 407.181 C 269.691 406.714, 279.506 410.386, 285.520 414.927 C 293.754 421.144, 303.545 437.882, 304.115 446.718 C 304.332 450.085, 305.885 440.497, 306.013 435 C 306.083 431.975, 306.511 428.600, 306.963 427.500 L 307.785 425.500 308.643 427.500 C 309.657 429.867, 309.670 445.302, 308.660 449.261 C 307.849 452.443, 308.060 452.571, 320 456.081 C 347.359 464.125, 372.023 484.556, 379.188 505.111 C 380.110 507.753, 380.595 508.067, 382.875 507.490 C 394.544 504.535, 409.742 504.277, 433.736 506.627 C 457.697 508.973, 475.197 506.966, 513.500 497.479 C 521.200 495.571, 530.875 492.932, 535 491.614 C 550.396 486.693, 549.562 487.357, 559.962 471.723 C 567.540 460.332, 571.988 454.947, 582.303 444.675 C 589.387 437.621, 595.029 431.747, 594.841 431.621 C 593.458 430.696, 585.287 427.716, 579.331 425.963 C 575.388 424.803, 570.213 422.621, 567.831 421.113 C 561.271 416.962, 544.151 408.537, 538.395 406.628 C 535.587 405.697, 531.312 403.686, 528.895 402.158 C 512.335 391.691, 503.321 389, 484.816 389 C 472.959 389, 471.164 388.066, 479.250 386.104 C 488.939 383.752, 488.236 384.383, 486.017 380.033 C 484.777 377.602, 482.673 375.514, 480.287 374.346 C 478.213 373.331, 475.976 371.398, 475.317 370.052 C 473.051 365.424, 462.223 361.846, 445 360.034 C 436.161 359.104, 423.469 358.846, 420 359.526 M 422.807 400.671 C 415.840 409.934, 403.623 422.572, 396 428.403 C 386.959 435.318, 358.884 446.886, 344.739 449.525 C 339.576 450.488, 339.021 452, 343.831 452 C 354.547 452, 374.392 446.453, 387.853 439.694 C 402.981 432.099, 416.887 418.275, 425.836 401.935 C 431.924 390.820, 430.625 390.278, 422.807 400.671 M 460.500 393.642 C 454.357 395.031, 438.962 404.296, 440.403 405.736 C 440.710 406.043, 443.782 404.920, 447.230 403.241 C 456.816 398.574, 462.727 396.866, 466.858 397.572 C 478.088 399.489, 491.730 404.451, 499.212 409.339 L 503.923 412.418 498.537 414.609 C 491.851 417.329, 484.669 422.212, 479.752 427.382 C 473.882 433.552, 475.259 433.408, 485.103 426.824 C 493.937 420.915, 505.051 416.064, 509.856 416.021 C 516.328 415.963, 534.131 422.718, 542.326 428.341 C 551.736 434.798, 552.114 435.217, 550.330 437.187 C 547.908 439.864, 548.908 440.095, 555.487 438.377 C 559.681 437.282, 563.358 437.034, 568.194 437.520 C 575.716 438.275, 576.515 437.835, 571.929 435.463 C 568.036 433.450, 569.415 431.277, 575.169 430.357 C 577.410 429.999, 578.909 429.256, 578.682 428.616 C 578.067 426.878, 572.019 427.610, 569.088 429.777 C 567.636 430.850, 564.884 431.968, 562.974 432.260 C 561.063 432.552, 558.600 433.084, 557.500 433.442 C 556.002 433.930, 553.879 432.719, 549.042 428.620 C 538.915 420.037, 520.695 412, 511.362 412 C 509.159 412, 506.763 410.792, 503.359 407.967 C 493.670 399.925, 469.071 391.703, 460.500 393.642 M 395.737 402.102 C 396.598 405.394, 389.873 407.927, 388.708 404.750 C 388.364 403.810, 387.948 403.783, 387.032 404.643 C 386.112 405.506, 386.090 406.300, 386.943 407.893 C 388.589 410.970, 393.245 410.646, 397.119 407.185 C 399.878 404.720, 400.124 404.100, 399.099 402.185 C 397.565 399.319, 394.993 399.255, 395.737 402.102 M 778.186 403.449 C 774.713 404.739, 771.675 405.991, 771.435 406.232 C 771.194 406.472, 778.986 407.169, 788.749 407.780 C 805.792 408.846, 806.732 408.806, 812.333 406.781 C 819.786 404.086, 818.635 403.487, 803.328 402.102 C 787.113 400.634, 785.539 400.718, 778.186 403.449 M 529.500 405.754 C 525.940 406.391, 522 408.217, 522 409.230 C 522 409.773, 523.013 409.965, 524.250 409.656 C 525.487 409.348, 528.413 408.792, 530.750 408.420 C 533.087 408.048, 535 407.404, 535 406.989 C 535 405.984, 531.991 405.309, 529.500 405.754 M 817.500 409.042 C 813.650 410.613, 810.628 412.418, 810.784 413.052 C 810.940 413.686, 813.666 418.546, 816.841 423.852 C 820.016 429.159, 825.016 437.678, 827.952 442.785 C 830.887 447.892, 833.562 451.942, 833.895 451.785 C 834.228 451.628, 838.143 449.978, 842.595 448.117 L 850.690 444.733 848.889 441.117 C 844.881 433.068, 827.396 406.515, 825.998 406.356 C 825.174 406.262, 821.350 407.471, 817.500 409.042 M 755.895 411.642 C 753.115 412.420, 751.496 416.598, 752.836 419.539 C 753.476 420.944, 754 423.108, 754 424.347 C 754 425.586, 754.459 427.059, 755.021 427.621 C 756.632 429.232, 760 439.180, 760 442.328 C 760 443.899, 760.908 446.339, 762.018 447.750 C 763.128 449.161, 764.735 452.719, 765.589 455.658 C 767.401 461.893, 766.885 461.775, 782.500 459.512 C 796.170 457.532, 813.207 457.538, 817.050 459.526 C 821.847 462.006, 820.937 459.559, 809.533 439.299 C 803.775 429.072, 799.302 420.320, 799.592 419.852 C 800.830 417.848, 802.724 419.423, 806.101 425.267 C 808.082 428.695, 812.446 436.225, 815.798 442 C 819.150 447.775, 822.190 453.288, 822.553 454.250 C 823.339 456.331, 824.961 456.480, 827.399 454.697 C 829.077 453.471, 829 453.088, 826.090 448.153 C 824.391 445.271, 823 442.788, 823 442.636 C 823 442.484, 819.410 436.364, 815.022 429.037 C 810.634 421.710, 806.815 414.991, 806.534 414.107 C 806.151 412.899, 804.718 412.500, 800.762 412.500 C 797.868 412.500, 786.950 412.206, 776.500 411.846 C 766.050 411.487, 756.778 411.395, 755.895 411.642 M 707.120 416.543 C 699.083 418.287, 698.801 418.613, 704.149 419.983 C 706.542 420.596, 713.004 422.410, 718.509 424.015 C 728.173 426.831, 728.673 426.878, 733.009 425.370 C 735.892 424.367, 739.201 424.004, 742.250 424.357 C 744.862 424.659, 747 424.563, 747 424.144 C 747 421.778, 743.351 419.980, 733.780 417.631 C 721.887 414.712, 716.562 414.495, 707.120 416.543 M 667.500 422 C 661.772 423.497, 661.136 423.845, 664 423.916 C 665.925 423.964, 675.150 425.413, 684.500 427.136 C 702.949 430.536, 717.227 431.895, 715.456 430.081 C 714.315 428.913, 679.182 419.947, 676.286 420.085 C 675.304 420.132, 671.350 420.994, 667.500 422 M 643.904 431.097 C 641.482 433.980, 638.825 437.341, 638 438.565 C 637.175 439.790, 634.968 442.933, 633.096 445.550 C 631.223 448.168, 629.569 451.421, 629.420 452.780 C 629.097 455.722, 628.787 456.050, 638.096 443.588 C 642.168 438.136, 646.050 433.005, 646.722 432.185 C 648.842 429.599, 668.743 431.422, 690.689 436.213 L 699.878 438.218 702.546 449.359 C 704.013 455.487, 706.500 466.742, 708.072 474.371 C 710.892 488.056, 710.906 488.290, 709.108 491.871 C 707.024 496.024, 699.753 508.991, 695.134 516.794 C 693.410 519.706, 692 522.325, 692 522.614 C 692 522.903, 690.604 525.169, 688.897 527.650 L 685.794 532.159 680.647 531.549 C 665.510 529.752, 657.460 528.604, 647.724 526.853 C 637.528 525.019, 635 525.035, 635 526.937 C 635 528.899, 679.156 536.515, 686.384 535.800 C 689.185 535.524, 690.157 534.208, 698.799 519 C 703.956 509.925, 709.936 499.401, 712.089 495.614 C 715.660 489.334, 715.916 488.402, 715.006 485.023 C 714.458 482.985, 713.566 479.109, 713.025 476.409 C 712.484 473.709, 710.468 463.862, 708.544 454.527 C 705.168 438.150, 705.065 433.665, 708.137 436.737 C 709.107 437.707, 713.802 458.383, 718.149 480.826 L 719.374 487.153 725.437 486.535 C 738.391 485.215, 739.038 485.023, 738.512 482.663 C 734.623 465.236, 732.513 456.567, 729.772 446.757 L 726.490 435.013 712.495 434.669 C 704.798 434.479, 697.291 433.823, 695.813 433.211 C 693.552 432.274, 673.237 429.065, 653.404 426.511 L 648.308 425.855 643.904 431.097 M 731.990 429.750 C 731.985 430.163, 732.995 433.786, 734.236 437.802 C 736.198 444.153, 736.753 445.034, 738.496 444.566 C 739.598 444.270, 743.495 444.021, 747.156 444.014 C 754.659 443.998, 754.396 444.570, 751.367 434.875 C 750.055 430.676, 749.579 430.192, 746.211 429.636 C 741.018 428.777, 732.002 428.850, 731.990 429.750 M 641.338 445.250 C 636.930 451.438, 632.131 458.554, 630.675 461.065 L 628.027 465.630 630.052 469.565 C 631.573 472.520, 632.011 475.050, 631.813 479.724 C 631.646 483.635, 632.004 486.404, 632.774 487.174 C 634.571 488.971, 634.234 493.888, 631.971 498.875 L 629.985 503.251 633.648 511.875 C 635.662 516.619, 637.416 520.639, 637.546 520.808 C 637.935 521.314, 657.163 524.330, 680.222 527.503 C 684.572 528.101, 682.865 530.344, 696.742 505.795 L 706.750 488.091 704.939 479.795 C 703.943 475.233, 701.701 464.698, 699.956 456.385 L 696.785 441.270 691.568 440.103 C 687.523 439.197, 652.662 434.103, 649.927 434.018 C 649.611 434.008, 645.746 439.063, 641.338 445.250 M 463.435 444.493 C 462.695 448.440, 463.544 453, 465.019 453 C 465.559 453, 466 450.300, 466 447 C 466 440.435, 464.476 438.946, 463.435 444.493 M 531 445.886 C 521.813 448.856, 517.138 451.805, 508.637 459.994 C 499.437 468.855, 498.828 471.613, 507.664 464.397 C 515.503 457.996, 527.326 450.479, 533.750 447.812 C 536.638 446.613, 539 445.265, 539 444.816 C 539 443.638, 537.213 443.877, 531 445.886 M 596.018 449.225 C 593.873 451.549, 592.303 453.637, 592.531 453.865 C 593.198 454.532, 599.875 449.101, 601.022 446.959 C 602.873 443.501, 600.177 444.722, 596.018 449.225 M 738.402 451.250 C 738.751 452.488, 739.516 455.637, 740.101 458.250 L 741.166 463 750.583 463 C 760.881 463, 760.864 463.013, 758.918 456.899 C 756.355 448.853, 756.583 449, 746.714 449 C 737.914 449, 737.777 449.037, 738.402 451.250 M 844.887 451.546 C 842.900 452.268, 839.638 453.542, 837.637 454.378 L 834 455.898 834 465.878 L 834 475.858 839.750 477.013 C 842.913 477.648, 846.513 478.403, 847.750 478.692 C 849.809 479.172, 850.009 478.846, 850.106 474.858 C 850.164 472.461, 850.502 465.887, 850.856 460.249 C 851.571 448.862, 851.712 449.066, 844.887 451.546 M 410 457.250 C 403.159 466.606, 398.264 471.402, 386.083 480.683 C 385.854 480.857, 385.917 481.251, 386.223 481.557 C 387.342 482.676, 396.301 477.577, 401.332 472.958 C 405.952 468.717, 411.767 460.532, 413.558 455.750 C 414.632 452.884, 412.551 453.761, 410 457.250 M 605.411 456.697 C 603.268 457.107, 594.257 465.590, 595.085 466.418 C 595.338 466.671, 597.910 465.293, 600.800 463.356 C 605.391 460.278, 606.557 459.918, 610.028 460.505 C 612.378 460.902, 614 460.782, 614 460.210 C 614 457.945, 609.183 455.975, 605.411 456.697 M 863.837 456.736 L 858.175 457.095 857.621 461.797 C 857.317 464.384, 856.793 469.658, 856.456 473.517 L 855.844 480.534 869.944 485.305 C 877.699 487.929, 889.438 492.487, 896.030 495.433 L 908.015 500.789 908.595 498.145 C 911.573 484.562, 917.660 470.951, 924.524 462.524 C 926.986 459.501, 929 456.797, 929 456.514 C 929 455.958, 873.134 456.148, 863.837 456.736 M 930.430 459.823 C 922.498 469.381, 917.028 479.696, 913.037 492.617 C 910.411 501.118, 910.452 501.665, 913.852 503.424 L 916.705 504.899 918.895 496.699 C 922.609 482.790, 932.755 463.386, 938.369 459.454 C 940.730 457.800, 940.510 457.479, 936.490 456.717 C 933.914 456.228, 933.042 456.675, 930.430 459.823 M 440.130 465.593 C 434.357 474.263, 429.424 486.252, 427.520 496.240 C 425.943 504.516, 427.452 504.959, 429.968 496.958 C 431.833 491.027, 439.092 473.623, 442.046 468 C 448.602 455.520, 447.642 454.314, 440.130 465.593 M 826.250 458.824 C 825.424 459.349, 825.037 462.025, 825.109 466.721 C 825.200 472.673, 825.509 473.900, 827.022 474.296 C 829.291 474.889, 829.968 472.593, 829.986 464.250 C 830 457.984, 829.262 456.912, 826.250 458.824 M 941.885 465.125 C 934.858 472.737, 928.495 485.820, 924.961 499.926 C 922.820 508.472, 922.781 508.342, 928.318 511.148 C 938.446 516.279, 951.173 526.154, 963.595 538.520 C 974.866 549.739, 976.996 552.373, 978.886 557.424 C 983.093 568.669, 983.819 591.981, 980.361 604.802 C 979.641 607.469, 979.483 607.486, 994.500 603.346 C 1011.102 598.768, 1020.617 595.510, 1018 595.297 C 1016.625 595.185, 1010.212 594.803, 1003.750 594.448 C 997.288 594.093, 992 593.451, 992 593.021 C 992 591.388, 1015.183 589.740, 1028.847 590.402 C 1046.808 591.271, 1056.471 592.781, 1062.125 595.601 C 1068.281 598.670, 1070.130 603.140, 1064.332 600.936 C 1058.563 598.743, 1057.124 599.541, 1053.856 606.750 C 1033.948 650.656, 1034.252 699.302, 1054.580 722.500 C 1061.021 729.850, 1069.043 744.290, 1067.528 745.806 C 1067.155 746.178, 1066.469 745.803, 1066.004 744.971 C 1064.700 742.641, 1056.793 732.871, 1056.481 733.205 C 1056.329 733.367, 1057.310 744.075, 1058.660 757 C 1062.288 791.718, 1062.179 809.279, 1058.177 834.636 C 1054.112 860.397, 1054.116 861.316, 1058.310 865.510 C 1065.859 873.059, 1074.601 872.212, 1089.568 862.481 C 1094.998 858.951, 1100.646 855.797, 1102.120 855.474 C 1104.253 855.005, 1104.938 854.133, 1105.483 851.193 C 1106.379 846.362, 1109.245 841.808, 1113.932 837.767 L 1117.722 834.500 1116.764 827 C 1115.445 816.677, 1116.597 789.782, 1118.926 776.500 C 1120.943 764.998, 1123.226 755.500, 1129.985 730.500 C 1139.596 694.947, 1143.682 665.382, 1142.563 639.500 C 1142.182 630.700, 1141.529 621.250, 1141.111 618.500 C 1140.267 612.946, 1140.437 612.781, 1136.461 623 C 1134.468 628.122, 1131.990 631.446, 1132.015 628.964 C 1132.039 626.526, 1134.907 615.113, 1138.031 605.024 C 1140.631 596.623, 1143.275 583.062, 1142.484 582.182 C 1142.327 582.008, 1140.957 584.145, 1139.440 586.932 C 1134.411 596.172, 1133.934 592.687, 1138.607 580.840 C 1143.945 567.304, 1145.099 560.849, 1143.974 550.817 C 1142.243 535.384, 1138.722 526.925, 1131.933 521.892 C 1130.158 520.577, 1126.820 517.655, 1124.514 515.401 C 1113.351 504.483, 1103.642 498.518, 1085.515 491.438 C 1049.243 477.270, 999.825 466.177, 952.152 461.501 L 945.805 460.879 941.885 465.125 M 780 467.123 C 772.025 468.163, 760.550 469.349, 754.500 469.757 C 743.528 470.498, 743.501 470.506, 743.781 473 C 744.622 480.478, 743.644 480.027, 757.514 479.324 C 764.381 478.976, 770 478.896, 770 479.146 C 770 479.396, 767.591 482.087, 764.648 485.127 C 736.322 514.371, 726.297 561.305, 738.616 607 C 745.877 633.932, 761.075 664, 767.428 664 C 768.753 664, 770.651 664.312, 771.646 664.694 C 772.927 665.186, 772.401 663.943, 769.849 660.444 C 767.865 657.725, 764.183 651.675, 761.667 647 C 723.024 575.216, 738.745 497.883, 798 468.281 L 804.500 465.034 799.500 465.132 C 796.750 465.186, 787.975 466.082, 780 467.123 M 786.745 482.965 C 768.742 495.006, 755.621 516.289, 749.736 543 C 746.951 555.637, 746.758 581.533, 749.359 593.500 C 753.209 611.210, 755.465 618.521, 760.700 630.239 C 763.783 637.143, 765.142 637.691, 781.500 638.632 C 799.017 639.640, 814.695 636.780, 842.336 627.532 C 848.188 625.574, 855.794 623.668, 859.238 623.297 L 865.500 622.623 859.500 621.355 C 856.200 620.658, 848.550 620.039, 842.500 619.980 C 830.436 619.863, 830.679 619.004, 843.354 616.959 C 852.483 615.486, 865.085 616.821, 872.645 620.062 C 875.268 621.187, 878.147 621.771, 879.286 621.409 C 882.638 620.345, 880.705 626.245, 875.208 633.855 C 855.018 661.804, 846.501 683.218, 845.321 709 C 844.436 728.356, 848.421 743.841, 860.506 768 C 863.394 773.775, 866.541 780.750, 867.498 783.500 C 871.526 795.078, 871.225 799.021, 867.001 790.003 C 865.714 787.255, 864.471 785.195, 864.240 785.427 C 863.569 786.098, 873.534 847.867, 878.449 873.500 C 881.403 888.910, 881.693 902.072, 879.396 916.500 C 876.314 935.854, 875.950 943.194, 877.935 946 C 882.224 952.060, 889.008 951.155, 899.748 943.088 C 904.012 939.885, 909.413 936.297, 911.750 935.112 C 914.636 933.650, 916 932.311, 916 930.940 C 916 925.229, 924.852 914.989, 933.363 910.854 C 937.557 908.817, 937.722 908.574, 936.923 905.609 C 933.235 891.917, 933.244 842.899, 936.940 816.500 C 937.479 812.650, 938.386 805.450, 938.956 800.500 C 943.160 763.990, 949 717.121, 949.587 715.187 C 949.807 714.464, 950.338 714.091, 950.769 714.357 C 951.984 715.108, 949.282 751.719, 946.411 773.400 C 944.837 785.287, 945.032 787.740, 946.957 780.279 C 947.635 777.650, 950.235 768.975, 952.735 761 C 962.257 730.619, 963.077 726.811, 963.701 710.135 C 964.067 700.333, 963.802 690.403, 962.968 682.709 L 961.662 670.648 958.398 679.574 C 956.603 684.483, 954.827 690.418, 954.452 692.762 C 953.496 698.733, 951.996 699.071, 952.022 693.309 C 952.055 685.788, 955.459 672.186, 961.440 655.663 C 966.553 641.540, 970.024 629.155, 969.982 625.188 C 969.972 624.260, 967.932 626.987, 965.448 631.250 C 962.964 635.513, 960.467 639, 959.899 639 C 958.450 639, 959.460 636.156, 965.223 624 C 974.939 603.506, 975.399 601.661, 975.453 583 C 975.506 564.481, 974.399 559.367, 968.895 552.689 C 963.619 546.289, 951.609 542.096, 942.231 543.382 C 939.121 543.808, 937.952 543.645, 938.226 542.823 C 938.846 540.963, 946.129 538.855, 950.750 539.198 C 953.087 539.372, 955 539.227, 955 538.876 C 955 535.742, 931.777 519.819, 915 511.450 C 874.117 491.057, 840.798 481.227, 803.425 478.532 L 794.351 477.877 786.745 482.965 M 762.979 480.310 C 762.716 480.549, 758.900 481.011, 754.500 481.335 C 750.100 481.660, 746.388 481.943, 746.250 481.963 C 746.112 481.983, 746 483.363, 746 485.029 C 746 489.471, 732.517 514.421, 722.230 529.016 L 718.342 534.533 703.421 538.726 C 689.836 542.545, 687.779 542.871, 680.446 542.372 C 671.021 541.729, 671.699 541.205, 666.693 553.009 C 662.232 563.530, 659.373 575.230, 657.850 589.211 C 656.252 603.873, 654.587 602.190, 655.278 586.611 C 655.907 572.441, 658.333 562.380, 664.083 550.092 C 666.247 545.468, 667.825 541.491, 667.588 541.255 C 667.352 541.018, 664.460 540.580, 661.162 540.281 L 655.167 539.737 652.576 544.850 C 649.696 550.533, 645.482 564.872, 644.487 572.371 C 644.029 575.824, 643.531 576.931, 642.773 576.173 C 640.405 573.805, 644.637 550.510, 649.344 540 C 649.880 538.804, 648.342 538.114, 641.758 536.598 C 630.498 534.005, 630.841 534.289, 625.968 523.544 C 623.587 518.295, 621.349 514, 620.994 514 C 618.429 514, 607.829 530.227, 604.133 539.811 C 600.497 549.239, 597.041 564.018, 596.900 570.739 C 596.845 573.358, 596.462 576.625, 596.048 578 C 594.676 582.559, 593.670 573.725, 594.296 562.615 C 595.154 547.379, 599.680 532.930, 607.131 521.636 C 611.652 514.784, 611.593 515, 608.934 515 C 607.798 515, 606.108 514.593, 605.178 514.095 C 603.872 513.396, 601.975 514.476, 596.828 518.845 C 593.165 521.955, 587.783 525.410, 584.867 526.522 C 580.058 528.357, 579.202 529.179, 575.638 535.383 C 570.917 543.601, 564.734 560.765, 562.899 570.750 C 561.335 579.258, 559.999 580.180, 560.001 572.750 C 560.004 561.056, 564.559 543.851, 570.434 533.339 C 571.730 531.020, 572.537 528.871, 572.228 528.562 C 571.047 527.380, 566.807 528.078, 564.210 529.881 C 562.719 530.915, 555.777 535.224, 548.781 539.456 C 534.416 548.146, 534.692 547.715, 534.664 561.500 C 534.645 571.280, 536.597 579.737, 539.056 580.518 C 540.120 580.855, 544.129 584.815, 547.966 589.316 C 551.802 593.817, 555.892 598.090, 557.053 598.810 C 559.129 600.097, 559.157 600.018, 558.692 594.213 C 557.738 582.305, 560.116 579.055, 561.956 589.750 C 564.992 607.387, 569.713 617.095, 577.206 621.109 C 578.795 621.961, 578.811 621.699, 577.433 617.261 C 572.736 602.134, 571.757 586.389, 574.527 570.508 C 576.258 560.579, 582.919 541.860, 584.964 541.179 C 585.949 540.850, 586.103 541.242, 585.529 542.614 C 577.055 562.843, 575.715 594.669, 582.507 614.354 C 586.711 626.538, 592.439 632.238, 605.800 637.531 C 616.548 641.790, 616.270 641.857, 613.001 635.795 C 609.057 628.482, 606.321 621.246, 604.077 612.193 C 601.056 600.010, 600.894 599, 601.962 599 C 602.512 599, 603.259 600.237, 603.623 601.750 C 606.003 611.655, 616.173 632.778, 622.557 641.074 C 629.910 650.629, 636.600 654.907, 650 658.620 C 658.868 661.077, 678.038 661.120, 686.920 658.702 C 700.079 655.120, 707.084 652.754, 706.796 651.990 C 706.633 651.557, 702 647.596, 696.500 643.189 C 686.363 635.066, 673.235 622.432, 674.067 621.600 C 674.577 621.089, 683.389 627.186, 696.633 637.213 C 716.220 652.043, 732.423 658.743, 755.947 661.738 L 760.394 662.304 756.687 657.255 C 748.925 646.681, 739.662 624.476, 734.472 604 C 723.449 560.511, 733.664 513.886, 760.433 485.502 C 762.425 483.390, 763.920 481.260, 763.756 480.769 C 763.592 480.277, 763.243 480.071, 762.979 480.310 M 722.750 490.735 C 718.895 491.039, 718 491.465, 718 492.996 C 718 494.033, 717.602 495.128, 717.116 495.429 C 716.629 495.729, 712.588 502.618, 708.136 510.738 C 703.683 518.857, 698.842 527.477, 697.377 529.894 L 694.715 534.288 697.607 533.606 C 699.198 533.231, 703.784 531.969, 707.798 530.802 L 715.095 528.680 725.217 511.590 C 730.783 502.191, 735.989 493.488, 736.784 492.250 C 738.223 490.011, 738.205 490.001, 732.865 490.180 C 729.914 490.279, 725.362 490.529, 722.750 490.735 M 627 508.413 C 627 510.420, 631.815 523.028, 633.125 524.450 C 634.779 526.246, 634.023 523.110, 630.913 515.276 C 627.522 506.733, 627 505.818, 627 508.413 M 1107.968 518.250 C 1111.937 524.210, 1113.299 528.435, 1113.782 536.290 C 1114.442 547.018, 1117.631 545.533, 1117.900 534.372 C 1118.032 528.921, 1115.649 523.358, 1111.208 518.750 C 1106.763 514.138, 1105.054 513.874, 1107.968 518.250 M 523 526.840 C 514.166 531.292, 500.037 538.863, 499.083 539.654 C 498.854 539.844, 498.966 540.299, 499.331 540.665 C 500.776 542.109, 534 524.981, 534 522.792 C 534 521.454, 532.827 521.886, 523 526.840 M 283 528.021 C 278.325 529.090, 271.688 529.897, 268.250 529.815 C 260.966 529.642, 259.607 530.319, 264.098 531.884 C 268.663 533.476, 279.592 533.263, 287.736 531.423 C 296.207 529.510, 299.611 530.228, 309 535.904 C 316.515 540.447, 317.708 540.357, 313.092 535.595 C 304.999 527.245, 296.144 525.016, 283 528.021 M 905 537.509 C 905 537.788, 906.362 539.897, 908.026 542.195 C 909.691 544.493, 911.748 548.764, 912.597 551.686 C 914.389 557.849, 916 558.620, 916 553.316 C 916 548.540, 912.587 541.554, 909.010 539.007 C 906.189 536.999, 905 536.554, 905 537.509 M 216.500 542.607 C 209.900 544.523, 201.125 546.991, 197 548.093 C 192.875 549.194, 185.900 551.160, 181.500 552.461 C 177.100 553.762, 169.900 555.782, 165.500 556.951 C 161.100 558.119, 154.575 559.957, 151 561.034 C 147.425 562.112, 134.375 565.745, 122 569.108 C 109.625 572.471, 97.475 575.814, 95 576.536 C 92.525 577.259, 86.536 578.946, 81.691 580.285 C 72.331 582.871, 69.878 584.278, 71.645 586.045 C 72.753 587.153, 75.457 587.393, 105.500 589.046 C 115.950 589.620, 143.400 591.481, 166.500 593.180 C 225.264 597.502, 222.051 597.628, 254 589.729 C 268.575 586.125, 282.075 582.850, 284 582.450 L 287.500 581.724 284 580.166 C 270.563 574.187, 263.227 570.405, 259.174 567.369 C 252.344 562.253, 239.615 549.443, 235.804 543.851 C 231.851 538.052, 232.130 538.070, 216.500 542.607 M 472.500 549.646 C 463.700 553.162, 452.225 557.670, 447 559.664 C 441.775 561.658, 435.700 564.126, 433.500 565.149 L 429.500 567.009 433.763 566.491 C 444.034 565.241, 491 546.687, 491 543.879 C 491 542.418, 489.146 542.996, 472.500 549.646 M 373.843 548.282 C 369.254 550.638, 363.095 554.106, 360.155 555.991 C 353.772 560.082, 345.256 561.139, 338.250 558.708 C 331.958 556.526, 332.625 559.136, 339.196 562.411 C 348.663 567.128, 355.511 565.800, 367.023 557.015 C 371.160 553.857, 377.123 549.819, 380.273 548.041 C 383.423 546.264, 386 544.627, 386 544.405 C 386 543.004, 381.050 544.583, 373.843 548.282 M 1053 544.666 C 1044.072 546.072, 1043.969 547.682, 1052.840 547.171 C 1059.682 546.777, 1070.267 549.088, 1076.814 552.406 C 1082.696 555.387, 1087.885 556.432, 1092.500 555.566 C 1097.460 554.636, 1096.836 553.378, 1091.078 552.696 C 1088.371 552.375, 1083.817 550.928, 1080.959 549.479 C 1072.746 545.317, 1061.336 543.353, 1053 544.666 M 520.500 557.024 C 516.100 559.765, 510.816 563.018, 508.758 564.254 C 504.672 566.706, 503.997 568, 506.804 568 C 507.795 568, 513.284 569.575, 519 571.500 C 530.611 575.410, 530.329 575.341, 529.562 574.100 C 529.256 573.605, 528.967 568.430, 528.920 562.600 C 528.873 556.770, 528.760 552.009, 528.668 552.020 C 528.575 552.031, 524.900 554.283, 520.500 557.024 M 397.808 559.865 C 382.343 562.841, 378.632 564.622, 390 563.611 C 398.479 562.857, 415 559.017, 415 557.801 C 415 556.679, 413.307 556.882, 397.808 559.865 M 613.253 581.250 C 614.241 603.483, 621.192 622.983, 633.749 638.750 C 638.273 644.430, 639.915 644.190, 635.951 638.428 C 625.736 623.582, 615.023 589.990, 615.004 572.750 C 615.002 570.601, 614.511 569, 613.855 569 C 613.027 569, 612.860 572.396, 613.253 581.250 M 490 576.092 C 471.795 587.353, 450.830 596.542, 432.500 601.294 C 416.286 605.497, 407.450 606.362, 387.516 605.700 C 371.348 605.163, 368.894 605.302, 363.595 607.051 C 349.757 611.618, 342.617 608.967, 330.500 594.764 C 328.181 592.046, 326.251 590.975, 322 590.044 C 315.934 588.716, 318.131 588.262, 253.270 604.272 L 228.041 610.500 227.770 630 C 227.541 646.546, 227.273 649.500, 226 649.500 C 224.719 649.500, 224.500 646.709, 224.500 630.385 L 224.500 611.270 213 610.667 C 200.717 610.023, 174.546 608.194, 132.510 605.041 C 118.205 603.968, 102.675 602.831, 98 602.515 C 78.696 601.209, 67.901 600.017, 65.962 598.980 C 63.922 597.888, 63.907 598.013, 64.045 615.190 C 64.200 634.605, 64.939 639.117, 68.242 640.813 C 70.300 641.871, 83.552 643.132, 122.500 645.976 C 136.879 647.026, 158.658 648.701, 195.500 651.589 C 220.713 653.565, 224.370 653.283, 247.500 647.582 C 267.470 642.660, 292.968 636.456, 309 632.618 C 314.775 631.235, 335.025 626.696, 354 622.530 C 372.975 618.365, 393.225 613.875, 399 612.554 C 404.775 611.233, 411.075 609.862, 413 609.507 C 414.925 609.153, 422.575 607.541, 430 605.925 C 437.425 604.308, 462.400 598.935, 485.500 593.983 C 508.600 589.031, 528.578 584.734, 529.895 584.434 C 531.220 584.133, 531.890 583.524, 531.395 583.071 C 529.219 581.081, 500.472 571.833, 497.090 572.035 C 496.766 572.055, 493.575 573.880, 490 576.092 M 357.500 574 C 357.840 574.550, 359.666 575, 361.559 575 C 363.452 575, 365 574.550, 365 574 C 365 573.450, 363.173 573, 360.941 573 C 358.490 573, 357.127 573.396, 357.500 574 M 831.550 583.817 C 832.072 584.267, 834.750 585.158, 837.500 585.798 C 840.250 586.438, 849.158 588.545, 857.295 590.481 C 874.032 594.462, 873 594.288, 873 593.126 C 873 591.760, 855.464 586.305, 845.500 584.572 C 835.602 582.850, 830.079 582.552, 831.550 583.817 M 286.500 587.168 C 236.601 599.689, 229.838 601.223, 222.500 601.679 C 218.022 601.957, 195.568 600.810, 171.500 599.073 C 126.970 595.860, 124.424 595.691, 94.500 593.971 C 74.462 592.819, 71.464 592.414, 68.336 590.435 C 66.335 589.169, 66.095 589.289, 65.140 592.027 C 63.603 596.438, 65.202 596.859, 89.724 598.499 C 101.701 599.299, 123.425 600.853, 138 601.950 C 227.504 608.691, 221.578 608.763, 254.579 600.546 C 291.647 591.316, 305.612 588, 307.418 588 C 310.117 588, 309.155 586.281, 306.117 585.673 C 304.531 585.356, 302.168 584.885, 300.867 584.627 C 299.565 584.368, 293.100 585.512, 286.500 587.168 M 1055.084 587.901 C 1054.038 588.582, 1054.986 589.215, 1058.705 590.320 C 1065.551 592.353, 1068.989 594.240, 1075.480 599.527 C 1081.014 604.034, 1082.505 603.779, 1079.243 598.883 C 1074.272 591.418, 1059.790 584.836, 1055.084 587.901 M 536.500 589.077 C 535.400 589.540, 530 590.824, 524.500 591.932 C 519 593.039, 510.225 594.879, 505 596.020 C 499.775 597.161, 490.325 599.170, 484 600.485 C 477.675 601.800, 456.525 606.324, 437 610.538 C 417.475 614.752, 399.250 618.622, 396.500 619.139 C 393.750 619.655, 387.450 620.951, 382.500 622.019 C 372.228 624.234, 347.584 629.574, 338.136 631.631 C 330.481 633.298, 300.445 640.609, 263 649.920 C 247.875 653.680, 234.262 657.046, 232.750 657.398 C 230.661 657.884, 230 658.634, 230 660.519 C 230 661.884, 230.225 663, 230.501 663 C 230.776 663, 242.814 660.110, 257.251 656.578 C 271.688 653.046, 290.250 648.564, 298.500 646.618 C 306.750 644.673, 322.050 641.056, 332.500 638.582 C 372.064 629.215, 486.132 603.615, 524.797 595.425 C 542.948 591.581, 542.490 591.745, 540.333 589.848 C 539.069 588.737, 537.879 588.497, 536.500 589.077 M 921.460 592.580 C 921.838 595.100, 923.519 599.487, 925.197 602.330 C 926.874 605.174, 928.979 610.534, 929.874 614.243 C 930.768 617.952, 931.837 620.989, 932.250 620.993 C 932.663 620.997, 933 617.901, 933 614.114 C 933 608.331, 932.521 606.370, 930.010 601.864 C 928.365 598.914, 926.094 594.587, 924.963 592.250 C 922.202 586.544, 920.578 586.697, 921.460 592.580 M 812.500 594.183 C 808.100 594.687, 794.496 594.936, 782.269 594.736 C 770.042 594.536, 760.231 594.564, 760.465 594.799 C 761.572 595.905, 774.556 597.993, 784 598.583 C 797.089 599.401, 826 596.176, 826 593.897 C 826 592.861, 823.586 592.912, 812.500 594.183 M 515.500 603.574 C 500.100 607.080, 481.200 611.288, 473.500 612.927 C 465.800 614.565, 450.500 617.972, 439.500 620.497 C 428.500 623.022, 411.625 626.836, 402 628.972 C 373.709 635.251, 324.962 646.504, 304.713 651.430 C 294.380 653.943, 285.319 656, 284.578 656 C 283.836 656, 281.040 656.670, 278.365 657.489 C 273.864 658.866, 240.667 666.961, 233.250 668.489 C 230.129 669.132, 230 669.349, 230 673.945 C 230 679.778, 227.324 683.661, 222.707 684.527 L 219.500 685.128 219.830 770.811 C 220.012 817.936, 220.299 856.633, 220.470 856.803 C 220.789 857.122, 231.210 854.605, 236.500 852.931 C 239.183 852.081, 276.331 842.268, 310 833.515 C 342.017 825.191, 354.732 821.829, 357.500 820.953 C 359.150 820.431, 381.875 814.374, 408 807.493 C 434.125 800.611, 464.500 792.534, 475.500 789.543 C 486.500 786.552, 505.918 781.395, 518.652 778.083 C 531.385 774.772, 545.335 771.113, 549.652 769.952 C 553.968 768.792, 561.550 766.754, 566.500 765.423 C 571.450 764.093, 577.300 762.997, 579.500 762.987 C 586.732 762.955, 586.189 767.826, 586.745 698.051 L 587.249 634.869 584.541 632.043 C 583.052 630.489, 580.618 628.974, 579.131 628.676 C 573.344 627.519, 566.670 621.821, 563.392 615.241 C 561.411 611.262, 558.859 607.939, 556.387 606.120 C 554.249 604.546, 551.178 601.850, 549.563 600.129 C 547.948 598.408, 545.923 597.045, 545.063 597.100 C 544.203 597.156, 530.900 600.069, 515.500 603.574 M 887 602.032 C 887 604.721, 889.110 609.629, 892.245 614.232 C 893.643 616.285, 895.598 620.222, 896.591 622.982 C 899.569 631.265, 901.121 628.614, 898.922 619 C 897.950 614.750, 889.364 600.196, 887.750 600.062 C 887.337 600.028, 887 600.914, 887 602.032 M 1060.782 615.758 C 1055.674 622.456, 1050.353 634.024, 1048.454 642.561 C 1045.780 654.581, 1047.132 655.679, 1050.738 644.416 C 1052.514 638.871, 1056.644 629.083, 1059.915 622.666 C 1063.187 616.250, 1065.537 611, 1065.137 611 C 1064.738 611, 1062.778 613.141, 1060.782 615.758 M 1098 618.376 C 1098 619.197, 1098.634 622.936, 1099.409 626.685 C 1105.231 654.850, 1102.555 688.943, 1092.458 715.250 C 1092.055 716.299, 1092.252 717, 1092.950 717 C 1094.334 717, 1100.059 704.771, 1102.312 697 C 1108.723 674.887, 1108.595 644.318, 1102.007 624.522 C 1099.916 618.239, 1098 615.299, 1098 618.376 M 592.389 702.343 L 592.500 765.687 601.260 766.927 C 607.933 767.872, 610.255 768.608, 611.010 770.018 C 611.558 771.043, 612 779.901, 612 789.875 L 612 807.882 616.250 808.724 L 620.500 809.566 621.235 767.533 C 621.640 744.415, 621.865 708.463, 621.735 687.640 L 621.500 649.780 611 646.067 C 605.225 644.024, 599.060 641.599, 597.300 640.676 C 595.539 639.754, 593.690 639, 593.189 639 C 592.649 639, 592.323 664.841, 592.389 702.343 M 928 643.395 C 928 645.327, 929.303 650.929, 930.896 655.843 C 932.489 660.758, 934.100 666.179, 934.476 667.889 C 934.851 669.600, 935.606 671, 936.151 671 C 937.749 671, 936.066 660.444, 932.849 650.287 C 929.667 640.244, 928 637.874, 928 643.395 M 768.337 646.684 C 773.181 656.050, 781.927 665.015, 786.200 664.994 C 788.453 664.982, 796.379 657.473, 800.819 651.142 L 805.090 645.054 793.295 645.277 C 786.808 645.400, 778.210 645.133, 774.190 644.684 L 766.880 643.867 768.337 646.684 M 116.413 651.917 C 116.186 652.146, 116 653.469, 116 654.858 C 116 657.197, 116.097 657.249, 117.323 655.573 C 118.449 654.033, 119.790 653.821, 126.330 654.152 C 131.269 654.401, 133.893 654.175, 133.678 653.520 C 133.357 652.545, 117.271 651.052, 116.413 651.917 M 139.845 667.274 C 140.035 675.098, 140.364 681.679, 140.576 681.897 C 140.928 682.260, 147.563 682.906, 167.994 684.565 C 172.116 684.900, 178.641 685.515, 182.494 685.932 C 189.467 686.687, 196.149 685.527, 218.500 679.681 L 223.500 678.374 223.784 668.837 L 224.069 659.301 209.784 658.600 C 201.928 658.215, 194.600 657.676, 193.500 657.403 C 191.572 656.924, 191.512 657.325, 191.838 668.534 C 192.212 681.387, 191.695 685, 189.481 685 C 188.260 685, 187.980 682.850, 187.885 672.750 C 187.822 666.013, 187.839 659.776, 187.924 658.891 C 188.112 656.930, 184.543 656.358, 163.500 654.978 C 155.250 654.438, 146.475 653.782, 144 653.522 L 139.500 653.048 139.845 667.274 M 625.959 667.699 C 625.937 675.290, 625.668 700.850, 625.361 724.500 L 624.804 767.500 629.894 767.711 C 632.693 767.826, 635.781 768.348, 636.756 768.869 C 637.983 769.526, 639.122 769.384, 640.455 768.409 C 641.515 767.634, 643.309 766.982, 644.441 766.961 C 645.991 766.931, 645.697 766.573, 643.250 765.509 L 640 764.097 640 712.997 L 640 661.898 636.250 660.351 C 634.188 659.500, 631.038 657.700, 629.250 656.351 L 626 653.898 625.959 667.699 M 122.500 659 C 123.600 659.473, 126.525 659.846, 129 659.830 C 132.691 659.806, 133.050 659.657, 131 659 C 127.423 657.855, 119.835 657.855, 122.500 659 M 166.455 667.455 C 162.908 671.001, 163.103 676.257, 166.923 680.077 C 170.907 684.061, 174.975 684.007, 178.411 679.923 C 183.708 673.628, 180.291 665, 172.500 665 C 170.021 665, 168.149 665.760, 166.455 667.455 M 170.889 668.662 C 168.874 669.201, 166.857 673.463, 167.644 675.516 C 168.252 677.099, 171.099 679, 172.863 679 C 174.642 679, 177 675.912, 177 673.584 C 177 671.617, 174.139 667.781, 172.921 668.116 C 172.690 668.180, 171.775 668.426, 170.889 668.662 M 170.912 670.250 C 170.002 672.838, 170.791 677.527, 172.183 677.796 C 174.433 678.230, 175.984 675.082, 174.914 672.250 C 174.246 670.481, 171.341 669.029, 170.912 670.250 M 204 688.918 C 199.875 689.874, 195.375 690.938, 194 691.284 L 191.500 691.912 191.765 787.141 C 192.023 879.837, 191.843 886.319, 189.088 883.450 C 188.556 882.896, 188.035 842.791, 187.838 787.304 L 187.500 692.107 181 691.514 C 177.425 691.188, 170.095 690.489, 164.711 689.961 C 159.327 689.432, 153.814 689, 152.461 689 L 150 689 150 782.800 C 150 881.464, 150.113 879, 145.600 879 C 144.417 879, 143.988 879.350, 144.550 879.857 C 145.072 880.328, 153.950 881.547, 164.277 882.565 C 183.473 884.457, 185.770 884.946, 184.569 886.888 C 183.721 888.260, 177.450 888.308, 169.500 887.004 C 166.200 886.463, 156.534 885.533, 148.019 884.936 L 132.538 883.852 130.706 886.115 C 129.016 888.202, 128.924 889.913, 129.519 908.238 C 129.997 922.979, 129.855 928.470, 128.969 929.538 C 127.410 931.416, 128.165 931.659, 139.500 932.935 C 157.034 934.907, 181.518 938.065, 182.808 938.521 C 183.867 938.894, 184.077 934.398, 183.909 915.024 C 183.699 890.872, 184.067 888.002, 187.372 887.999 C 188.436 887.998, 188.559 902.428, 187.739 930.752 C 187.595 935.738, 187.896 939.012, 188.500 939.022 C 189.050 939.032, 192.425 939.462, 196 939.979 C 199.575 940.495, 215.100 942.508, 230.500 944.452 C 263.523 948.620, 272.141 949.941, 273.520 951.046 C 274.707 951.997, 275.345 960.721, 275.436 977.249 C 275.489 986.996, 275.756 988.998, 277 989 C 278.280 989.003, 278.454 986.838, 278.185 974.252 C 278.012 966.138, 278.143 957.648, 278.476 955.384 L 279.082 951.267 290.533 946.884 C 296.830 944.473, 301.986 942.241, 301.991 941.924 C 301.996 941.608, 293.788 940.127, 283.750 938.633 C 273.712 937.140, 255.150 934.318, 242.500 932.363 C 229.850 930.408, 218.600 928.783, 217.500 928.752 C 216.400 928.722, 209.762 930.779, 202.750 933.325 C 183.848 940.187, 186.709 936.452, 206.500 928.429 L 214.500 925.186 214.672 907.343 C 214.767 897.529, 214.603 887.427, 214.308 884.892 L 213.772 880.285 204.886 883.142 C 195.699 886.097, 192 886.657, 192 885.095 C 192 884.250, 205.706 878.865, 211.661 877.370 L 214.324 876.702 213.665 815.601 C 213.302 781.995, 213.004 739.313, 213.003 720.750 C 213.001 702.188, 212.662 687.041, 212.250 687.091 C 211.838 687.141, 208.125 687.963, 204 688.918 M 875.776 728.500 C 874.178 732.910, 872.958 750.028, 873.601 759 C 874.516 771.766, 875.566 774.357, 876.438 766 C 877.302 757.712, 876.739 725.840, 875.776 728.500 M 1109.109 732 C 1102.561 755.085, 1097.985 772.318, 1098.315 772.648 C 1100.907 775.240, 1111.991 737.180, 1110.776 729.859 C 1110.463 727.969, 1110.131 728.394, 1109.109 732 M 646 769.889 L 640.500 771.582 640.189 777.029 C 639.759 784.574, 638.081 786.195, 631.038 785.869 L 625.500 785.612 625.500 799.030 L 625.500 812.449 658.500 816.576 C 676.650 818.846, 693.862 821.037, 696.750 821.446 L 702 822.188 702 809.676 C 702 802.794, 702.241 796.535, 702.536 795.766 C 702.959 794.665, 700.787 794.112, 692.286 793.156 C 647.199 788.088, 640.774 787.175, 641.531 785.949 C 643.051 783.491, 702.034 788.707, 704.886 791.551 C 705.224 791.888, 705.500 799.101, 705.500 807.580 L 705.500 822.996 707.950 822.998 C 709.856 823, 710.133 822.733, 709.200 821.800 C 707.917 820.517, 707.486 798.522, 708.658 794.143 C 709.281 791.815, 719.860 786.095, 723.843 785.932 C 728.965 785.723, 719.420 783.926, 703 782.007 C 692.825 780.818, 678.088 779.021, 670.250 778.014 C 656.149 776.201, 655.957 776.202, 651.877 778.174 C 647.251 780.409, 640.363 781.839, 641.267 780.377 C 641.585 779.863, 644.580 778.135, 647.922 776.537 C 653.233 773.999, 654 773.277, 654 770.816 C 654 767.593, 653.606 767.548, 646 769.889 M 569.500 770.560 C 566.750 771.329, 544.025 777.366, 519 783.976 C 493.975 790.585, 465.850 798.029, 456.500 800.518 C 447.150 803.006, 433.425 806.657, 426 808.630 C 418.575 810.603, 405.300 814.149, 396.500 816.509 C 387.700 818.869, 369.925 823.574, 357 826.963 C 344.075 830.353, 331.250 833.769, 328.500 834.554 C 325.750 835.339, 307.075 840.291, 287 845.557 C 266.925 850.824, 244.875 856.678, 238 858.567 C 231.125 860.456, 224.768 862.001, 223.872 862 C 221.117 862, 219.883 864.607, 220.125 869.917 C 220.253 872.712, 220.506 875, 220.687 875 C 220.868 875, 228.100 873.033, 236.758 870.628 C 264.794 862.842, 287.316 856.738, 347.500 840.614 C 371.150 834.277, 399.050 826.779, 409.500 823.952 C 432.307 817.780, 445.473 814.260, 461.500 810.050 C 468.100 808.316, 483.175 804.267, 495 801.051 C 517.998 794.798, 530.826 791.354, 557 784.407 C 587.318 776.361, 602.509 772.143, 601.500 772.053 C 600.950 772.004, 596.225 771.305, 591 770.500 C 579.512 768.730, 576.009 768.739, 569.500 770.560 M 625 776.375 C 625 781.841, 625.078 782, 627.750 782.014 C 629.263 782.021, 631.513 782.299, 632.750 782.630 C 634.888 783.203, 635 782.953, 635 777.617 C 635 772.791, 634.736 772, 633.125 772 C 632.094 772, 629.844 771.719, 628.125 771.375 L 625 770.750 625 776.375 M 605.385 774.439 C 605.081 775.230, 603.408 776.176, 601.666 776.541 C 599.925 776.906, 583.650 781.251, 565.500 786.196 C 547.350 791.141, 530.250 795.786, 527.500 796.518 C 524.750 797.251, 519.013 798.784, 514.750 799.925 C 510.488 801.066, 503.738 802.873, 499.750 803.941 C 495.762 805.008, 481.475 808.866, 468 812.514 C 454.525 816.161, 438.550 820.411, 432.500 821.958 C 426.450 823.505, 413.400 827.030, 403.500 829.792 C 393.600 832.553, 380.100 836.203, 373.500 837.902 C 366.900 839.601, 357.675 842.058, 353 843.362 C 339.001 847.265, 330.048 849.723, 319.500 852.558 C 314 854.036, 302.975 857, 295 859.145 C 275.493 864.393, 252.161 870.656, 243 873.106 C 238.875 874.209, 234.375 875.350, 233 875.642 C 231.625 875.934, 228.363 876.845, 225.750 877.667 L 221 879.161 221 896.080 C 221 908.958, 221.299 912.996, 222.250 912.985 C 222.938 912.976, 232.050 910.479, 242.500 907.434 C 284.856 895.095, 293.003 892.742, 304.500 889.530 C 311.100 887.687, 331.800 881.833, 350.500 876.523 C 398.061 863.018, 435.055 852.653, 463.500 844.863 C 469.550 843.206, 480.125 840.280, 487 838.360 C 493.875 836.440, 502.875 833.951, 507 832.827 C 511.125 831.704, 517.425 829.971, 521 828.976 C 530.107 826.441, 549.738 821.057, 575.500 814.027 C 587.600 810.725, 598.882 807.569, 600.571 807.012 C 602.260 806.455, 604.398 806, 605.321 806 C 606.825 806, 607 804.282, 607 789.500 C 607 773.938, 606.689 771.040, 605.385 774.439 M 720.143 790.555 L 711.787 793.678 711.944 807.556 C 712.030 815.189, 712.208 821.541, 712.338 821.671 C 712.468 821.801, 716.492 820.466, 721.280 818.704 L 729.986 815.500 729.862 808.500 C 729.794 804.650, 729.460 798.335, 729.119 794.466 L 728.500 787.431 720.143 790.555 M 1079.870 811.500 C 1079.523 812.050, 1078.933 817, 1078.559 822.500 C 1078.184 828, 1077.417 836.479, 1076.854 841.343 C 1075.852 849.996, 1076.219 855, 1077.857 855 C 1079.365 855, 1081.164 835.637, 1080.830 823 C 1080.649 816.125, 1080.216 810.950, 1079.870 811.500 M 735.828 815.136 C 735.552 817.041, 733.450 818.168, 722.500 822.282 L 709.500 827.166 694.067 825.155 C 681.344 823.496, 678.311 823.369, 676.795 824.431 C 674.704 825.896, 678.319 826.600, 703 829.535 L 716.500 831.141 733.295 823.692 C 742.533 819.595, 750.336 815.997, 750.637 815.696 C 750.937 815.396, 749.005 814.862, 746.342 814.511 C 743.679 814.159, 740.297 813.647, 738.828 813.373 C 736.632 812.964, 736.097 813.279, 735.828 815.136 M 732.571 828.212 L 716.641 835.255 697.571 833.096 C 687.082 831.908, 677.038 830.705, 675.250 830.423 C 672.866 830.046, 672 830.288, 672 831.331 C 672 832.382, 674.543 833.061, 681.750 833.935 C 687.112 834.585, 695.658 835.766, 700.739 836.559 C 705.821 837.351, 711.896 837.969, 714.239 837.931 C 719.859 837.839, 750.351 825.129, 750.823 822.682 C 751.313 820.136, 749.801 820.594, 732.571 828.212 M 1122.218 839.061 C 1116.709 842.207, 1112.434 847.552, 1111.456 852.516 C 1110.945 855.108, 1111.250 855.666, 1113.779 856.765 C 1116.334 857.875, 1117.354 857.737, 1122.095 855.640 C 1125.068 854.324, 1128.282 852.984, 1129.239 852.660 C 1130.663 852.178, 1130.798 851.600, 1129.989 849.471 C 1129.445 848.040, 1128.993 844.987, 1128.985 842.685 C 1128.961 836.093, 1128.163 835.665, 1122.218 839.061 M 1044.930 850.584 C 1044.207 851.455, 1043.423 854.828, 1043.188 858.079 C 1042.089 873.266, 1057.779 887.974, 1071.835 884.933 C 1076.359 883.955, 1090.162 877.303, 1095.041 873.750 L 1097.445 872 1095.397 869.952 L 1093.348 867.904 1085.936 871.670 C 1070.574 879.474, 1057.478 876.528, 1050.912 863.790 C 1049.009 860.097, 1048.225 852.403, 1049.856 853.411 C 1050.326 853.702, 1050.499 852.828, 1050.239 851.470 C 1049.695 848.627, 1046.937 848.166, 1044.930 850.584 M 1124 857.930 C 1119.318 859.822, 1114 864.011, 1114 865.808 C 1114 866.379, 1117.115 865.043, 1120.923 862.839 C 1124.731 860.634, 1129.692 858.583, 1131.948 858.280 C 1134.203 857.978, 1136.289 857.341, 1136.583 856.865 C 1137.544 855.311, 1128.610 856.067, 1124 857.930 M 1102.030 861.583 C 1098.517 863.107, 1095 865.787, 1095 866.939 C 1095 867.286, 1096.350 868.366, 1098 869.341 C 1099.650 870.316, 1101 871.688, 1101 872.390 C 1101 874.062, 1092.191 880.086, 1082.894 884.773 C 1076.196 888.149, 1074.747 888.500, 1067.500 888.500 C 1060.061 888.500, 1059.138 888.260, 1054.337 885.073 C 1051.202 882.992, 1047.864 879.575, 1045.837 876.371 C 1044.002 873.470, 1042.234 871.074, 1041.908 871.048 C 1041.583 871.022, 1040.768 872.831, 1040.098 875.068 C 1038.954 878.885, 1039.061 879.426, 1041.818 883.818 C 1043.434 886.393, 1046.638 892.166, 1048.936 896.648 C 1051.235 901.129, 1053.909 905.513, 1054.878 906.389 C 1057.221 908.510, 1065.512 910, 1074.970 910 C 1082.614 910, 1082.698 909.971, 1087.084 905.863 C 1109.071 885.269, 1123.941 882.514, 1139.446 896.161 C 1144.645 900.737, 1146.043 903.066, 1149.050 912.151 C 1150.205 915.643, 1152.618 920.233, 1154.411 922.352 C 1157.604 926.125, 1157.883 926.232, 1168.085 927.580 C 1191.661 930.696, 1214.746 928.087, 1221.631 921.530 C 1222.802 920.413, 1224.943 918.689, 1226.388 917.698 C 1228.579 916.194, 1228.838 915.566, 1227.948 913.904 C 1226.460 911.122, 1222.314 909.428, 1208.728 906.052 C 1202.253 904.443, 1194.436 901.973, 1191.357 900.563 C 1184.373 897.366, 1184.477 897.362, 1177.551 901.058 C 1171.790 904.132, 1168.009 904.570, 1167.245 902.250 C 1166.989 901.471, 1167.785 901, 1169.358 901 C 1170.746 901, 1172.147 900.571, 1172.472 900.046 C 1172.796 899.521, 1175.285 897.881, 1178.001 896.403 C 1180.718 894.924, 1182.703 893.328, 1182.412 892.857 C 1181.323 891.095, 1177.203 892.108, 1171.509 895.537 C 1165.465 899.176, 1162.413 899.426, 1163.437 896.198 C 1164.368 893.266, 1158.812 889.673, 1155.607 891.133 C 1152.183 892.693, 1150.011 891.599, 1149.945 888.281 C 1149.908 886.441, 1148.898 884.717, 1146.958 883.185 C 1144.072 880.906, 1143.980 880.898, 1140.940 882.685 C 1137.956 884.439, 1137.806 884.439, 1136.515 882.681 C 1134.998 880.617, 1135.747 876.843, 1138.509 872.627 C 1139.455 871.182, 1139.890 870, 1139.475 870 C 1138.787 870, 1132.047 872.946, 1127.764 875.119 C 1123.568 877.247, 1121.261 874.791, 1122.568 869.585 C 1123.301 866.666, 1121.431 866.089, 1118.061 868.194 C 1114.772 870.248, 1110.612 867.688, 1111.338 864.058 C 1112.199 859.755, 1108.507 858.774, 1102.030 861.583 M 1130.719 864.889 C 1127.045 868.956, 1125.307 872.678, 1126.546 873.825 C 1126.946 874.196, 1127.492 873.885, 1127.759 873.133 C 1128.331 871.524, 1136.145 864, 1137.245 864 C 1137.660 864, 1138 863.325, 1138 862.500 C 1138 859.737, 1134.267 860.962, 1130.719 864.889 M 1136 866.799 C 1136 867.239, 1137.688 867.438, 1139.750 867.242 C 1146.181 866.630, 1146.705 866.237, 1141.250 866.116 C 1138.362 866.052, 1136 866.360, 1136 866.799 M 1141.989 874.678 C 1138.700 879.865, 1138.814 881.431, 1142.254 878.290 C 1143.489 877.162, 1146.206 875.639, 1148.290 874.904 L 1152.080 873.569 1149.790 871.807 C 1146.346 869.156, 1145.231 869.566, 1141.989 874.678 M 895.798 876.518 C 894.970 877.858, 894.437 925.771, 895.242 926.575 C 895.586 926.920, 896.452 925.244, 897.166 922.851 C 899.401 915.356, 898.142 872.725, 895.798 876.518 M 1151.074 877.877 C 1148.018 878.731, 1147.457 880.305, 1149.581 882.067 C 1151.009 883.252, 1151.481 883.124, 1153.115 881.107 C 1156.217 877.275, 1155.769 876.565, 1151.074 877.877 M 1156.548 883.328 C 1153.217 889.011, 1153.266 889.106, 1158.250 886.680 C 1164.429 883.672, 1165.047 882.166, 1160.992 879.996 C 1159.371 879.128, 1158.725 879.613, 1156.548 883.328 M 1036.103 887.750 C 1035.567 889.813, 1034.988 893.300, 1034.815 895.500 C 1034.503 899.457, 1034.564 899.534, 1040.500 902.722 C 1050.586 908.138, 1050.881 907.538, 1044.285 895.019 C 1041.103 888.979, 1038.180 884.029, 1037.789 884.019 C 1037.397 884.008, 1036.639 885.688, 1036.103 887.750 M 136.455 889.455 C 132.748 893.161, 133.028 899.004, 137.077 902.411 C 141.054 905.757, 144.986 905.741, 148.364 902.364 C 154.059 896.668, 150.369 887, 142.500 887 C 140.021 887, 138.149 887.760, 136.455 889.455 M 1168.459 890.067 C 1168.096 890.653, 1168.005 891.339, 1168.257 891.590 C 1168.954 892.288, 1172 890.907, 1172 889.893 C 1172 888.641, 1169.257 888.776, 1168.459 890.067 M 198.229 890.669 C 194.166 892.304, 192.850 901.269, 196.073 905.365 C 200.745 911.305, 209 906.950, 209 898.545 C 209 891.752, 204.221 888.258, 198.229 890.669 M 139.200 892.200 C 137.583 893.817, 137.681 897.490, 139.378 898.899 C 141.131 900.354, 142.471 896.272, 140.872 894.346 C 140.298 893.654, 140.118 892.618, 140.473 892.044 C 141.340 890.641, 140.678 890.722, 139.200 892.200 M 142.815 891.684 C 145.307 892.681, 146.229 897.089, 144.373 899.140 C 142.544 901.162, 143.839 901.761, 145.800 899.800 C 148.517 897.083, 146.568 890.900, 143.050 891.079 C 141.928 891.136, 141.863 891.303, 142.815 891.684 M 1113.793 891.988 C 1108.932 893.453, 1100.118 899.040, 1094.331 904.323 L 1088.660 909.500 1099.580 910.096 C 1111.639 910.754, 1117.201 912.127, 1133.500 918.472 C 1139.550 920.827, 1145.998 923.078, 1147.828 923.474 L 1151.156 924.193 1148.622 920.347 C 1147.228 918.231, 1145.404 913.800, 1144.569 910.500 C 1141.352 897.800, 1125.716 888.394, 1113.793 891.988 M 199.200 895.200 C 196.820 897.580, 198.065 904, 200.907 904 C 204.339 904, 206.044 899.884, 204.393 895.582 C 203.675 893.710, 200.894 893.506, 199.200 895.200 M 1029.577 902.250 C 1027.654 911.627, 1027.558 911.309, 1033.380 914.838 C 1044.762 921.737, 1057.694 924.823, 1075.750 924.949 C 1080.410 924.982, 1083 925.401, 1083 926.122 C 1083 926.923, 1078.647 927.102, 1067.750 926.748 C 1052.393 926.249, 1052.218 926.215, 1038 920.959 C 1036.075 920.248, 1032.862 918.641, 1030.860 917.390 C 1026.801 914.852, 1026 915.116, 1026 918.992 C 1026 930.179, 1061.007 937.861, 1087.500 932.487 C 1101.275 929.693, 1112.584 930.107, 1123.131 933.792 C 1131.581 936.743, 1131.750 936.762, 1131.201 934.662 C 1130.654 932.569, 1130.699 932.559, 1133.070 934.261 C 1139.298 938.730, 1145.970 942.068, 1151 943.230 C 1159.930 945.292, 1187.779 944.724, 1197.208 942.287 C 1206.149 939.976, 1215.577 934.671, 1217.581 930.823 L 1218.976 928.147 1215.738 929.171 C 1204.389 932.763, 1200.418 933.196, 1183.500 932.687 C 1162.584 932.057, 1151.596 929.862, 1134.815 922.964 C 1115.374 914.973, 1114.644 914.842, 1085 914.010 C 1056.781 913.219, 1052.462 912.563, 1040.716 907.292 C 1037.513 905.855, 1034.064 903.626, 1033.052 902.339 C 1030.760 899.425, 1030.159 899.409, 1029.577 902.250 M 83.023 918.984 L 69.546 923.692 80.523 925.333 C 86.560 926.236, 97.350 927.655, 104.500 928.486 C 111.650 929.317, 119.244 930.271, 121.377 930.607 C 124.186 931.050, 125.056 930.899, 124.536 930.057 C 124.141 929.419, 123.694 926.429, 123.542 923.414 C 123.390 920.399, 123.070 917.736, 122.830 917.497 C 122.143 916.810, 102.318 913.985, 99.257 914.138 C 97.740 914.213, 90.435 916.394, 83.023 918.984 M 938.857 915.389 C 930.390 918.414, 924.011 924.504, 922.504 931 C 922.003 933.163, 922.509 933.807, 926.262 935.783 L 930.599 938.065 935.488 935.902 C 938.177 934.713, 943.218 933.511, 946.689 933.233 C 950.160 932.954, 952.991 932.450, 952.980 932.113 C 952.921 930.270, 950.874 917.237, 950.411 915.750 C 949.746 913.617, 944.294 913.447, 938.857 915.389 M 1226.250 922.674 C 1225.013 923.538, 1223.998 924.977, 1223.996 925.872 C 1223.994 926.767, 1223.101 928.962, 1222.011 930.750 C 1219.440 934.967, 1220.630 934.864, 1225.820 930.422 C 1228.957 927.737, 1230 926.115, 1230 923.922 C 1230 920.623, 1229.452 920.441, 1226.250 922.674 M 867.656 926.133 C 860.039 930.560, 862.148 950.780, 871.257 960.663 C 878.803 968.850, 886.402 968.140, 901.750 957.816 C 909.769 952.422, 910.127 951.785, 906.484 949.398 C 904.077 947.820, 903.801 947.866, 900.036 950.475 C 889.238 957.958, 876.797 957.309, 872.521 949.040 C 870.342 944.826, 868.561 935.896, 869.746 935.127 C 870.277 934.782, 870.946 932.362, 871.233 929.750 C 871.780 924.762, 871.136 924.110, 867.656 926.133 M 60 942.826 C 60 956.932, 59.797 958.874, 58.169 960.347 C 55.882 962.416, 55 961.594, 55 957.392 C 55 955.591, 54.663 953.927, 54.250 953.693 C 53.508 953.272, 31.658 961.008, 30.599 962.067 C 30.297 962.370, 39.151 964.078, 50.275 965.864 C 61.399 967.650, 72.525 969.509, 75 969.994 C 77.736 970.531, 79.872 970.509, 80.450 969.938 C 80.973 969.422, 82.210 969, 83.200 969 C 87.808 969, 84.247 967.062, 77.750 966.033 C 65.151 964.039, 60.053 962.894, 59.454 961.926 C 58.345 960.131, 61.965 959.825, 71.207 960.934 C 97.356 964.073, 98.198 964.181, 137.500 969.476 C 176.895 974.783, 194.583 977.216, 231.978 982.470 C 253.141 985.444, 270.547 987.786, 270.658 987.676 C 270.769 987.565, 271.003 979.992, 271.180 970.848 L 271.500 954.222 265 953.582 C 261.425 953.230, 245 951.132, 228.500 948.919 C 212 946.706, 193.550 944.265, 187.500 943.493 C 165.520 940.691, 128.197 936.005, 115.500 934.452 C 92.256 931.610, 64.553 927.973, 62.250 927.462 L 60 926.962 60 942.826 M 939.764 938.482 C 934.421 939.953, 927.901 943.507, 926.700 945.603 C 926.260 946.372, 925.248 947, 924.450 947 C 922.735 947, 922.495 943.430, 924.143 942.412 C 924.873 941.961, 924.328 941.204, 922.634 940.316 C 919.439 938.642, 913.726 939.855, 909.631 943.076 C 906.195 945.779, 906.312 947.317, 910.187 950.349 C 914.186 953.479, 913.824 953.983, 901.831 962.006 C 884.320 973.718, 873.943 972.809, 865.299 958.805 L 861.529 952.697 860.655 956.391 C 859.743 960.247, 863.355 972.079, 869.776 986.270 C 873.245 993.937, 874.415 994.820, 883.634 996.725 L 891.500 998.351 897.853 991.733 C 904.834 984.461, 916.498 977.584, 923.842 976.409 C 929.930 975.436, 936.317 978.222, 943.357 984.924 C 950.541 991.763, 953.526 997.495, 954.332 1006 C 955.148 1014.607, 956.380 1018.631, 959.900 1024.181 C 962.767 1028.702, 962.999 1028.833, 971.763 1030.891 C 998.138 1037.083, 1035.062 1035.327, 1042.401 1027.531 C 1043.555 1026.305, 1047.517 1024.066, 1051.205 1022.557 C 1054.893 1021.048, 1058.406 1019.215, 1059.013 1018.485 C 1061.497 1015.491, 1055.993 1011.172, 1043.853 1006.590 C 1034.244 1002.963, 1022.470 997.431, 1016.017 993.510 C 1008.478 988.930, 1006.493 989.071, 994.034 995.062 C 987.002 998.443, 982.572 999.997, 980.534 999.797 C 976.642 999.416, 976.622 997.776, 980.500 996.919 C 982.150 996.555, 986.875 994.552, 991 992.468 C 995.125 990.385, 1000.209 988.167, 1002.299 987.539 C 1006.062 986.409, 1006.079 986.381, 1004.080 984.572 C 1000.842 981.642, 993.901 983.884, 979.293 992.578 C 975.215 995.006, 973.399 993.711, 974.995 989.513 C 975.965 986.963, 975.758 986.437, 972.782 983.890 C 968.901 980.569, 968.254 980.460, 965.770 982.708 C 964.315 984.025, 963.496 984.164, 962.191 983.316 C 959.567 981.611, 960.615 978.114, 965.684 971.663 L 970.312 965.771 965.906 966.500 C 960.457 967.401, 960.289 967.556, 962.326 969.808 C 963.543 971.152, 963.680 971.920, 962.851 972.749 C 961.608 973.992, 955 969.459, 955 967.364 C 955 965.194, 962.493 962.601, 970.500 962 C 976.945 961.515, 977.917 961.246, 975.500 960.616 C 970.176 959.226, 969.902 959.053, 970.203 957.263 C 970.437 955.872, 969.681 955.433, 966.618 955.182 C 963.353 954.914, 962.191 955.391, 959.302 958.182 C 954.876 962.459, 951.810 967.430, 952.196 969.705 C 952.399 970.906, 951.784 971.602, 950.336 971.808 C 947.546 972.206, 946.509 969.171, 948.182 965.500 C 949.335 962.970, 949.184 962.553, 946.119 959.815 C 943.205 957.211, 942.615 957.029, 941.156 958.278 C 936.320 962.418, 932.805 960.194, 934.924 954.335 C 936.627 949.625, 935.338 948.254, 930.581 949.714 C 927.254 950.735, 926 950.520, 926 948.929 C 926 947.737, 936.315 942.261, 940.874 941.034 C 943.180 940.413, 948.427 939.859, 952.534 939.804 C 959.679 939.707, 961.814 938.910, 958.418 937.607 C 955.761 936.587, 944.777 937.103, 939.764 938.482 M 304 945.025 C 301.935 946.110, 291.508 950.390, 285.728 952.526 C 282.246 953.812, 281.082 954.722, 281.420 955.894 C 281.675 956.777, 282.023 964.367, 282.192 972.761 C 282.387 982.408, 282.868 987.877, 283.500 987.629 C 284.050 987.413, 289.563 985.277, 295.750 982.882 L 307 978.527 307 961.822 C 307 952.635, 306.663 944.920, 306.250 944.677 C 305.837 944.435, 304.825 944.591, 304 945.025 M 944.580 948.368 C 940.024 952.923, 937.299 957, 938.810 957 C 939.294 957, 940.542 956.058, 941.584 954.907 C 945.748 950.306, 954.080 948.586, 963.152 950.456 C 969.409 951.745, 971.055 950.912, 965.842 949.095 C 964.105 948.489, 962.055 947.095, 961.285 945.997 C 960.177 944.415, 958.750 944, 954.417 944 C 949.292 944, 948.672 944.275, 944.580 948.368 M 938.250 945.662 C 937.563 945.940, 937 946.579, 937 947.083 C 937 948.534, 939.631 948.150, 941 946.500 C 942.312 944.919, 941.047 944.534, 938.250 945.662 M 949.158 954.881 C 948.038 955.591, 948.037 956.086, 949.148 957.866 C 950.902 960.675, 952.023 960.493, 954.826 956.945 L 957.152 954 953.826 954.015 C 951.997 954.024, 949.896 954.413, 949.158 954.881 M 857.638 967 C 857.326 967.825, 856.446 971.286, 855.683 974.691 L 854.295 980.882 857.897 984.292 C 861.790 987.976, 865.986 991, 867.206 991 C 867.625 991, 867.302 989.538, 866.488 987.750 C 865.674 985.962, 863.478 980.225, 861.607 975 C 859.658 969.557, 857.963 966.141, 857.638 967 M 971.773 970.812 C 969.297 973.459, 966.730 976.721, 966.069 978.062 C 964.875 980.482, 964.880 980.485, 966.683 978.456 C 969.537 975.244, 978.053 972.769, 984.901 973.160 L 990.859 973.500 987.252 970.500 C 980.091 964.543, 977.589 964.594, 971.773 970.812 M 28 968.892 C 28 971.208, 27.319 971.038, 54.274 975.442 C 80.466 979.722, 79.043 979.694, 87.744 976.105 C 91.605 974.513, 96.171 972.902, 97.891 972.524 C 99.610 972.146, 100.762 971.424, 100.450 970.919 C 99.447 969.296, 93.846 969.933, 86.343 972.522 C 78.127 975.358, 81.691 975.592, 47.448 969.966 C 26.061 966.452, 28 966.559, 28 968.892 M 313.312 976.107 C 314.177 979.553, 313.336 980.323, 305.500 983.265 C 301.650 984.710, 295.135 987.289, 291.023 988.996 C 280.714 993.276, 277.447 993.516, 261.452 991.170 C 238.363 987.783, 237.730 987.740, 234.659 989.333 C 233.115 990.134, 232.222 990.997, 232.676 991.251 C 233.129 991.505, 245.690 993.439, 260.590 995.551 L 287.679 999.390 302.090 992.809 C 310.015 989.190, 320.895 984.310, 326.267 981.964 C 331.638 979.619, 335.838 977.505, 335.600 977.267 C 335.362 977.029, 332.092 976.446, 328.334 975.972 C 324.575 975.498, 319.522 974.793, 317.104 974.404 C 312.826 973.717, 312.724 973.763, 313.312 976.107 M 979.466 976.932 C 977.797 977.332, 975.624 978.111, 974.637 978.663 C 972.992 979.584, 973.066 979.813, 975.529 981.427 C 977.005 982.394, 978.510 982.807, 978.872 982.343 C 979.234 981.879, 980.614 980.263, 981.939 978.750 C 984.471 975.861, 984.339 975.764, 979.466 976.932 M 985.127 981.478 C 982.857 983.940, 981 986.157, 981 986.404 C 981 986.650, 983.958 985.310, 987.573 983.426 C 991.188 981.542, 994.900 979.963, 995.823 979.919 C 997.574 979.834, 992.446 977.128, 990.377 977.045 C 989.760 977.020, 987.397 979.015, 985.127 981.478 M 921.475 980.940 C 914.868 982.754, 906.371 987.938, 901.138 993.350 C 897.245 997.375, 897.541 998.505, 902.739 999.475 C 909.183 1000.676, 919.854 1005.755, 930.259 1012.572 C 938.404 1017.909, 953.669 1026, 955.593 1026 C 955.839 1026, 955.178 1024.308, 954.123 1022.241 C 953.059 1020.156, 951.651 1014.033, 950.960 1008.491 C 949.536 997.059, 947.432 993.067, 939.006 985.809 C 931.962 979.742, 928.920 978.897, 921.475 980.940 M 311.432 993.021 L 287.364 1003.728 273.932 1001.945 C 266.544 1000.964, 256.450 999.465, 251.500 998.614 C 235.500 995.863, 229 995.484, 229 997.303 C 229 999.522, 229.508 999.712, 240.070 1001.429 C 272.616 1006.721, 284.122 1008.144, 285.452 1007.040 C 286.314 1006.325, 287.045 1006.265, 287.424 1006.878 C 287.781 1007.454, 289.170 1007.525, 290.823 1007.051 C 294.314 1006.050, 334.198 988.943, 335.328 987.962 C 335.784 987.567, 336.009 986.135, 335.828 984.779 C 335.504 982.347, 335.187 982.454, 311.432 993.021 M 849.019 984.449 C 846.722 990.492, 847.672 994.303, 852.750 999.401 C 863.550 1010.246, 873.838 1014.168, 890.617 1013.839 C 904.257 1013.572, 908.974 1015.092, 919.760 1023.229 C 942.305 1040.238, 961.443 1046.353, 992 1046.312 C 1013.756 1046.283, 1034.523 1042.184, 1037.732 1037.287 C 1039.808 1034.118, 1039.354 1033.942, 1033.221 1035.533 C 1013.660 1040.607, 990.791 1039.776, 965.369 1033.069 C 953.698 1029.991, 945.163 1025.905, 930 1016.139 C 916.874 1007.685, 908.133 1003.900, 899.227 1002.813 C 875.054 999.861, 863.872 995.821, 855.039 986.848 L 850.039 981.768 849.019 984.449 M 844.436 1001.578 C 843.684 1006.590, 845.951 1014.070, 846.761 1009.250 C 847.280 1006.164, 848.241 1006.426, 850.426 1010.250 C 856.127 1020.227, 866.226 1024.008, 891.256 1025.536 C 900.858 1026.123, 901.946 1026.022, 901.399 1024.597 C 900.341 1021.841, 903.474 1022.798, 905.797 1025.939 C 907.745 1028.575, 924.936 1041.398, 925.613 1040.721 C 926.575 1039.758, 918.422 1026.126, 915.721 1024.182 C 906.598 1017.617, 903.940 1016.905, 889.698 1017.213 L 876.473 1017.500 866.783 1012.816 C 860.005 1009.539, 855.366 1006.458, 851.347 1002.566 C 848.186 999.504, 845.493 997, 845.362 997 C 845.230 997, 844.814 999.060, 844.436 1001.578 M 1054 1025.622 C 1050.975 1026.968, 1047.733 1028.326, 1046.796 1028.639 C 1045.858 1028.953, 1044.346 1031.453, 1043.435 1034.196 C 1042.524 1036.939, 1040.377 1040.779, 1038.664 1042.730 C 1035.610 1046.208, 1035.597 1046.264, 1038.024 1045.564 C 1041.435 1044.580, 1056.116 1037.424, 1058.211 1035.725 C 1060.363 1033.979, 1062 1029.749, 1062 1025.935 C 1062 1022.423, 1061.253 1022.394, 1054 1025.622 M 926 1032.830 C 926 1034.292, 931.519 1041.418, 934.772 1044.155 C 940.439 1048.923, 964.839 1053.941, 982.500 1053.970 C 998.709 1053.996, 1019.281 1051.402, 1031.183 1047.829 C 1034.294 1046.896, 1034.655 1046.512, 1033.503 1045.360 C 1032.453 1044.310, 1031.493 1044.242, 1029.330 1045.065 C 1017.005 1049.750, 981.504 1051.187, 965.047 1047.666 C 951.679 1044.805, 941.199 1040.892, 931.250 1035.045 C 928.362 1033.348, 926 1032.351, 926 1032.830" fill="#1f6b4c" fill-rule="evenodd"/>
</svg>