<svg xmlns="http://www.w3.org/2000/svg" width="512" height="512" viewBox="-44.859 -42.989 1308.575 1308.575" version="1.1">
	<title>high knees</title><path d="M 617 38.556 C 614.525 39.405, 609.933 40.285, 606.795 40.510 C 603.657 40.736, 597.685 42.063, 593.524 43.460 C 589.363 44.857, 585.392 46, 584.701 46 C 584.009 46, 580.306 47.516, 576.472 49.370 C 568.722 53.116, 562.617 58.653, 560.851 63.536 C 560.047 65.758, 558.525 67.266, 555.928 68.412 C 551.069 70.555, 546.436 75.295, 543.410 81.217 C 540.533 86.847, 540.388 88.393, 542.795 87.764 C 544.506 87.316, 544.502 87.556, 542.701 92.892 C 540.994 97.945, 540.918 99.557, 541.909 109.494 L 543.007 120.500 552.411 139.500 C 564.605 164.139, 565.773 167.866, 564.191 177.094 C 561.998 189.879, 555.780 197.911, 547 199.299 C 538.554 200.635, 522.701 207.041, 513.326 212.906 C 504.961 218.139, 502.915 219, 498.842 219 C 478.317 219, 455.004 231.964, 442.544 250.307 C 437.439 257.823, 436.253 258.937, 430.198 261.901 C 413.848 269.907, 397.663 282.905, 388.265 295.577 C 386.194 298.369, 380.265 304.894, 375.088 310.077 C 369.911 315.259, 363.444 322.200, 360.717 325.500 C 357.990 328.800, 352.699 334.316, 348.959 337.758 C 340.905 345.171, 339.607 348.092, 337.524 363.500 C 336.706 369.550, 335.371 377.425, 334.558 381 C 329.523 403.129, 329.142 423.125, 333.108 457.194 C 334.503 469.180, 335.311 482.750, 335.448 496.500 C 335.657 517.445, 335.650 517.521, 332.740 525.500 C 328.548 536.999, 325.987 551.499, 325.410 567 C 325.134 574.425, 324.844 581.625, 324.766 583 C 324.564 586.558, 326.989 599.921, 328.507 603.618 C 329.211 605.333, 331.411 607.974, 333.394 609.487 C 335.637 611.198, 337 613.081, 337 614.469 C 337 618.562, 339.066 622.698, 341.798 624.076 C 343.284 624.826, 345.911 626.915, 347.635 628.719 C 351.328 632.584, 355.416 633.034, 359.273 630 C 360.671 628.900, 363.129 628, 364.733 628 C 371.012 628, 373.371 622.949, 375.459 605.032 C 377.233 589.813, 379.414 578.259, 381.682 572.066 L 383.306 567.632 384.682 573.010 C 386.140 578.706, 389.595 584.033, 393.485 586.582 C 397.258 589.054, 403.855 588.098, 406.372 584.714 C 408.434 581.942, 408.435 581.903, 406.542 576.714 C 404.296 570.557, 403.162 563.958, 402.122 551 C 401.085 538.072, 395.600 526.660, 385.226 515.844 L 380.761 511.189 380.244 495.810 C 379.302 467.774, 382.109 449.810, 390.525 430.030 C 396.919 415.001, 399.373 404.920, 401.122 386.500 C 402.643 370.474, 403.681 368.507, 411.158 367.478 C 428.590 365.081, 447.138 355.706, 469.308 338.089 L 477.045 331.940 479.023 336.553 C 480.110 339.090, 481 342.038, 481 343.104 C 481 349.887, 495.244 390.052, 505.078 411 C 511.269 424.185, 511.408 424.663, 511.039 431.500 C 510.094 449.044, 510.367 452.195, 513.401 458.775 L 516.295 465.049 513.229 468.864 C 509.233 473.838, 507.678 479.613, 508.888 484.996 C 509.691 488.569, 509.436 489.968, 507.004 495.331 C 502.966 504.236, 500.694 512.719, 501.400 516.251 C 501.734 517.918, 501.047 524.281, 499.874 530.391 C 492.852 566.965, 507.268 604.346, 536.250 624.719 C 542.712 629.261, 544 630.623, 544 632.912 C 544 634.422, 545.367 637.720, 547.037 640.242 C 550.526 645.510, 551.821 652.955, 550.145 658.112 C 546.066 670.661, 547.301 711.498, 551.907 716.401 C 553.181 717.757, 554.007 719.973, 554.017 722.064 C 554.041 726.751, 556.096 736.093, 561.918 757.976 C 566.525 775.291, 566.925 777.772, 568.048 796 C 569.621 821.538, 569.968 818.900, 562.897 835.218 C 544.647 877.335, 541.559 888.066, 541.523 909.500 C 541.498 924.754, 543.007 931.790, 548.925 944.006 C 551.658 949.648, 551.735 950.287, 552.325 972.140 C 552.973 996.146, 551.833 1024.053, 549.513 1041 C 547.563 1055.242, 546.625 1057.639, 542.470 1059.010 C 537.411 1060.680, 533.381 1065.904, 531.919 1072.687 C 531.231 1075.884, 529.647 1080.300, 528.400 1082.500 C 525.766 1087.149, 522.461 1095.974, 521.472 1101 C 521.094 1102.925, 520.019 1105.400, 519.083 1106.500 C 515.114 1111.168, 509.989 1119.731, 509.410 1122.660 C 506.840 1135.672, 528.601 1150.284, 556.024 1153.961 C 573.568 1156.313, 580.194 1159.192, 587.476 1167.626 C 597.624 1179.381, 616.333 1185.314, 643 1185.234 C 672.379 1185.146, 694.235 1178.304, 699.057 1167.684 C 701.503 1162.295, 701.471 1159.997, 698.847 1152.799 C 696.055 1145.144, 691.471 1141.184, 681.830 1138.101 C 668.843 1133.948, 662.716 1130.647, 656.858 1124.647 C 653.826 1121.541, 650.817 1119, 650.172 1119 C 649.528 1119, 649 1118.630, 649 1118.178 C 649 1117.726, 646.260 1114.238, 642.911 1110.428 C 639.562 1106.618, 636.226 1102.150, 635.498 1100.500 C 634.770 1098.850, 633.010 1096.409, 631.587 1095.076 C 630.164 1093.742, 629 1091.807, 629 1090.776 C 629 1088.582, 626.239 1082.942, 624.458 1081.500 C 623.779 1080.950, 622.914 1077.575, 622.536 1074 C 622.147 1070.323, 620.977 1066.088, 619.842 1064.248 C 617.914 1061.125, 616.463 1060.392, 611 1059.780 L 608.500 1059.500 608.705 1048.500 C 609.009 1032.231, 612.461 1013.707, 619.515 990.500 C 621.355 984.450, 623.526 977.025, 624.341 974 C 625.157 970.975, 626.774 964.994, 627.936 960.710 C 636.411 929.458, 639.989 904.383, 640.024 876.006 C 640.049 855.316, 640.354 853.058, 644.438 843.310 C 645.864 839.906, 647.660 832.931, 648.430 827.810 C 649.199 822.690, 650.827 816.025, 652.047 813 C 654.040 808.059, 654.278 805.620, 654.387 788.991 L 654.509 770.482 659.895 759.491 C 666.432 746.150, 670.108 735.690, 672.903 722.476 C 674.064 716.989, 675.230 711.541, 675.496 710.369 C 675.761 709.198, 676.837 708.014, 677.887 707.740 C 681.307 706.846, 682.817 702.724, 684.463 689.793 C 687.088 669.174, 687.752 654.178, 687.356 624.419 L 686.982 596.337 694.741 590.275 C 699.008 586.940, 704.300 582.522, 706.500 580.457 C 712.700 574.638, 727.297 562.963, 727.775 563.441 C 728.010 563.677, 727.656 567.112, 726.987 571.076 C 724.855 583.718, 727.093 598.031, 733.568 613.158 C 736.476 619.952, 737.045 622.615, 737.549 631.792 C 737.873 637.682, 738.325 643.850, 738.553 645.500 C 739.702 653.826, 738.900 711.020, 737.508 720 C 736.698 725.225, 736.028 729.781, 736.018 730.125 C 736.008 730.469, 734.608 731.028, 732.906 731.369 C 728.022 732.346, 723.509 737.615, 722.090 744 C 721.417 747.025, 719.305 752.931, 717.396 757.124 C 715.487 761.317, 713.407 767.617, 712.773 771.124 C 712.126 774.700, 710.605 778.859, 709.310 780.594 C 708.039 782.296, 707 784.072, 707 784.541 C 707 785.009, 705.790 787.139, 704.310 789.274 C 701.193 793.773, 700.759 800.718, 703.292 805.571 C 708.526 815.597, 727.700 824.704, 750.509 827.997 C 759.464 829.290, 765.584 832.368, 772.950 839.286 C 786.222 851.748, 802.124 857.075, 827.500 857.558 C 850.969 858.004, 866.774 855.429, 881.241 848.801 C 893.356 843.250, 897.069 833.988, 891.714 822.678 C 888.349 815.571, 884.712 812.729, 874.785 809.453 C 862.485 805.393, 853.143 800.359, 847.249 794.616 C 844.362 791.802, 840.828 788.375, 839.396 787 C 834.550 782.345, 826 771.932, 826 770.685 C 826 770.003, 824.637 767.953, 822.971 766.130 C 821.305 764.306, 819.399 760.781, 818.735 758.297 C 818.070 755.814, 816.510 752.684, 815.266 751.342 C 813.701 749.653, 812.824 747.152, 812.413 743.202 C 811.213 731.652, 808.046 727, 801.384 727 C 797.540 727, 797.438 726.747, 796.559 715 C 795.042 694.721, 800.660 663.228, 811.366 632 C 822.034 600.884, 828.143 571.614, 831.509 535.500 C 831.868 531.650, 833.287 525.350, 834.662 521.500 C 839.368 508.327, 839.775 506.413, 840.637 493.466 C 842.067 471.982, 841.675 466.812, 838.057 459.463 C 832.402 447.977, 820.001 439.058, 807.256 437.312 C 804.885 436.987, 802.738 436.385, 802.485 435.975 C 801.786 434.845, 808.722 420.391, 812.992 414.078 C 824.392 397.222, 828.941 381.700, 831.944 349.409 C 833.183 336.083, 834.629 326.143, 835.931 322 C 837.057 318.420, 837.980 312.719, 837.987 309.309 C 837.994 305.904, 838.439 302.847, 838.976 302.515 C 844.071 299.366, 852.937 270.925, 853.008 257.500 C 853.026 254.200, 853.459 248.602, 853.971 245.060 C 854.483 241.519, 855.212 233.320, 855.591 226.842 L 856.280 215.064 853.140 212.131 C 850.320 209.496, 849.998 208.602, 849.978 203.349 C 849.955 197.282, 848.310 193.925, 844.750 192.676 C 843.788 192.339, 843 191.198, 843 190.142 C 843 187.606, 840.008 184.187, 837.500 183.857 C 834.725 183.492, 830 184.838, 830 185.994 C 830 186.520, 828.732 186.696, 827.182 186.386 C 825.084 185.967, 823.597 186.468, 821.362 188.349 C 817.729 191.406, 816.191 194.910, 811.640 210.500 C 805.009 233.218, 803.956 236.507, 802.516 239 L 801.071 241.500 801.035 238.932 C 800.853 225.676, 788.751 214.984, 782.060 222.166 C 780.187 224.176, 780.090 225.169, 780.709 235.916 C 781.503 249.680, 781.489 251.394, 780.515 260.500 C 779.389 271.030, 784.315 286.734, 791.206 294.582 L 794.374 298.190 793.230 304.845 C 790.296 321.910, 782.035 342.811, 775.733 349.113 L 772.733 352.113 769.250 345.829 C 764.488 337.238, 758.292 329.384, 751.119 322.847 L 745.097 317.359 743.540 306.930 C 742.051 296.950, 740.864 291.859, 739.010 287.500 C 731.067 268.823, 724.440 259.808, 711.753 250.419 C 705.370 245.696, 693.857 241.425, 684.670 240.373 C 679.542 239.786, 678.216 239.136, 673.670 234.986 C 670.826 232.390, 664.675 228.351, 660 226.009 C 655.325 223.667, 650.288 220.895, 648.808 219.848 L 646.115 217.946 646.675 207.223 C 647.326 194.746, 647.623 194.318, 655.758 194.130 C 664.993 193.917, 667.745 193.055, 670.993 189.355 C 674.252 185.644, 674.265 185.592, 674.473 176 C 674.550 172.425, 675.207 166.800, 675.933 163.500 C 676.659 160.200, 677.403 154.510, 677.585 150.856 C 677.840 145.740, 678.505 143.345, 680.474 140.443 C 683.314 136.258, 683.188 134.986, 679.263 128.225 C 676.442 123.368, 676.563 121.203, 680.101 113.194 C 682.430 107.921, 682.433 107.860, 680.623 103.194 C 679.621 100.612, 677.251 94.046, 675.355 88.602 L 671.909 78.705 674.704 75.783 C 677.334 73.035, 677.493 72.368, 677.376 64.541 C 677.276 57.853, 676.798 55.413, 674.942 52.110 C 672.743 48.198, 670 46.598, 670 49.228 C 670 49.903, 668.610 48.769, 666.910 46.707 C 662.472 41.323, 653.779 37.377, 655.345 41.457 C 655.798 42.638, 655.427 42.732, 653.387 41.957 C 652.003 41.431, 648.402 41, 645.385 41 C 642.269 41, 638.538 40.295, 636.746 39.368 C 632.309 37.074, 622.498 36.671, 617 38.556 M 621 46.147 C 617.425 47.266, 614.072 48.591, 613.550 49.091 C 613.028 49.591, 611.515 50, 610.189 50 L 607.778 50 610.139 48.033 C 611.438 46.952, 612.151 46.052, 611.725 46.033 C 610.481 45.980, 596.727 53.086, 594.115 55.132 C 589.618 58.654, 589.498 56.920, 593.959 52.887 C 598.285 48.978, 598.330 48.877, 595.459 49.535 C 591.371 50.472, 585.198 53.676, 580.856 57.114 C 576.787 60.337, 574.898 60.923, 577.193 58.250 C 580.361 54.561, 580.387 53.748, 577.285 55.353 C 573.062 57.536, 567.324 64.248, 566.510 67.955 C 565.805 71.166, 565.516 71.397, 561 72.373 C 559.625 72.670, 557.600 73.638, 556.500 74.525 C 554.560 76.088, 554.582 76.119, 557.250 75.549 C 560.832 74.784, 560.718 75.429, 556.588 79.301 C 553.270 82.411, 549.011 88.622, 549.004 90.361 C 549.002 90.834, 549.861 90.159, 550.914 88.861 C 551.967 87.562, 553.092 86.763, 553.415 87.084 C 554.526 88.190, 552.236 97.107, 550.518 98.363 C 548.489 99.847, 547.071 109, 548.870 109 C 549.491 109, 550 110.519, 550 112.375 C 550 117.646, 551.129 122, 552.496 122 C 553.238 122, 554.013 124.041, 554.411 127.040 C 554.779 129.813, 555.974 133.673, 557.066 135.618 C 558.159 137.564, 560.651 142.328, 562.604 146.206 L 566.154 153.256 567.577 150.514 C 569.696 146.431, 569.337 143.604, 565.828 136.721 C 556.433 118.294, 567.837 101.009, 583.788 109.500 C 586.371 110.875, 589.035 112, 589.708 112 C 590.380 112, 592.297 113.335, 593.966 114.966 C 596.581 117.523, 597 117.669, 597 116.025 C 597 113.697, 598.607 112.515, 599.421 114.244 C 599.747 114.935, 599.816 113.500, 599.576 111.055 C 599.066 105.876, 599.919 103.883, 604.868 98.689 L 608.500 94.878 603.698 97.554 C 597.161 101.196, 596.842 100.096, 602.942 94.952 C 608.809 90.005, 609.670 87.927, 604.360 91.530 C 597.350 96.288, 595.920 94.411, 602.250 88.761 L 606.500 84.967 602.356 87.029 C 597.377 89.507, 591 90.725, 591 89.198 C 591 88.613, 592.013 87.833, 593.250 87.464 C 595.982 86.649, 604.289 81.956, 603.824 81.491 C 603.311 80.978, 586.989 85.859, 583.653 87.523 C 580.196 89.248, 580 89.281, 580 88.133 C 580 86.536, 587.428 82.428, 594.750 79.975 C 598.737 78.639, 602 77.190, 602 76.754 C 602 75.985, 600.228 76.246, 593.056 78.070 C 591.162 78.552, 589.472 78.805, 589.300 78.633 C 588.470 77.804, 593.276 74.754, 598.076 73.064 L 603.442 71.174 599.971 70.532 C 598.062 70.179, 594.025 69.682, 591 69.428 C 582.914 68.750, 582.917 68.750, 583.273 67.680 C 583.663 66.510, 596.728 61.071, 599.250 61.029 C 601.443 60.993, 601.525 62.607, 599.391 63.801 C 597.190 65.033, 599.149 65.745, 608.317 67.045 C 614.115 67.867, 616.321 67.746, 620.922 66.351 C 626.917 64.534, 625.859 63.393, 619.414 64.725 C 614.568 65.726, 609.759 65.222, 610.245 63.764 C 610.445 63.164, 614.634 61.844, 619.554 60.830 C 624.475 59.817, 628.950 58.762, 629.500 58.486 C 630.572 57.949, 623.749 58.654, 618 59.675 L 614.500 60.296 619.417 56.527 C 622.121 54.454, 625.819 52.138, 627.635 51.379 C 637.934 47.076, 652 53.935, 653.630 64.054 C 654.292 68.165, 654.401 68.296, 655.076 65.788 C 656.760 59.539, 653.397 53.075, 647.020 50.306 C 643.025 48.570, 644.388 47.475, 649.379 48.411 C 653.809 49.242, 658.015 53.901, 659.575 59.704 L 660.865 64.500 660.933 60.398 C 661.036 54.111, 657.716 49.940, 650.980 47.895 C 644.811 46.021, 642.908 46.168, 627.686 49.698 C 621.738 51.077, 616.652 51.985, 616.383 51.717 C 615.704 51.037, 621.994 47.260, 626.643 45.555 C 632.504 43.406, 628.373 43.839, 621 46.147 M 631.500 54.834 C 637.728 55.985, 644.678 59.805, 646.923 63.310 C 648.955 66.482, 648.966 66.486, 648.983 63.939 C 649.019 58.557, 643.935 55.424, 633.843 54.607 C 629.504 54.256, 628.764 54.328, 631.500 54.834 M 628.500 69.527 C 626.850 70.277, 623.095 71.447, 620.155 72.126 C 612.617 73.867, 611.244 76.167, 613.531 83.215 C 614.474 86.122, 615.641 88.928, 616.123 89.450 C 617.942 91.420, 616.848 93.838, 611.987 98.595 C 606.543 103.922, 605.022 107.597, 604.992 115.500 C 604.965 122.473, 604.293 124.314, 601.249 125.750 C 596.805 127.848, 595.237 127.260, 592.413 122.442 C 590.546 119.257, 589.279 118.063, 588.203 118.476 C 587.261 118.837, 585.369 117.812, 583.328 115.833 C 573.018 105.840, 563.427 119.332, 570.249 134.232 C 572.917 140.060, 579.390 146.194, 584.900 148.115 C 587.583 149.050, 588.406 148.942, 590.069 147.437 C 591.646 146.011, 592.296 145.900, 593.274 146.893 C 594.791 148.435, 590.029 153, 586.904 153 C 584.652 153, 577.458 149.549, 576.509 148.014 C 573.684 143.444, 573.177 156.019, 575.500 173 C 576.290 178.775, 576.951 184.314, 576.968 185.309 C 577.026 188.588, 575.276 186.126, 574.616 181.999 C 573.339 174.016, 571.794 167.873, 571.210 168.457 C 570.882 168.784, 570.469 171.628, 570.292 174.776 C 569.619 186.752, 564.930 196.408, 557.583 200.949 L 553.975 203.178 558.358 208.053 C 560.769 210.734, 565.771 217.203, 569.475 222.429 C 573.179 227.654, 576.725 232.321, 577.355 232.800 C 577.985 233.278, 585.007 235.317, 592.960 237.331 C 600.913 239.344, 608.097 241.668, 608.924 242.496 C 610.164 243.736, 610.183 244, 609.028 244 C 607.324 244, 596.549 241.512, 588.868 239.344 C 585.770 238.470, 582.766 237.922, 582.193 238.127 C 580.697 238.662, 589.094 249.093, 599 259.005 C 609.687 269.699, 621.874 276.479, 634.853 278.951 L 639.206 279.780 638.591 276.703 C 638.252 275.010, 636.865 271.200, 635.508 268.236 C 634.036 265.021, 633.537 263.010, 634.270 263.251 C 636.127 263.860, 639.837 269.771, 641.759 275.184 C 643.364 279.703, 643.686 280, 646.985 279.994 C 656.209 279.980, 663.277 275.371, 664.560 268.534 C 665.297 264.602, 663.841 256.213, 661.319 249.865 C 659.917 246.335, 659.738 246.238, 655.146 246.492 C 652.544 246.636, 648.523 247.074, 646.208 247.465 C 643.679 247.892, 642 247.791, 642 247.210 C 642 245.410, 644.484 244.226, 649.749 243.518 C 652.636 243.130, 655.210 242.469, 655.470 242.049 C 656.081 241.059, 649.589 230.209, 646.528 227.106 L 644.166 224.711 643.455 229.452 C 643.064 232.059, 643.006 236.399, 643.325 239.096 C 643.936 244.255, 642.866 245.487, 640.925 241.861 C 638.554 237.429, 638.295 234.146, 639.594 224.956 C 640.328 219.755, 640.945 213.970, 640.965 212.100 L 641 208.700 637.994 212.850 C 636.340 215.132, 634.315 217, 633.494 217 C 631.421 217, 631.582 216.415, 634.960 211.663 C 639 205.980, 641.498 194.999, 638.750 195.001 C 636.855 195.002, 623 187.668, 623 186.664 C 623 186.181, 623.714 186.060, 624.587 186.395 C 627.070 187.348, 634.567 188.351, 633.922 187.645 C 633.605 187.296, 630.905 186.169, 627.922 185.139 C 599.965 175.486, 596.500 172.721, 594.529 158.500 C 593.661 152.239, 595.092 153.435, 597.519 161 C 600.562 170.488, 603.596 172.512, 627.070 180.726 C 650.847 189.045, 652.633 189.432, 659.978 187.858 C 668.366 186.061, 668.950 185.235, 668.707 175.513 C 668.582 170.515, 668.105 167.403, 667.500 167.624 C 665.851 168.228, 660.660 166.481, 660.225 165.176 C 659.923 164.269, 661.237 164.128, 665.410 164.618 C 670.458 165.212, 670.999 165.092, 670.985 163.388 C 670.963 160.702, 669.839 159.511, 667.250 159.429 C 666.013 159.389, 661.138 159.277, 656.417 159.179 C 650.054 159.046, 647.941 158.677, 648.250 157.750 C 648.552 156.844, 651.913 156.500, 660.448 156.500 L 672.229 156.500 671.651 151.500 C 671.333 148.750, 670.805 145.584, 670.476 144.464 C 670.002 142.850, 670.616 142.077, 673.439 140.730 C 678.400 138.365, 678.090 135.952, 671.468 125.404 C 668.425 120.558, 665.683 115.585, 665.374 114.354 C 664.670 111.548, 670.429 104, 673.274 104 C 674.739 104, 675.031 103.571, 674.469 102.250 C 674.059 101.287, 672.271 96.675, 670.495 92 C 664.283 75.641, 663.530 74.459, 659.183 74.234 C 657.909 74.168, 654.984 73.458, 652.683 72.656 C 638.593 67.743, 633.789 67.122, 628.500 69.527 M 632.248 102.227 C 627.236 105.310, 625.058 107.983, 628.750 106.521 C 635.131 103.995, 640.827 103.672, 647.613 105.451 C 656.590 107.806, 659.011 107.868, 660.351 105.778 C 661.884 103.387, 660.448 102.204, 653.899 100.461 C 644.634 97.995, 638.289 98.513, 632.248 102.227 M 639 109.329 C 634.963 111.455, 632 113.441, 632 114.021 C 632 114.318, 633.362 115.076, 635.026 115.704 C 637.615 116.681, 638.012 116.619, 637.776 115.277 C 637.338 112.785, 639.421 112.762, 640.511 115.246 C 641.594 117.714, 648 119.164, 648 116.941 C 648 116.100, 648.491 116.155, 649.687 117.128 C 651.172 118.335, 651.292 118.281, 650.691 116.678 C 650.315 115.675, 650.487 113.959, 651.073 112.864 C 652.666 109.887, 650.549 107.999, 645.628 108.006 C 643.357 108.010, 640.375 108.605, 639 109.329 M 669.500 111 C 669.160 111.550, 669.471 112.006, 670.191 112.014 C 670.911 112.021, 672.513 112.299, 673.750 112.630 C 675.404 113.074, 676 112.805, 676 111.617 C 676 109.793, 670.565 109.277, 669.500 111 M 573.030 115.484 C 569.395 117.429, 567.952 123.487, 569.630 129.750 C 570.797 134.103, 571.804 131.935, 571.284 126.193 C 570.865 121.579, 571.105 120.038, 572.450 118.693 C 574.891 116.252, 576.159 116.573, 579.218 120.406 L 581.935 123.812 579.422 125.459 C 575.510 128.022, 574.371 131.392, 576.381 134.459 C 577.297 135.857, 578.791 137, 579.702 137 C 580.613 137, 582.841 137.536, 584.654 138.192 C 588.978 139.756, 589.826 138.689, 587.576 134.512 C 586.566 132.636, 585.981 130.179, 586.276 129.051 C 586.571 127.923, 586.421 127, 585.942 127 C 584.663 127, 582.871 130.753, 583.209 132.725 C 583.544 134.685, 580.329 135.729, 578.767 134.167 C 576.851 132.251, 578.775 128.159, 581.752 127.816 C 585.245 127.414, 585.730 124.628, 583.062 120.299 C 580.256 115.746, 576.188 113.794, 573.030 115.484 M 608 133.766 C 608 134.663, 618.959 141.375, 619.515 140.818 C 620.235 140.099, 618.477 138.238, 614.610 135.627 C 610.785 133.043, 608 132.259, 608 133.766 M 656.003 136.491 C 654.893 139.411, 655.526 141.604, 657.720 142.446 C 659.893 143.280, 660.530 142.344, 659.025 140.530 C 658.332 139.695, 657.980 137.884, 658.244 136.506 C 658.863 133.265, 657.234 133.254, 656.003 136.491 M 662.502 139.374 C 659.814 141.341, 660.608 141.727, 666.298 141.219 C 669.305 140.951, 670.957 140.363, 670.721 139.645 C 670.150 137.902, 664.757 137.724, 662.502 139.374 M 833.283 190.207 C 830.974 193.097, 829.157 197.799, 828.528 202.513 C 827.685 208.828, 826.207 216.820, 824.462 224.500 C 821.747 236.447, 821.754 236.956, 824.657 238.060 C 826.098 238.608, 827.552 238.781, 827.888 238.445 C 829.279 237.054, 832.209 222.280, 833.967 207.795 C 834.481 203.557, 835.626 198.689, 836.512 196.977 C 837.397 195.265, 837.982 192.887, 837.811 191.693 C 837.452 189.184, 834.796 188.313, 833.283 190.207 M 822.659 194.750 C 821.317 197.402, 820.555 199.728, 817.498 210.500 C 810.948 233.580, 810.742 234.173, 805.088 246.191 C 802.840 250.971, 801 255.358, 801 255.941 C 801 256.523, 799.964 257, 798.698 257 C 796.744 257, 796.381 256.460, 796.295 253.423 C 796.092 246.273, 795.066 243.040, 793.213 243.715 C 791.620 244.295, 791.623 244.199, 793.250 242.341 C 795.624 239.630, 795.449 235.315, 792.750 229.962 C 791.267 227.022, 789.749 225.393, 788.298 225.187 L 786.095 224.873 786.389 246.687 C 786.840 280.064, 790.277 290.328, 802.750 295.540 C 805.897 296.855, 807.196 299, 804.845 299 C 804.154 299, 804.355 299.735, 805.345 300.829 C 807.216 302.896, 807.422 307.388, 805.949 314 C 804.566 320.211, 804.145 321.207, 803.161 320.599 C 802.692 320.309, 802.951 316.619, 803.738 312.398 C 805.117 304.996, 805.095 304.650, 803.112 302.667 C 800.404 299.960, 800.202 300.278, 798.045 310.639 C 795.769 321.575, 783.515 356, 781.898 356 C 781.439 356, 781.345 355.264, 781.691 354.364 C 782.969 351.032, 779.444 353.717, 773.907 360.291 C 763.503 372.646, 758.769 384.859, 758.805 399.250 C 758.828 408.251, 757.650 409.263, 755.957 401.698 C 753.236 389.542, 756.197 374.852, 763.577 363.885 C 767.833 357.562, 767.825 356.869, 763.411 348.392 C 758.426 338.819, 754.306 333.907, 739.695 320.117 C 733.067 313.862, 731.760 311.731, 735.914 313.954 C 738.412 315.291, 738.485 314.668, 736.959 305 C 733.198 281.173, 718.638 259.562, 700.661 251.126 C 694.488 248.229, 684.893 245.514, 683.103 246.157 C 682.578 246.346, 685.959 252.125, 690.615 259 C 698.907 271.242, 708.398 289.055, 711.396 298 L 712.905 302.500 712.968 299 C 713.056 294.099, 714.646 291.740, 715.518 295.216 C 717.579 303.428, 714.281 335.606, 710.434 344.812 C 708.331 349.845, 708.612 351.610, 712.672 358.904 C 718.185 368.806, 727.883 377.969, 736.500 381.417 C 740.350 382.957, 744.400 384.588, 745.500 385.041 C 746.989 385.654, 746.351 385.882, 743 385.932 C 732.619 386.086, 718.963 376.119, 710.964 362.552 C 708.516 358.398, 706.221 355, 705.865 355 C 704.757 355, 702 362.885, 702 366.053 C 702 374.481, 716.753 394.897, 732.004 407.575 C 733.377 408.716, 738.765 414.445, 743.977 420.307 C 750.778 427.953, 755.015 431.795, 758.977 433.907 L 764.500 436.850 779.422 436.175 L 794.343 435.500 796.063 432.500 C 797.578 429.857, 803.718 414.965, 805.546 409.500 C 806.206 407.527, 806.225 407.527, 806.943 409.458 C 807.576 411.157, 808.017 410.826, 810.282 406.958 C 818.310 393.249, 822.300 378.760, 825.003 353.500 C 827.464 330.510, 828.348 324.855, 830.397 319 C 832.282 313.612, 832.548 307.543, 830.854 308.590 C 828.651 309.952, 830.956 304.133, 835.344 297.253 C 837.713 293.539, 840.160 289.150, 840.781 287.500 C 843.155 281.196, 847 263.716, 847.004 259.210 C 847.006 256.619, 847.637 250.450, 848.405 245.500 C 850.822 229.931, 851.341 216.345, 849.545 215.656 C 847.151 214.737, 845.353 219.438, 844.057 230 C 843.415 235.225, 842.419 240.719, 841.841 242.209 C 841.264 243.698, 840.490 247.298, 840.120 250.209 L 839.449 255.500 837.670 252.842 C 835.946 250.267, 835.970 249.861, 838.444 239.842 C 839.849 234.154, 840.998 227.573, 840.999 225.218 C 841 222.863, 841.675 219.320, 842.500 217.346 C 844.157 213.380, 844.594 198.485, 843.081 197.550 C 841.842 196.784, 839.120 199.624, 838.508 202.320 C 838.236 203.519, 837.121 210.350, 836.029 217.500 C 834.937 224.650, 833.491 232.886, 832.814 235.802 C 831.827 240.057, 831.836 241.508, 832.861 243.149 C 834.806 246.263, 833.437 246.545, 830.082 243.722 C 828.430 242.333, 824.924 240.427, 822.289 239.488 C 819.655 238.548, 816.825 237.535, 816 237.235 C 814.715 236.768, 814.731 236.634, 816.111 236.299 C 818.018 235.835, 822.763 217.748, 825.501 200.500 C 825.851 198.300, 826.380 195.488, 826.677 194.250 C 827.470 190.945, 824.391 191.328, 822.659 194.750 M 606 203.818 C 606 206.345, 614.965 231.718, 619.050 240.754 L 621.878 247.007 619.222 246.341 C 616.597 245.682, 616.609 245.725, 620.231 249.957 C 624.927 255.443, 627.641 257.390, 628.547 255.924 C 628.920 255.321, 627.712 253.198, 625.862 251.207 C 624.013 249.216, 623.288 248.185, 624.250 248.916 C 626.484 250.612, 626.715 248.469, 624.622 245.473 C 623.863 244.388, 619.557 234.281, 615.052 223.014 C 606.322 201.178, 606 200.496, 606 203.818 M 546 206 C 546 206.550, 544.955 207, 543.678 207 C 542.401 207, 539.229 207.725, 536.628 208.611 L 531.900 210.222 536.021 213.750 C 544.953 221.395, 552.246 234.047, 556.053 248.500 C 559.337 260.967, 559.897 285.921, 557.122 296.142 C 551.440 317.077, 541.010 332.075, 524.875 342.512 C 514.643 349.132, 507.383 351.305, 497.250 350.783 C 492.712 350.550, 489 350.532, 489 350.745 C 489 355.272, 497.806 357.022, 508.311 354.582 C 520.261 351.807, 529.476 346.575, 538.869 337.230 C 547.787 328.359, 549.807 327.206, 545.137 333.651 C 535.370 347.135, 511.452 359.152, 497.290 357.690 C 493.472 357.296, 492 357.487, 492 358.376 C 492 361.141, 503.204 392.187, 507.743 402 C 520.285 429.113, 523 435.630, 523 438.626 C 523 440.972, 521.072 440.134, 520.411 437.500 C 520.066 436.125, 519.441 435, 519.022 435 C 517.864 435, 515.946 446.156, 516.614 449 C 517.475 452.667, 520.775 459.743, 521.968 460.480 C 524.058 461.772, 522.896 465.938, 519 471.123 C 515.979 475.143, 515 477.371, 515 480.223 C 515 484.828, 515.131 484.838, 520.332 480.618 C 525.194 476.673, 533.117 472.545, 537.750 471.544 C 542.837 470.444, 541.626 471.559, 533.482 475.476 C 522.404 480.805, 519.396 483.899, 513.820 495.702 C 511.169 501.314, 509 506.150, 509 506.450 C 509 506.750, 511.813 504.922, 515.250 502.388 C 523.297 496.456, 536.604 489.780, 545.500 487.212 C 559.858 483.069, 585.193 479.389, 592.999 480.313 C 597.162 480.807, 598.904 480.463, 603.204 478.304 L 608.389 475.700 603.444 474.487 C 589.133 470.978, 571.283 470.672, 546 473.504 L 541.500 474.008 545.544 472.056 C 553.371 468.278, 565.009 467.560, 585.866 469.570 C 589.959 469.965, 592.014 469.831, 591.621 469.195 C 590.948 468.108, 579.812 463.984, 570.650 461.430 C 566.879 460.379, 565.144 459.456, 565.768 458.832 C 567.382 457.218, 578.133 459.709, 599.199 466.578 C 610.034 470.110, 619.484 472.994, 620.199 472.986 C 620.915 472.978, 626.168 470.726, 631.874 467.983 L 642.248 462.994 636.242 458.247 C 632.939 455.636, 627.680 451.700, 624.556 449.500 C 612.884 441.280, 611 439.804, 611 438.878 C 611 437.047, 634.938 452.238, 641.752 458.395 L 645.784 462.038 652.930 459.389 C 659.276 457.036, 659.926 456.559, 658.744 455.120 C 658.012 454.229, 655.365 451.025, 652.861 448 C 645.896 439.583, 645.535 438.607, 647.050 432.293 C 648.874 424.687, 650.453 424.281, 649.621 431.631 C 648.954 437.530, 648.973 437.588, 653.225 442.627 C 655.576 445.413, 658.854 449.393, 660.510 451.472 L 663.519 455.251 669.179 453.984 C 672.292 453.288, 675.345 452.405, 675.964 452.022 C 678.239 450.617, 678.308 437.982, 676.114 424.887 C 673.660 410.245, 673.581 409.181, 675.060 410.660 C 675.644 411.244, 676.943 415.046, 677.947 419.110 L 679.773 426.500 682.398 420.695 C 686.603 411.397, 688.873 401.634, 689.974 388.117 C 690.539 381.177, 691.272 373.250, 691.602 370.500 C 692.094 366.410, 691.967 365.727, 690.902 366.750 C 690.186 367.438, 689.240 368, 688.800 368 C 686.870 368, 688.347 365.003, 692.766 359.950 C 704.592 346.428, 708.373 336.419, 708.427 318.500 C 708.483 299.708, 703.450 287.066, 684.961 259.561 C 680.133 252.377, 674.950 245.375, 673.445 244 C 671.780 242.479, 673.446 245.613, 677.696 252 C 681.540 257.775, 685.229 263.625, 685.895 265 C 687.939 269.220, 682.628 262.618, 677.204 254.196 C 669.616 242.415, 662.274 233.359, 658.509 231.138 C 654.224 228.610, 654.179 228.946, 658.048 234.570 C 660.768 238.524, 663.275 240.925, 661.367 237.750 C 660.915 236.997, 661.332 237.082, 662.418 237.963 C 663.409 238.768, 663.769 239.577, 663.220 239.760 C 662.670 239.943, 663.963 244.010, 666.094 248.797 C 674.768 268.279, 669.709 281.753, 652.502 285 C 633.070 288.666, 607.270 277.735, 590.826 258.867 C 585.545 252.809, 574.785 238.657, 565 224.903 C 554.967 210.799, 546 201.878, 546 206 M 539.045 211.349 C 539.020 211.816, 541.702 215.783, 545.003 220.165 C 552.619 230.272, 558.285 242.018, 561.084 253.500 C 563.359 262.835, 565 266.332, 565 261.843 C 565 258.632, 559.294 238.522, 557.242 234.500 C 553.516 227.198, 539.172 208.948, 539.045 211.349 M 517.956 217.292 C 514.520 219.365, 512.551 221.217, 512.639 222.292 C 512.715 223.232, 512.490 224.035, 512.139 224.077 C 511.788 224.119, 509.475 224.348, 507 224.584 C 485.492 226.639, 479.443 228.202, 469 234.403 C 457.434 241.271, 448.747 250.622, 442.506 262.924 C 439.789 268.279, 435.258 282.010, 434.479 287.250 C 434.091 289.863, 433.374 292, 432.886 292 C 431.549 292, 431.862 281.353, 433.415 274 C 434.170 270.425, 434.707 267.409, 434.608 267.297 C 434.508 267.185, 431.840 268.399, 428.678 269.994 C 413.194 277.804, 399.682 289.460, 391.163 302.357 C 388.584 306.260, 385.516 309.932, 384.344 310.516 C 380.831 312.267, 379.123 313.960, 367.881 326.833 C 361.957 333.616, 355.560 340.366, 353.665 341.833 C 347.479 346.623, 345.956 349.902, 344.442 361.685 C 343.677 367.633, 342.373 375.301, 341.543 378.724 C 337.093 397.092, 335.791 425.442, 338.445 446.199 C 341.244 468.083, 342.187 481.646, 341.910 496 C 341.756 503.975, 341.770 512.791, 341.942 515.591 C 342.151 519.006, 341.731 521.481, 340.665 523.108 C 336.919 528.825, 333.075 544.995, 332.370 558 C 332.177 561.575, 331.571 569, 331.025 574.500 C 329.863 586.212, 331.386 598.500, 334 598.500 C 334.901 598.500, 335.419 597.702, 335.296 596.500 C 334.489 588.588, 335.725 563.288, 336.955 562.528 C 338.815 561.378, 340.097 571.110, 339.259 580.019 C 338.642 586.569, 338.750 591.431, 339.621 596.415 C 340.302 600.312, 341.137 605.590, 341.475 608.145 C 341.929 611.569, 342.594 612.922, 344.004 613.291 C 345.833 613.769, 345.923 613.005, 346.026 596.146 C 346.086 586.441, 346.091 575.272, 346.038 571.327 C 345.985 567.382, 346.360 563.895, 346.872 563.579 C 348.785 562.397, 350.253 573.046, 349.664 583.845 C 349.345 589.705, 349.403 599.827, 349.792 606.339 L 350.500 618.178 353.750 619.541 L 357 620.903 357 606.524 C 357 598.615, 357.498 588.625, 358.108 584.322 C 358.717 580.020, 359.295 574.057, 359.392 571.072 C 359.489 568.086, 360.052 565.483, 360.642 565.286 C 362.273 564.742, 363.014 574.478, 361.989 583 C 360.568 594.822, 360.737 616.122, 362.250 615.925 C 364.907 615.580, 365.889 616.074, 366.524 618.075 C 367.589 621.432, 367.984 619.946, 369.525 606.782 C 371.769 587.604, 373.620 578.762, 378.690 563 C 383.945 546.666, 385 544.668, 385 551.050 C 385 553.497, 385.880 558.200, 386.956 561.500 C 388.031 564.800, 389.393 569.392, 389.982 571.705 C 391.020 575.780, 395.285 582, 397.042 582 C 397.518 582, 397.140 580.626, 396.203 578.947 C 394.550 575.983, 394.566 575.839, 396.750 574.036 C 399.437 571.818, 399.730 566.991, 397.500 561.654 C 396.648 559.615, 396 555.018, 396 551.012 C 396 544.655, 395.559 543.083, 391.528 535.056 C 388.696 529.417, 385.208 524.303, 382.017 521.112 C 375.848 514.943, 375.406 513.822, 373.912 500.543 C 371.529 479.367, 375.617 448.934, 383.258 430.967 C 391.202 412.289, 393.211 404.033, 394.931 383 C 396.798 360.192, 396.996 358.796, 399.041 354.175 C 401.596 348.399, 402.199 349.140, 400.984 356.562 C 399.551 365.311, 399.545 365.283, 402.750 363.653 C 404.262 362.884, 408.626 361.718, 412.447 361.063 C 427.051 358.561, 441.590 351.214, 461 336.530 C 481.338 321.144, 497 308.137, 497 306.631 C 497 306.347, 495.192 305.977, 492.982 305.807 C 486.013 305.274, 488.590 303.575, 499.772 301.331 C 505.717 300.139, 513.427 298.204, 516.907 297.031 C 526.907 293.663, 526.067 295.839, 515.750 300.032 C 509.098 302.735, 508.832 303.274, 513.250 305.103 C 515.038 305.842, 520.811 310.896, 526.080 316.332 L 535.660 326.217 538.718 322.356 C 548.821 309.600, 556.328 281.433, 553.307 267.614 L 552.458 263.728 547.067 270.819 C 544.102 274.719, 541.074 278.141, 540.338 278.424 C 538.454 279.147, 538.664 278.280, 541.250 274.659 C 547.928 265.309, 551.298 254.868, 549.954 247.695 C 548.206 238.375, 544.206 231.851, 538.500 229.016 C 533.629 226.596, 533.573 226.519, 536.328 226.016 L 539.155 225.500 536.097 221.286 C 532.969 216.975, 528.542 214, 525.255 214 C 524.241 214, 520.956 215.482, 517.956 217.292 M 506.172 232.536 C 500.495 235.114, 493 240.556, 493 242.098 C 493 242.610, 494.689 241.910, 496.754 240.544 C 502.983 236.422, 512.747 232.952, 519.321 232.523 C 522.720 232.302, 525.725 232.087, 526 232.045 C 526.275 232.003, 525.825 231.533, 525 231 C 522.112 229.133, 511.812 229.973, 506.172 232.536 M 818 248.140 C 818 251.402, 832.114 269.220, 833.556 267.778 C 833.968 267.365, 821.952 250.976, 818.382 247.083 C 818.172 246.854, 818 247.330, 818 248.140 M 807 251.373 C 807 251.616, 808.121 253.994, 809.492 256.658 C 810.862 259.321, 812.597 265.325, 813.347 270 C 814.487 277.109, 814.837 278.036, 815.486 275.661 C 817.364 268.786, 813.351 254.328, 808.903 251.948 C 807.856 251.388, 807 251.129, 807 251.373 M 823.133 271.618 C 818.615 275.486, 813.002 285, 815.239 285 C 815.939 285, 817.103 283.663, 817.827 282.029 C 818.550 280.396, 821.192 276.778, 823.699 273.990 C 829.201 267.870, 828.915 266.669, 823.133 271.618 M 464.214 302.434 C 460.757 303.115, 457.385 304.215, 456.720 304.880 C 454.480 307.120, 480.241 304.390, 484 301.989 C 486.189 300.590, 471.948 300.911, 464.214 302.434 M 808.032 316.568 C 806.062 325.910, 805.895 329.438, 807.498 327.836 C 808.399 326.935, 812 311.741, 812 308.840 C 812 302.862, 810.171 306.424, 808.032 316.568 M 389.500 322.189 C 378.494 330.725, 373.685 335.018, 374.368 335.702 C 375.134 336.468, 390.884 324.807, 395.435 320.103 C 401.556 313.777, 399.345 314.554, 389.500 322.189 M 492.979 319.215 C 491.043 321.022, 487.979 323.625, 486.170 325 L 482.881 327.500 485.129 333.720 C 488.760 343.765, 490.449 345.288, 498.077 345.394 C 501.621 345.443, 507.044 344.700, 510.176 343.735 C 515.571 342.074, 531 332.708, 531 331.094 C 531 329.180, 522.973 322.620, 517.084 319.721 C 511.992 317.214, 509.048 316.454, 503.539 316.223 C 496.785 315.941, 496.357 316.062, 492.979 319.215 M 545 338.797 C 545 340.315, 552.524 346.837, 557.887 349.966 C 565.163 354.212, 576.181 357.683, 584.577 358.373 C 590.502 358.861, 590.995 358.787, 588 357.861 C 568.302 351.774, 560.831 348.443, 550.881 341.311 C 546.123 337.901, 545 337.421, 545 338.797 M 362.975 346.744 C 359.424 350.828, 358.093 355.620, 358.044 364.496 C 357.996 373.208, 361.928 401, 363.208 401 C 364.360 401, 364.194 397.170, 362.407 382.548 C 360.349 365.702, 360.770 354.970, 363.723 349.055 C 366.382 343.729, 366.169 343.071, 362.975 346.744 M 645.082 347.401 C 641.981 351.137, 625.203 356.901, 616.936 357.070 C 615.046 357.109, 612.600 357.561, 611.500 358.075 C 610.160 358.701, 612.976 358.900, 620.030 358.679 C 628.729 358.405, 631.512 357.909, 636.030 355.822 C 641.241 353.417, 647 348.713, 647 346.864 C 647 345.630, 646.417 345.793, 645.082 347.401 M 355.513 354.314 C 354.018 357.512, 353.036 360.369, 353.330 360.663 C 354.124 361.457, 359.188 351.037, 358.672 349.671 C 358.429 349.027, 357.007 351.116, 355.513 354.314 M 658 349.925 C 658 353.627, 668.971 360.878, 676.800 362.349 C 681.473 363.228, 679.983 361.597, 673.333 358.552 C 670.238 357.135, 665.521 354.407, 662.852 352.489 C 660.184 350.572, 658 349.418, 658 349.925 M 696.728 385.780 C 695.963 399.091, 693.608 409.669, 688.775 421.500 C 685.160 430.350, 684.659 432.565, 684.419 440.764 C 684.269 445.859, 684.471 449.827, 684.868 449.582 C 688.262 447.484, 719.240 441.734, 742.123 438.954 L 751.745 437.785 744.623 430.170 C 740.705 425.982, 731.552 416.468, 724.282 409.028 C 710.592 395.018, 706.278 389.835, 701.574 381.750 C 700.054 379.138, 698.468 376.789, 698.049 376.530 C 697.630 376.271, 697.036 380.434, 696.728 385.780 M 521.609 379.250 C 529.714 393.189, 549.235 410.592, 572 424.173 C 594.153 437.390, 595.785 437.191, 575.662 423.727 C 556.234 410.729, 543.367 400.284, 531.843 388.160 C 523.001 378.857, 519.718 375.999, 521.609 379.250 M 748.975 387.565 C 747.351 391.837, 747.886 392.700, 750.004 389.226 C 752.285 385.484, 752.396 385, 750.975 385 C 750.412 385, 749.512 386.154, 748.975 387.565 M 645.184 390.782 C 649.730 395.814, 661.810 413.020, 666.008 420.445 C 667.857 423.715, 669.551 425.846, 669.773 425.181 C 670.965 421.604, 655.003 395.621, 648.136 389.960 C 642.973 385.705, 641.075 386.233, 645.184 390.782 M 603.167 402.811 C 603.726 404.171, 610.980 410.269, 621.500 418.223 C 627 422.381, 632.357 426.732, 633.405 427.891 C 635.347 430.041, 637 430.642, 637 429.197 C 637 427.430, 626.204 417.526, 619.074 412.753 C 614.908 409.964, 609.860 406.404, 607.856 404.841 C 604.219 402.006, 602.536 401.277, 603.167 402.811 M 519 411.569 C 519 411.979, 520.837 414.696, 523.082 417.606 C 530.556 427.294, 542.577 436.205, 559.813 444.836 C 576.874 453.379, 576.312 450.692, 559.023 441.057 C 546.809 434.251, 535.640 426.195, 525.750 417.058 C 522.038 413.629, 519 411.159, 519 411.569 M 773 442.679 C 771.075 442.876, 762.075 443.710, 753 444.533 C 713.985 448.069, 679.360 455.571, 668.651 462.808 C 658.535 469.645, 646.338 491.631, 641.464 511.818 C 640.276 516.737, 639.009 519.617, 637.598 520.605 C 636.444 521.413, 632.015 524.347, 627.756 527.126 L 620.012 532.179 623.435 536.339 C 625.318 538.628, 628.915 542.453, 631.429 544.840 L 636 549.180 636.022 562.340 C 636.060 584.650, 638.417 608.817, 640.786 611.186 C 643.005 613.405, 665.717 603.301, 679.665 593.888 C 683.759 591.126, 693.497 583.237, 701.304 576.357 C 709.112 569.477, 718.714 561.744, 722.643 559.174 C 729.548 554.655, 729.893 554.235, 733.034 546.500 C 740.274 528.674, 748.928 517.637, 761.852 509.747 C 765.234 507.682, 768 506.346, 768 506.778 C 768 507.209, 765.261 510.249, 761.913 513.531 C 736.343 538.605, 726.163 579.583, 738.529 607.660 C 739.338 609.497, 740.751 612.688, 741.670 614.750 C 742.888 617.485, 743.685 624.317, 744.614 640 C 747.108 682.067, 745.903 716.980, 741.443 731.912 C 740.209 736.042, 740.084 737.888, 740.913 739.709 C 741.511 741.021, 742 744.965, 742 748.474 C 742 754.241, 742.265 755.064, 744.750 757.030 C 748.737 760.183, 754.562 759.193, 765.406 753.521 C 774.038 749.006, 774.252 748.806, 774.431 745.121 C 774.728 739.001, 777.836 734.881, 784.706 731.500 L 790.802 728.500 790.248 714.313 C 789.214 687.825, 793.392 665.025, 806.590 625.139 C 816.023 596.634, 823.828 557.043, 823.770 538 C 823.761 535.357, 825.272 529.166, 827.429 523 C 833.715 505.029, 833.952 503.667, 834.236 483.924 C 834.484 466.643, 834.365 465.252, 832.331 461.500 C 829.271 455.858, 821.355 448.470, 815.697 445.976 C 809.082 443.061, 786.381 441.308, 773 442.679 M 530.500 454.704 C 524.283 456.320, 522.825 457.380, 523.696 459.650 C 524.089 460.675, 524.800 460.516, 526.775 458.962 C 528.187 457.851, 531.298 456.450, 533.688 455.848 C 536.078 455.246, 538.278 454.359, 538.576 453.877 C 539.311 452.687, 537.574 452.865, 530.500 454.704 M 540.481 459.470 C 532.596 461.186, 527.120 463.525, 526.362 465.498 C 525.306 468.250, 526.573 468.207, 535.148 465.199 C 539.741 463.587, 545.638 461.956, 548.250 461.573 C 552.860 460.898, 554.949 459, 551.082 459 C 550.027 459, 548.564 458.811, 547.832 458.580 C 547.099 458.349, 543.791 458.749, 540.481 459.470 M 653 465.923 C 650.525 466.885, 647.600 467.993, 646.500 468.385 C 641.703 470.094, 633.883 474.592, 630.781 477.425 C 628.930 479.116, 622.007 485.313, 615.397 491.196 C 603.987 501.352, 596.646 509.528, 592.455 516.750 C 591.418 518.538, 590.225 520, 589.806 520 C 588.745 520, 590.759 515.639, 595.296 508.112 C 597.414 504.599, 600.177 499.424, 601.436 496.612 C 602.695 493.801, 605.625 489.363, 607.947 486.750 C 612.519 481.607, 612.464 481.466, 606.521 483.116 C 598.999 485.204, 572.228 505.593, 560.980 517.799 C 557.152 521.954, 553.745 525.078, 553.408 524.742 C 552.003 523.337, 561.028 511.210, 568.932 503.883 C 573.609 499.547, 576.797 496, 576.018 496 C 573.825 496, 575.778 494.570, 583.500 490.522 C 593.110 485.485, 593.701 484.639, 587 485.515 C 577.915 486.703, 566.637 494.156, 559.209 503.882 C 556.848 506.972, 552.686 511.882, 549.959 514.792 C 547.231 517.703, 545 520.431, 545 520.855 C 545 523.488, 551.438 527.379, 558.627 529.092 C 562.897 530.110, 566.435 530.843, 566.487 530.721 C 566.540 530.599, 568.927 526.756, 571.792 522.179 C 574.656 517.603, 577 513.642, 577 513.376 C 577 512.312, 588.151 499, 589.043 499 C 590.642 499, 590.136 500.376, 587.196 504.022 C 583.649 508.420, 577.594 518.198, 572.038 528.500 C 559.115 552.459, 548.877 569, 546.970 569 C 545.744 569, 545.719 567.690, 546.920 566.450 C 548.100 565.231, 565.001 534.158, 564.998 533.212 C 564.997 532.821, 563.576 532.400, 561.840 532.278 C 556.466 531.900, 549.578 529.120, 546.068 525.915 C 544.222 524.229, 542.439 523.221, 542.105 523.675 C 536.070 531.894, 524.332 550.784, 520.488 558.464 C 516.978 565.474, 515.407 567.787, 515.188 566.269 C 514.483 561.401, 525.946 539.082, 535.178 527.347 C 539.875 521.375, 539.975 521.110, 538.560 518.347 C 537.758 516.781, 536.859 514.688, 536.561 513.695 C 536.080 512.088, 535.577 512.246, 531.990 515.128 C 529.774 516.909, 526.190 520.661, 524.027 523.465 C 521.864 526.269, 518.947 529.640, 517.547 530.956 C 510.170 537.886, 520.069 521.674, 527.993 513.848 C 533.730 508.182, 534 507.692, 534 502.958 C 534 500.231, 533.663 498.005, 533.250 498.012 C 531.675 498.037, 523.497 503.228, 517.448 508.041 C 510.221 513.792, 508.844 516.604, 506.507 530.381 C 498.197 579.363, 524.712 622.903, 567.837 631.091 C 572.381 631.954, 577.896 632.044, 587.337 631.410 C 594.576 630.923, 607.847 630.593, 616.827 630.676 C 631.961 630.816, 633.050 630.705, 631.737 629.163 C 623.940 620.005, 617.424 575.812, 620.949 556 C 621.974 550.239, 621.970 550.201, 622.472 571.500 C 623.106 598.403, 626.496 615.524, 633.611 627.750 C 635.639 631.235, 636.617 632, 639.042 632 C 642.600 632, 642.571 632.278, 639.564 626.876 C 633.527 616.029, 629.823 593.087, 630.092 568.208 L 630.269 551.917 624.884 545.793 C 621.923 542.425, 618.210 537.925, 616.633 535.793 C 613.113 531.034, 613.367 530.655, 625.714 522.268 C 631.617 518.258, 634.221 515.850, 634.603 514.048 C 636.161 506.702, 641.711 491.539, 645.442 484.439 C 649.808 476.131, 656.825 466, 658.213 466 C 658.646 466, 659 465.550, 659 465 C 659 463.720, 658.448 463.805, 653 465.923 M 803.067 474 C 803.069 474.825, 803.714 476.625, 804.500 478 C 805.806 480.285, 805.932 480.323, 805.965 478.441 C 805.984 477.309, 805.339 475.509, 804.532 474.441 C 803.424 472.976, 803.064 472.868, 803.067 474 M 638.709 481.670 C 633.466 489.975, 626 508.445, 626 513.111 C 626 515.900, 628.182 512.151, 630.016 506.208 C 631.155 502.518, 634.323 494.818, 637.056 489.096 C 642.199 478.327, 642.950 474.950, 638.709 481.670 M 619.076 481.516 C 612.043 486.483, 601.375 498, 603.807 498 C 604.325 498, 606.761 496.087, 609.219 493.750 C 611.677 491.413, 616.009 487.344, 618.844 484.710 C 621.680 482.075, 624 479.713, 624 479.460 C 624 478.504, 622.388 479.177, 619.076 481.516 M 558 489.563 C 551.199 491.032, 539.240 494.863, 537.467 496.140 C 536.323 496.965, 535.641 502.610, 536.515 504.024 C 536.820 504.519, 539.867 503.414, 543.285 501.569 C 546.703 499.724, 551.300 497.654, 553.500 496.968 C 557.093 495.848, 568 489.405, 568 488.403 C 568 487.723, 564.797 488.095, 558 489.563 M 766.321 491.316 C 755.562 494.189, 754.637 495.438, 763.924 494.552 C 771.476 493.832, 779 491.506, 779 489.891 C 779 488.511, 775.242 488.933, 766.321 491.316 M 802 497.499 C 802 498.323, 803.800 502.995, 806 507.881 C 808.200 512.767, 810 517.267, 810 517.882 C 810 518.497, 810.490 519, 811.088 519 C 813.024 519, 811.071 510.854, 807.311 503.250 C 803.881 496.313, 802 494.276, 802 497.499 M 550.069 501.567 C 545.220 503.671, 537.996 509.818, 538.022 511.817 C 538.034 512.743, 538.952 514.625, 540.062 516 C 542.054 518.469, 542.097 518.475, 543.511 516.500 C 544.298 515.400, 547.249 512.028, 550.067 509.006 C 558.440 500.028, 558.440 497.935, 550.069 501.567 M 741.500 509.331 C 737.650 511.689, 727.975 517.617, 720 522.504 C 702.431 533.270, 677.994 547, 676.403 547 C 675.766 547, 674.631 547.740, 673.880 548.644 C 671.723 551.244, 675.601 549.773, 691.500 541.961 C 713.992 530.909, 717.126 529.022, 747.057 508.500 C 749.839 506.592, 750.859 504.975, 749.250 505.022 C 748.837 505.034, 745.350 506.973, 741.500 509.331 M 777.683 532.016 C 774.105 541.675, 768.909 571.625, 767.537 590.500 C 766.596 603.444, 764.489 624.046, 763.395 631 C 762.999 633.520, 763.150 634.202, 763.936 633.436 C 765.809 631.610, 769.659 605.690, 772.985 572.500 C 774.120 561.177, 775.910 549.941, 778.606 537.223 C 780.457 528.490, 779.982 525.810, 777.683 532.016 M 588.500 531.125 C 584.650 531.598, 579.700 531.744, 577.500 531.448 C 573.674 530.932, 573.587 530.980, 575.500 532.551 C 577.146 533.903, 579.005 534.092, 586 533.619 C 597.860 532.817, 604 531.877, 604 530.864 C 604 529.838, 598.154 529.936, 588.500 531.125 M 597.559 546.582 C 585.136 573.197, 571.846 596.490, 564.157 605.123 C 558.479 611.500, 561.221 611.616, 567.150 605.250 C 577.157 594.505, 585.463 580.142, 595.474 556.274 C 599.893 545.739, 601.552 538.027, 597.559 546.582 M 397.573 574.882 C 396.755 576.205, 399.459 581, 401.023 581 C 402.594 581, 402.151 578.408, 400.159 575.948 C 398.850 574.332, 398.103 574.024, 397.573 574.882 M 755.707 600.141 C 750.989 607.561, 749.741 610.074, 750.429 610.763 C 751.212 611.545, 753.234 608.773, 757.056 601.680 C 761.083 594.207, 760.154 593.147, 755.707 600.141 M 674.684 609.686 C 672.108 614.081, 670.013 618.536, 670.030 619.588 C 670.046 620.640, 672.224 632.264, 674.870 645.421 C 679.259 667.241, 679.739 668.919, 680.341 664.531 C 681.238 657.983, 681.044 605.971, 680.114 603.599 C 679.504 602.046, 678.510 603.161, 674.684 609.686 M 666 609.441 C 664.625 610.189, 659 612.500, 653.500 614.576 C 648 616.652, 643.301 618.508, 643.058 618.700 C 642.227 619.358, 645.236 626.496, 647.294 628.750 C 650.287 632.027, 652.016 631.562, 656.584 626.250 C 661.047 621.060, 669.868 607.793, 668.691 608.040 C 668.586 608.062, 667.375 608.692, 666 609.441 M 343.166 617.060 C 343.350 618.316, 344.100 619.541, 344.834 619.783 C 345.741 620.082, 346.061 619.491, 345.834 617.940 C 345.650 616.684, 344.900 615.459, 344.166 615.217 C 343.259 614.918, 342.939 615.509, 343.166 617.060 M 361.394 618.417 C 360.540 620.642, 361.641 623, 363.535 623 C 364.679 623, 365.043 622.241, 364.816 620.327 C 364.454 617.266, 362.297 616.062, 361.394 618.417 M 351.353 621.523 C 350.630 623.408, 351.913 626.138, 353.821 626.774 C 355.546 627.349, 355.285 622.481, 353.512 621.010 C 352.300 620.004, 351.899 620.100, 351.353 621.523 M 666 623.630 C 666 624.196, 663.516 627.404, 660.480 630.758 C 652.638 639.425, 650.029 639.998, 630.399 637.367 C 626.358 636.826, 626.256 636.889, 623.525 641.659 C 622 644.321, 617.550 650.750, 613.636 655.946 C 606.558 665.339, 606.517 665.430, 606.159 672.517 L 605.799 679.642 612.534 678.636 C 629.075 676.164, 663.486 685.868, 674.615 696.143 L 676.731 698.096 677.365 694.923 C 678.946 687.018, 677.896 676.743, 672.873 651 C 670.030 636.425, 667.320 624.072, 666.852 623.550 C 666.319 622.956, 666 622.986, 666 623.630 M 551 633.443 C 551 633.804, 551.687 635.427, 552.526 637.050 C 553.899 639.705, 554.524 639.993, 558.776 639.930 C 567.659 639.798, 568.197 638.559, 560.477 636.011 C 556.640 634.744, 552.938 633.500, 552.250 633.247 C 551.563 632.993, 551 633.082, 551 633.443 M 610.461 637.405 C 609.224 638.309, 608.974 640.330, 609.208 647.518 L 609.500 656.500 615.832 647.166 C 619.315 642.032, 621.898 637.564, 621.571 637.238 C 620.471 636.137, 612.020 636.265, 610.461 637.405 M 588 642.381 C 583.325 644.720, 575.144 648.967, 569.820 651.817 C 553.461 660.576, 553.858 658.519, 570.690 647.310 C 577.063 643.065, 581.788 639.429, 581.189 639.230 C 580.591 639.030, 576.689 639.825, 572.518 640.995 C 568.347 642.165, 563.037 643.208, 560.717 643.311 C 556.854 643.484, 556.472 643.745, 556.168 646.412 C 555.985 648.014, 556.369 650.320, 557.020 651.537 C 557.867 653.120, 557.905 654.309, 557.154 655.713 C 554.540 660.597, 553.220 686.719, 554.859 701.151 L 555.500 706.801 566.299 699.575 C 577.582 692.025, 592.629 684.079, 599.558 682.010 L 603.617 680.798 604.947 668.649 C 605.679 661.967, 606.455 652.900, 606.672 648.500 L 607.066 640.500 599.283 648.885 C 581.902 667.611, 566.144 683.462, 565.521 682.847 C 565.158 682.487, 570.404 675.773, 577.180 667.925 C 583.956 660.078, 591.345 651.372, 593.601 648.579 C 595.856 645.785, 598.669 642.643, 599.851 641.595 C 605.650 636.455, 598.954 636.899, 588 642.381 M 612.536 685.118 C 600.650 686.840, 585.478 693.692, 569 704.780 L 560.500 710.500 560.627 718.500 C 560.768 727.376, 565.204 747.847, 570.104 762.233 C 572.778 770.083, 573.176 772.921, 574.040 790.292 C 574.568 800.921, 575.901 814.516, 577 820.502 C 578.100 826.488, 578.978 832.986, 578.951 834.943 C 578.902 838.489, 578.893 838.483, 576.201 832.702 L 573.500 826.905 568.181 839.202 C 561.591 854.438, 552.331 878.482, 551.507 882.500 C 548.315 898.055, 547.801 903.167, 548.339 914 C 548.987 927.025, 550.297 932.023, 556.129 943.730 C 558.465 948.417, 559.965 952.649, 559.615 953.561 C 559.277 954.441, 558.848 971.663, 558.661 991.831 C 558.309 1029.889, 557.144 1042.399, 552.419 1058.859 C 551.247 1062.942, 551.133 1064.943, 551.940 1067.259 C 552.523 1068.930, 553 1072.460, 553 1075.102 C 553 1088.269, 561.192 1091.103, 577.365 1083.531 C 581.513 1081.589, 585.378 1080, 585.954 1080 C 586.529 1080, 587 1078.267, 587 1076.148 C 587 1070.706, 590.453 1066.001, 596.610 1063.053 L 601.721 1060.606 602.303 1046.553 C 603.109 1027.058, 605.524 1015.287, 616.981 975 C 628.925 932.998, 632.767 911.354, 633.578 881.500 C 634.041 864.476, 633.862 863.820, 630.858 871.500 C 630.035 873.606, 629.568 874.013, 629.292 872.866 C 628.660 870.242, 632.811 855.332, 637.189 844.500 C 641.412 834.051, 643.822 820.005, 640.921 822.750 C 639.420 824.170, 632 824.469, 632 823.108 C 632 822.618, 633.025 821.960, 634.277 821.645 C 638.221 820.655, 644.592 814.367, 646.269 809.807 C 647.470 806.543, 647.967 800.173, 648.321 783.500 C 648.771 762.276, 650.106 751.935, 651.999 754.998 C 652.448 755.724, 652.590 757.034, 652.314 757.909 C 652.022 758.837, 652.594 758.548, 653.687 757.216 C 658.460 751.395, 669.095 715.704, 669.376 704.563 L 669.500 699.625 662.162 695.777 C 645.702 687.146, 626.702 683.065, 612.536 685.118 M 756.783 689 C 756.450 690.375, 755.190 697.800, 753.982 705.500 C 752.774 713.200, 750.670 723.325, 749.307 728 C 746.555 737.440, 746.626 743.254, 749.549 747.715 C 751.827 751.192, 752.377 749.577, 751.172 742.949 C 750.364 738.499, 750.629 736.267, 753.010 727.462 C 755.788 717.194, 758.562 695.178, 757.794 689.500 C 757.398 686.568, 757.375 686.556, 756.783 689 M 593.947 730.198 C 589.212 747.782, 587.996 762.717, 590.386 773.935 C 591.257 778.024, 592.483 781.849, 593.110 782.435 C 593.955 783.224, 594.082 782.723, 593.599 780.500 C 591.278 769.814, 592.078 749.477, 595.458 733.235 C 596.934 726.145, 595.704 723.673, 593.947 730.198 M 794 734.121 C 783.917 736.832, 780 740.399, 780 746.871 C 780 749.334, 780.494 749.950, 782.896 750.477 C 784.489 750.827, 786.584 751.988, 787.551 753.057 C 789.414 755.115, 791.525 755.578, 792.423 754.125 C 793.159 752.933, 790.085 743.917, 788.201 741.744 C 787.364 740.778, 786.957 739.710, 787.296 739.370 C 788.720 737.946, 790.888 740.163, 792.485 744.676 C 795.770 753.959, 795.938 754.240, 797.773 753.500 C 798.723 753.116, 801.246 752.555, 803.380 752.252 L 807.259 751.702 806.603 744.634 C 805.563 733.447, 803.356 731.606, 794 734.121 M 730.125 739.349 C 729.509 740.091, 728.550 742.904, 727.994 745.599 C 727.438 748.295, 726.717 751.694, 726.393 753.154 C 725.922 755.275, 727.192 757.985, 732.720 766.654 C 739.711 777.618, 742.646 783.684, 745.054 792.148 C 746.245 796.333, 746.782 796.916, 750.438 797.997 C 758.322 800.327, 769.614 807.114, 779.500 815.464 C 790.194 824.497, 791.086 825.045, 790.317 822.102 C 789.317 818.281, 804.350 805.880, 808.274 807.290 C 808.948 807.532, 807.993 808.578, 806.150 809.615 C 788.466 819.565, 788.498 826.038, 806.266 832.762 C 819.568 837.796, 851.295 840.129, 865.268 837.101 C 870.499 835.967, 871.223 835.482, 873.058 831.886 C 875.116 827.852, 880.083 824.011, 883.250 824.004 C 884.212 824.002, 885 823.410, 885 822.688 C 885 820.489, 879.353 817.041, 872.244 814.900 C 868.535 813.783, 861.546 811.016, 856.714 808.751 L 847.927 804.634 842.714 806.916 C 830.595 812.221, 825.722 812.852, 818.534 810.044 C 814.557 808.490, 817.082 806.784, 821.222 808.227 C 825.250 809.631, 832.297 808.507, 839.750 805.269 C 846.652 802.272, 846.866 802.022, 844.042 800.258 C 842.431 799.252, 841.234 799.404, 837.292 801.115 C 831.290 803.721, 819.638 804.473, 817.891 802.369 C 817.023 801.323, 816.993 800.311, 817.779 798.586 C 819.345 795.149, 814.687 790.713, 810.410 791.568 C 806.010 792.448, 803.186 789.172, 805.413 785.773 C 806.915 783.480, 806.837 783.234, 803.609 780.105 C 801.753 778.306, 799.394 776.924, 798.367 777.032 C 794.530 777.439, 793.040 776.943, 791.943 774.893 C 791.127 773.369, 791.117 772.483, 791.907 771.693 C 794.670 768.930, 791.187 763.294, 787.828 765.092 C 781.673 768.386, 776.244 763.313, 781.499 759.179 L 784.107 757.128 781.920 755.957 C 778.635 754.199, 772.712 755.563, 764.653 759.934 C 753.190 766.151, 745.826 766.420, 739.487 760.854 C 735.625 757.463, 734.420 754.223, 733.498 744.750 C 732.835 737.942, 732.173 736.882, 730.125 739.349 M 808 758 C 805.662 759.829, 805.633 759.957, 807.550 759.978 C 809.609 760, 812 758.293, 812 756.800 C 812 755.510, 810.675 755.908, 808 758 M 791 758.472 C 782.751 760.924, 782 761.228, 782 762.117 C 782 763.342, 782.573 763.267, 790.500 761 C 794.346 759.900, 799.183 759, 801.247 759 C 803.311 759, 805 758.550, 805 758 C 805 756.588, 796.358 756.880, 791 758.472 M 721.873 761.750 C 721.281 763.263, 720.084 768.045, 719.215 772.379 C 717.303 781.904, 718.016 783.795, 725.385 788.747 C 729.425 791.462, 741.892 796.345, 742.759 795.552 C 743.209 795.141, 739.208 783.305, 737.444 779.831 C 736.514 777.999, 734.263 774.403, 732.443 771.840 C 730.622 769.276, 728.193 765.339, 727.046 763.090 C 724.600 758.296, 723.353 757.973, 721.873 761.750 M 801.273 764.373 C 798.179 766.412, 796.458 768.791, 797.397 769.730 C 797.640 769.974, 799.562 768.595, 801.667 766.667 C 806.133 762.574, 805.916 761.312, 801.273 764.373 M 807 766.500 C 805.949 767.766, 806.151 768, 808.296 768 C 811.680 768, 814.119 767.001, 813.435 765.895 C 812.552 764.466, 808.361 764.860, 807 766.500 M 763.780 773.007 C 760.633 774.041, 755.346 775.422, 752.030 776.074 C 744.543 777.547, 743.851 779.543, 751.163 778.573 C 756.322 777.888, 775 772.310, 775 771.453 C 775 770.433, 769.141 771.244, 763.780 773.007 M 803.500 772.537 L 799.500 773.920 804 773.309 C 806.475 772.972, 811.340 772.766, 814.810 772.850 C 818.805 772.947, 820.893 772.636, 820.501 772.002 C 819.607 770.554, 808.194 770.914, 803.500 772.537 M 781.167 772.907 C 781.350 773.406, 787.125 779.762, 794 787.033 C 800.875 794.303, 806.865 800.879, 807.311 801.647 C 807.758 802.414, 808.546 802.780, 809.064 802.460 C 810.430 801.616, 808.490 798.460, 803.646 793.646 C 801.350 791.366, 795.781 785.563, 791.270 780.750 C 784.094 773.096, 780.095 769.991, 781.167 772.907 M 635.427 779.250 C 628.010 789.604, 615.802 799, 609.765 799 C 608.244 799, 607 799.441, 607 799.981 C 607 801.700, 612.105 802.319, 616.986 801.193 C 623.040 799.795, 632.369 790.515, 637.537 780.750 C 641.795 772.704, 640.682 771.913, 635.427 779.250 M 808.750 776.757 C 806.876 777.174, 806.436 778.534, 807.887 779.430 C 808.374 779.731, 809.338 779.297, 810.029 778.465 C 811.505 776.686, 811.157 776.222, 808.750 776.757 M 814.022 778.474 C 813.303 779.340, 812.892 780.205, 813.107 780.397 C 813.965 781.159, 822.500 779.435, 822.500 778.500 C 822.500 776.762, 815.460 776.740, 814.022 778.474 M 816 783.930 C 811.780 784.774, 808 786.714, 808 788.035 C 808 789.329, 808.162 789.301, 814 787 C 816.791 785.900, 821.307 785, 824.037 785 C 826.767 785, 829 784.550, 829 784 C 829 782.888, 821.414 782.847, 816 783.930 M 710.613 790.076 C 707.403 796.569, 707.435 801.604, 710.707 805.240 C 715.937 811.052, 730.113 817.636, 743.500 820.471 C 747.900 821.403, 754.095 822.727, 757.266 823.414 L 763.031 824.662 760.826 822.314 C 759.612 821.023, 756.905 819.453, 754.810 818.825 C 752.714 818.197, 751 817.274, 751 816.774 C 751 815.733, 754.133 816.565, 758.500 818.765 C 764.445 821.759, 769.884 826.303, 774.759 832.346 C 785.266 845.371, 809.974 853.165, 836.032 851.674 C 848.319 850.971, 860.776 847.504, 865.500 843.471 L 868.500 840.910 865.500 841.427 C 856.795 842.927, 838.759 842.980, 827.853 841.538 C 807.413 838.836, 793.686 833.152, 781.073 822.168 C 765.872 808.930, 757.451 804.072, 743.500 800.489 C 733.413 797.898, 722.121 792.505, 717.500 788.072 L 713.500 784.234 710.613 790.076 M 819.750 788.689 C 817.954 789.159, 817.515 790.182, 818.631 791.298 C 819.451 792.118, 823 790.222, 823 788.965 C 823 787.960, 822.653 787.931, 819.750 788.689 M 825.452 791.138 C 823.147 793.613, 822.939 794.137, 824.500 793.526 C 825.600 793.095, 827.535 792.519, 828.799 792.245 C 830.188 791.945, 830.980 791.138, 830.799 790.207 C 830.283 787.547, 828.509 787.856, 825.452 791.138 M 828.500 795.646 C 825.750 796.475, 822.612 798.019, 821.528 799.077 C 819.088 801.456, 820.597 801.549, 825.096 799.296 C 826.968 798.358, 831.200 796.815, 834.500 795.867 C 839.704 794.371, 840.035 794.142, 837 794.141 C 835.075 794.140, 831.250 794.817, 828.500 795.646 M 621.667 802.667 C 620.616 803.718, 620.890 811.814, 622 812.500 C 622.621 812.884, 623 811.010, 623 807.559 C 623 801.939, 622.870 801.463, 621.667 802.667 M 881.224 829.022 C 879.885 829.571, 878.111 831.919, 876.914 834.727 C 875.795 837.352, 873.219 841.246, 871.190 843.379 L 867.500 847.258 870.500 846.592 C 872.150 846.225, 876.282 844.579, 879.682 842.933 C 884.762 840.475, 886.067 839.326, 887.004 836.488 C 889.270 829.623, 886.979 826.663, 881.224 829.022 M 616.703 829.631 C 616.316 830.017, 616 831.521, 616 832.972 C 616 836.409, 620.473 849.666, 621.219 848.441 C 622.454 846.415, 618.091 828.243, 616.703 829.631 M 590.409 847.250 C 591.199 849.038, 593.514 854.325, 595.553 859 C 600.116 869.464, 601.448 871.076, 600.514 865 C 599.385 857.660, 592.493 844, 589.918 844 C 589.399 844, 589.619 845.462, 590.409 847.250 M 598.994 886 C 598.913 887.925, 598.721 890.175, 598.568 891 C 598.415 891.825, 597.984 897.450, 597.611 903.500 C 596.721 917.933, 591.228 951.742, 586.319 973 C 585.889 974.861, 586.037 975.225, 586.896 974.425 C 589.577 971.928, 598.147 933.017, 599.953 915.144 C 601.189 902.915, 601.213 887.323, 600 884.500 C 599.289 882.845, 599.115 883.105, 598.994 886 M 582 924.274 C 580.075 927.692, 575.201 933.812, 571.170 937.873 C 564.988 944.101, 564.272 945.148, 566.603 944.564 C 571.743 943.273, 579.158 935.553, 583.471 927 C 588.656 916.720, 587.481 914.542, 582 924.274 M 568.852 1030 C 567.948 1034.125, 566.710 1040.482, 566.102 1044.126 C 565.494 1047.770, 564.065 1053.620, 562.926 1057.126 C 560.312 1065.174, 560.679 1073.124, 563.809 1076.254 C 566.672 1079.116, 567.201 1078.241, 565.499 1073.462 C 563.558 1068.012, 563.665 1064.930, 566.042 1057.875 C 568.385 1050.919, 571.269 1031.778, 570.808 1026.240 C 570.533 1022.933, 570.307 1023.368, 568.852 1030 M 540.993 1066.509 C 540.304 1067.339, 538.938 1071.005, 537.958 1074.655 C 535.846 1082.523, 535.948 1082.850, 544.219 1094.755 C 551.256 1104.884, 552.284 1106.848, 555.404 1116.111 L 557.877 1123.455 564.688 1125.558 C 574.793 1128.677, 588.114 1136.381, 593 1141.932 C 593.275 1142.244, 595.445 1144.216, 597.823 1146.313 L 602.146 1150.127 604.323 1145.813 C 607.242 1140.030, 619 1132.109, 619 1135.927 C 619 1136.436, 616.609 1138.221, 613.687 1139.893 C 604.634 1145.073, 603.394 1151.374, 610.500 1156.098 C 620.554 1162.782, 635.872 1166.038, 656.822 1165.942 C 675.149 1165.859, 676.962 1165.404, 679.853 1160.164 C 682.058 1156.167, 684.448 1154.447, 690.500 1152.504 C 694.384 1151.256, 686.593 1145.737, 676.469 1142.564 C 671.536 1141.018, 665.173 1138.446, 662.329 1136.848 L 657.158 1133.944 648.419 1136.972 C 638.450 1140.426, 634.544 1140.704, 629.534 1138.315 C 625.639 1136.458, 624.662 1134.323, 628.250 1135.512 C 633.628 1137.293, 639.610 1137.140, 645.025 1135.082 C 648.036 1133.937, 651.325 1133.001, 652.333 1133.001 C 654.459 1133, 654.126 1131.113, 651.733 1129.603 C 650.570 1128.870, 648.822 1128.938, 645.793 1129.833 C 643.432 1130.531, 638.691 1131.282, 635.258 1131.501 C 629.796 1131.850, 628.882 1131.649, 627.939 1129.886 C 627.155 1128.421, 627.178 1127.491, 628.024 1126.471 C 628.931 1125.378, 628.722 1124.418, 627.072 1122.102 C 625.270 1119.571, 624.475 1119.211, 621.683 1119.664 C 617.321 1120.372, 615.193 1118.066, 616.851 1114.427 C 618.267 1111.320, 614.689 1105.486, 612.042 1106.586 C 608.579 1108.025, 607.408 1108.027, 605.500 1106.598 C 603.588 1105.165, 603.574 1104.967, 605.178 1102.093 C 606.777 1099.230, 606.762 1098.967, 604.858 1096.546 C 603.211 1094.453, 602.511 1094.192, 600.880 1095.064 C 598.116 1096.543, 593.912 1095.845, 592.601 1093.689 C 591.697 1092.203, 591.994 1091.450, 594.259 1089.479 C 596.899 1087.184, 596.934 1087.035, 595.075 1086.040 C 591.468 1084.110, 586.691 1084.981, 578.487 1089.064 C 560.592 1097.971, 547.775 1093.218, 546.323 1077.137 C 545.888 1072.317, 543.629 1065, 542.576 1065 C 542.394 1065, 541.681 1065.679, 540.993 1066.509 M 606 1065.984 C 599.484 1067.022, 595.015 1069.720, 593.397 1073.593 C 591.420 1078.324, 591.590 1078.931, 595.330 1080.493 C 597.161 1081.258, 599.241 1082.585, 599.952 1083.442 C 601.064 1084.783, 604 1085.663, 604 1084.657 C 604 1084.249, 600.515 1074.264, 599.496 1071.750 C 599.105 1070.787, 599.223 1070, 599.756 1070 C 600.783 1070, 606 1080.868, 606 1083.006 C 606 1083.901, 607.078 1084.083, 609.750 1083.642 C 611.813 1083.301, 614.353 1083.017, 615.395 1083.011 C 617.125 1083.001, 617.236 1082.426, 616.669 1076.362 C 616.040 1069.626, 613.956 1064.891, 611.727 1065.134 C 611.052 1065.207, 608.475 1065.590, 606 1065.984 M 532.709 1087.657 C 528.975 1095.039, 527.011 1104.618, 528.385 1108.748 C 529.671 1112.612, 542.440 1120.054, 550.321 1121.532 C 554.808 1122.374, 554.856 1121.982, 551.351 1113.220 C 549.363 1108.250, 537.116 1087.879, 534.480 1085.157 C 534.297 1084.968, 533.500 1086.093, 532.709 1087.657 M 603.521 1088.561 C 597.709 1090.016, 595.085 1091.418, 596.161 1092.494 C 596.451 1092.784, 598.446 1092.406, 600.594 1091.653 C 606.520 1089.577, 613.056 1088.920, 617.472 1089.957 C 622.018 1091.024, 623.103 1090.661, 620.126 1089.067 C 616.648 1087.206, 609.773 1086.997, 603.521 1088.561 M 612.005 1092.957 C 610.633 1093.304, 609.363 1094.355, 609.182 1095.294 C 608.754 1097.518, 609.933 1097.406, 612.892 1094.942 C 615.690 1092.611, 615.455 1092.084, 612.005 1092.957 M 617.545 1095.591 C 615.779 1096.882, 615.982 1097, 619.976 1097 C 624.582 1097, 624.681 1096.883, 621.486 1095.226 C 619.992 1094.452, 618.974 1094.546, 617.545 1095.591 M 578.500 1102.032 C 574.650 1103.053, 568.688 1104.200, 565.250 1104.582 C 561.813 1104.964, 559 1105.726, 559 1106.275 C 559 1107.791, 570.287 1106.516, 579.750 1103.931 C 584.288 1102.692, 588 1101.300, 588 1100.839 C 588 1099.701, 586.657 1099.869, 578.500 1102.032 M 613.269 1100.940 C 610.941 1101.319, 608.729 1101.938, 608.352 1102.315 C 606.977 1103.689, 608.703 1103.921, 612.504 1102.871 C 614.645 1102.280, 619.457 1101.970, 623.198 1102.181 C 629.911 1102.560, 632.130 1101.804, 627.750 1100.630 C 624.989 1099.890, 618.911 1100.020, 613.269 1100.940 M 596.308 1106.250 C 599.204 1109.138, 605.719 1115.905, 610.786 1121.288 C 616.599 1127.463, 619.994 1130.416, 619.985 1129.288 C 619.962 1126.664, 619.407 1125.992, 606.485 1112.943 C 599.980 1106.374, 593.845 1101, 592.850 1101 C 591.546 1101, 592.508 1102.461, 596.308 1106.250 M 623.365 1107.417 C 621.789 1108.803, 621.013 1109.951, 621.639 1109.968 C 623.254 1110.013, 627.629 1106.302, 626.865 1105.535 C 626.516 1105.184, 624.941 1106.031, 623.365 1107.417 M 521.386 1113.247 C 520.468 1115.036, 518.881 1117.573, 517.859 1118.885 C 509.250 1129.931, 529.913 1144.201, 560.835 1148.563 C 566.519 1149.365, 572.084 1150.510, 573.201 1151.107 C 574.799 1151.963, 575.137 1151.907, 574.787 1150.847 C 574.542 1150.106, 573.478 1149.039, 572.421 1148.477 C 567.178 1145.683, 565.870 1144.797, 566.321 1144.346 C 567.155 1143.512, 577.282 1148.751, 581.348 1152.120 C 583.465 1153.873, 586.968 1157.549, 589.133 1160.288 C 596.836 1170.033, 607.290 1175.250, 624.683 1178.029 C 631.226 1179.074, 649.788 1179.410, 654 1178.558 C 660.150 1177.316, 669.872 1173.678, 672.373 1171.683 L 675.112 1169.499 663.295 1169.848 C 640.147 1170.531, 620.053 1166.893, 608.493 1159.926 C 605.367 1158.042, 599.041 1153.065, 594.435 1148.867 C 579.715 1135.451, 573.016 1131.774, 554.679 1127.046 C 541.058 1123.534, 530.599 1118.585, 526.193 1113.567 L 523.055 1109.993 521.386 1113.247 M 623.250 1114.119 C 621.462 1114.635, 620 1115.494, 620 1116.029 C 620 1117.243, 620.242 1117.239, 623.601 1115.962 C 625.103 1115.391, 629.257 1114.901, 632.832 1114.873 C 637.068 1114.841, 638.839 1114.511, 637.916 1113.927 C 636.110 1112.784, 627.483 1112.896, 623.250 1114.119 M 634.872 1120.673 C 633.640 1122.176, 633.755 1122.279, 636 1121.687 C 637.375 1121.324, 639.089 1121.021, 639.809 1121.014 C 640.529 1121.006, 640.840 1120.550, 640.500 1120 C 639.539 1118.445, 636.391 1118.822, 634.872 1120.673 M 637 1125.168 C 632.535 1126.429, 630.188 1128.599, 634.500 1127.479 C 636.150 1127.051, 640.200 1126.137, 643.500 1125.448 L 649.500 1124.196 645 1124.188 C 642.525 1124.184, 638.925 1124.625, 637 1125.168 M 688.881 1157.743 C 686.073 1158.851, 684.731 1160.305, 682.895 1164.223 C 681.594 1167.001, 679.285 1170.449, 677.765 1171.884 C 673.689 1175.731, 674.298 1175.981, 681.554 1173.446 C 691.675 1169.909, 694 1167.653, 694 1161.368 C 694 1156.240, 693.530 1155.908, 688.881 1157.743" fill="#1f6b4c" fill-rule="evenodd"/>
</svg>