<svg xmlns="http://www.w3.org/2000/svg" width="512" height="512" viewBox="-46.681 -49.854 1368.645 1368.645" version="1.1">
	<title>hindu push up</title><path d="M 1033.500 203.569 C 1036.993 206.548, 1036.845 206.546, 1024.906 203.451 C 1019.073 201.939, 1017.976 201.909, 1015.406 203.188 C 1013.808 203.983, 1012.612 205.166, 1012.750 205.817 C 1012.923 206.636, 1010.908 207, 1006.194 207 C 1000.505 207, 998.833 207.410, 996 209.500 C 993.608 211.264, 991.331 212, 988.260 212 C 985.014 212, 983.306 212.603, 981.536 214.374 C 980.230 215.679, 977.454 217.068, 975.366 217.459 C 970.252 218.419, 966.340 220.551, 964.476 223.397 C 963.306 225.183, 961.766 225.864, 958.106 226.216 C 951.923 226.810, 945.462 231.064, 941.500 237.151 C 939.298 240.533, 937.488 242.072, 934.694 242.936 C 929.828 244.442, 923.309 251.138, 922.009 255.967 C 921.258 258.755, 919.909 260.400, 916.715 262.418 C 910.244 266.509, 906.634 272.842, 907.231 279.057 C 907.688 283.813, 907.570 284.103, 904.345 286.096 C 900.676 288.364, 896.575 294.677, 895.539 299.655 C 894.821 303.108, 896.554 305.229, 898.172 302.878 C 898.804 301.961, 898.895 302.672, 898.445 305 C 898.073 306.925, 897.319 309.058, 896.770 309.741 C 896.199 310.449, 896.085 312.381, 896.504 314.241 C 896.907 316.033, 897.296 320.736, 897.368 324.691 C 897.479 330.761, 897.851 332.209, 899.750 333.980 C 900.987 335.134, 902 337.116, 902 338.384 C 902 339.652, 902.900 341.505, 904 342.500 C 905.250 343.631, 906 345.580, 906 347.695 C 906 353.529, 911.889 363.202, 916.535 365 C 917.655 365.433, 919.453 367.523, 920.531 369.644 C 924.170 376.802, 926.300 379.245, 930.533 381.118 C 933.413 382.392, 935.161 383.974, 936.045 386.108 C 937.455 389.513, 944.247 395, 947.051 395 C 948.014 395, 949.692 396.509, 950.780 398.352 C 951.924 400.291, 954.602 402.602, 957.129 403.833 C 961.833 406.123, 970.565 412.762, 971.375 414.664 C 971.648 415.305, 971.008 417.523, 969.952 419.594 C 968.081 423.263, 967.699 423.456, 954.767 427.248 C 914.950 438.923, 899.072 450.561, 885.082 478.324 C 881.486 485.461, 879.368 488.241, 873.697 493.269 C 860.508 504.962, 850.130 520.636, 844.411 537.500 C 840.674 548.519, 839.981 567.672, 842.771 582.831 C 844.453 591.966, 844.524 593.991, 843.389 600.331 C 842.683 604.274, 842.082 612.747, 842.053 619.160 C 842.007 629.195, 841.600 632.052, 839.126 639.660 C 837.546 644.522, 835.459 652.775, 834.489 658 C 833.417 663.768, 832.016 668.252, 830.921 669.413 C 829.148 671.294, 829.021 671.283, 823.309 668.755 C 814.694 664.942, 806.855 663.650, 796.883 664.402 C 791.915 664.777, 787.170 664.635, 785.676 664.067 C 781.508 662.482, 760.324 660, 750.966 660 C 739.489 660, 722.462 662.456, 712 665.621 C 696.886 670.193, 678.247 681.369, 669.076 691.359 C 667.742 692.812, 665.660 694, 664.448 694 C 661.300 694, 655.224 696.693, 650 700.405 C 644.564 704.266, 634.933 706.010, 619 706.018 C 612.461 706.022, 606.425 706.617, 603 707.597 C 599.975 708.463, 595.182 709.581, 592.350 710.084 C 589.517 710.586, 578.942 713.430, 568.850 716.404 C 539.830 724.956, 531.950 726.374, 517.058 725.722 C 506.124 725.243, 502.819 724.651, 491.500 721.145 C 451.786 708.843, 428.098 709.315, 399.500 722.979 L 389.500 727.757 375 728.430 C 354.802 729.366, 345.926 730.458, 321.114 735.056 C 291.100 740.619, 275.903 742.218, 253.190 742.206 L 233.880 742.195 230.690 738.531 C 227.612 734.997, 227.183 734.838, 218.500 734.008 C 213.550 733.535, 206.575 732.244, 203 731.140 C 199.425 730.035, 194.700 728.808, 192.500 728.414 C 190.300 728.021, 187.125 726.655, 185.445 725.379 C 170.986 714.404, 154.562 717.178, 144.643 732.270 C 140.643 738.357, 136.337 750.821, 135.812 757.831 C 135.565 761.124, 135.516 761.155, 131.531 760.569 C 120.602 758.964, 101.626 757.041, 101.174 757.493 C 100.892 757.774, 99.951 757.386, 99.081 756.631 C 95.978 753.937, 85.550 750.790, 79.500 750.723 C 68.403 750.599, 58.707 757.057, 53.206 768.236 C 50.017 774.716, 49.206 777.616, 46.556 792 C 44.129 805.177, 45.012 828.378, 48.058 831.450 C 50.060 833.469, 47.721 854.222, 45.141 857.331 C 40.164 863.328, 35.943 886.212, 37.809 897.089 C 38.464 900.910, 39 905.168, 39 906.551 C 39 910.986, 45.003 924.806, 49.567 930.878 C 58.918 943.317, 68.403 949.576, 82.208 952.415 C 92.403 954.511, 113.606 954.512, 123.755 952.416 C 137.734 949.528, 140.383 946.945, 141.358 935.257 C 142.238 924.709, 140.416 918.512, 134.994 913.614 C 132.095 910.995, 131 909.216, 131 907.125 C 131 905.541, 130.325 903.685, 129.500 903 C 127.572 901.400, 127.595 899.024, 129.564 896.212 C 130.424 894.984, 130.872 893.174, 130.560 892.189 C 130.225 891.133, 130.997 889.037, 132.445 887.074 L 134.899 883.749 135.499 886.624 C 139.069 903.735, 150.285 921.023, 161.540 926.765 C 170.394 931.282, 176.720 932.444, 192.500 932.449 C 220.200 932.458, 229.762 928.377, 230.225 916.350 C 230.776 902.051, 229.171 897.419, 221.688 891.711 C 219.734 890.221, 217.828 887.989, 217.453 886.751 C 217.077 885.513, 215.963 883.600, 214.976 882.500 C 213.659 881.031, 213.281 879.305, 213.555 876 C 214.139 868.955, 215.140 864.032, 216.110 863.432 C 217.287 862.704, 217.239 865.679, 216.005 869.984 C 214.857 873.984, 215.514 877, 217.532 877 C 219.983 877, 220.767 873.805, 221.511 860.774 C 222.321 846.585, 222.812 845.557, 228.079 847.011 C 229.975 847.535, 234.220 848.395, 237.513 848.924 C 240.806 849.452, 250.025 851.205, 258 852.818 C 286.562 858.597, 294.262 859.500, 315 859.500 C 334.535 859.500, 342.790 858.982, 356.068 856.922 C 373.017 854.292, 391.613 857.556, 410.500 866.477 C 419.993 870.961, 427.202 872.233, 442.500 872.126 C 460.847 871.997, 472.970 873.466, 479 876.551 C 490.321 882.342, 498.656 884.951, 516.331 888.238 L 523.162 889.508 525.540 896.309 C 530.356 910.080, 538.558 923.703, 544.968 928.576 C 548.883 931.551, 555.680 930.956, 573.500 926.077 C 593.985 920.468, 599.792 919.409, 620.500 917.505 C 648.171 914.961, 663.836 911.738, 686.500 903.923 C 698.434 899.807, 710.830 896.164, 711.299 896.633 C 712.399 897.732, 732.347 896.937, 740.300 895.476 C 759.396 891.970, 780.320 886.101, 788.331 882.004 C 792.638 879.802, 797.265 878, 798.613 878 C 806.246 878, 827.513 868.089, 834.728 861.169 C 839.447 856.644, 840.703 856.001, 847.634 854.568 C 851.857 853.694, 855.406 853.097, 855.520 853.240 C 855.634 853.383, 855.301 857.100, 854.780 861.500 C 852.537 880.453, 855.892 927.232, 863.086 977.291 C 865.778 996.031, 866.542 999.764, 868.913 1005.780 C 870.474 1009.740, 870.922 1013.018, 870.818 1019.728 C 870.656 1030.250, 872.656 1035.735, 878.538 1040.899 C 886.274 1047.691, 895.065 1050.218, 915.500 1051.522 C 933.492 1052.671, 939.167 1054.122, 954.500 1061.497 C 971.144 1069.503, 978.207 1069.945, 984.001 1063.346 C 986.038 1061.026, 987.702 1059.983, 988.808 1060.333 C 989.739 1060.628, 993.558 1062.023, 997.295 1063.434 C 1005.364 1066.480, 1013.567 1066.816, 1018.300 1064.294 C 1020.060 1063.356, 1021.950 1062.723, 1022.500 1062.887 C 1028.048 1064.540, 1039.398 1061.731, 1040.682 1058.388 C 1041 1057.558, 1043.037 1056.169, 1045.208 1055.300 C 1049.357 1053.640, 1051 1051.015, 1051 1046.046 C 1051 1042.011, 1048.571 1039.643, 1039.627 1034.957 C 1027.227 1028.460, 1013.270 1019.139, 1012.704 1016.978 C 1012.400 1015.814, 1010.222 1014.167, 1007.373 1012.945 C 1004.723 1011.810, 999.989 1008.432, 996.852 1005.440 L 991.148 1000 981.034 1000 C 972.918 1000, 970.151 999.608, 967.028 998.014 C 962.845 995.880, 959.871 995.602, 944.744 995.930 C 935.009 996.141, 934.981 996.135, 931.823 992.977 C 928.750 989.904, 928.660 989.564, 928.699 981.156 C 928.740 972.013, 929.516 962.426, 931.016 952.500 C 931.515 949.200, 931.972 942.225, 932.032 937 C 932.241 918.670, 935.396 902.910, 940.151 896.440 C 944.596 890.390, 955.743 852.378, 957.582 837 C 958.009 833.425, 958.434 830.050, 958.527 829.500 C 958.620 828.950, 958.764 827.928, 958.848 827.228 C 959.117 824.983, 970.700 818.313, 979.228 815.493 C 1000.151 808.574, 1017.604 796.625, 1040.500 773.544 C 1051.283 762.673, 1054.905 759.694, 1061.741 756.071 C 1066.273 753.669, 1074.373 748.180, 1079.741 743.873 C 1085.108 739.566, 1089.838 736.033, 1090.250 736.021 C 1092.036 735.971, 1090.830 749.529, 1088.101 760.182 C 1080.320 790.558, 1080.047 814.406, 1087.181 840.751 C 1089.664 849.923, 1092.667 896.539, 1093.091 932.500 L 1093.350 954.500 1090.151 959.011 C 1079.725 973.711, 1089.523 988.380, 1109.607 988.140 C 1112.573 988.104, 1115 988.518, 1115 989.060 C 1115 990.612, 1126.885 997.888, 1130.541 998.574 C 1137.874 999.949, 1145.411 995.656, 1146.577 989.440 C 1147.191 986.171, 1147.428 986.002, 1151.361 986.033 C 1153.638 986.051, 1157.975 986.936, 1161 988 C 1164.025 989.064, 1167.841 989.949, 1169.481 989.967 C 1171.120 989.985, 1174.720 990.855, 1177.481 991.900 C 1194.395 998.302, 1203.091 999.848, 1208.666 997.443 C 1210.974 996.448, 1214.889 995.835, 1218.500 995.905 C 1222.165 995.975, 1225.473 995.449, 1227 994.553 C 1228.375 993.746, 1230.453 992.650, 1231.619 992.118 C 1236.907 989.701, 1239.853 981.783, 1236.500 979 C 1235.675 978.315, 1235 976.460, 1235 974.878 C 1235 970.889, 1232.198 968.477, 1225.881 967.028 C 1222.922 966.349, 1217.350 964.273, 1213.500 962.414 C 1209.283 960.379, 1202.325 958.209, 1196 956.957 C 1189.279 955.627, 1184.240 954.022, 1182 952.496 C 1179.788 950.990, 1174.636 949.331, 1168 947.989 C 1162.225 946.821, 1155.625 945.038, 1153.334 944.026 C 1149.325 942.256, 1149.141 941.973, 1148.464 936.560 C 1147.261 926.931, 1150.069 909.944, 1157.938 879.243 C 1159.853 871.769, 1163.237 853.698, 1166.095 835.677 C 1166.690 831.925, 1168.907 824.950, 1171.022 820.177 C 1175.207 810.734, 1181.178 790.624, 1183.101 779.500 C 1184.797 769.683, 1184.549 747.157, 1182.643 738 C 1181.785 733.875, 1179.434 723.975, 1177.420 716 C 1173.817 701.734, 1173.760 701.202, 1173.891 683.001 C 1174.074 657.614, 1171.019 630.264, 1165.904 611.500 C 1165.304 609.300, 1164.325 604.647, 1163.728 601.159 C 1162.608 594.619, 1162.730 593.633, 1166.462 579 C 1169.462 567.239, 1170.040 562.654, 1170.071 550.381 C 1170.109 535.564, 1168.832 527.517, 1164.380 514.519 C 1155.720 489.235, 1142.443 475.497, 1121.424 470.069 C 1118.134 469.220, 1116.726 468.057, 1114.127 464.047 C 1112.356 461.314, 1107.803 456.244, 1104.008 452.781 C 1096.167 445.624, 1095.638 443.815, 1097.994 432.225 C 1098.800 428.262, 1099.016 423.473, 1098.580 419.225 C 1096.918 403.015, 1096.798 400.939, 1097.391 398.579 C 1098.244 395.178, 1103.304 390.650, 1110.500 386.847 C 1127.811 377.698, 1133 372.294, 1133 363.415 C 1133 356.866, 1132.031 354.244, 1127.853 349.485 C 1124.924 346.150, 1124.560 345.070, 1124.470 339.449 C 1124.412 335.795, 1123.806 332.472, 1123.029 331.535 C 1122.292 330.647, 1121.322 327.575, 1120.873 324.710 C 1120.205 320.445, 1119.418 318.984, 1116.529 316.653 C 1112.330 313.265, 1112.294 312.909, 1115.504 306.581 C 1119.477 298.750, 1118.010 291.326, 1112.051 289.107 C 1103.583 285.955, 1092.516 280.840, 1091.832 279.762 C 1091.391 279.068, 1091.008 276.250, 1090.980 273.500 C 1090.952 270.750, 1090.358 267.472, 1089.661 266.216 C 1088.263 263.697, 1074.329 252.526, 1063.679 245.385 C 1058.377 241.829, 1057.026 240.443, 1057.613 239.156 C 1058.991 236.132, 1059.210 226.922, 1057.975 223.939 C 1056.620 220.668, 1055.059 220.066, 1054.889 222.750 C 1054.829 223.713, 1054.195 222.105, 1053.481 219.178 C 1051.647 211.658, 1049.977 208, 1048.379 208 C 1047.620 208, 1047 208.968, 1047 210.150 C 1047 211.919, 1046.481 211.584, 1044.071 208.256 C 1040.308 203.063, 1037.308 200.999, 1033.527 201.005 L 1030.500 201.010 1033.500 203.569 M 1009.459 218.067 C 1009.096 218.653, 1009.070 219.403, 1009.400 219.733 C 1009.730 220.063, 1010 219.800, 1010 219.147 C 1010 217.991, 1013.877 218.188, 1015.914 219.447 C 1016.435 219.769, 1017.111 219.630, 1017.415 219.138 C 1017.719 218.646, 1016.569 217.964, 1014.859 217.622 C 1010.688 216.788, 1010.226 216.826, 1009.459 218.067 M 1006.029 229.961 C 1003.371 231.642, 1005.495 231.939, 1010.040 230.523 L 1014.500 229.134 1011 229.082 C 1009.075 229.054, 1006.838 229.449, 1006.029 229.961 M 953.500 236.733 C 950.620 237.150, 947 239.537, 947 241.019 C 947 241.663, 955.640 237.693, 956.830 236.503 C 957.107 236.226, 957.146 236.067, 956.917 236.150 C 956.688 236.232, 955.150 236.495, 953.500 236.733 M 970 238.500 C 966.997 241.697, 968.586 241.677, 972.500 238.469 C 974.501 236.829, 974.975 236.008, 973.924 236.005 C 973.058 236.002, 971.292 237.125, 970 238.500 M 993.984 237.882 C 993.168 238.844, 991.387 240.389, 990.027 241.315 C 988.668 242.242, 988.098 243, 988.762 243 C 990.267 243, 996.687 237.354, 995.983 236.650 C 995.699 236.366, 994.800 236.921, 993.984 237.882 M 999.535 240.587 C 997.105 244.296, 998.358 244.711, 1000.959 241.058 C 1002.156 239.376, 1002.707 238, 1002.183 238 C 1001.659 238, 1000.467 239.164, 999.535 240.587 M 976.828 241.037 C 975.099 242.045, 970.491 248.848, 971.136 249.440 C 971.336 249.623, 973.449 247.575, 975.832 244.887 C 980.019 240.163, 980.320 238.999, 976.828 241.037 M 1034 240.978 C 1032.625 241.431, 1029.799 241.845, 1027.719 241.900 C 1024.717 241.979, 1023.306 242.720, 1020.866 245.500 C 1019.176 247.425, 1017.040 249, 1016.119 249 C 1015.198 249, 1013.341 249.773, 1011.993 250.718 C 1010.644 251.662, 1007.737 253.350, 1005.533 254.468 C 1000.709 256.914, 999.008 261.190, 1000.971 265.931 C 1001.654 267.580, 1002.717 268.832, 1003.333 268.714 C 1003.949 268.597, 1004.612 269.547, 1004.806 270.826 C 1005.017 272.214, 1005.673 272.956, 1006.433 272.664 C 1008.163 272, 1011 275.500, 1011 278.299 C 1011 279.551, 1009.407 284.383, 1007.461 289.038 C 1004.398 296.361, 1004.011 298.173, 1004.582 302.500 C 1004.945 305.250, 1005.526 307.725, 1005.872 308 C 1007.060 308.943, 1011 317.719, 1011 319.421 C 1011 320.358, 1012.074 323.458, 1013.387 326.312 C 1016.741 333.601, 1017.550 337.425, 1015.577 336.668 C 1014.709 336.335, 1013.613 336.819, 1013.032 337.792 C 1012.120 339.319, 1011.696 339.157, 1009.026 336.257 C 1007.384 334.473, 1005.469 332.898, 1004.770 332.757 C 1004.072 332.616, 1000.723 330.573, 997.329 328.218 C 993.858 325.811, 990.890 324.369, 990.547 324.925 C 990.211 325.468, 989.202 325.631, 988.304 325.286 C 987.260 324.886, 986.917 325.057, 987.352 325.761 C 988.561 327.717, 986.317 328.023, 981.981 326.493 C 956.934 317.656, 951.419 349.460, 975.838 361.917 C 981.371 364.740, 990.976 367, 997.440 367 C 1003.903 367, 1008 364.108, 1008 359.545 C 1008 356.715, 1009.452 356.130, 1010.393 358.582 C 1014.410 369.049, 1003.560 374.571, 986.750 370.616 C 980.462 369.136, 980.365 369.214, 982.390 374.128 C 983.571 376.995, 985.237 386.900, 985.397 392.006 C 985.465 394.155, 983.021 399.914, 980.316 403.982 C 977.578 408.099, 977.249 412, 979.640 412 C 982.114 412, 989.681 416.031, 992.160 418.670 C 994.973 421.664, 993.409 421.617, 986.602 418.504 C 980.593 415.755, 978.317 416.037, 976.923 419.701 C 975.520 423.394, 975.710 423.810, 979.750 425.892 C 983.667 427.911, 990.730 434.603, 989.861 435.472 C 989.585 435.748, 987.452 434.572, 985.121 432.858 C 978.922 428.299, 974.351 428.103, 963.234 431.920 C 958.208 433.645, 950.770 435.908, 946.705 436.948 C 939.756 438.725, 920.224 447.125, 919.041 448.846 C 918.743 449.278, 916.367 451.083, 913.760 452.857 C 908.329 456.553, 899.984 466.580, 894.606 475.875 C 890.774 482.496, 890.542 484.629, 893.994 481.506 C 897.866 478.001, 895.954 481.388, 891.750 485.479 C 889.413 487.754, 885.700 491.919, 883.500 494.734 C 881.300 497.549, 878.535 500.107, 877.355 500.419 C 876.176 500.730, 872.991 503.576, 870.279 506.743 C 853.179 526.703, 846.444 546.450, 848.495 570.606 C 849.218 579.130, 849.306 579.375, 850.593 576.500 C 851.331 574.850, 853.729 569.562, 855.922 564.750 C 858.181 559.790, 860.847 551.559, 862.076 545.750 C 864.237 535.540, 865.906 530.597, 865.970 534.220 C 866.026 537.421, 862.805 557.490, 861.990 559.017 C 860.961 560.943, 852.454 592.173, 851.507 597.500 C 851.116 599.700, 850.534 602.625, 850.213 604 C 849.892 605.375, 849.644 613.025, 849.661 621 C 849.705 641.121, 852.952 655.491, 861.600 673.831 C 864.020 678.963, 866 683.521, 866 683.959 C 866 684.397, 866.675 685.315, 867.500 686 C 868.794 687.074, 869 686.651, 869 682.922 C 869 674.053, 870.728 680.948, 871.902 694.500 C 874.281 721.964, 876.190 738.514, 877.088 739.450 C 877.650 740.036, 878.006 739.652, 878.015 738.450 C 878.024 737.378, 878.503 735.825, 879.080 735 C 880.703 732.682, 879.134 750.026, 877.010 757.884 C 874.746 766.263, 873.441 788.596, 873.701 814.500 C 873.913 835.712, 872.605 837.570, 871.156 818.113 L 870.440 808.500 867.746 822.500 C 858.687 869.566, 859.258 893.875, 871.567 985 C 873.160 996.789, 875.435 1005, 877.109 1005 C 877.661 1005, 877.941 1009.672, 877.782 1016.250 C 877.465 1029.428, 878.379 1031.907, 885.585 1037.410 C 891.438 1041.879, 897.909 1043.715, 910.916 1044.600 C 920.366 1045.243, 921.274 1045.155, 920.698 1043.654 C 919.863 1041.479, 920.634 1041.567, 923.727 1044 C 925.126 1045.100, 927.672 1046, 929.385 1046.001 C 931.098 1046.001, 934.867 1046.901, 937.761 1048.001 C 940.654 1049.100, 943.947 1050, 945.077 1050 C 946.208 1050, 948.566 1051.068, 950.317 1052.373 C 955.123 1055.956, 969.328 1062, 972.942 1062 C 976.855 1062, 980 1060.425, 980 1058.465 C 980 1056.685, 979.540 1056.646, 977.035 1058.210 C 975.655 1059.072, 974.291 1059.134, 972.299 1058.426 C 969.928 1057.584, 969.500 1056.874, 969.500 1053.789 C 969.500 1050.716, 968.875 1049.670, 965.500 1047.092 C 963.300 1045.411, 960.283 1043.056, 958.796 1041.857 C 956.547 1040.045, 955.832 1039.894, 954.546 1040.962 C 953.139 1042.129, 952.574 1041.724, 952.877 1039.764 C 952.939 1039.360, 950.774 1037.906, 948.066 1036.533 C 943.620 1034.281, 940.839 1032, 942.537 1032 C 943.525 1032, 954.083 1034.980, 957.500 1036.224 C 959.150 1036.824, 961.850 1038.539, 963.500 1040.035 C 965.150 1041.531, 971 1045.021, 976.500 1047.791 C 998.848 1059.045, 1012.406 1062.549, 1016.411 1058.107 C 1018.958 1055.281, 1017.927 1054.535, 1013.624 1056.091 C 1007.732 1058.222, 1002.091 1054.286, 1004.806 1049.938 C 1005.794 1048.357, 1005.048 1047.658, 998.597 1044.118 C 994.564 1041.904, 989.867 1038.917, 988.158 1037.480 C 986.449 1036.042, 984.252 1034.987, 983.276 1035.135 C 982.299 1035.283, 978.078 1033.763, 973.896 1031.758 C 969.713 1029.752, 965.101 1027.812, 963.646 1027.447 C 960.487 1026.655, 960.126 1025, 963.110 1025 C 967.434 1025, 988.011 1032.138, 991.044 1034.690 C 994.632 1037.710, 1009.548 1045.792, 1016.271 1048.359 C 1019.968 1049.771, 1021.173 1050.837, 1022.160 1053.567 C 1023.433 1057.087, 1024.796 1057.631, 1031 1057.095 C 1033.640 1056.867, 1037.823 1053.489, 1036.769 1052.436 C 1036.429 1052.095, 1034.521 1052.405, 1032.531 1053.125 C 1026.959 1055.140, 1022.164 1051.169, 1024.893 1046.799 C 1026.537 1044.168, 1027.190 1044.726, 1011.586 1035.420 C 1005.553 1031.822, 1000.018 1029.163, 999.210 1029.473 C 998.405 1029.782, 997.162 1029.549, 996.447 1028.956 C 995.732 1028.363, 990.761 1026.217, 985.400 1024.189 C 980.039 1022.160, 975.468 1019.938, 975.243 1019.250 C 974.699 1017.591, 977.171 1017.668, 981.216 1019.434 C 984.822 1021.010, 1002.754 1026.017, 1004.750 1026.007 C 1005.438 1026.003, 1006 1025.325, 1006 1024.500 C 1006 1023.675, 1005.854 1023, 1005.675 1023 C 1003.170 1023, 985.118 1015.426, 981.201 1012.732 C 977.474 1010.168, 974.411 1008.945, 970.491 1008.456 C 965.348 1007.813, 963.497 1006.668, 966.164 1005.779 C 968.112 1005.129, 960.094 1001, 956.886 1001 C 955.236 1001, 951.831 1001.517, 949.319 1002.150 C 944.392 1003.390, 933.674 1002.062, 929.977 999.754 C 927.782 998.383, 923.366 999.667, 910.182 1005.510 C 905.607 1007.538, 901.641 1008.975, 901.369 1008.703 C 900.613 1007.946, 915.402 1000.046, 920.149 998.672 C 926.002 996.977, 926.355 995, 920.805 995 C 917.878 995, 914.041 996.151, 909.140 998.500 C 901.272 1002.271, 896.534 1003.301, 901.116 1000.245 C 902.554 999.285, 905.633 997.231, 907.958 995.679 C 910.283 994.128, 914.292 992.358, 916.867 991.746 L 921.550 990.634 921.382 970.567 C 921.289 959.530, 921.420 951.737, 921.673 953.250 C 922.978 961.054, 924.357 952.611, 925.509 929.773 C 926.264 914.819, 927.927 906.514, 931.974 897.500 C 941.835 875.535, 946.760 859.278, 950.454 836.500 C 951.582 829.544, 951.918 792.856, 950.934 784 C 949.075 767.259, 946.920 752.355, 945.109 743.711 C 942.743 732.417, 944.466 732.719, 948.080 744.232 C 951.343 754.628, 951.915 755.709, 953.168 753.857 C 953.814 752.903, 954.042 753.390, 953.937 755.500 C 953.646 761.354, 954.010 766, 954.761 766 C 955.942 766, 964.375 751.242, 967.332 744 C 973.656 728.512, 977.933 701.964, 979.980 665.500 C 980.875 649.571, 981.072 604.017, 980.247 604.004 C 980.108 604.002, 978.340 605.831, 976.318 608.070 C 973.834 610.820, 972.047 611.984, 970.808 611.660 C 969.675 611.364, 968.583 611.911, 967.952 613.090 C 967.390 614.141, 966.480 615, 965.930 615 C 964.657 615, 965.902 612.643, 972.531 602.500 C 975.407 598.100, 979.692 591.137, 982.055 587.026 C 984.417 582.915, 986.546 580.139, 986.786 580.857 C 987.385 582.656, 981.869 592.935, 975.275 602.307 C 967.177 613.816, 969.530 612.735, 978.556 600.800 C 982.840 595.135, 987.422 589.193, 988.738 587.596 C 995.115 579.854, 1005.207 554.130, 1006.561 542.164 C 1007.719 531.930, 1009.384 534.733, 1008.618 545.627 C 1007.790 557.407, 1005.063 567.933, 1000.248 577.931 C 998.244 582.094, 996.415 585.950, 996.184 586.500 C 994.855 589.667, 1009.418 573.728, 1013.094 567.992 C 1018.753 559.163, 1019.993 559.077, 1015.590 567.821 C 1011.125 576.688, 1002.145 587.895, 995.462 592.941 C 990.954 596.345, 989.920 597.762, 988.576 602.385 C 986.658 608.985, 986.882 609.676, 993.804 618.500 C 1007.765 636.297, 1020.217 645.612, 1038 651.562 C 1045.471 654.062, 1041.789 654.699, 1032.608 652.495 C 1016.620 648.658, 999.579 636.084, 991.881 622.444 C 990.192 619.450, 988.402 616.748, 987.904 616.441 C 987.372 616.112, 987.085 625.279, 987.207 638.691 C 987.702 693.160, 982.415 729.442, 970.342 754.416 C 968.504 758.220, 967.234 761.568, 967.522 761.855 C 967.810 762.143, 966.272 764.206, 964.104 766.439 C 958.565 772.146, 957.928 775.569, 958.980 793.956 C 959.466 802.456, 959.662 809.738, 959.416 810.137 C 958.073 812.310, 961.424 811.515, 966.505 808.455 C 973.384 804.312, 988.880 792.804, 988.950 791.784 C 988.978 791.391, 987.313 791.237, 985.250 791.442 C 980.902 791.874, 974.417 789.893, 972.103 787.425 C 970.619 785.842, 970.648 785.779, 972.500 786.573 C 973.600 787.044, 978.420 787.589, 983.210 787.785 C 993.086 788.187, 998.588 786.195, 1011.493 777.541 C 1015.072 775.141, 1018 773.546, 1018 773.996 C 1018 775.588, 1008.225 783.553, 1001.427 787.500 C 997.638 789.700, 992.399 793.393, 989.784 795.706 C 987.170 798.020, 984.012 800.450, 982.766 801.106 C 981.520 801.763, 977.575 804.193, 974 806.506 C 970.425 808.820, 965.756 811.339, 963.624 812.103 C 960.001 813.402, 958.071 815.404, 959.277 816.610 C 959.977 817.310, 968.221 813.073, 974.850 808.606 C 980.120 805.055, 982.712 804.039, 981.500 806 C 980.305 807.934, 983.805 806.963, 991.116 803.334 C 1006.818 795.539, 1019.925 785.218, 1036.680 767.454 C 1045.690 757.901, 1049.807 754.299, 1054 752.299 C 1071.748 743.833, 1083.750 732.328, 1089.450 718.318 C 1092.120 711.755, 1094.339 709.962, 1093.348 715.170 C 1093 717.001, 1092.104 719.715, 1091.357 721.200 C 1087.109 729.652, 1094.681 723.442, 1101.700 712.718 C 1108.634 702.123, 1113.475 690.209, 1116.009 677.500 C 1116.667 674.200, 1117.599 670.600, 1118.080 669.500 C 1120.341 664.334, 1123.920 651.680, 1123.372 650.793 C 1123.034 650.246, 1125.450 647.031, 1128.741 643.649 C 1150.114 621.684, 1156.399 589.488, 1146.339 553.500 C 1143.371 542.885, 1133.627 522.586, 1128.096 515.500 C 1120.952 506.346, 1117.606 501.482, 1119.564 503.098 C 1120.629 503.977, 1122.139 505.063, 1122.920 505.512 C 1124.439 506.385, 1124.467 506.506, 1121.577 499.750 C 1118.554 492.683, 1121.893 495.996, 1126.616 504.750 C 1131.996 514.721, 1139.948 525.215, 1141.641 524.577 C 1142.294 524.331, 1143.316 526.057, 1144.032 528.616 C 1144.721 531.074, 1146.152 533.693, 1147.213 534.436 C 1149.327 535.917, 1156.473 563.431, 1157.575 574.334 C 1158.298 581.487, 1158.697 581.179, 1160.803 571.843 C 1163.660 559.180, 1163.152 534.880, 1159.778 522.789 C 1155.397 507.089, 1147.365 493.072, 1138.506 485.667 C 1131.965 480.200, 1122.417 476.488, 1126.500 481 C 1129.149 483.927, 1127.084 483.445, 1121.446 479.821 C 1118.257 477.771, 1115.169 476.616, 1112.753 476.571 C 1108.537 476.491, 1108.288 476.241, 1110.686 474.488 C 1112.231 473.358, 1112.110 472.847, 1109.239 468.377 C 1106.046 463.407, 1098.374 455.276, 1097.622 456.065 C 1097.393 456.304, 1096.903 461.225, 1096.531 467 L 1095.856 477.500 1099.358 482.987 C 1103.576 489.595, 1103.083 490.977, 1098.423 485.609 C 1094.443 481.026, 1094.235 481.342, 1093.805 492.642 L 1093.495 500.784 1096.204 498.855 C 1100.226 495.991, 1102.866 492.232, 1104.101 487.615 C 1104.706 485.352, 1105.661 482.375, 1106.222 481 C 1107.194 478.622, 1107.283 478.598, 1108.052 480.500 C 1108.496 481.600, 1108.891 484.530, 1108.930 487.010 C 1109.015 492.487, 1106.389 495.756, 1098.822 499.590 C 1090.702 503.705, 1090.451 503.087, 1090.725 479.704 C 1090.975 458.458, 1090.756 458.162, 1085.894 473.162 C 1084.289 478.117, 1082.282 483.369, 1081.435 484.835 L 1079.895 487.500 1080.430 483.436 C 1080.724 481.200, 1082.618 474, 1084.639 467.436 C 1087.447 458.316, 1088.369 453.494, 1088.544 447 C 1088.674 442.168, 1089.421 436.990, 1090.276 435 C 1092.807 429.104, 1093.233 422.136, 1091.549 414.185 C 1089.057 402.418, 1089.430 398.048, 1093.432 392.100 C 1095.320 389.295, 1096.638 387, 1096.360 387 C 1095.037 387, 1086.816 392.424, 1085.679 394.047 C 1084.771 395.345, 1083.304 395.829, 1080.691 395.693 C 1077.473 395.525, 1077.211 395.337, 1078.686 394.250 C 1079.933 393.331, 1080.568 393.300, 1081.084 394.135 C 1081.545 394.883, 1082.162 394.566, 1082.889 393.207 C 1084.082 390.978, 1096.763 383.656, 1101.250 382.606 C 1102.763 382.252, 1104 381.472, 1104 380.874 C 1104 380.253, 1103.257 380.071, 1102.268 380.451 C 1101.315 380.816, 1095.352 381.787, 1089.018 382.607 C 1082.683 383.427, 1075.925 384.497, 1074 384.985 C 1067.919 386.526, 1046.977 388.276, 1041.049 387.738 C 1034.058 387.104, 1028.784 384.505, 1023.364 379.021 C 1019.645 375.258, 1013.089 365, 1014.403 365 C 1014.693 365, 1017.989 368.058, 1021.726 371.795 C 1032.375 382.444, 1044.134 386.763, 1053.807 383.577 C 1061.016 381.203, 1076.802 378.307, 1095 376.019 C 1124.857 372.266, 1122.162 372.894, 1124.713 369.102 C 1127.308 365.247, 1127.650 360.481, 1125.614 356.556 C 1123.912 353.277, 1119.295 348, 1118.127 348 C 1117.655 348, 1117.595 346.212, 1117.995 344.027 C 1118.862 339.287, 1118.650 339, 1114.274 339 C 1112.267 339, 1111.134 338.592, 1111.500 338 C 1111.840 337.450, 1113.415 337, 1115 337 C 1118.799 337, 1119.546 335.546, 1117.036 333.036 C 1114.110 330.110, 1109.960 330.496, 1101.294 334.500 C 1097.127 336.425, 1093.075 338, 1092.290 338 C 1090.044 338, 1091.152 333.581, 1093.500 333.171 C 1094.600 332.979, 1098.275 330.100, 1101.667 326.773 C 1106.346 322.182, 1108.335 320.854, 1109.917 321.268 C 1112.693 321.994, 1112.552 321.393, 1109 317.347 C 1105.264 313.092, 1105.272 311.628, 1109.065 306.030 C 1112.317 301.230, 1112.721 296.397, 1110 294.847 C 1106.919 293.092, 1084.853 283, 1084.097 283 C 1083.664 283, 1082.512 282.118, 1081.536 281.039 C 1079.783 279.103, 1079.785 277.942, 1081.557 270.744 C 1082.515 266.852, 1082.744 267.077, 1061.161 250.727 C 1051.576 243.466, 1039.554 239.151, 1034 240.978 M 947.582 245.114 C 946.104 246.277, 945.102 247.435, 945.354 247.688 C 946.190 248.524, 952.078 244.935, 951.474 243.957 C 950.685 242.681, 950.670 242.685, 947.582 245.114 M 931.015 252.485 C 929.157 254.402, 927.943 256.277, 928.318 256.652 C 928.693 257.027, 929.112 257.141, 929.250 256.906 C 929.388 256.670, 931.051 254.795, 932.946 252.739 C 937.299 248.017, 935.566 247.789, 931.015 252.485 M 961.536 252.732 C 958.729 256.864, 958.216 258.896, 960.448 257.043 C 962.530 255.316, 966.106 249, 965.002 249 C 964.491 249, 962.931 250.679, 961.536 252.732 M 946.510 253.990 C 944.935 255.634, 943.955 257.288, 944.333 257.667 C 945.006 258.339, 947.022 256.239, 949.052 252.750 C 950.524 250.220, 949.768 250.588, 946.510 253.990 M 987.500 252.705 C 983.593 254.821, 985.914 255.613, 989.932 253.535 C 991.619 252.663, 993 251.735, 993 251.474 C 993 250.538, 990.445 251.110, 987.500 252.705 M 934 256.500 C 930.985 259.709, 932.598 259.729, 936.500 256.531 C 938.532 254.866, 938.991 254.060, 937.924 254.036 C 937.058 254.016, 935.292 255.125, 934 256.500 M 952.807 255.750 C 949.761 259.296, 949.785 260.412, 952.845 257.563 C 954.580 255.948, 956 254.485, 956 254.313 C 956 253.381, 954.112 254.231, 952.807 255.750 M 971.087 260.010 C 966.266 266.109, 965.364 270.471, 970.055 265 C 973.514 260.965, 976.370 256.037, 975.660 255.327 C 975.392 255.059, 973.334 257.166, 971.087 260.010 M 991.625 262.450 C 990.643 263.948, 990.029 265.362, 990.260 265.593 C 991.018 266.352, 994.214 262.143, 993.807 260.921 C 993.583 260.248, 992.631 260.915, 991.625 262.450 M 932.263 263.250 C 929.091 265.474, 927.294 268, 928.884 268 C 930.266 268, 936.320 263.578, 936.756 262.250 C 937.366 260.392, 935.861 260.727, 932.263 263.250 M 1052.500 266.057 C 1048.236 267.316, 1042.025 270.370, 1042.011 271.215 C 1042.005 271.609, 1040.703 273.409, 1039.117 275.215 C 1036.383 278.331, 1032.489 286, 1033.642 286 C 1033.938 286, 1036.512 284.008, 1039.362 281.574 C 1046.127 275.795, 1051.415 274.033, 1062.050 274.015 C 1070.762 274, 1073 273.170, 1073 269.955 C 1073 265.462, 1061.760 263.325, 1052.500 266.057 M 948 268 C 944.729 270.559, 946.637 270.559, 950.500 268 C 952.150 266.907, 952.825 266.020, 952 266.029 C 951.175 266.037, 949.375 266.924, 948 268 M 980.114 269.582 C 978.148 272.082, 977.417 274, 978.432 274 C 979.248 274, 983.218 267.885, 982.723 267.390 C 982.451 267.117, 981.277 268.104, 980.114 269.582 M 935.585 270.912 C 934.062 272.501, 932.969 274.601, 933.158 275.578 C 933.415 276.912, 934.204 276.291, 936.325 273.085 C 939.724 267.949, 939.383 266.947, 935.585 270.912 M 948.500 276.523 C 944.470 279.996, 944.657 281.330, 948.770 278.449 C 950.600 277.167, 953.759 272.909, 952.785 273.038 C 952.628 273.058, 950.700 274.627, 948.500 276.523 M 958.086 276.550 C 958.171 280.454, 958.182 280.465, 959.060 277.524 C 959.609 275.684, 959.576 274.176, 958.974 273.574 C 958.342 272.942, 958.030 273.987, 958.086 276.550 M 920.058 276.860 C 919.328 278.622, 919.004 280.337, 919.337 280.671 C 920.081 281.414, 922.199 276.097, 921.725 274.676 C 921.538 274.115, 920.788 275.098, 920.058 276.860 M 1056.750 280.299 C 1055.237 280.897, 1054 281.776, 1054 282.252 C 1054 282.728, 1054.563 282.794, 1055.250 282.399 C 1055.938 282.003, 1056.200 282.014, 1055.833 282.423 C 1055.467 282.832, 1054.792 283.197, 1054.333 283.234 C 1053.875 283.271, 1052.936 284.021, 1052.248 284.901 C 1051.149 286.304, 1051.073 286.255, 1051.632 284.500 C 1052.267 282.505, 1052.265 282.505, 1050.723 284.489 C 1049.873 285.583, 1049.420 286.871, 1049.717 287.351 C 1050.013 287.831, 1049.861 288.511, 1049.378 288.862 C 1048.895 289.213, 1047.695 290.455, 1046.710 291.623 L 1044.920 293.745 1055.960 293.623 C 1062.032 293.555, 1067 293.756, 1067 294.069 C 1067 294.381, 1065.537 295.365, 1063.750 296.255 L 1060.500 297.872 1063.179 297.936 C 1067.750 298.045, 1071.312 292.101, 1067.542 290.654 C 1066.542 290.271, 1066.214 289.059, 1066.499 286.807 C 1067.320 280.324, 1063.366 277.685, 1056.750 280.299 M 967.189 283.039 C 965.088 284.996, 964.302 287, 965.635 287 C 966.332 287, 971 282.170, 971 281.448 C 971 280.402, 969.224 281.143, 967.189 283.039 M 933.914 284.604 C 933.181 285.486, 931.551 286.600, 930.291 287.079 C 928.975 287.580, 928 288.787, 928 289.917 C 928 291.556, 928.748 291.203, 932.500 287.788 C 934.975 285.535, 937 283.537, 937 283.346 C 937 282.407, 935.091 283.185, 933.914 284.604 M 988.783 284.750 C 986.726 287.109, 984.729 291.062, 985.304 291.638 C 985.561 291.894, 986.916 290.056, 988.315 287.552 C 991.062 282.637, 991.165 282.019, 988.783 284.750 M 993.773 284.750 C 992.148 286.601, 990.486 291, 991.412 291 C 991.713 291, 992.878 289.200, 994 287 C 996.219 282.650, 996.157 282.035, 993.773 284.750 M 922.656 286.206 C 922.116 288.273, 922.534 289.850, 923.376 288.917 C 924.394 287.788, 925.017 284, 924.184 284 C 923.661 284, 922.974 284.993, 922.656 286.206 M 1053.190 289.297 L 1051.032 291.595 1054.494 291.190 C 1057.537 290.835, 1057.833 290.557, 1056.943 288.893 C 1055.684 286.540, 1055.792 286.529, 1053.190 289.297 M 905.073 291.635 C 903.264 293.934, 902.416 296, 903.280 296 C 903.434 296, 905.045 294.425, 906.861 292.500 C 909.057 290.172, 909.657 289, 908.654 289 C 907.824 289, 906.212 290.186, 905.073 291.635 M 939.513 292.314 C 937.776 296.471, 937.575 298.381, 938.963 297.523 C 940.069 296.839, 942.178 289.844, 941.486 289.153 C 941.233 288.900, 940.345 290.323, 939.513 292.314 M 953.422 291.183 C 952.995 291.908, 951.998 293.512, 951.207 294.750 C 950.417 295.988, 950.175 297, 950.669 297 C 951.777 297, 955.387 291.053, 954.698 290.364 C 954.424 290.091, 953.850 290.459, 953.422 291.183 M 965.750 294.577 C 965.337 294.993, 965.014 296.496, 965.030 297.917 C 965.057 300.183, 965.188 300.281, 966.098 298.719 C 967.236 296.762, 966.951 293.365, 965.750 294.577 M 940.987 299.032 C 939.659 302.237, 940.459 304.470, 942.039 301.971 C 942.942 300.544, 943.385 296, 942.621 296 C 942.413 296, 941.677 297.364, 940.987 299.032 M 955.035 297.934 C 953.765 300.308, 953.638 303.795, 954.871 302.450 C 955.878 301.351, 957.275 296, 956.554 296 C 956.288 296, 955.605 296.870, 955.035 297.934 M 970.267 298.250 C 968.904 299.992, 968.041 303.908, 968.903 304.440 C 969.296 304.683, 970.092 303.109, 970.670 300.941 C 971.809 296.675, 971.759 296.343, 970.267 298.250 M 985.200 301.200 C 984.540 301.860, 984 303.735, 984 305.367 C 984 309.094, 984.927 308.258, 985.982 303.579 C 986.886 299.570, 986.872 299.528, 985.200 301.200 M 973.720 302.332 C 973.324 303.339, 973.029 305.139, 973.063 306.332 C 973.124 308.389, 973.177 308.375, 974.101 306.062 C 974.636 304.722, 974.932 302.922, 974.758 302.062 C 974.497 300.777, 974.313 300.825, 973.720 302.332 M 1101.329 303.458 C 1098.101 304.862, 1096 307.612, 1096 310.434 C 1096 312.783, 1097.959 312.322, 1100.226 309.439 C 1101.334 308.031, 1102.849 307.112, 1103.591 307.397 C 1105.737 308.220, 1108.326 305.098, 1106.912 303.394 C 1105.516 301.712, 1105.338 301.714, 1101.329 303.458 M 945.310 309.500 C 945.315 312.800, 945.502 314.029, 945.725 312.232 C 945.947 310.435, 945.943 307.735, 945.715 306.232 C 945.486 304.729, 945.304 306.200, 945.310 309.500 M 1085.670 306.663 C 1083.115 309.218, 1086.312 314.298, 1091.250 315.530 C 1094.608 316.369, 1094.913 314.737, 1091.674 313.261 C 1090.394 312.678, 1088.671 310.804, 1087.844 309.097 C 1087.017 307.390, 1086.039 306.294, 1085.670 306.663 M 921.975 309.565 C 921.439 310.976, 921.029 313.113, 921.063 314.315 C 921.126 316.476, 921.137 316.474, 922.056 314.183 C 923.213 311.298, 924.022 307, 923.409 307 C 923.157 307, 922.512 308.154, 921.975 309.565 M 949 312.918 C 949 313.973, 948.709 315.661, 948.353 316.668 C 947.916 317.904, 948.037 318.175, 948.724 317.500 C 950.226 316.024, 951.228 311, 950.019 311 C 949.459 311, 949 311.863, 949 312.918 M 904.046 314.445 C 903.386 315.240, 902.994 316.927, 903.173 318.195 C 903.445 320.112, 903.695 319.869, 904.656 316.750 C 905.926 312.632, 905.835 312.289, 904.046 314.445 M 926.630 316.250 C 925.681 319.792, 925.838 321.895, 926.909 320 C 928.455 317.268, 929.149 314, 928.184 314 C 927.661 314, 926.962 315.012, 926.630 316.250 M 1110.914 323.012 C 1107.497 323.973, 1103.303 326.768, 1102.625 328.536 C 1102.157 329.755, 1102.596 329.757, 1105.791 328.548 C 1107.831 327.777, 1110.573 327.225, 1111.884 327.323 C 1113.638 327.453, 1114.361 326.918, 1114.620 325.300 C 1115.055 322.582, 1114.237 322.077, 1110.914 323.012 M 969.388 328.956 C 963.331 331.472, 961.442 338.973, 964.930 346.654 C 968.402 354.301, 981.426 362.448, 986.143 359.924 C 988.530 358.646, 988.522 358.051, 986.125 358.678 C 983.394 359.392, 977.061 355.825, 971.734 350.574 C 963.147 342.108, 964.465 332, 974.155 332 C 975.841 332, 976.105 332.445, 975.605 334.439 C 974.851 337.440, 976.685 338.814, 978.369 336.510 C 979.461 335.017, 979.751 334.995, 980.849 336.318 C 981.872 337.551, 981.641 338.268, 979.546 340.363 C 972.454 347.456, 980.284 359.791, 988.473 354.426 C 989.991 353.431, 992.464 352.971, 995.188 353.176 C 999.195 353.477, 999.500 353.325, 999.500 351.030 C 999.500 349.503, 998.681 348.151, 997.357 347.490 C 993.731 345.683, 992 343.842, 992 341.794 C 992 339.559, 990.148 339.818, 988.603 342.268 C 987.814 343.518, 988.079 344.616, 989.697 346.803 L 991.831 349.690 987.854 351.444 C 984.063 353.117, 983.787 353.117, 981.939 351.444 C 980.872 350.480, 980.014 348.747, 980.032 347.595 C 980.073 344.904, 983.037 340.987, 983.698 342.750 C 984.683 345.378, 986 343.832, 986 340.048 C 986 336.814, 985.336 335.452, 982.347 332.548 C 980.337 330.597, 977.975 328.994, 977.097 328.986 C 976.218 328.979, 974.600 328.771, 973.500 328.526 C 972.400 328.280, 970.550 328.473, 969.388 328.956 M 927.650 329.758 C 926.495 331.626, 926.034 337.769, 926.843 340.500 C 927.598 343.046, 927.791 342.403, 928.116 336.248 C 928.507 328.867, 928.475 328.423, 927.650 329.758 M 918.553 347.645 C 918.187 349.105, 918.362 350.762, 918.945 351.345 C 919.685 352.085, 920 351.296, 920 348.700 C 920 344.345, 919.477 343.963, 918.553 347.645 M 1029.056 389.725 C 1029.025 390.398, 1033.425 399.623, 1038.833 410.225 C 1044.241 420.826, 1049.691 431.975, 1050.942 435 C 1054.641 443.939, 1054.366 439.122, 1050.623 429.412 C 1043.447 410.798, 1029.282 384.732, 1029.056 389.725 M 991 425.855 C 991 426.701, 995.282 432.472, 997.044 434 C 998.538 435.296, 1006.998 447.979, 1008.948 451.847 C 1010.153 454.238, 1011.395 455.938, 1011.708 455.625 C 1012.651 454.683, 1004.133 437.868, 1000.414 433.330 C 996.658 428.746, 991 424.254, 991 425.855 M 1062.936 465 C 1066.158 478.874, 1077.668 507, 1080.124 507 C 1081.526 507, 1081.394 506.603, 1072.894 485.355 C 1064.710 464.899, 1061.289 457.904, 1062.936 465 M 953.500 470.464 C 950.524 471.827, 950.544 471.838, 956.122 471.919 C 962.573 472.012, 975.266 475.861, 980.758 479.389 C 990.074 485.374, 1000.484 499.840, 1004.046 511.750 C 1004.745 514.087, 1005.726 516, 1006.226 516 C 1006.726 516, 1006.896 515.212, 1006.604 514.250 C 1006.312 513.288, 1005.628 510.475, 1005.085 508 C 1003.490 500.741, 1001.241 495.147, 997.968 490.298 C 996.284 487.802, 995.155 485.511, 995.460 485.206 C 995.765 484.902, 999.724 485.833, 1004.257 487.277 C 1013.693 490.282, 1022.970 491.384, 1018.931 489.021 C 1016.871 487.816, 993.307 480.001, 991.724 479.998 C 991.051 479.996, 987.850 478.195, 984.612 475.995 C 974.937 469.423, 961.132 466.969, 953.500 470.464 M 913.116 483.062 C 908.652 485.296, 905 487.546, 905 488.062 C 905 489.375, 905.703 489.241, 908.533 487.386 C 911.059 485.731, 923.954 482, 927.147 482 C 930.338 482, 938.399 485.158, 942.870 488.160 C 948.883 492.198, 949.442 490.756, 943.894 485.514 C 935.490 477.574, 925.647 476.790, 913.116 483.062 M 1029 494.858 C 1029 495.330, 1032.713 496.678, 1037.250 497.854 C 1044.326 499.689, 1049.628 500.719, 1066.250 503.491 C 1067.763 503.744, 1069 503.595, 1069 503.160 C 1069 501.690, 1062.122 499.079, 1055.293 497.958 C 1051.557 497.344, 1045.256 496.202, 1041.292 495.421 C 1033.077 493.801, 1029 493.615, 1029 494.858 M 952 501.318 C 952 501.494, 952.701 503.998, 953.558 506.884 C 956.304 516.131, 957.994 528.201, 958.124 539.500 C 958.292 554.127, 959.818 546.470, 959.926 530.460 C 960.001 519.303, 958.566 511.103, 955.357 504.340 C 954.087 501.664, 952 499.785, 952 501.318 M 1097.996 512.004 C 1094.513 515.487, 1091.783 523, 1094 523 C 1094.550 523, 1095 522.477, 1095 521.838 C 1095 521.198, 1096.408 518.481, 1098.129 515.800 C 1101.529 510.501, 1101.460 508.540, 1097.996 512.004 M 1062.396 511.832 C 1062.751 512.407, 1065.620 514.350, 1068.771 516.150 C 1071.922 517.951, 1078.085 522.906, 1082.467 527.162 C 1086.848 531.418, 1090.605 534.728, 1090.816 534.518 C 1091.695 533.638, 1085.335 523.624, 1082.084 520.769 C 1077.401 516.657, 1060.690 509.071, 1062.396 511.832 M 1090 538.918 C 1090 539.488, 1091.053 542.777, 1092.340 546.227 C 1094.437 551.849, 1097.112 564.301, 1099.916 581.500 C 1101.277 589.848, 1100.549 611.032, 1098.597 619.890 C 1096.562 629.124, 1091.893 639.040, 1087.522 643.411 C 1083.546 647.388, 1073.125 652.796, 1067.800 653.648 C 1063.704 654.303, 1062.553 656.023, 1066.250 655.964 C 1070.153 655.903, 1079.344 653.377, 1083.500 651.224 C 1091.681 646.987, 1098.263 637.961, 1103.154 624.275 C 1108.062 610.542, 1106.437 575.542, 1100.008 556.523 C 1096.327 545.635, 1090 534.504, 1090 538.918 M 875.765 549.293 C 875.021 553.611, 877.179 569.488, 879.333 575.553 C 882.835 585.413, 890.543 597.624, 901.010 609.892 C 905.063 614.643, 903.685 611.295, 897.349 601 C 884.768 580.557, 879.184 566.842, 877.195 551.500 C 876.433 545.619, 876.405 545.575, 875.765 549.293 M 1155.531 608.151 C 1152.811 621.712, 1145.830 635.815, 1137.217 645.146 C 1129.675 653.317, 1129.541 653.637, 1123.437 677.955 C 1118.416 697.958, 1109.072 717.767, 1101.015 725.486 C 1098.014 728.360, 1098 728.427, 1098 739.535 C 1098 748.968, 1097.459 752.850, 1094.506 764.598 C 1088.112 790.044, 1087.673 811.421, 1093.075 834.250 C 1093.694 836.862, 1094.759 839, 1095.443 839 C 1096.376 839, 1096.861 844.441, 1097.381 860.729 C 1097.763 872.680, 1098.568 889.443, 1099.170 897.979 C 1100.065 910.671, 1100.905 934.948, 1100.947 949.336 C 1100.956 952.392, 1099.389 956.177, 1095.496 962.500 C 1090.308 970.926, 1093.540 978.986, 1102.954 981.101 C 1107.896 982.211, 1109.646 981.517, 1107.799 979.178 C 1106.656 977.732, 1106.827 977.743, 1109.215 979.267 C 1110.708 980.220, 1112.643 981, 1113.514 981 C 1114.386 981, 1116.764 982.636, 1118.800 984.637 C 1124.732 990.466, 1133.185 995.019, 1128.174 989.686 C 1125.287 986.612, 1125.433 984.430, 1128.731 981.373 C 1130.851 979.409, 1132.127 978.975, 1134.433 979.437 L 1137.404 980.031 1134.452 976.916 C 1132.828 975.202, 1129.621 972.497, 1127.325 970.904 C 1123.447 968.213, 1119.051 962, 1121.025 962 C 1121.505 962, 1123.158 963.185, 1124.698 964.633 C 1126.239 966.081, 1128.946 967.880, 1130.713 968.630 C 1132.480 969.381, 1135.504 971.382, 1137.433 973.075 C 1139.362 974.769, 1141.413 975.863, 1141.991 975.506 C 1142.568 975.149, 1144.416 976.014, 1146.097 977.428 C 1149.205 980.044, 1152.414 980.757, 1153.460 979.064 C 1153.783 978.542, 1156.572 979.296, 1159.769 980.769 C 1162.921 982.222, 1167.300 983.499, 1169.500 983.607 C 1171.700 983.715, 1175.675 984.747, 1178.333 985.902 C 1180.991 987.056, 1183.691 988, 1184.333 988.001 C 1184.975 988.001, 1187.975 988.949, 1191 990.107 C 1199.395 993.321, 1206.060 993.697, 1208.419 991.089 C 1210.682 988.589, 1209.987 987.401, 1207.151 988.919 C 1203.635 990.801, 1197.275 987.052, 1198.513 983.826 C 1198.874 982.887, 1197.769 981.784, 1195.280 980.599 C 1193.201 979.609, 1189.565 977.494, 1187.200 975.899 C 1184.835 974.305, 1182.102 973, 1181.127 973 C 1180.152 973, 1176.568 971.650, 1173.161 970 C 1169.755 968.350, 1166.546 967, 1166.031 967 C 1165.515 967, 1163.097 964.975, 1160.657 962.500 C 1157.252 959.046, 1155.483 958, 1153.051 958 C 1151.193 958, 1150.138 957.586, 1150.500 957 C 1152.287 954.108, 1162 957.970, 1162 961.573 C 1162 962.358, 1162.642 963, 1163.426 963 C 1166.488 963, 1185.289 969.928, 1188.794 972.348 C 1190.832 973.755, 1196.775 976.784, 1202 979.079 C 1212.419 983.655, 1215 985.433, 1215 988.030 C 1215 991.115, 1223.196 991.550, 1225.235 988.573 C 1226.571 986.621, 1226.029 985.914, 1224.021 986.989 C 1219.777 989.260, 1214.043 985.462, 1216.117 981.755 C 1216.909 980.340, 1216.031 979.545, 1210.782 976.921 C 1207.327 975.193, 1203.068 972.704, 1201.317 971.390 C 1199.566 970.075, 1196.780 969, 1195.126 969 C 1193.472 969, 1191.862 968.585, 1191.549 968.079 C 1191.235 967.572, 1187.383 965.960, 1182.989 964.496 C 1178.594 963.033, 1174.436 961.062, 1173.749 960.117 C 1171.823 957.468, 1167.788 955, 1165.384 955 C 1164.191 955, 1162.955 954.325, 1162.638 953.500 C 1162.322 952.675, 1161.365 952, 1160.513 952 C 1159.660 952, 1155.708 950.826, 1151.731 949.392 C 1141.735 945.787, 1131.530 946.671, 1114.690 952.602 C 1106.894 955.347, 1106.639 955.394, 1107.569 953.888 C 1109.657 950.509, 1128.668 945.002, 1138.250 945.001 C 1144.085 945, 1144.397 943.499, 1138.904 941.853 C 1135.684 940.888, 1133.301 940.884, 1127.759 941.835 C 1119.195 943.303, 1118.141 942.710, 1124.395 939.943 C 1127.795 938.439, 1130.775 937.931, 1135.146 938.109 L 1141.193 938.356 1141.532 926.687 C 1141.719 920.269, 1142.152 914.563, 1142.495 914.009 C 1142.838 913.454, 1142.641 913, 1142.059 913 C 1141.477 913, 1141 913.410, 1141 913.911 C 1141 915.670, 1133.994 929.760, 1132.505 930.995 C 1130.487 932.671, 1130.577 932.206, 1133.587 925.400 C 1137.487 916.581, 1142.999 898.926, 1142.999 895.250 C 1143 890.696, 1144.978 891.167, 1145.099 895.750 L 1145.198 899.500 1146.638 895 C 1147.430 892.525, 1148.707 887.800, 1149.476 884.500 C 1150.246 881.200, 1151.395 876.475, 1152.030 874 C 1153.430 868.545, 1157.990 842.657, 1157.617 842.283 C 1157.290 841.957, 1146.638 857.628, 1145.064 860.750 C 1142.840 865.161, 1142.043 862.908, 1144.004 857.750 C 1145.101 854.862, 1146.036 850.025, 1146.081 847 C 1146.159 841.747, 1146.218 841.626, 1147.407 844.313 C 1148.818 847.502, 1149.035 847.337, 1153.337 839.806 C 1163.141 822.645, 1170.060 805.026, 1174.075 787 C 1176.011 778.309, 1176.420 773.572, 1176.449 759.500 C 1176.485 742.008, 1175.694 736.206, 1170.791 718 C 1168.321 708.829, 1167.766 707.822, 1166.941 711.010 C 1165.306 717.322, 1164.747 704.585, 1165.925 687.903 C 1166.609 678.225, 1166.922 668.325, 1166.621 665.903 C 1166.320 663.481, 1165.818 657.450, 1165.506 652.500 C 1164.844 642.009, 1163.931 636.086, 1160.343 619 C 1157.449 605.215, 1156.533 603.151, 1155.531 608.151 M 956.586 619.189 C 951.270 623.571, 944.252 633.350, 942.948 638.192 C 941.334 644.187, 942.477 643.897, 946.156 637.378 C 947.964 634.175, 952.043 628.449, 955.221 624.655 C 960.150 618.770, 961.912 616, 960.728 616 C 960.578 616, 958.714 617.435, 956.586 619.189 M 872.068 637.540 C 871.802 645.536, 879.068 660.878, 887.115 669.315 C 890.252 672.605, 892.431 675.958, 893.082 678.498 C 895.513 687.982, 897.096 693, 897.657 693 C 897.987 693, 897.945 690.638, 897.563 687.750 C 895.948 675.549, 895.047 673.386, 887.164 662.782 C 882.929 657.086, 878.307 649.742, 876.892 646.463 C 871.774 634.595, 872.143 635.277, 872.068 637.540 M 1106 643.396 C 1106 646.079, 1111.760 651.005, 1114.856 650.970 C 1117.328 650.941, 1117.370 650.868, 1115.500 649.840 C 1114.400 649.235, 1111.813 647.132, 1109.750 645.167 C 1106.793 642.350, 1106 641.975, 1106 643.396 M 842.730 652 C 840.557 660.195, 839.277 669.550, 838.454 683.250 C 837.693 695.903, 836 696.684, 836 684.382 C 836 675.447, 834.927 674.168, 832.983 680.786 C 828.761 695.150, 825 712.618, 825 717.858 C 825 723.251, 823.930 728.075, 822.878 727.425 C 821.468 726.553, 821.895 710.069, 823.505 703.244 C 824.316 699.804, 826.109 694.305, 827.490 691.024 C 828.870 687.744, 830 684.125, 830 682.982 C 830 681.018, 829.766 681.068, 825.750 683.877 C 823.413 685.513, 820.195 688.265, 818.601 689.993 C 816.632 692.128, 815.469 692.758, 814.975 691.959 C 813.900 690.221, 807.165 696.708, 803.183 703.315 C 794.495 717.731, 791.487 730.955, 791.542 754.500 C 791.584 772.461, 791.626 772.782, 795.959 788.500 C 799.436 801.115, 812.684 824, 816.509 824 C 817.206 824, 820.076 822.418, 822.888 820.483 C 829.009 816.272, 829.473 817.446, 824.024 823.358 L 820.048 827.672 822.774 830.203 C 830.212 837.110, 843.236 841.701, 852.214 840.579 L 857.670 839.897 859.353 828.800 C 860.279 822.696, 860.865 817.532, 860.657 817.323 C 860.448 817.115, 859.061 817.407, 857.574 817.972 C 854.038 819.316, 849.197 819.208, 845.681 817.705 C 843.113 816.607, 843.469 816.500, 849.681 816.500 C 861.540 816.499, 861.034 816.994, 864.750 801.783 C 867.405 790.914, 868.014 786.379, 868.078 776.990 C 868.133 768.815, 868.655 764.079, 869.889 760.574 C 871.436 756.178, 871.486 754.727, 870.353 747.074 C 869.655 742.358, 868.385 730.850, 867.532 721.500 C 866.678 712.150, 865.812 702.890, 865.608 700.922 C 865.404 698.955, 862.067 690.782, 858.194 682.762 C 852.135 670.217, 846.119 654.343, 844.830 647.500 C 844.608 646.326, 843.741 648.184, 842.730 652 M 728.127 669.119 C 714.973 671.305, 698.860 677.274, 689.521 683.421 C 686.210 685.601, 678.162 692.810, 671.637 699.442 C 664.852 706.339, 659.575 710.971, 659.309 710.265 C 659.053 709.585, 659.827 707.647, 661.031 705.957 C 664.077 701.679, 662.992 701.337, 656.883 704.651 C 646.575 710.243, 638.903 718.655, 631.740 732.220 C 629.355 736.736, 627.998 738.438, 627.603 737.407 C 627.279 736.564, 627.719 734.510, 628.581 732.844 C 631.040 728.089, 629.653 728.429, 623.342 734.128 C 614.176 742.405, 610.265 746.871, 604.338 755.830 C 598.518 764.625, 596.367 766.143, 600.062 758.847 C 604.191 750.693, 610.683 741.509, 617.474 734.212 C 621.205 730.204, 623.971 726.638, 623.621 726.288 C 623.271 725.938, 619.990 726.881, 616.330 728.384 C 608.274 731.693, 591.694 734.845, 563 738.524 L 541.500 741.281 538.500 744.832 C 523.123 763.031, 514.926 798.166, 517.836 833.409 C 518.468 841.059, 519.196 847.530, 519.456 847.789 C 519.715 848.048, 527.481 846.341, 536.713 843.996 C 545.946 841.651, 558 838.741, 563.500 837.528 C 586.183 832.527, 606.808 826.265, 610.081 823.386 C 610.951 822.621, 611.940 822.273, 612.279 822.613 C 613.283 823.617, 627.767 817.163, 634.898 812.534 C 643.450 806.983, 667.816 793.405, 670.841 792.504 C 672.671 791.959, 673.042 791.337, 672.537 789.654 C 671.216 785.248, 670.638 765.658, 671.851 766.408 C 672.483 766.799, 673 768.918, 673 771.117 C 673 776.694, 675.018 789.266, 676.134 790.638 C 677.276 792.043, 692.530 788.277, 700.528 784.616 L 705.833 782.187 706.462 776.344 C 708.062 761.482, 712.962 741.314, 717.125 732.457 C 720.173 725.974, 720.357 727.448, 717.640 736.581 C 715.343 744.301, 711.727 762.627, 710.585 772.331 C 710.158 775.954, 710.326 777.034, 711.258 776.652 C 712.932 775.966, 724.195 772.513, 731.088 770.573 C 734.161 769.708, 737.579 769, 738.684 769 C 740.551 769, 740.735 768.142, 741.315 756.694 C 741.962 743.929, 744.008 732.819, 746.655 727.701 C 747.779 725.526, 747.881 724.545, 747.036 724.022 C 745.874 723.304, 746.314 719.462, 748.013 715.500 C 748.485 714.400, 749.789 711.329, 750.912 708.676 C 752.034 706.023, 753.389 704.123, 753.923 704.452 C 754.914 705.065, 754.232 707.448, 750.095 717.823 C 748.927 720.750, 748.212 723.534, 748.506 724.009 C 748.799 724.484, 748.078 730.189, 746.903 736.687 C 744.486 750.044, 744.692 773.103, 747.329 784.500 C 751.924 804.361, 760.182 824.562, 767.156 833 C 776.725 844.578, 780.089 848.124, 785.216 852.038 C 788.360 854.438, 790.750 856.583, 790.528 856.805 C 790.158 857.175, 788.935 856.612, 780.719 852.286 C 774.311 848.914, 762.198 834.209, 757.063 823.571 C 752.813 814.766, 746.941 797.565, 744.411 786.507 C 743.529 782.653, 742.657 778.984, 742.474 778.353 C 741.850 776.201, 722.418 780.804, 713.750 785.157 L 710 787.041 710 806.720 C 710 828.501, 708.457 832.349, 707.490 812.982 C 707.175 806.667, 706.679 799.142, 706.388 796.261 L 705.859 791.022 703.179 792.375 C 700.369 793.795, 694.373 795.773, 684.782 798.445 C 679.165 800.009, 679.081 800.086, 680.052 802.769 C 683.061 811.079, 689.309 820.205, 697.635 828.449 C 705.530 836.267, 705.343 838.140, 697.291 831.888 C 688.667 825.191, 677 808.340, 677 802.580 C 677 801.776, 676.659 800.907, 676.242 800.650 C 674.578 799.621, 655.124 809.506, 638.778 819.684 C 633.981 822.671, 627.472 826.167, 624.313 827.452 C 621.155 828.737, 618.417 830.250, 618.228 830.815 C 617.835 831.995, 635.793 847.669, 644.882 854.079 C 652.580 859.508, 652.750 860.741, 645.250 856.740 C 635.552 851.567, 626.005 843.776, 618.725 835.096 C 615.594 831.363, 613.028 831.338, 604.793 834.965 C 599.597 837.253, 574.016 844.348, 565 846.001 C 561.425 846.657, 555.350 848.097, 551.500 849.202 C 547.650 850.308, 543.964 851.365, 543.308 851.552 C 541.295 852.127, 549.911 883.063, 555.437 895.099 C 558.902 902.645, 559.948 903.343, 571.500 905.819 C 589.975 909.778, 594.439 910.311, 609 910.292 C 634.289 910.258, 662.271 905.354, 685.500 896.884 C 695.736 893.151, 696.364 893.771, 678.500 889.979 C 673 888.811, 667.600 887.469, 666.500 886.996 C 664.550 886.157, 664.553 886.134, 666.628 886.068 C 671.070 885.926, 709.319 889.079, 710.267 889.665 C 710.813 890.002, 711.067 889.653, 710.832 888.889 C 710.398 887.477, 689.699 876.647, 677.628 871.517 C 670.764 868.600, 666.008 864.963, 671.008 866.455 C 682.940 870.016, 708.892 882.140, 715.191 887.096 C 721.843 892.329, 736.336 890.363, 750.396 882.318 C 761.606 875.904, 764.668 874.311, 768.062 873.128 C 771.873 871.800, 771.837 870, 768 870 C 758.459 870, 735.472 864.215, 725.500 859.305 C 719.115 856.160, 708 848.774, 708 847.675 C 708 847.212, 708.337 846.996, 708.750 847.196 C 727.435 856.223, 733.355 858.748, 742.500 861.589 C 748.550 863.468, 758.015 865.882, 763.534 866.952 C 769.053 868.022, 774.280 869.170, 775.151 869.504 C 776.021 869.838, 779.365 869.186, 782.582 868.056 C 793.360 864.267, 790.646 866.671, 776.612 873.342 C 770.406 876.292, 763.567 879.933, 761.414 881.434 L 757.500 884.163 762 883.472 C 766.877 882.724, 781.332 877.986, 785.143 875.886 C 787.147 874.782, 787.238 874.533, 785.750 874.220 C 780.830 873.189, 785.662 871.044, 793 871.002 C 795.924 870.985, 799.024 870.104, 801.852 868.488 C 806.631 865.756, 807.426 865.501, 806.500 867 C 804.235 870.665, 822.474 863.449, 826.377 859.136 C 828.032 857.307, 827.930 857.217, 823.450 856.545 C 819.076 855.889, 818.540 856.073, 814.154 859.739 C 808.195 864.720, 806.866 865.513, 807.573 863.670 C 807.876 862.881, 809.905 860.804, 812.082 859.055 C 816.726 855.322, 816.602 854.869, 810.283 852.515 C 805.810 850.848, 798.434 845.873, 793.246 841.022 C 792.006 839.863, 790.217 839.046, 789.270 839.207 C 788.311 839.370, 787.494 838.835, 787.426 838 C 787.147 834.548, 786.908 834.106, 785 833.500 C 783.900 833.151, 783 832.236, 783 831.466 C 783 830.697, 781.313 827.440, 779.250 824.229 C 777.188 821.018, 774.173 815.589, 772.551 812.165 C 770.930 808.740, 769.110 806.128, 768.507 806.359 C 767.835 806.617, 767.411 805.369, 767.411 803.140 C 767.412 801.138, 766.447 795.900, 765.267 791.500 C 764.087 787.100, 762.607 780.885, 761.978 777.689 C 760.882 772.130, 760.717 771.901, 758.166 772.405 C 756.700 772.694, 753.700 773.172, 751.500 773.467 L 747.500 774.001 750.824 772.467 C 752.653 771.624, 755.690 770.876, 757.574 770.805 C 760.647 770.689, 761.962 769.295, 760.437 767.770 C 760.127 767.460, 757.137 767.845, 753.792 768.626 C 750.447 769.406, 747.502 769.836, 747.247 769.581 C 746.400 768.733, 754.193 766, 757.457 766 L 760.669 766 760.240 758.250 C 760.004 753.987, 760.249 747.350, 760.786 743.500 C 761.910 735.433, 761.721 734.849, 758.950 737.823 C 757.835 739.020, 756.420 740, 755.806 740 C 754.731 740, 756.150 738.088, 760.603 733.536 C 761.759 732.353, 763.027 729.612, 763.422 727.443 C 765.828 714.201, 774.172 697.897, 783.126 688.943 L 789.807 682.262 787.176 679.631 C 785.729 678.184, 785.098 677, 785.773 677 C 786.448 677, 787.942 677.942, 789.092 679.092 C 791.221 681.221, 791.593 681.207, 798.231 678.751 C 803.290 676.880, 803.469 676.537, 800.426 674.544 C 796.029 671.662, 790.441 672.310, 780.816 676.817 C 770.813 681.502, 767.995 684.642, 773.249 685.249 C 776.374 685.610, 776.325 685.657, 772 686.460 C 767.389 687.315, 760.790 692.935, 759.455 697.142 C 758.459 700.279, 757.017 699.199, 757.595 695.750 C 758.120 692.613, 757.903 692.745, 751.312 699.585 C 747.202 703.850, 742.500 710.206, 739.500 715.552 C 734.167 725.054, 732.243 725.030, 736.451 715.515 C 741.276 704.606, 751.418 692.421, 758.891 688.556 C 760.547 687.700, 765.156 683.822, 769.133 679.938 C 773.390 675.782, 777.523 672.645, 779.182 672.314 C 781.984 671.753, 783.137 670.029, 780.750 669.968 C 780.063 669.951, 774.775 669.290, 769 668.500 C 755.158 666.606, 742.059 666.805, 728.127 669.119 M 803.865 673.580 C 806.877 676.037, 807.927 676.300, 813.860 676.085 C 817.506 675.953, 820.632 675.701, 820.807 675.527 C 821.913 674.420, 813.361 671.712, 807.500 671.312 L 800.500 670.835 803.865 673.580 M 1091.081 677.849 C 1090.486 678.960, 1090 680.361, 1090 680.963 C 1090 682.913, 1083.223 696.325, 1078.871 702.989 C 1076.540 706.558, 1072.743 713.121, 1070.434 717.574 C 1062.110 733.618, 1057.486 739.380, 1045 749.265 C 1035.973 756.411, 1026.746 765.080, 1027.434 765.768 C 1027.709 766.042, 1029.514 764.878, 1031.446 763.182 C 1033.378 761.485, 1038.681 757.618, 1043.229 754.588 C 1047.778 751.559, 1052.889 747.599, 1054.587 745.790 C 1059.543 740.509, 1070.429 725.092, 1074.563 717.500 C 1076.659 713.650, 1079.862 708.426, 1081.680 705.890 C 1086.003 699.863, 1089.562 691.700, 1091.488 683.397 C 1093.098 676.455, 1092.945 674.367, 1091.081 677.849 M 992.208 682.123 C 992.948 684.343, 1000.586 686.017, 1005.657 685.070 C 1013.015 683.695, 1012.611 682.455, 1004.732 682.230 C 1000.754 682.117, 996.209 681.746, 994.632 681.407 C 992.498 680.947, 991.877 681.131, 992.208 682.123 M 799.445 690.911 C 800.117 691.999, 792.531 693.446, 791.028 692.517 C 789.842 691.784, 786 692.778, 786 693.817 C 786.001 695.231, 801.096 694.463, 801.998 693.003 C 803.067 691.274, 802.381 690, 800.382 690 C 799.557 690, 799.135 690.410, 799.445 690.911 M 999.208 698.750 C 999.693 703.727, 1003.586 713.747, 1004.630 712.703 C 1004.963 712.370, 1004.509 709.938, 1003.620 707.299 C 1002.731 704.659, 1001.536 700.587, 1000.963 698.250 C 999.576 692.583, 998.634 692.851, 999.208 698.750 M 782.001 697.998 C 780.970 699.925, 781.232 699.993, 789.395 699.904 C 796.057 699.832, 797.984 699.483, 798.452 698.263 C 799.298 696.061, 798.668 695.795, 795.476 697.009 C 793.541 697.745, 792.353 697.753, 791.637 697.037 C 789.739 695.139, 783.181 695.793, 782.001 697.998 M 672.870 707.226 C 661.916 719.915, 660.649 722.248, 656.509 737.353 C 652.446 752.174, 653.482 756.026, 657.893 742.500 C 659.148 738.650, 662.123 731.675, 664.504 727 C 670.564 715.097, 671.069 714.207, 675.424 707.735 C 680.716 699.870, 679.440 699.616, 672.870 707.226 M 783.004 702.742 C 778.828 703.245, 777 704.579, 777 707.122 C 777 709.633, 780.717 709.568, 784 707 C 786.618 704.952, 792 704.279, 792 706 C 792 706.550, 791.175 707, 790.167 707 C 787.626 707, 786.810 708.066, 788.131 709.658 C 789.477 711.280, 789.998 711.142, 781.601 711.379 C 775.460 711.551, 774.611 711.818, 773.874 713.811 C 773.066 715.995, 773.199 716.043, 779.273 715.775 C 782.698 715.624, 786.429 715.841, 787.565 716.259 C 789.389 716.929, 789.830 716.380, 791.355 711.543 C 792.304 708.532, 793.513 705.801, 794.040 705.475 C 794.568 705.149, 795 704.234, 795 703.441 C 795 701.976, 791.191 701.754, 783.004 702.742 M 1161.591 713 C 1158.508 721.882, 1154.354 730.596, 1149.774 737.783 C 1147.421 741.478, 1144.696 746.300, 1143.720 748.500 L 1141.944 752.500 1144.722 749.341 C 1157.006 735.370, 1164.300 721.371, 1163.801 712.721 L 1163.500 707.500 1161.591 713 M 906.628 715.487 C 905.626 718.780, 904.194 722.657, 903.447 724.103 C 902.699 725.550, 901.632 729.553, 901.077 733 C 900.522 736.447, 899.395 740.011, 898.572 740.920 C 896.503 743.207, 892.772 751.779, 892.009 756 C 891.661 757.925, 890.877 759.399, 890.268 759.277 C 889.657 759.153, 890.512 762.745, 892.174 767.277 C 895.166 775.438, 895.176 775.535, 893.516 780.187 C 892.597 782.765, 892.027 785.915, 892.250 787.187 C 892.621 789.299, 892.788 789.196, 894.180 786 C 895.019 784.075, 896.020 781.614, 896.405 780.530 C 896.987 778.895, 897.722 779.654, 900.735 785 C 904.474 791.636, 911 807.320, 911 809.672 C 911 810.402, 911.450 811, 912 811 C 912.550 811, 913 810.609, 913 810.130 C 913 807.277, 906.277 787.433, 902.368 778.748 C 895.204 762.830, 895.140 752.577, 902.112 737.377 C 905.562 729.855, 909.253 715.970, 908.792 712.251 C 908.511 709.986, 908.128 710.558, 906.628 715.487 M 631 712.080 C 628.525 712.536, 621.170 712.937, 614.655 712.970 L 602.810 713.030 596.905 718.935 C 590.317 725.523, 589.728 727.020, 593.750 726.956 C 600.535 726.847, 605.806 724.502, 610.015 719.721 C 612.300 717.124, 614.666 715, 615.272 715 C 615.878 715, 615.231 716.237, 613.834 717.750 C 608.923 723.065, 609.362 724.011, 615.825 722.047 C 618.946 721.099, 622.940 719.576, 624.700 718.662 C 626.461 717.748, 628.970 717, 630.276 717 C 631.582 717, 633.630 715.958, 634.826 714.686 C 637.034 712.335, 637.609 710.898, 636.250 711.125 C 635.837 711.194, 633.475 711.624, 631 712.080 M 1048 718.059 C 1043.325 721.299, 1032.750 727.614, 1024.500 732.091 C 1016.250 736.568, 1005.900 742.813, 1001.500 745.968 C 997.100 749.123, 992.487 752.237, 991.250 752.887 C 990.013 753.538, 989 754.535, 989 755.102 C 989 756.114, 991.887 754.656, 1011 743.991 C 1016.225 741.075, 1023.370 737.130, 1026.878 735.224 C 1032.989 731.904, 1056.262 715.003, 1057.515 712.976 C 1058.733 711.006, 1056.308 712.301, 1048 718.059 M 583 719.457 C 580.525 720.184, 575.350 721.743, 571.500 722.921 C 557.302 727.266, 541.207 730.990, 530.500 732.409 C 511.738 734.895, 510.464 735.031, 511.750 734.424 C 514.335 733.203, 512.819 732.254, 507.250 731.607 C 504.087 731.240, 495.200 729.192, 487.500 727.056 C 451.935 717.193, 433.448 717.073, 408.289 726.543 C 404.561 727.946, 400.383 730.150, 399.005 731.440 C 397.627 732.731, 394.234 734.259, 391.465 734.836 C 388.696 735.414, 384.271 736.812, 381.632 737.943 C 376.139 740.298, 376 740.326, 376 739.067 C 376 738.554, 376.900 737.849, 378 737.500 C 382.838 735.964, 379.011 735.546, 365.751 736.161 C 357.913 736.525, 347.450 737.560, 342.500 738.463 C 337.550 739.365, 328.100 741.008, 321.500 742.112 C 314.900 743.217, 307.603 744.542, 305.285 745.057 C 290.544 748.330, 249.222 749.992, 232 748.004 L 223.500 747.023 219 751.880 C 216.525 754.552, 212.475 757.749, 210 758.985 C 204.092 761.936, 202.131 763.751, 200.417 767.852 C 198.071 773.467, 198.308 773.714, 205.240 772.897 C 209.932 772.344, 211.824 771.645, 212.862 770.081 C 214.455 767.683, 217.236 767.221, 216.362 769.500 C 216.024 770.379, 216.347 770.999, 217.143 770.999 C 219.254 770.997, 233.789 768.333, 241 766.627 C 248.245 764.913, 263.278 761.520, 272.631 759.487 C 276.003 758.754, 281.093 756.973, 283.941 755.530 C 301.206 746.781, 317.109 743.474, 337.939 744.301 C 359.388 745.152, 365.833 746.495, 397 756.614 C 418.941 763.737, 419.445 763.822, 440.417 763.955 L 458.600 764.070 468.550 759.918 C 490.460 750.778, 522.298 741.078, 530.595 741.016 C 531.747 741.007, 533.476 740.132, 534.436 739.071 C 537.612 735.561, 542.535 734.073, 556.092 732.525 C 583.681 729.373, 583.424 729.446, 586.929 723.808 C 588.618 721.090, 590 718.672, 590 718.434 C 590 717.727, 587.785 718.051, 583 719.457 M 772.200 719.200 C 769.501 721.899, 770.891 723, 777 723 C 780.333 723, 783 723.444, 783 724 C 783 724.550, 780.611 725, 777.691 725 C 771.689 725, 769.529 726.256, 768.590 730.294 L 767.940 733.089 775.720 732.421 C 782.055 731.877, 783.274 731.993, 782.283 733.044 C 781.613 733.754, 778.013 734.597, 774.283 734.917 L 767.500 735.500 767.185 738.772 C 766.871 742.038, 766.877 742.043, 770.685 741.455 C 772.783 741.130, 776.702 740.558, 779.394 740.183 L 784.288 739.500 786.028 730.902 C 786.985 726.174, 788.076 721.336, 788.452 720.152 C 789.111 718.074, 788.865 718, 781.267 718 C 776.482 718, 772.930 718.470, 772.200 719.200 M 163 725.652 C 156.661 727.740, 155.245 730.382, 159.581 732.031 C 162.481 733.133, 162.325 735.695, 159.392 735.145 C 151.878 733.734, 150.672 734.235, 147.708 740 C 145.634 744.035, 145.019 746.404, 145.401 748.893 C 145.774 751.331, 145.369 752.986, 143.960 754.778 C 141.425 758, 141.444 763.477, 144 766.727 C 145.100 768.126, 146 769.895, 146 770.660 C 146 771.892, 149.754 774, 151.949 774 C 152.399 774, 153.083 770.962, 153.470 767.250 C 155.643 746.395, 160.679 735.033, 170.741 728.284 C 171.974 727.458, 172.735 726.380, 172.432 725.891 C 171.857 724.959, 165.585 724.800, 163 725.652 M 173.369 729.536 C 166.502 732.546, 159.133 747.124, 156.989 761.935 C 155.427 772.735, 155.578 773.711, 158.887 774.197 L 161.775 774.621 162.470 766.647 C 163.871 750.594, 170.872 734.952, 177.974 732.011 C 181.335 730.618, 181.801 729.521, 179.418 728.607 C 177.413 727.838, 177.150 727.878, 173.369 729.536 M 646.606 731.660 C 640.011 740.705, 631.835 763.132, 629.511 778.551 C 628.132 787.704, 627.416 803.918, 628.436 802.897 C 628.676 802.658, 629.588 797.970, 630.464 792.481 C 631.340 786.991, 633.203 778.225, 634.603 773 C 636.004 767.775, 637.299 762.825, 637.482 762 C 638.539 757.236, 645.380 738.390, 647.501 734.402 C 648.875 731.817, 650 729.544, 650 729.351 C 650 728.223, 648.238 729.422, 646.606 731.660 M 180.510 734.579 C 176.808 736.500, 175.462 738.252, 171.923 745.758 C 167.502 755.135, 164.279 771, 166.795 771 C 167.511 771, 170.573 767.140, 177.899 757 C 179.290 755.075, 181.017 752.895, 181.737 752.155 C 182.457 751.416, 183.667 749.611, 184.425 748.144 C 185.184 746.678, 188.165 743.488, 191.050 741.055 L 196.297 736.631 192.898 735.473 C 186.527 733.302, 183.405 733.077, 180.510 734.579 M 1112 737.198 C 1112 739.894, 1117.666 746.603, 1124.030 751.443 C 1130.211 756.143, 1130.257 756.159, 1129.601 753.341 C 1129.237 751.779, 1127.728 749.600, 1126.246 748.500 C 1124.765 747.400, 1120.954 744.069, 1117.776 741.098 C 1114.369 737.911, 1112 736.312, 1112 737.198 M 197.099 740.395 C 195.862 741.711, 195.221 742.969, 195.675 743.190 C 196.901 743.785, 205.172 739.505, 204.362 738.695 C 202.907 737.241, 199.260 738.094, 197.099 740.395 M 206.872 740.658 C 204.701 743.282, 197.770 746.054, 196.343 744.869 C 194.726 743.528, 192.095 744.988, 188.260 749.357 C 184.282 753.888, 182.182 759.987, 181.754 768.250 L 181.405 775 186.567 775 L 191.728 775 192.347 770.483 C 192.688 767.998, 193.718 764.513, 194.636 762.737 C 195.554 760.961, 196.244 757.706, 196.169 755.504 C 196.094 753.302, 196.468 750.825, 197.001 750 C 197.738 748.859, 197.973 749.264, 197.985 751.691 C 197.993 753.446, 198.338 755.080, 198.750 755.323 C 200.330 756.251, 207.052 750.818, 208.967 747.065 C 210.069 744.904, 211.428 742.854, 211.986 742.509 C 212.544 742.164, 213 741.234, 213 740.441 C 213 738.445, 208.575 738.602, 206.872 740.658 M 216.151 742.875 C 212.794 746.516, 209.593 752, 210.825 752 C 211.341 752, 213.008 750.313, 214.531 748.250 C 218.165 743.326, 219.897 742, 222.691 742 C 223.961 742, 225 741.550, 225 741 C 225 738.710, 218.776 740.029, 216.151 742.875 M 500.500 741.502 C 499.950 741.692, 496.963 742.132, 493.862 742.481 C 490.761 742.830, 487.386 743.793, 486.362 744.621 C 484.674 745.985, 485.106 746.069, 491 745.516 C 501.170 744.563, 510 742.881, 510 741.897 C 510 741.055, 502.683 740.750, 500.500 741.502 M 555.697 747.637 C 541.175 770.238, 534.265 802.044, 537.477 831.500 C 538.800 843.631, 540.066 842.326, 539.417 829.500 C 538.379 808.987, 542.018 784.994, 548.971 766.500 C 552.442 757.269, 557.767 746.278, 560.249 743.226 C 560.819 742.525, 561.020 741.686, 560.696 741.362 C 560.372 741.038, 558.122 743.862, 555.697 747.637 M 774.500 742.859 C 766.574 744.485, 766.497 744.531, 766.184 747.786 C 765.898 750.761, 766.087 751.023, 768.184 750.565 C 769.458 750.286, 772.300 749.810, 774.500 749.506 C 776.700 749.202, 779.250 748.720, 780.166 748.436 C 781.082 748.151, 782.107 748.364, 782.444 748.909 C 782.781 749.455, 781.585 750.138, 779.778 750.432 C 777.975 750.724, 775.150 751.174, 773.500 751.431 C 766.456 752.528, 766 752.911, 766 757.724 C 766 761.596, 766.241 762.119, 767.750 761.526 C 768.712 761.147, 772.763 760.584, 776.750 760.274 L 784 759.711 784 750.356 C 784 745.210, 783.663 741.049, 783.250 741.109 C 782.837 741.170, 778.900 741.957, 774.500 742.859 M 854.500 745.587 C 847.510 749.160, 843 752.554, 843 754.242 C 843 754.734, 844.237 754.263, 845.750 753.195 C 847.263 752.127, 851.227 749.883, 854.560 748.208 C 860.147 745.401, 864.438 741.993, 862.372 742.005 C 861.893 742.008, 858.350 743.620, 854.500 745.587 M 518.500 750.104 C 506.425 753.489, 493.093 758.038, 475.500 764.776 C 459.862 770.765, 443.397 776, 440.198 776 C 437.846 776, 439.940 774.172, 443.083 773.482 C 449.381 772.098, 446.242 771.620, 423.367 770.476 C 412.915 769.954, 408.227 769.341, 407.513 768.404 C 406.226 766.713, 386.340 759.978, 371.158 756.091 C 337.627 747.507, 310.213 749.796, 283.115 763.442 C 279.229 765.399, 274.801 767.012, 273.275 767.026 C 271.749 767.040, 266.675 767.945, 262 769.037 C 212.130 780.684, 179.756 783.844, 151.136 779.855 C 147.085 779.290, 143.463 779.205, 143.086 779.664 C 134.415 790.231, 133.236 792.940, 137.250 793.076 C 139.040 793.137, 138.809 793.402, 136.122 794.374 C 127.626 797.448, 125.260 806.460, 131.350 812.550 C 133.784 814.984, 134.322 816.046, 133.315 816.432 C 130.246 817.610, 138.799 828.655, 148.135 835.569 L 152.770 839.002 160.635 837.545 C 181.775 833.628, 205.739 835.389, 249 844.039 C 282.427 850.722, 293.681 852.171, 313.500 852.344 C 337.540 852.552, 372.310 849.203, 395.750 844.421 C 396.988 844.168, 398 844.388, 398 844.909 C 398 845.430, 395.413 846.150, 392.250 846.510 C 385.384 847.291, 383 847.891, 383 848.840 C 383 849.513, 403.218 856.206, 409.500 857.612 C 411.150 857.981, 414.300 859.308, 416.500 860.560 C 422.983 864.250, 427.828 865.012, 446.403 865.262 C 456.081 865.393, 464 865.403, 464 865.283 C 464 865.164, 461.984 862.797, 459.520 860.023 C 454.165 853.993, 451.877 849.818, 451.458 845.313 C 451.083 841.279, 452.490 841.845, 454.441 846.513 C 455.217 848.369, 458.742 852.779, 462.275 856.312 C 473.053 867.090, 489.505 875.383, 507.500 879.110 C 518.942 881.480, 520.375 881.496, 519.732 879.250 C 511.964 852.120, 509.949 838.132, 510.526 815.318 C 511.169 789.838, 515.821 770.259, 525.273 753.250 C 528.599 747.266, 528.609 747.271, 518.500 750.104 M 75.578 757.216 C 68.816 758.637, 67.449 760.753, 71.554 763.443 C 74.022 765.060, 74.264 765.014, 78.725 762.058 C 81.265 760.376, 83.742 759, 84.230 759 C 84.719 759, 84.873 758.604, 84.574 758.119 C 83.705 756.714, 79.821 756.324, 75.578 757.216 M 1115 758.857 C 1115 759.573, 1116.093 762.936, 1117.429 766.329 C 1121.336 776.257, 1122.245 785.786, 1121.534 809.364 C 1120.777 834.441, 1122.129 835.227, 1124.012 810.805 C 1125.385 792.998, 1125.044 784.910, 1122.492 774.812 C 1120.357 766.364, 1115 754.955, 1115 758.857 M 83.500 761.877 C 75.911 766.606, 71.688 774.322, 66.737 792.500 C 63.947 802.745, 63.723 804.872, 63.463 823.500 C 63.176 844.044, 62.659 847.929, 58.476 860.941 C 55.091 871.468, 53.159 881.353, 52.885 889.534 C 52.581 898.632, 51.315 903.478, 50.936 897 C 50.345 886.921, 52.793 870.355, 56.345 860.394 C 59.748 850.854, 61.029 840.427, 61.370 819.500 C 61.699 799.390, 61.847 798.041, 64.875 787.674 C 66.614 781.720, 68.928 775.101, 70.018 772.964 C 71.108 770.828, 72 768.656, 72 768.139 C 72 767.388, 65.691 763, 64.611 763 C 64.023 763, 58.028 772.797, 57.064 775.333 C 56.503 776.808, 56.134 780.082, 56.244 782.609 C 56.398 786.151, 56 787.527, 54.504 788.621 C 52.711 789.932, 52.562 791.401, 52.532 808.099 C 52.505 823.196, 52.752 826.350, 54.037 827.329 C 56.912 829.519, 53.692 855.906, 49.990 860.500 C 46.673 864.616, 43.731 883.439, 44.528 895.450 C 46.401 923.663, 61.137 941.461, 86.847 946.564 C 96.652 948.510, 105.954 948.135, 111.250 945.581 C 116.492 943.052, 115.976 942.511, 108.245 942.425 C 86.407 942.184, 66.114 929.240, 58.979 911 C 56.068 903.559, 55.647 901.316, 55.599 893 C 55.541 882.911, 56.001 880.487, 62.152 858.500 C 66.523 842.875, 68.377 831.911, 70.014 812 C 71.139 798.325, 73.159 786.731, 75.667 779.562 C 77.642 773.915, 84.559 765.178, 88.570 763.265 C 90.456 762.366, 92 761.263, 92 760.815 C 92 759.307, 86.526 759.991, 83.500 761.877 M 178 761.918 C 178 762.423, 175.975 765.209, 173.500 768.109 C 171.025 771.008, 169 773.745, 169 774.190 C 169 774.636, 171.250 775, 174 775 L 179 775 179.014 770.250 C 179.021 767.638, 179.299 764.487, 179.630 763.250 C 179.992 761.900, 179.787 761, 179.117 761 C 178.502 761, 178 761.413, 178 761.918 M 779.500 761.712 C 772.618 762.362, 766 764.352, 766 765.771 C 766 766.857, 766.819 767.082, 769.250 766.664 C 771.038 766.357, 775.087 765.805, 778.250 765.438 C 782.023 764.999, 784 764.314, 784 763.444 C 784 761.706, 783.126 761.369, 779.500 761.712 M 91.457 765.863 C 83.554 770.682, 78.668 780.406, 75.907 796.805 C 73.786 809.406, 73.506 814.423, 74.976 813.515 C 76.521 812.560, 82.941 800.600, 85.865 793.229 C 92.079 777.562, 99.140 768.007, 105.723 766.355 C 110.213 765.228, 107.876 764, 101.250 764.004 C 96.440 764.006, 93.625 764.541, 91.457 765.863 M 115.523 765.757 C 110.227 767.035, 93.588 781.746, 92.166 786.406 C 90.244 792.708, 84.457 804.079, 79.749 810.806 C 74.394 818.459, 73.862 819.716, 72.987 826.806 C 71.909 835.550, 70.216 843.405, 65.780 860.259 C 64.078 866.727, 62.912 872.245, 63.189 872.522 C 63.466 872.800, 65.284 872.362, 67.228 871.549 C 71.388 869.811, 73.725 870.317, 82.873 874.936 C 86.379 876.705, 89.613 877.781, 90.061 877.327 C 90.509 876.872, 92.305 872.900, 94.054 868.500 C 95.802 864.100, 97.500 860.051, 97.828 859.503 C 98.156 858.954, 99.577 855.067, 100.988 850.864 L 103.552 843.222 101.536 839.361 C 98.439 833.430, 98.823 827.715, 102.571 823.967 L 105.643 820.896 103.196 815.952 C 99.896 809.284, 99.775 800.314, 102.900 794 C 106.853 786.012, 107.611 785.016, 116.370 776.316 C 125.293 767.453, 126.221 766.052, 123.250 765.926 C 122.287 765.885, 120.600 765.723, 119.500 765.565 C 118.400 765.408, 116.610 765.494, 115.523 765.757 M 780.700 766.634 C 780.351 766.982, 777.239 767.784, 773.783 768.415 L 767.500 769.563 767.751 774.031 C 768.244 782.794, 768.543 783.250, 773.289 782.478 C 775.605 782.102, 777.928 781.390, 778.450 780.897 C 779.765 779.655, 785.273 779.749, 784.500 781 C 784.160 781.550, 783.090 782, 782.122 782 C 781.155 782, 778.031 782.692, 775.182 783.539 C 769.608 785.194, 768.472 787.527, 771.333 791.441 C 772.552 793.108, 773.246 793.162, 779.450 792.082 C 783.181 791.432, 786.452 791.118, 786.718 791.385 C 787.236 791.903, 781.852 793.410, 775.796 794.442 C 772.480 795.007, 772.178 795.306, 772.911 797.287 C 773.568 799.063, 774.371 799.433, 776.978 799.163 C 779.198 798.932, 780.005 799.183, 779.529 799.953 C 779.145 800.574, 778.007 800.820, 777 800.500 C 774.368 799.665, 774 800.981, 775.688 805.193 C 776.960 808.365, 777.475 808.773, 779.334 808.085 C 780.525 807.645, 783.975 806.997, 787 806.645 C 792.440 806.013, 792.465 806.022, 789.237 807.460 C 787.443 808.260, 784.405 809.209, 782.487 809.568 C 778.670 810.284, 778.220 811.441, 780.494 814.688 C 781.980 816.810, 782.016 816.811, 787.744 815.027 C 790.910 814.041, 794.361 812.880, 795.414 812.447 C 796.530 811.988, 797.091 812.044, 796.759 812.580 C 796.446 813.086, 793.222 814.609, 789.595 815.965 C 782.474 818.627, 782.361 818.743, 784.292 821.385 C 785.523 823.068, 785.923 823.070, 792.720 821.430 C 796.644 820.482, 800.318 819.421, 800.884 819.071 C 801.513 818.683, 799.979 814.555, 796.944 808.468 C 791.584 797.719, 786.291 781, 785.319 771.750 C 784.847 767.255, 784.346 766, 783.024 766 C 782.094 766, 781.048 766.285, 780.700 766.634 M 126.077 771.077 C 124.385 772.769, 123 774.595, 123 775.133 C 123 775.672, 121.537 777.483, 119.750 779.158 L 116.500 782.204 119.720 780.591 C 121.492 779.705, 123.398 778.124, 123.958 777.079 C 126.439 772.443, 135.925 769.325, 138.800 772.200 C 139.536 772.936, 140 772.996, 140 772.355 C 140 770.252, 136.250 768, 132.748 768 C 130.068 768, 128.371 768.782, 126.077 771.077 M 781 772.058 C 779.625 772.490, 776.321 773.137, 773.658 773.496 C 770.995 773.856, 769.055 774.389, 769.347 774.680 C 770.093 775.427, 781.336 774.028, 783.036 772.978 C 785.100 771.702, 783.884 771.153, 781 772.058 M 728.321 774.471 C 717.646 777.230, 710 780.394, 710 782.051 C 710 782.779, 710.655 782.932, 711.750 782.461 C 717.133 780.145, 735.618 775, 738.557 775 C 740.951 775, 742 774.543, 742 773.500 C 742 771.454, 739.232 771.651, 728.321 774.471 M 129.535 779.965 C 127.405 782.145, 122.627 785.525, 118.916 787.475 C 113.256 790.449, 111.811 791.758, 109.951 795.601 C 104.832 806.175, 106.412 812.681, 116.182 821.258 C 122.628 826.918, 122.640 826.923, 126.568 825.775 C 131.630 824.294, 131.604 824.325, 129.716 822.238 C 126.790 819.006, 124.044 811.567, 124.022 806.815 C 123.995 801.109, 125.003 798.275, 128.224 795 C 129.576 793.625, 132.291 789.962, 134.258 786.860 C 136.225 783.758, 138.321 780.919, 138.917 780.551 C 140.650 779.480, 140.186 778.406, 137.453 777.161 C 133.885 775.535, 133.847 775.548, 129.535 779.965 M 431.774 780.555 C 425.519 782.071, 410 788.824, 410 790.029 C 410 790.442, 415.512 789.057, 422.250 786.950 C 437.023 782.331, 441 780.810, 441 779.781 C 441 778.711, 438.522 778.919, 431.774 780.555 M 831.286 785.750 C 830.872 787.263, 830.526 792.432, 830.517 797.238 C 830.501 805.461, 830.659 806.124, 833.206 808.488 C 836.999 812.008, 837.545 811.618, 834.874 807.297 C 832.858 804.035, 832.596 802.366, 832.669 793.297 C 832.756 782.495, 832.524 781.225, 831.286 785.750 M 692.500 790.406 C 677.263 795.663, 677.393 795.609, 678.064 796.344 C 679.516 797.933, 706 789.109, 706 787.036 C 706 785.701, 706.493 785.578, 692.500 790.406 M 667.500 797.389 C 663.395 799.183, 641.852 811.356, 634.500 816.036 C 631.200 818.137, 625.462 821.093, 621.750 822.605 C 615.443 825.175, 613.205 827, 616.362 827 C 618.720 827, 631.821 821.235, 635.233 818.697 C 639.712 815.364, 660.367 803.659, 668.410 799.895 C 672.034 798.199, 675 796.629, 675 796.406 C 675 795.535, 670.347 796.145, 667.500 797.389 M 890.571 797.884 C 887.095 803.510, 884.352 836.772, 885.992 853.423 C 887.716 870.927, 889.085 872.905, 888.467 857 C 887.769 839.040, 889.652 812.353, 892.542 799.250 C 893.025 797.058, 891.665 796.115, 890.571 797.884 M 220 807.733 C 220 809.471, 252.698 814.702, 254.196 813.204 C 254.660 812.740, 247.943 811.342, 239.270 810.097 C 230.596 808.851, 222.713 807.615, 221.750 807.349 C 220.787 807.083, 220 807.256, 220 807.733 M 269.036 810.329 C 271.719 812.763, 286.870 818.998, 295.238 821.111 C 305.771 823.770, 335.486 824.794, 343.854 822.785 C 348.923 821.569, 348.282 821.491, 331.854 821.335 C 308.162 821.111, 289.417 817.701, 272.782 810.589 C 268.249 808.651, 267.099 808.571, 269.036 810.329 M 381.327 812.370 C 382.332 813.175, 385.482 814.149, 388.327 814.534 C 391.172 814.919, 394.315 815.386, 395.311 815.571 C 397.398 815.960, 408.140 814.034, 409.234 813.075 C 409.638 812.721, 404.490 812.351, 397.793 812.253 C 391.097 812.155, 384.241 811.812, 382.559 811.490 C 379.743 810.952, 379.645 811.022, 381.327 812.370 M 90.068 813.282 C 90 815.056, 91.735 819.240, 94.512 824 C 96.574 827.535, 96.352 825.139, 94.182 820.438 C 93.182 818.272, 91.863 815.375, 91.250 814 C 90.419 812.136, 90.118 811.953, 90.068 813.282 M 799.525 821.060 C 797.889 822.097, 794.626 823.233, 792.275 823.586 C 788.265 824.187, 786.649 826.047, 788.918 827.449 C 790.052 828.150, 803.672 826.283, 805.700 825.148 C 806.941 824.454, 806.802 823.905, 804.840 821.747 L 802.500 819.175 799.525 821.060 M 103.952 826.250 C 101.666 829.932, 101.972 834.090, 104.958 839.910 C 106.664 843.235, 106.666 843.672, 105.012 849.447 C 103.353 855.238, 100.410 863.074, 97.481 869.500 C 87.820 890.696, 87.866 894.496, 97.838 898.731 C 102.631 900.766, 120.422 901.745, 121.481 900.031 C 123.263 897.148, 117.778 895.276, 105.262 894.495 C 102.189 894.303, 99.368 893.511, 98.434 892.577 C 97.560 891.703, 95.979 890.524, 94.922 889.958 C 90.949 887.832, 94.781 882.406, 99.977 882.801 C 102.428 882.988, 102.934 882.579, 103.514 879.938 C 103.886 878.244, 104.035 876.777, 103.845 876.678 C 100.390 874.892, 99.500 873.911, 99.500 871.891 C 99.500 869.748, 99.993 869.468, 104.250 869.195 C 109.472 868.860, 109.783 868.522, 107.345 865.829 C 105.802 864.124, 105.813 863.864, 107.500 862 C 108.495 860.900, 109.915 860, 110.655 860 C 113.030 860, 112.092 858.473, 109 857.306 C 103.663 855.292, 105.618 850, 111.700 850 C 115.821 850, 116.162 847.440, 112.500 844 C 107.681 839.473, 110.674 834.129, 116.239 837.323 C 120.023 839.494, 120.197 839.303, 118.862 834.444 C 117.629 829.956, 110.992 823, 107.943 823 C 106.798 823, 105.124 824.364, 103.952 826.250 M 609.705 827.105 C 605.327 829.652, 580.914 836.780, 560.241 841.546 C 553.248 843.158, 549.817 845, 553.807 845 C 556.168 845, 574.402 840.917, 587.110 837.543 C 600.025 834.114, 613 829.009, 613 827.357 C 613 825.750, 612.146 825.685, 609.705 827.105 M 806 826.852 C 806 827.321, 803.023 828.198, 799.385 828.800 C 791.735 830.068, 791.056 830.484, 793.178 832.607 C 794.461 833.890, 795.426 833.975, 798.619 833.089 C 800.754 832.496, 804.075 832.002, 806 831.990 C 811.100 831.960, 812.326 830.910, 810.428 828.201 C 808.921 826.049, 806 825.160, 806 826.852 M 126.250 830.639 C 123.894 831.633, 124.655 842.335, 127.250 844.713 C 132.895 849.885, 142.994 852.589, 147 850 C 148.175 849.241, 147.920 849.027, 145.827 849.015 C 142.666 848.997, 134.136 842.530, 135.489 841.178 C 135.698 840.969, 137.361 841.924, 139.184 843.301 C 146.101 848.522, 153.524 849.834, 156.964 846.443 C 158.245 845.181, 158.018 845, 155.165 845 C 150.699 845, 146.545 842.679, 139.693 836.358 C 136.499 833.411, 133.349 830.994, 132.693 830.986 C 132.037 830.979, 130.600 830.779, 129.500 830.542 C 128.400 830.305, 126.938 830.349, 126.250 830.639 M 428 833.533 C 435.002 835.881, 446.569 836.781, 456.500 835.751 C 468.239 834.532, 469.831 833, 459.358 833 C 454.935 833, 445.058 832.780, 437.408 832.512 C 424.010 832.042, 423.665 832.080, 428 833.533 M 811 832.988 C 810.175 833.466, 806.698 834.399, 803.272 835.061 C 795.330 836.595, 796.091 838.103, 804.415 837.326 C 812.827 836.540, 818.605 837.566, 816.957 839.552 C 816.302 840.340, 814.019 841.456, 811.884 842.031 C 809.748 842.607, 808 843.510, 808 844.039 C 808 845.242, 809.298 845.281, 810.550 844.115 C 812.229 842.551, 826.900 842.098, 826.312 843.629 C 825.700 845.225, 820.106 846.389, 815.966 845.782 C 814.072 845.504, 813.087 845.741, 813.325 846.419 C 814.044 848.469, 830.970 846.648, 831.670 844.445 C 831.836 843.925, 829.196 842.167, 825.803 840.537 C 822.411 838.907, 818.518 836.319, 817.152 834.787 C 814.550 831.866, 813.476 831.552, 811 832.988 M 115 840.812 C 115 841.892, 121.021 846.312, 121.644 845.689 C 122.205 845.128, 116.902 840, 115.760 840 C 115.342 840, 115 840.365, 115 840.812 M 163.909 845.750 C 163.336 847.263, 162.012 849.412, 160.968 850.527 C 159.751 851.827, 158.853 854.698, 158.466 858.527 C 157.960 863.542, 158.074 864.252, 159.181 862.954 C 163.495 857.896, 171.442 856.487, 178.654 859.500 C 180.629 860.325, 182.370 861, 182.525 861 C 182.756 861, 184.722 854.735, 187.626 844.750 C 188.090 843.155, 187.110 843, 176.543 843 L 164.950 843 163.909 845.750 M 190.437 845.750 C 190.107 847.263, 188.523 853.056, 186.918 858.624 C 183.722 869.712, 183.427 872.649, 185.136 876.399 C 187.465 881.512, 201.306 884.002, 206.048 880.162 C 209.640 877.254, 207.696 876, 199.595 876 C 192.070 876, 186 874.027, 186 871.582 C 186 869.943, 188.875 867.427, 191.750 866.551 C 194.494 865.715, 194.631 864.408, 192.118 863.063 C 187.748 860.724, 189.079 855.639, 193.914 856.200 C 197.594 856.627, 198.019 852.898, 194.550 850.625 C 191.433 848.582, 191.373 847.662, 194.189 845.039 L 196.377 843 193.708 843 C 191.608 843, 190.910 843.587, 190.437 845.750 M 545 845.156 C 543.075 845.679, 537.900 846.925, 533.500 847.925 C 523.389 850.221, 519.393 851.793, 520.598 852.998 C 521.162 853.562, 523.654 853.341, 527.011 852.427 C 530.030 851.606, 535.200 850.219, 538.500 849.346 C 549.305 846.488, 551.026 845.851, 550.450 844.919 C 549.801 843.869, 549.723 843.872, 545 845.156 M 832.638 846.500 C 832.024 848.102, 832.866 848.372, 835.418 847.393 C 837.606 846.553, 837.404 845, 835.107 845 C 834.066 845, 832.955 845.675, 832.638 846.500 M 841.239 847.572 C 842.377 848.710, 847.840 849.068, 848.471 848.046 C 848.883 847.381, 847.579 847, 844.892 847 C 842.568 847, 840.924 847.258, 841.239 847.572 M 205.226 852.179 C 205.735 853.706, 208.736 855.598, 209.476 854.858 C 209.790 854.543, 209.763 853.547, 209.417 852.643 C 208.707 850.795, 204.614 850.341, 205.226 852.179 M 531 854.183 C 526.325 855.300, 522.177 856.511, 521.782 856.875 C 521.140 857.466, 525.521 875.152, 529.244 887 C 535.221 906.022, 546.457 923.979, 552.392 923.995 C 554.212 924, 568.109 920.159, 568.872 919.440 C 569.236 919.097, 563.224 911.735, 557.743 905.812 C 556.227 904.173, 555.211 902.468, 555.485 902.024 C 555.760 901.579, 554.925 898.804, 553.629 895.858 C 549.346 886.116, 543.093 866.616, 541.891 859.250 C 541.240 855.263, 540.435 852.034, 540.103 852.077 C 539.772 852.119, 535.675 853.067, 531 854.183 M 133 854.500 C 133 855.533, 134.012 855.989, 136.250 855.965 L 139.500 855.929 137 854.500 C 133.779 852.659, 133 852.659, 133 854.500 M 150.740 855.540 C 147.826 858.242, 147.384 859.501, 149 860.500 C 149.573 860.854, 149.987 865.892, 149.970 872.309 C 149.947 880.682, 149.672 883.041, 148.879 881.678 C 148.296 880.675, 148.094 878.763, 148.429 877.428 C 149.029 875.035, 147.703 874.053, 146.500 876 C 145.279 877.975, 142.978 876.940, 141.498 873.750 C 140.269 871.103, 140.071 870.964, 140.432 873 C 140.675 874.375, 141.384 879.325, 142.008 884 C 142.632 888.675, 143.560 892.928, 144.071 893.450 C 144.582 893.973, 145 895.556, 145 896.968 C 145 899.684, 149.402 907, 151.036 907 C 151.566 907, 152 907.865, 152 908.922 C 152 911.086, 158.406 916.938, 164.510 920.350 C 176.859 927.252, 200.220 928.834, 205.392 923.119 C 206.926 921.424, 206.715 921.333, 201.254 921.330 C 188.901 921.323, 168.776 913.316, 163.155 906.172 C 154.839 895.602, 152.542 886.633, 153.316 867.750 C 153.648 859.638, 153.821 853, 153.700 853 C 153.579 853, 152.247 854.143, 150.740 855.540 M 121.500 858.910 L 118.500 859.603 122.710 861.801 C 126.837 863.957, 133 864.789, 133 863.191 C 133 859.839, 127.059 857.627, 121.500 858.910 M 203 860.500 C 203 861.424, 203.938 862, 205.441 862 C 208.360 862, 209.631 860.456, 207.412 859.605 C 204.738 858.579, 203 858.931, 203 860.500 M 144.070 862.250 C 144.109 863.487, 144.527 865.400, 145 866.500 C 145.666 868.049, 145.875 867.542, 145.930 864.250 C 145.968 861.913, 145.550 860, 145 860 C 144.450 860, 144.032 861.013, 144.070 862.250 M 163.338 862.250 C 156.806 869.560, 155.847 873.647, 158.001 885.006 C 158.937 889.941, 162.577 898.621, 164.108 899.566 C 164.825 900.010, 168.911 898.450, 178 894.263 C 181.025 892.870, 182.962 891.536, 182.305 891.300 C 181.648 891.064, 180.216 891.349, 179.121 891.935 C 175.590 893.825, 174.422 893.005, 177.183 890.574 C 179.061 888.920, 181.683 888.001, 185.933 887.508 C 189.270 887.121, 191.995 886.510, 191.989 886.152 C 191.982 885.793, 190.128 884.614, 187.868 883.530 C 181.842 880.642, 180.628 878.228, 181.257 870.388 L 181.783 863.836 177.309 861.918 C 171.149 859.277, 165.882 859.403, 163.338 862.250 M 568 861.766 C 568 864.783, 594.027 881.835, 604.366 885.592 C 621.577 891.845, 629.401 893.489, 646.500 894.444 C 656.849 895.022, 663.343 893.642, 654.919 892.656 C 652.489 892.371, 646.450 891.655, 641.500 891.065 C 618.256 888.293, 594.048 879.207, 575.756 866.390 C 571.490 863.401, 568 861.320, 568 861.766 M 121.250 867.737 C 118.390 868.720, 120.323 870, 124.667 870 C 127.233 870, 129.094 869.761, 128.802 869.469 C 127.850 868.517, 122.531 867.297, 121.250 867.737 M 199.250 871.716 C 200.762 871.945, 203.238 871.945, 204.750 871.716 C 206.262 871.487, 205.025 871.300, 202 871.300 C 198.975 871.300, 197.738 871.487, 199.250 871.716 M 65.106 875.564 C 59.682 880.129, 58.289 893.270, 61.970 905.145 C 64.780 914.205, 66.468 916.380, 69.300 914.588 C 71.184 913.397, 74.622 912.350, 79.746 911.407 C 83.095 910.792, 81.530 913.049, 77.938 914.017 C 72.020 915.610, 69 917.140, 69 918.545 C 69 919.217, 71.296 922.040, 74.102 924.816 C 81.384 932.022, 92.792 937.179, 105.209 938.877 C 113.133 939.961, 115.843 939.309, 119.490 935.441 C 122.907 931.818, 129.470 929.578, 133.617 930.619 C 136.251 931.280, 136.296 931.213, 135.700 927.541 C 134.875 922.457, 132.266 918.534, 130.619 919.901 C 127.977 922.094, 111.012 924.240, 106.096 923.004 C 100.994 921.721, 92 917.151, 92 915.841 C 92 914.465, 93.636 914.863, 98.410 917.401 C 104.728 920.760, 111.009 921.379, 120.397 919.565 C 124.740 918.727, 128.532 917.802, 128.824 917.510 C 129.115 917.218, 128.150 915.722, 126.677 914.185 C 124.916 912.347, 124 910.297, 124 908.195 C 124 905.167, 123.804 905.001, 120.250 905.015 C 115.759 905.034, 111.985 906.888, 116 907.103 C 117.375 907.177, 116.025 907.655, 113 908.166 C 101.150 910.167, 93.426 912.210, 91.655 913.813 C 89.905 915.396, 89.679 915.335, 87.583 912.706 C 85.995 910.714, 84.847 910.122, 83.545 910.621 C 82.239 911.122, 81.858 910.922, 82.192 909.909 C 82.844 907.930, 86.431 907.610, 87.915 909.398 C 88.829 910.498, 89.787 910.651, 91.556 909.979 C 92.876 909.477, 96.891 908.555, 100.478 907.930 C 107.522 906.704, 108.901 905.570, 103.819 905.183 C 102.070 905.050, 97.683 904.496, 94.069 903.952 C 90.456 903.408, 85.362 902.684, 82.750 902.342 C 75.156 901.350, 76.986 899.625, 84.926 900.291 L 91.852 900.871 89.401 897.259 C 86.021 892.278, 85.673 890.173, 87.414 885.241 L 88.918 880.981 80.981 876.991 C 71.687 872.318, 69.227 872.097, 65.106 875.564 M 113 874.402 C 113 875.715, 119.514 878.624, 121.573 878.231 C 124.498 877.672, 124.688 876.439, 122.066 875.035 C 120.231 874.053, 113 873.548, 113 874.402 M 921.464 887.855 C 922.133 903.077, 923.014 910.891, 924.141 911.587 C 925.316 912.313, 925.220 901.359, 923.943 888.916 C 922.369 873.569, 920.808 872.901, 921.464 887.855 M 109.550 883.906 C 110.073 884.405, 112.711 885.102, 115.414 885.457 C 119.779 886.029, 120.185 885.927, 119.042 884.550 C 118.222 883.563, 116.093 883, 113.178 883 C 110.409 883, 108.976 883.358, 109.550 883.906 M 205 886.985 C 203.625 888.052, 201.150 889.222, 199.500 889.584 C 194.869 890.602, 189 893.120, 189 894.088 C 189 895.363, 195.998 898.721, 200.360 899.540 C 204.357 900.290, 215.649 898.378, 216.634 896.784 C 216.950 896.272, 215.812 894.696, 214.104 893.282 C 211.957 891.503, 211 889.830, 211 887.855 C 211 884.414, 208.736 884.085, 205 886.985 M 877.440 891.500 C 877.750 894.250, 878.469 902.575, 879.039 910 C 879.609 917.425, 880.935 930.700, 881.985 939.500 C 883.034 948.300, 884.434 961.043, 885.095 967.819 C 885.830 975.350, 886.627 979.625, 887.147 978.819 C 887.614 978.093, 887.785 975.700, 887.526 973.500 C 887.267 971.300, 886.777 964.550, 886.435 958.500 C 886.094 952.450, 885.234 942.550, 884.524 936.500 C 880.499 902.199, 878.601 888.392, 877.788 887.500 C 877.234 886.893, 877.098 888.463, 877.440 891.500 M 108.500 891 C 109.600 891.473, 112.075 891.859, 114 891.859 C 116.836 891.859, 117.121 891.696, 115.500 891 C 114.400 890.527, 111.925 890.141, 110 890.141 C 107.164 890.141, 106.879 890.304, 108.500 891 M 176 897.450 C 171.325 899.303, 167.368 901.466, 167.206 902.257 C 166.583 905.306, 181.193 913.743, 191.580 916.333 C 205.579 919.823, 208.053 919.507, 211.087 913.837 C 212.397 911.389, 217.824 909, 222.076 909 C 225 909, 225.170 908.810, 224.541 906.250 C 223.322 901.294, 221.175 898.836, 219.055 899.970 C 218.023 900.523, 213.336 901.270, 208.639 901.631 C 198.442 902.415, 192.627 901.079, 188.054 896.903 C 186.307 895.306, 184.792 894.018, 184.688 894.040 C 184.585 894.063, 180.675 895.597, 176 897.450 M 562 906.450 C 562 907.377, 567.903 915.602, 569.801 917.319 C 571.938 919.254, 570.620 919.429, 589.500 914.692 L 593.500 913.688 587.230 912.370 C 583.781 911.645, 577.233 909.915, 572.678 908.526 C 564.555 906.048, 562 905.552, 562 906.450 M 124.364 936.170 C 123.189 936.738, 121.710 938.341, 121.077 939.731 C 119.395 943.421, 120.571 943.730, 122.452 940.093 C 123.685 937.709, 124.719 937, 126.967 937 C 128.570 937, 130.160 936.550, 130.500 936 C 131.299 934.707, 127.147 934.822, 124.364 936.170 M 1173.904 957.398 C 1175.143 958.717, 1177.359 960.033, 1178.829 960.322 C 1180.298 960.611, 1184.425 961.714, 1188 962.772 C 1197.794 965.671, 1200 966.118, 1200 965.206 C 1200 964.748, 1196.287 963.331, 1191.750 962.057 C 1187.213 960.783, 1181.901 958.674, 1179.946 957.370 C 1177.992 956.067, 1175.326 955, 1174.022 955 L 1171.651 955 1173.904 957.398 M 1202.952 966.073 C 1200.967 967.361, 1204.164 969.811, 1214.474 974.903 C 1226.578 980.881, 1227.436 978.443, 1215.500 971.988 C 1212.200 970.204, 1208.825 968.195, 1208 967.524 C 1205.359 965.376, 1204.436 965.111, 1202.952 966.073 M 1130 983 C 1127.621 985.379, 1127.456 987.304, 1129.489 988.991 C 1130.712 990.006, 1131.591 989.688, 1134.419 987.205 C 1137.669 984.352, 1137.763 984.095, 1136.101 982.592 C 1133.782 980.493, 1132.416 980.584, 1130 983 M 1218.694 982.639 C 1217.651 983.682, 1218.972 985, 1221.059 985 C 1223.395 985, 1223.627 983.455, 1221.418 982.607 C 1219.466 981.858, 1219.476 981.858, 1218.694 982.639 M 1201 985.326 C 1201 987.189, 1204.016 988.384, 1205.351 987.049 C 1206.554 985.846, 1206.243 985.477, 1203.250 984.557 C 1201.628 984.058, 1201 984.273, 1201 985.326 M 1139.500 986.030 C 1138.950 986.542, 1137.150 988.056, 1135.500 989.395 C 1131.700 992.479, 1132.928 993.882, 1137.513 991.695 C 1140.131 990.447, 1141 989.406, 1141 987.516 C 1141 984.744, 1140.943 984.688, 1139.500 986.030 M 976.432 1005.889 C 976.734 1006.378, 978.223 1007.087, 979.741 1007.463 C 981.258 1007.840, 983.423 1009.010, 984.552 1010.062 C 986.351 1011.741, 994.785 1014.959, 997.462 1014.989 C 997.992 1014.995, 996.209 1012.750, 993.500 1010 C 988.617 1005.043, 988.521 1005, 982.229 1005 C 978.738 1005, 976.129 1005.400, 976.432 1005.889 M 933.500 1006.737 C 934.627 1007.858, 957.287 1013, 961.102 1013 C 962.463 1013, 965.329 1013.893, 967.470 1014.985 C 969.612 1016.077, 971.530 1016.803, 971.734 1016.599 C 972.641 1015.693, 966.450 1011.998, 963.149 1011.474 C 958.414 1010.723, 938.234 1007.010, 935 1006.295 C 933.340 1005.928, 932.836 1006.076, 933.500 1006.737 M 944 1017.130 C 944 1017.588, 945.125 1018.195, 946.500 1018.481 C 947.875 1018.766, 950.094 1019.226, 951.430 1019.502 C 952.767 1019.777, 954.588 1020.731, 955.478 1021.621 C 956.367 1022.510, 957.386 1022.947, 957.742 1022.591 C 958.098 1022.236, 957.488 1021.044, 956.387 1019.942 C 954.361 1017.916, 944 1015.564, 944 1017.130 M 930 1025 C 930 1025.550, 931.250 1026, 932.777 1026 C 934.305 1026, 936.555 1026.701, 937.777 1027.557 C 940.321 1029.338, 940.784 1027.926, 938.429 1025.571 C 936.707 1023.849, 930 1023.395, 930 1025 M 1007 1026.449 C 1007 1028.415, 1011.916 1032.007, 1021.500 1037.042 C 1025.900 1039.354, 1030.073 1041.704, 1030.774 1042.265 C 1032.257 1043.452, 1032.518 1043.259, 1033.427 1040.302 C 1033.978 1038.508, 1033.495 1037.793, 1030.801 1036.415 C 1028.985 1035.486, 1024.229 1032.538, 1020.231 1029.863 C 1012.837 1024.917, 1007 1023.411, 1007 1026.449 M 1035.500 1041 C 1034.397 1042.785, 1036.041 1044, 1039.559 1044 C 1043.627 1044, 1044.010 1042.781, 1040.453 1041.161 C 1037.333 1039.739, 1036.300 1039.706, 1035.500 1041 M 1042.750 1045.795 C 1040.807 1046.185, 1040.397 1048.509, 1042.087 1049.554 C 1042.685 1049.923, 1043.627 1049.773, 1044.181 1049.219 C 1045.701 1047.699, 1044.738 1045.395, 1042.750 1045.795 M 1026.686 1048.376 C 1025.952 1050.289, 1030.116 1052.074, 1032.369 1050.813 C 1033.743 1050.045, 1033.862 1049.539, 1032.933 1048.419 C 1031.428 1046.606, 1027.376 1046.578, 1026.686 1048.376 M 1007.008 1051.490 C 1005.986 1052.722, 1006.174 1053.129, 1008.099 1053.841 C 1012.620 1055.513, 1015.986 1053.133, 1012.066 1051.035 C 1009.459 1049.640, 1008.470 1049.729, 1007.008 1051.490 M 972.068 1052.958 C 971.340 1053.408, 971.053 1054.277, 971.431 1054.888 C 972.273 1056.251, 977 1056.375, 977 1055.035 C 977 1053.515, 973.531 1052.054, 972.068 1052.958" fill="#1f6b4c" fill-rule="evenodd"/>
</svg>