<svg xmlns="http://www.w3.org/2000/svg" width="512" height="512" viewBox="-44.593 -56.109 1377.435 1377.435" version="1.1">
	<title>single arm cable lat pulldown</title><path d="M 739.939 29.323 C 734.480 30.845, 729.357 34.299, 728.486 37.043 C 728.139 38.138, 726.425 39.633, 724.677 40.365 C 715.272 44.307, 711.055 51.464, 711.022 63.540 C 710.968 83.468, 721.284 103.076, 735.507 110.078 C 739.078 111.836, 742 113.446, 742 113.656 C 742 113.866, 738.884 122.692, 735.076 133.269 C 731.267 143.846, 723.386 166, 717.563 182.500 C 700.233 231.598, 696.457 242.289, 687.185 268.500 C 677.864 294.850, 662.583 338.321, 652.911 366 C 648.225 379.408, 636.230 413.600, 631.773 426.250 C 631.193 427.896, 630.069 429, 628.973 429 C 627.966 429, 625.609 430.462, 623.735 432.250 C 619.435 436.351, 612.392 456.948, 613.419 462.420 C 613.920 465.088, 612.897 468.298, 608.101 479.112 C 604.835 486.475, 601.861 493.701, 601.493 495.170 C 601.125 496.638, 599.243 499.278, 597.311 501.036 C 593.837 504.197, 590.064 510.974, 590.022 514.131 C 590.010 515.028, 584.704 522.100, 578.232 529.847 C 563.528 547.446, 560.336 552.699, 557.301 564.284 C 554.448 575.176, 554.796 580.521, 558.593 584.087 C 559.974 585.385, 561.908 588.258, 562.891 590.473 C 563.874 592.688, 567.468 597.964, 570.877 602.197 L 577.077 609.894 575.925 616.697 C 574.594 624.556, 568.975 640.471, 565.241 646.954 C 562.829 651.144, 557.371 657, 555.879 657 C 555.508 657, 555.271 650.362, 555.352 642.250 C 555.483 629.225, 555.231 626.723, 553.203 620.855 C 549.870 611.211, 540.668 598.018, 528.842 585.927 C 523.154 580.113, 516.760 572.836, 514.633 569.757 C 504.579 555.203, 486.579 546.066, 467.866 546.017 C 461.383 546, 461.149 545.908, 457.546 541.920 C 451.327 535.036, 449.714 530.130, 449.217 516.589 C 448.536 498.027, 448.920 497.356, 463.332 491.973 C 470.940 489.131, 475.676 484.916, 477.069 479.745 C 478.070 476.026, 477.898 475.155, 475.083 469.696 C 473.044 465.742, 472 462.263, 472 459.419 C 472 457.053, 471.564 454.849, 471.032 454.520 C 470.499 454.191, 470.122 452.367, 470.194 450.468 C 470.271 448.411, 469.607 446.223, 468.550 445.056 C 466.849 443.175, 466.862 442.959, 468.889 439.680 C 473 433.027, 471.048 428.958, 461 423.235 C 451.436 417.789, 449.874 416.186, 450.562 412.522 C 451.541 407.305, 448.728 402.920, 438.921 394.376 C 434.015 390.102, 430 386.490, 430 386.351 C 430 386.212, 430.466 383.924, 431.036 381.267 C 431.986 376.840, 431.821 375.895, 429.070 369.968 C 425.252 361.743, 422.922 358.826, 419.905 358.494 C 418.582 358.349, 415.833 357.245, 413.795 356.043 C 410.470 354.080, 409.138 353.913, 400.795 354.411 C 395.683 354.716, 389.573 354.968, 387.217 354.971 C 383.403 354.976, 372.954 359.412, 368.608 362.873 C 367.999 363.358, 366.406 364.091, 365.069 364.502 C 361.757 365.520, 355.702 370.012, 352.480 373.841 C 351.018 375.579, 349.266 377, 348.585 377 C 347.905 377, 346.258 378.175, 344.924 379.611 C 341.807 382.969, 331.525 390, 329.733 390 C 328.289 390, 319 399.416, 319 400.879 C 319 401.344, 317.702 403.359, 316.114 405.356 C 312.870 409.439, 310.375 419.876, 311.461 424.822 C 311.847 426.580, 311.676 428.082, 311.044 428.473 C 309.448 429.459, 306.238 436.154, 305.993 439.008 C 305.573 443.898, 305.915 445.315, 307.250 444.210 C 308.227 443.400, 308.518 444.628, 308.581 449.837 C 308.667 457.004, 311.776 466.741, 314.952 469.793 C 315.929 470.732, 317.313 472.625, 318.028 474 C 320.215 478.209, 330.107 488.833, 332.882 489.954 C 337.768 491.928, 349.909 502.503, 354.715 508.969 C 359.321 515.167, 359.513 515.698, 359.853 523.136 C 360.366 534.377, 358.394 539.431, 349.831 548.825 C 341.682 557.765, 337.812 565.294, 334.437 578.779 C 333.099 584.126, 330.892 590.804, 329.534 593.621 C 323.633 605.858, 321.059 622.918, 322.989 637 C 325.831 657.743, 333.236 671.566, 352.233 691.590 C 356.155 695.725, 358.842 699.739, 360.600 704.090 C 365.374 715.905, 371.062 725.728, 376.801 732.070 C 382.489 738.355, 382.496 738.370, 383.063 746.090 C 383.566 752.931, 384.066 754.449, 387.423 759.324 C 391.579 765.358, 391.828 768.337, 388.995 778.115 C 387.766 782.356, 387.831 783.082, 389.803 787.067 L 391.949 791.404 388.964 796.057 C 383.940 803.886, 381 812.313, 381 818.884 C 381 823.725, 380.273 826.334, 377.021 833.154 C 371.031 845.719, 369.563 852.419, 369.609 867 C 369.652 880.779, 371.437 888.123, 376.926 897.109 L 379.742 901.718 361.621 902.396 C 318.669 904.005, 276.798 907.366, 266.317 910.047 C 251.605 913.809, 247.820 919.160, 247.179 937.100 C 246.463 957.118, 247.064 957.615, 280.342 964.486 C 292.355 966.966, 302.592 969.248, 303.092 969.557 C 303.591 969.865, 303.996 972.454, 303.991 975.309 C 303.983 980.091, 303.586 980.963, 298.952 986.377 C 283.850 1004.020, 279.790 1013.862, 257.023 1088 C 248.373 1116.167, 243.872 1128.888, 242.686 1128.522 C 231.652 1125.119, 227.240 1123.524, 226 1122.491 C 219.977 1117.471, 215.996 1117.140, 196.305 1120.018 C 178.460 1122.626, 171.383 1124.470, 167.314 1127.574 C 163.513 1130.473, 163.098 1131.786, 162.753 1142 L 162.500 1149.499 154.781 1150.673 C 141.587 1152.678, 141.210 1153.007, 140.820 1162.887 C 140.507 1170.825, 141.300 1171.554, 156.181 1176.988 L 167.863 1181.254 179.181 1179.194 C 208.276 1173.902, 211.121 1173.620, 216.538 1175.490 C 219.267 1176.432, 238.600 1182.976, 259.500 1190.034 C 304.912 1205.367, 304.610 1205.249, 302.632 1206.890 C 300.523 1208.641, 299.680 1215.096, 300.946 1219.800 C 302.143 1224.245, 304.574 1225.545, 327 1233.737 C 338.604 1237.976, 342.575 1237.872, 372 1232.566 C 382.725 1230.631, 392.988 1228.788, 394.806 1228.469 C 400.514 1227.467, 402 1225.026, 402 1216.655 C 402 1207.575, 401.181 1206.672, 389.150 1202.500 L 380.500 1199.500 380 1188.948 C 379.446 1177.253, 378.375 1174.614, 372.801 1171.211 C 370.985 1170.102, 356.225 1164.698, 340 1159.201 C 302.815 1146.603, 304.754 1147.384, 305.373 1145.249 C 305.652 1144.287, 309.474 1131.800, 313.867 1117.500 C 328.050 1071.329, 334.876 1048.675, 337.070 1040.500 C 341.204 1025.096, 349.495 1011.318, 356.865 1007.605 C 358.314 1006.875, 363.478 1005.984, 368.339 1005.626 C 382.576 1004.577, 383.293 1003.678, 384 986 L 384.500 973.500 394.500 972.751 C 405.340 971.940, 431.682 969.863, 461 967.510 C 471.175 966.693, 495.475 964.882, 515 963.484 C 577.666 958.999, 575.473 959.370, 576.194 953.146 C 576.460 950.846, 576.893 950.546, 579.500 950.851 C 583.792 951.352, 583.636 951.040, 584.939 961.731 C 585.666 967.692, 587.662 976.049, 590.059 983.169 C 594.056 995.041, 599.543 1022.485, 602.481 1045.301 C 604.580 1061.605, 604.494 1065.665, 602.023 1066.988 C 598.844 1068.689, 597.055 1073.881, 590.890 1099.297 C 590.383 1101.385, 588.432 1105.328, 586.554 1108.058 C 581.639 1115.203, 580.152 1122.596, 582.615 1127.641 C 588.005 1138.678, 617.859 1142.505, 643.500 1135.445 C 652.441 1132.983, 655.882 1132.614, 676 1131.958 C 690.700 1131.480, 700.340 1130.712, 703.806 1129.745 C 708.658 1128.391, 709.056 1128.402, 708.447 1129.882 C 708.081 1130.772, 706.984 1136, 706.009 1141.500 C 704.636 1149.249, 703.433 1152.820, 700.666 1157.362 C 698.702 1160.586, 696.595 1165.632, 695.984 1168.575 C 693.561 1180.250, 701.058 1186.986, 720.500 1190.600 C 731.977 1192.733, 756.075 1192.972, 769.754 1191.088 C 778.586 1189.871, 781.845 1189.871, 793.254 1191.088 C 813.189 1193.213, 845.450 1192.978, 855.500 1190.634 C 871.815 1186.828, 880.516 1181.775, 883.653 1174.282 C 887.240 1165.715, 884.329 1153.240, 877.252 1146.846 C 873.076 1143.074, 872.144 1142.746, 860.500 1140.964 C 845.403 1138.653, 833.857 1134.349, 822.975 1126.975 C 816.711 1122.730, 802 1109.304, 802 1107.832 C 802 1104.825, 795.199 1091.242, 792.020 1087.900 C 788.572 1084.275, 787.916 1084, 782.727 1084 L 777.144 1084 776.322 1078.250 C 774.738 1067.172, 775.490 1037.475, 777.784 1020.500 C 783.432 978.694, 783.446 947.192, 777.828 918.500 C 776.107 909.710, 775.646 903.482, 775.535 887.500 C 775.331 858.061, 772.512 849.166, 759.292 836.247 C 747.831 825.047, 730.425 818.024, 703.995 813.935 C 696.595 812.790, 696.405 812.684, 689 805.624 C 681.106 798.096, 672.101 791.718, 663.110 787.285 C 658.005 784.769, 656.647 784.591, 637.454 783.928 C 613.651 783.106, 616.276 784.072, 592.500 767.382 C 580.400 758.888, 577.553 756.443, 577.772 754.733 C 577.922 753.568, 580.351 748.988, 583.170 744.557 C 595.467 725.223, 604.061 706.548, 607.464 691.764 C 608.257 688.319, 609.852 678.075, 611.007 669 C 614.599 640.786, 620.221 617.819, 625.590 609.427 C 627.465 606.495, 629 603.598, 629 602.989 C 629 602.380, 629.480 602.179, 630.066 602.541 C 632.038 603.759, 638.024 603.214, 640.502 601.591 C 644.151 599.200, 645.728 595.357, 647.449 584.659 C 650.626 564.919, 649.895 562.134, 632.021 525.811 L 621.840 505.121 623.883 496.811 C 625.007 492.240, 626.555 484.118, 627.324 478.762 C 628.642 469.590, 628.959 468.768, 632.785 464.618 C 635.812 461.333, 637.502 458.135, 639.423 452.054 C 642.647 441.849, 642.667 438.262, 639.527 433.635 L 637.054 429.991 649.059 395.246 C 655.661 376.135, 663.513 353.750, 666.507 345.500 C 669.500 337.250, 676.658 317, 682.412 300.500 C 694.940 264.574, 701.717 245.361, 711.511 218 C 715.547 206.725, 720.437 193, 722.378 187.500 C 728.718 169.531, 740.720 135.731, 744.629 124.835 L 748.454 114.171 754.172 113.046 C 772.015 109.536, 783.659 97.909, 787.067 80.201 C 788.230 74.159, 788.386 73.924, 790.890 74.437 C 792.325 74.730, 805.875 77.017, 821 79.518 C 836.125 82.018, 851.650 84.686, 855.500 85.445 C 859.350 86.205, 864.344 87.118, 866.597 87.475 C 870.213 88.048, 871.201 88.851, 875.009 94.312 C 877.383 97.715, 882.627 104.870, 886.662 110.211 L 894 119.921 894 576.461 C 894 961.316, 893.786 1033, 892.636 1033 C 890.396 1033, 886.173 1037.917, 885.489 1041.323 C 884.043 1048.519, 885.287 1048, 869.488 1048 C 855.738 1048, 854.989 1048.105, 852.306 1050.411 L 849.500 1052.822 848.926 1076.161 C 848.500 1093.534, 848.670 1100.311, 849.593 1102.673 C 851.065 1106.437, 851.285 1106.513, 883.836 1114.505 C 896.121 1117.521, 906.656 1120.288, 907.248 1120.653 C 907.839 1121.019, 911.963 1121.426, 916.411 1121.559 C 921.880 1121.722, 930.815 1123.308, 944 1126.456 C 954.725 1129.017, 974.300 1133.548, 987.500 1136.525 C 1000.700 1139.502, 1018.209 1143.456, 1026.408 1145.312 L 1041.317 1148.687 1041.098 1156.164 C 1040.854 1164.512, 1042.081 1168.260, 1045.577 1169.853 C 1048.459 1171.166, 1078.098 1179.574, 1083.128 1180.505 C 1085.156 1180.881, 1091.331 1180.459, 1097.128 1179.549 C 1150.994 1171.092, 1146.474 1172.719, 1147.297 1161.494 C 1148.126 1150.200, 1146.445 1147.929, 1134.737 1144.526 L 1129 1142.858 1129 1128.330 C 1129 1107.953, 1128.210 1106.584, 1112.435 1099.629 C 1108.071 1097.704, 1103.990 1095.313, 1103.366 1094.315 C 1102.526 1092.971, 1102.065 961.017, 1101.593 586.247 C 1101.109 202.517, 1100.671 79.372, 1099.783 77.422 C 1099.138 76.008, 1097.385 74.216, 1095.887 73.441 C 1089.879 70.335, 1043.914 67.436, 1039.184 69.865 C 1038.258 70.341, 1034.013 70.981, 1029.750 71.288 L 1022 71.846 1022 66.988 C 1022 60.462, 1020.729 57.529, 1017.334 56.218 C 1012.212 54.241, 997.882 52.881, 972.500 51.961 C 958.750 51.463, 940.975 50.396, 933 49.590 C 909.431 47.208, 881.582 44.100, 865 42 C 856.475 40.921, 837.575 38.673, 823 37.005 C 808.425 35.337, 787.275 32.870, 776 31.523 C 746.564 28.006, 745.001 27.910, 739.939 29.323 M 745.729 35.604 C 744.862 36.472, 744.770 54.542, 745.617 57.701 C 746.074 59.402, 747.374 60.140, 751.354 60.956 C 755.265 61.757, 777.963 65, 779.662 65 C 779.821 65, 779.576 63.987, 779.119 62.750 C 778.043 59.839, 778.726 58, 780.883 58 C 783.253 58, 785 59.969, 785 62.641 C 785 63.874, 785.376 65.114, 785.835 65.398 C 787.057 66.153, 828.703 73.407, 876 81.104 C 897.729 84.640, 919.884 89.428, 943.500 95.692 C 964.969 101.387, 967.219 101.947, 968.750 101.976 C 969.687 101.994, 970 98.760, 970 89.071 C 970 74.037, 969.698 73.433, 961.751 72.581 C 958.863 72.272, 947.725 71.096, 937 69.969 C 898.339 65.904, 844.970 59.832, 818.500 56.487 C 803.650 54.611, 781.825 51.917, 770 50.501 C 744.587 47.458, 745.552 47.690, 747.218 45.023 C 748.861 42.392, 750.822 42.424, 775.479 45.485 C 786.491 46.852, 809.675 49.562, 827 51.508 C 844.325 53.453, 865.700 55.918, 874.500 56.986 C 893.519 59.294, 922.537 62.398, 944 64.419 C 975.928 67.427, 973.292 67.631, 970.104 62.403 L 968.216 59.306 956.358 58.625 C 949.836 58.250, 931.225 56.387, 915 54.485 C 898.775 52.583, 871.100 49.438, 853.500 47.496 C 835.900 45.554, 814.075 43.059, 805 41.951 C 795.925 40.844, 781.075 39.051, 772 37.968 C 762.925 36.885, 753.466 35.746, 750.979 35.437 C 748.492 35.128, 746.130 35.203, 745.729 35.604 M 732.853 48 C 726.977 53.736, 725.341 60.057, 727.001 70.609 C 732.450 105.243, 767.872 115.234, 778.461 85.124 C 779.307 82.718, 780 78.853, 780 76.535 L 780 72.322 771.250 71.102 C 766.438 70.431, 759.125 69.405, 755 68.823 C 740.935 66.837, 739.112 64.972, 738.077 51.502 L 737.463 43.500 732.853 48 M 720.180 51.499 C 713.332 60.204, 718.903 84.937, 730.541 97.500 C 734.949 102.259, 734.997 102.283, 731.521 98 C 721.121 85.181, 716.289 63.078, 721.629 52.751 C 723.614 48.912, 722.780 48.193, 720.180 51.499 M 976.483 60.750 C 976.866 61.712, 977.146 71.838, 977.105 83.250 C 977.033 103.305, 977.097 104, 979.015 104 C 980.936 104, 981 103.276, 981 81.500 L 981 59 978.393 59 C 976.311 59, 975.926 59.353, 976.483 60.750 M 988.446 69.945 C 987.636 81.841, 988.405 102.805, 989.701 104.101 C 990.656 105.056, 1013.191 111.143, 1013.740 110.594 C 1013.932 110.401, 1014.182 108.951, 1014.295 107.372 C 1014.489 104.648, 1014.269 104.484, 1010.020 104.181 C 1003.273 103.701, 1003 103.190, 1003 91.033 C 1003 78.678, 1004.178 76.500, 1010.856 76.500 L 1014.500 76.500 1014.796 69.736 C 1015.145 61.754, 1016.198 62.435, 1000.833 60.706 L 989.166 59.393 988.446 69.945 M 750.589 79.077 C 743.383 87.641, 754.675 99.416, 762.545 91.545 C 767.761 86.330, 763.744 76, 756.500 76 C 754.018 76, 752.523 76.778, 750.589 79.077 M 1045.328 608.658 C 1045.687 901.619, 1046.099 1141.427, 1046.241 1141.564 C 1046.383 1141.701, 1048.638 1142.131, 1051.250 1142.520 L 1056 1143.227 1056 1122.236 C 1056 1099.780, 1056.284 1098.477, 1060.915 1099.688 L 1063.226 1100.292 1062.511 629.896 C 1062.118 371.178, 1061.675 149.375, 1061.525 137 C 1061.376 124.625, 1061.197 105.838, 1061.127 95.250 L 1061 76 1052.837 76 L 1044.673 76 1045.328 608.658 M 1068.427 229.750 C 1068.740 313.763, 1069.256 543.821, 1069.574 740.992 C 1069.891 938.163, 1070.319 1099.652, 1070.524 1099.858 C 1070.730 1100.063, 1075.983 1099.617, 1082.199 1098.865 L 1093.500 1097.500 1094.021 1093.500 C 1094.307 1091.300, 1094.307 862.829, 1094.021 585.786 C 1093.560 139.796, 1093.328 81.907, 1092 80.641 C 1090.742 79.441, 1075.663 77, 1069.508 77 C 1067.979 77, 1067.900 88.213, 1068.427 229.750 M 1025.750 78.728 L 1022 79.121 1022 89.560 L 1022 100 1027.918 100 C 1037.234 100, 1037 100.299, 1037 88.393 L 1037 78 1033.250 78.168 C 1031.188 78.261, 1027.813 78.513, 1025.750 78.728 M 755.250 82.662 C 753.489 83.373, 753.696 86.503, 755.608 88.090 C 757.847 89.948, 760.425 86.662, 758.926 83.862 C 757.903 81.950, 757.412 81.790, 755.250 82.662 M 1010 90.430 C 1010 98.941, 1010.017 99, 1012.540 99 C 1015.079 99, 1015.081 98.995, 1014.790 90.750 C 1014.520 83.058, 1014.348 82.478, 1012.250 82.180 C 1010.067 81.870, 1010 82.115, 1010 90.430 M 882.026 90.750 C 882.040 91.162, 884.740 95.065, 888.026 99.422 L 894 107.345 894 101.254 C 894 97.904, 894.256 94.496, 894.569 93.680 C 894.999 92.559, 893.885 91.927, 890.020 91.098 C 884.008 89.808, 881.990 89.721, 882.026 90.750 M 902 563.393 C 902 981.442, 902.165 1032.850, 903.513 1033.366 C 904.344 1033.686, 907.945 1034.246, 911.514 1034.612 L 918.002 1035.276 917.751 566.393 L 917.500 97.511 911.500 95.835 C 908.200 94.914, 904.712 94.124, 903.750 94.080 C 902.086 94.004, 902 116.988, 902 563.393 M 925 585.961 L 925 1071.923 928.750 1072.907 C 946.441 1077.549, 949.244 1077.719, 970.121 1075.410 C 978.030 1074.535, 986.188 1074.042, 988.250 1074.314 L 992 1074.810 992 1064.088 L 992 1053.366 984.250 1051.467 C 979.136 1050.215, 972.812 1049.557, 965.657 1049.534 C 954.616 1049.499, 951.851 1050.232, 956.440 1051.977 C 961.914 1054.058, 957.699 1062, 951.120 1062 C 942.667 1062, 939.364 1055.922, 944.500 1049.818 L 947 1046.847 947 593.357 L 947 139.867 944.610 136.683 C 940.861 131.688, 936.554 122.383, 932.956 111.500 C 929.711 101.684, 928.754 100.046, 926.250 100.015 C 925.252 100.003, 925 197.851, 925 585.961 M 940 108.142 C 940 109.701, 946.745 125.292, 949.729 130.630 C 954.262 138.741, 965.010 145.966, 968.935 143.540 C 969.595 143.132, 969.996 138.245, 969.990 130.691 L 969.981 118.500 962.740 116.127 C 958.758 114.821, 952.174 112.234, 948.109 110.377 C 939.703 106.536, 940 106.618, 940 108.142 M 1025.351 107.716 C 1022.664 108.054, 1022.107 108.618, 1021.554 111.563 C 1020.875 115.186, 1018.450 117.310, 1013.750 118.400 L 1011 119.038 1011.001 366.269 C 1011.001 502.246, 1011.299 644.807, 1011.663 683.072 L 1012.325 752.643 1016.831 752.876 C 1024.018 753.248, 1024.668 753.965, 1025.458 762.395 C 1025.842 766.494, 1026.028 772.244, 1025.870 775.174 L 1025.584 780.500 1031.905 780.801 L 1038.226 781.101 1037.863 461.301 C 1037.663 285.410, 1037.336 133.738, 1037.137 124.250 L 1036.773 107 1032.637 107.160 C 1030.361 107.248, 1027.083 107.498, 1025.351 107.716 M 966 109.937 C 967.864 111.026, 973.657 111.442, 981.500 111.050 L 987.500 110.750 983 109.949 C 976.734 108.834, 964.097 108.825, 966 109.937 M 988 127.393 C 988 134.820, 988.314 136.907, 989.500 137.362 C 990.772 137.850, 991 136.419, 991 127.969 C 991 119.774, 990.733 118, 989.500 118 C 988.273 118, 988 119.710, 988 127.393 M 998.484 121.250 C 998.151 123.037, 998.018 127.200, 998.189 130.500 C 998.466 135.849, 998.744 136.535, 1000.750 136.820 C 1002.949 137.132, 1003 136.922, 1003 127.570 C 1003 118.741, 1002.849 118, 1001.045 118 C 999.631 118, 998.923 118.899, 998.484 121.250 M 977 132.365 C 977 144.532, 976.807 145.976, 974.848 148.467 C 972.791 151.082, 972.380 151.184, 965.598 150.761 C 961.694 150.519, 957.712 149.975, 956.750 149.553 C 955.085 148.823, 955 164.142, 955 463.393 L 955 778 960.500 778 L 966 778 966 766.071 C 966 751.805, 966.669 750.528, 973.604 751.568 C 976.846 752.054, 978.106 751.871, 978.476 750.862 C 978.750 750.113, 979.093 607.637, 979.237 434.250 C 979.447 182.576, 979.248 119, 978.250 119 C 977.312 119, 977 122.340, 977 132.365 M 999.750 144.661 L 997 146.109 997 402.930 C 997 544.181, 997.261 661.056, 997.581 662.653 C 997.938 664.440, 999.284 666.200, 1001.081 667.231 L 1004 668.907 1004 405.953 C 1004 261.329, 1003.663 143.048, 1003.250 143.106 C 1002.837 143.164, 1001.263 143.864, 999.750 144.661 M 986.988 285.250 C 986.981 362.938, 986.845 476.900, 986.685 538.500 C 986.373 658.445, 986.555 668.527, 989 667.006 C 990.327 666.181, 990.512 635.998, 990.601 405.786 C 990.673 217.425, 990.397 145.297, 989.601 144.765 C 988.995 144.361, 988.163 144.024, 987.750 144.015 C 987.337 144.007, 986.994 207.563, 986.988 285.250 M 399.730 365.250 C 399.076 369.524, 400.162 371.715, 401.898 369.623 C 402.585 368.796, 403.730 368.343, 404.444 368.617 C 406.435 369.381, 407.029 366.487, 405.368 364.115 C 403.075 360.841, 400.319 361.396, 399.730 365.250 M 381.500 364.395 C 378.779 365.590, 375.819 367.752, 366.328 375.479 C 364.380 377.065, 362.907 377.659, 362.512 377.020 C 362.149 376.433, 359.076 378.855, 355.469 382.570 C 351.949 386.195, 348.680 388.921, 348.205 388.627 C 347.729 388.333, 344.917 390.547, 341.954 393.546 C 336.203 399.370, 335 400.013, 335 397.263 C 335 395.344, 328.550 404.424, 326.979 408.554 C 325.947 411.269, 324.043 411.042, 323.937 408.191 C 323.894 407.053, 323.527 407.318, 322.814 409 C 322.231 410.375, 321.655 415.705, 321.534 420.844 C 321.392 426.860, 320.883 430.454, 320.104 430.936 C 319.439 431.347, 319.011 432.092, 319.154 432.592 C 319.297 433.091, 318.592 435.915, 317.587 438.867 C 316.147 443.101, 316.029 444.400, 317.026 445.016 C 317.834 445.516, 318.073 446.884, 317.688 448.808 C 317.262 450.942, 317.510 451.982, 318.543 452.378 C 319.480 452.738, 320 454.352, 320 456.897 C 320 459.075, 320.625 461.482, 321.388 462.245 C 322.151 463.008, 324.242 466.303, 326.034 469.566 C 331.465 479.455, 332.144 480.385, 332.966 479.055 C 333.474 478.233, 335.277 479.467, 338.606 482.918 C 341.298 485.707, 343.883 487.992, 344.350 487.995 C 344.818 487.998, 348.531 490.980, 352.600 494.623 C 359.232 500.557, 360.004 500.999, 360.041 498.873 C 360.078 496.705, 360.426 496.881, 364.073 500.914 C 366.268 503.342, 367.785 504.603, 367.445 503.716 C 366.793 502.018, 369.807 496, 371.309 496 C 371.792 496, 372.423 496.900, 372.710 498 C 373.839 502.318, 375.941 498.807, 376.002 492.500 C 376.047 487.776, 377.556 486.041, 379.475 488.505 C 380.914 490.352, 380.983 490.045, 380.400 484.380 C 380.001 480.497, 380.157 478.021, 380.826 477.608 C 381.565 477.151, 381.561 476.038, 380.813 473.892 C 380.151 471.995, 380.040 468.672, 380.519 465.164 C 380.946 462.049, 381.340 455.866, 381.397 451.424 C 381.518 441.957, 384.245 437.064, 390.564 434.979 C 393.794 433.913, 400.875 434.247, 404.496 435.637 C 405.182 435.900, 406.002 435.099, 406.330 433.846 L 406.923 431.579 409.598 434.039 L 412.274 436.500 411.578 433.500 C 411.195 431.850, 410.626 427.800, 410.312 424.500 C 409.999 421.200, 409.317 418.228, 408.797 417.895 C 408.232 417.533, 408.441 415.880, 409.318 413.780 C 410.890 410.019, 409.919 406.074, 408.112 408.878 C 406.916 410.734, 404.685 409.229, 405.547 407.149 C 405.923 406.242, 406.581 404.038, 407.010 402.250 C 407.724 399.271, 407.590 399, 405.395 399 C 402.042 399, 402.375 396.581, 406.092 393.934 C 408.233 392.410, 408.809 391.500, 407.964 390.978 C 406.030 389.783, 407.686 388.186, 414.323 384.849 C 421.539 381.219, 421.964 380.715, 421.985 375.750 C 422.002 371.548, 420.970 370.902, 419.487 374.185 C 417.616 378.328, 416.006 377.495, 415.910 372.333 L 415.820 367.500 414.864 371 C 413.767 375.021, 409.427 379.378, 407.323 378.570 C 406.538 378.269, 404.870 378.694, 403.618 379.515 C 402.365 380.336, 401.088 380.755, 400.779 380.446 C 400.471 380.138, 397.807 381.406, 394.859 383.265 C 388.373 387.355, 378.511 391.410, 376.720 390.723 C 376.003 390.448, 374.562 390.847, 373.517 391.611 C 372.472 392.375, 370.691 393.001, 369.559 393.003 C 368.426 393.004, 364.125 395.253, 360 398 C 352.086 403.271, 350.424 403.944, 351.362 401.500 C 352.442 398.686, 350.119 399.995, 344.026 405.636 C 340.678 408.736, 337.709 411.042, 337.428 410.761 C 336.618 409.951, 340.059 401.829, 342.758 398.176 C 347.234 392.119, 351.752 388.277, 359.291 384.115 C 369.551 378.451, 370.468 378.756, 364.422 385.820 C 359.492 391.579, 361.675 391.064, 368.454 384.868 C 374.079 379.727, 376.136 379.008, 374.046 382.914 C 372.479 385.842, 374.682 385.686, 378.906 382.570 C 380.717 381.233, 382.816 380.376, 383.569 380.665 C 385.403 381.368, 396.891 371.283, 397.635 368.316 C 398.953 363.067, 391.612 361.254, 388.282 366.007 C 386.219 368.953, 383.806 368.622, 384.589 365.500 C 385.311 362.624, 385.434 362.668, 381.500 364.395 M 418.340 391.703 C 413.239 394.245, 413.509 399.097, 419.221 407.505 L 421.942 411.511 419.377 416.871 C 416.393 423.106, 416.519 426.375, 420.105 435.734 L 422.494 441.967 419.311 445.151 L 416.127 448.334 412.634 445.670 C 410.713 444.205, 407.546 442.802, 405.597 442.552 C 403.647 442.302, 401.170 441.626, 400.092 441.049 C 392.185 436.818, 385.456 445.137, 389.064 454.685 C 392.263 463.153, 411.464 473.166, 413.638 467.500 C 414.584 465.036, 417 465.754, 417 468.500 C 417 476.634, 404.466 476.801, 392.846 468.822 C 391.386 467.820, 390.002 467, 389.771 467 C 389.540 467, 389.554 471.950, 389.804 478 C 390.124 485.769, 389.925 489, 389.128 489 C 388.508 489, 388 489.929, 388 491.065 C 388 494.332, 383.898 503, 382.352 503 C 381.581 503, 380.486 504.238, 379.919 505.750 C 379.352 507.262, 377.788 509.531, 376.444 510.790 C 375.100 512.050, 374 513.936, 374 514.981 C 374 517.526, 372.663 518.203, 369.793 517.111 C 367.428 516.212, 367.420 516.234, 367.815 522.436 C 368.297 530.003, 366.654 538.473, 363.583 544.248 L 361.298 548.546 363.488 550.199 C 365.540 551.746, 365.863 551.728, 368.589 549.916 C 370.190 548.852, 373.212 547.511, 375.304 546.937 C 377.665 546.290, 381.741 543.477, 386.054 539.519 C 394.228 532.017, 401.113 528.985, 411.641 528.250 C 420.464 527.633, 431.894 529.999, 439.549 534.026 C 442.547 535.603, 444.973 536.580, 444.941 536.197 C 444.821 534.784, 440.343 527.059, 434.735 518.590 C 425.832 505.144, 420.381 493.582, 424.596 497.080 C 427.679 499.638, 436.981 512.761, 439.375 517.929 L 441.795 523.151 442.148 510.125 C 442.382 501.460, 442.919 496.680, 443.750 495.849 C 445.883 493.717, 445.223 493.490, 437.916 493.835 C 426.927 494.355, 421.731 491.062, 417.985 481.203 C 415.571 474.850, 417.078 473.236, 420.867 478.117 C 428.133 487.475, 431.487 488.654, 446.617 487.166 C 468.435 485.019, 473.857 480.437, 467.470 469.540 C 465.380 465.972, 465.059 464.484, 465.622 460.965 C 466.296 456.745, 466.279 456.713, 463.651 457.373 C 460.534 458.155, 460.157 456.648, 462.597 453.165 C 464.641 450.247, 462.875 445.283, 459.312 443.928 C 457.011 443.054, 456.986 442.929, 458.516 439.969 C 459.385 438.288, 461.200 436.411, 462.548 435.796 C 466.102 434.177, 465.766 433.684, 457.666 428.636 C 447.145 422.078, 446.757 422.002, 449.215 426.969 C 451.949 432.496, 450.775 433.162, 446.189 428.685 C 444.114 426.658, 441.872 425, 441.208 425 C 439.590 425, 439.666 424.597, 441.996 420.774 C 445.622 414.827, 444.277 411.947, 440 416.500 C 437.590 419.066, 435 419.817, 435 417.950 C 435 416.007, 438.198 410.514, 440.358 408.749 L 442.500 406.998 436.500 401.454 C 430.006 395.455, 423.061 389.961, 422.100 390.064 C 421.770 390.099, 420.078 390.837, 418.340 391.703 M 328.063 415.561 C 326.392 418.197, 324.747 421.961, 324.408 423.927 C 324.070 425.892, 323.174 429.400, 322.417 431.723 C 321.087 435.807, 321.354 439, 323.024 439 C 323.469 439, 324.096 438.438, 324.417 437.750 C 324.878 436.761, 325.121 436.759, 325.579 437.737 C 325.897 438.417, 327.043 439.992, 328.125 441.237 L 330.091 443.500 329.425 438 C 328.770 432.598, 328.793 432.531, 330.708 434.250 C 334.399 437.563, 335.113 436.156, 332.428 430.858 L 329.823 425.717 332.661 423.448 C 335.791 420.947, 335.385 419.189, 332.086 420.954 C 329.600 422.284, 329.281 420.360, 331.116 415.098 C 332.864 410.084, 331.396 410.306, 328.063 415.561 M 628.289 436.800 C 626.918 437.671, 623.963 444.268, 624.070 446.218 C 624.109 446.923, 624.793 445.700, 625.590 443.500 C 626.925 439.813, 629.320 437, 631.124 437 C 633.028 437, 632.795 441.252, 630.524 447.928 C 628.831 452.906, 628.329 455.763, 628.951 456.871 C 629.992 458.725, 629.703 459.245, 632.989 449.593 C 635.280 442.865, 635.537 438.937, 633.800 437.200 C 632.437 435.837, 630.075 435.665, 628.289 436.800 M 393.223 443.557 C 388.150 447.110, 391.344 457.667, 398.944 462.465 C 403.664 465.444, 405.795 465.658, 406.782 463.250 C 407.177 462.288, 408.175 461.500, 409 461.500 C 411.750 461.500, 411.427 456.326, 408.560 454.448 C 407.152 453.525, 406 452.131, 406 451.350 C 406 449.019, 402.896 444.998, 399.901 443.449 C 396.396 441.636, 395.954 441.643, 393.223 443.557 M 393.434 448.107 C 392.692 449.308, 396.572 457.055, 398.765 458.750 C 401.172 460.610, 402.545 460.261, 400.733 458.250 C 398.424 455.688, 397.551 451.246, 399.011 449.487 C 399.690 448.669, 400.077 447.969, 399.872 447.931 C 396.268 447.264, 393.915 447.329, 393.434 448.107 M 617.174 475.156 C 614.989 479.745, 612.062 486.313, 610.671 489.750 L 608.140 496 610.499 496 C 611.796 496, 613.564 496.706, 614.427 497.570 C 615.853 498.996, 616.077 498.927, 616.873 496.820 C 618.145 493.451, 622.296 467.962, 621.673 467.340 C 621.383 467.050, 619.359 470.567, 617.174 475.156 M 607 505.868 C 607 506.426, 607.489 507.184, 608.087 507.554 C 608.685 507.923, 608.952 509.075, 608.681 510.113 C 608.362 511.330, 608.709 512, 609.657 512 C 611.877 512, 611.027 505.616, 608.750 505.185 C 607.788 505.003, 607 505.310, 607 505.868 M 598.410 510.906 C 596.762 516.376, 591.943 523.552, 582.368 534.791 C 576.796 541.333, 571.083 548.443, 569.674 550.592 C 564.816 557.997, 560.856 579, 564.317 579 C 565.042 579, 566.392 576.598, 567.317 573.662 C 569.410 567.023, 569.434 567.347, 566.806 566.660 C 564.806 566.136, 564.747 565.928, 566.134 564.293 C 566.970 563.307, 568.177 560.667, 568.814 558.428 C 570.178 553.638, 577.595 542.642, 587.780 530.313 C 595.052 521.510, 600.561 511.917, 599.628 509.683 C 599.357 509.032, 598.808 509.583, 598.410 510.906 M 616 510.172 C 616 510.512, 620.679 520.624, 626.397 532.645 C 638.882 558.890, 639.980 561.993, 640.070 571.285 C 640.119 576.244, 640.409 577.875, 641 576.500 C 642.587 572.807, 642.019 565.908, 639.513 558.444 C 635.887 547.641, 616 506.814, 616 510.172 M 602.046 521.379 C 601.027 524.060, 593.715 533.842, 586.259 542.500 L 581.953 547.500 586.726 548.274 C 589.352 548.700, 593.997 549.014, 597.049 548.972 C 601.095 548.917, 603.262 549.417, 605.049 550.820 C 606.397 551.879, 609.363 553.058, 611.641 553.442 C 614.050 553.847, 616.737 555.156, 618.065 556.569 C 619.321 557.906, 621.361 559, 622.598 559 C 625.480 559, 630.861 563.518, 632.662 567.450 C 634.051 570.481, 634.055 570.471, 633.417 566 C 632.616 560.396, 630.266 554.574, 621.004 535.250 L 613.694 520 609.929 520 C 607.858 520, 605.458 519.729, 604.596 519.398 C 603.526 518.988, 602.716 519.617, 602.046 521.379 M 409.073 535.877 C 407.676 536.268, 409.883 536.556, 414.273 536.556 C 418.467 536.556, 421.359 536.212, 420.699 535.793 C 419.263 534.880, 412.465 534.930, 409.073 535.877 M 397.485 540.097 C 395.293 541.250, 392.825 542.872, 392 543.701 C 390.856 544.851, 400.864 539.922, 402.917 538.324 C 404.385 537.181, 400.808 538.349, 397.485 540.097 M 408.656 540.033 C 397.845 543.379, 388.452 550.775, 377.429 564.622 C 368.558 575.765, 364.435 579.084, 358.656 579.735 C 354.849 580.164, 353.880 579.833, 350.653 577 C 348.634 575.228, 346.694 572.627, 346.341 571.222 C 345.742 568.837, 345.576 568.982, 343.845 573.387 C 336.346 592.480, 337.657 627.018, 347.483 669.245 C 348.832 675.040, 354.555 683.453, 361.883 690.413 C 363.664 692.105, 366.071 696.296, 367.624 700.413 C 369.095 704.311, 371.532 709.975, 373.039 713 C 375.751 718.440, 386.622 732.293, 390.141 734.793 C 391.650 735.865, 391.863 736.978, 391.382 741.293 C 390.439 749.759, 390.640 750.826, 393.875 754.511 C 400.427 761.973, 400.902 764.719, 397.805 777.225 C 396.751 781.482, 396.862 782.435, 398.929 786.848 L 401.223 791.747 397.794 797.123 C 391.271 807.350, 388.746 813.818, 389.448 818.501 C 389.859 821.241, 389.544 824.278, 388.556 827.116 C 386.538 832.911, 386.402 832.539, 391.250 834.513 C 397.223 836.945, 406.316 836.674, 420.752 833.634 C 445.176 828.490, 471 825.438, 471 827.695 C 471 829.397, 457.135 833.004, 419.713 841.040 C 403.142 844.598, 399.594 844.662, 390.503 841.565 C 382.492 838.836, 382.913 838.579, 379.939 848 C 375.591 861.779, 376.369 876.772, 382.065 888.963 C 387.061 899.656, 391.624 902.980, 401.323 902.994 L 405.145 903 403.152 900.466 C 394.533 889.509, 389.458 860.751, 394.136 849.377 L 395.319 846.500 396.041 849.500 C 396.438 851.150, 396.823 854.750, 396.895 857.500 C 396.967 860.250, 397.897 866.717, 398.960 871.872 C 404.314 897.818, 419.542 913.205, 445.500 918.898 C 513.958 933.912, 516.548 933.836, 543.500 915.996 C 553.083 909.653, 573.298 895.163, 585.409 885.957 C 590.422 882.146, 591.071 882.859, 587.125 887.842 C 581.097 895.453, 561.653 911.684, 550.318 918.567 C 548.567 919.630, 543.465 922.725, 538.979 925.445 C 529.863 930.971, 529.953 931.345, 540.682 932.526 C 546.275 933.142, 546.926 932.956, 557.500 927.716 C 573.218 919.929, 591.032 908.464, 623.250 885.400 C 627.513 882.348, 631 880.286, 631 880.818 C 631 884.236, 609.079 902.850, 593.212 912.906 C 590.304 914.749, 588.077 916.410, 588.264 916.597 C 588.451 916.784, 594.342 914.672, 601.354 911.903 C 608.366 909.134, 614.615 907.038, 615.239 907.246 C 617.165 907.888, 602.066 916.596, 591 921.224 C 585.225 923.639, 574.540 927.595, 567.256 930.014 C 559.973 932.434, 554.349 934.749, 554.760 935.160 C 555.171 935.571, 559.555 937.009, 564.503 938.356 C 569.451 939.704, 581.825 943.116, 592 945.938 C 602.175 948.761, 611.616 950.942, 612.979 950.785 C 616.180 950.417, 619.224 944.269, 625.446 925.603 C 628.458 916.566, 633.542 904.853, 639.987 892.103 C 656.628 859.183, 660.274 848.063, 660.408 829.836 C 660.458 822.871, 660.275 816.958, 660 816.696 C 657.735 814.538, 592.158 811.657, 577.315 813.063 C 571.414 813.622, 566.521 814.174, 566.439 814.290 C 566.358 814.405, 562.857 820.008, 558.660 826.741 C 549.371 841.639, 532.671 864, 530.833 864 C 527.074 864, 541.631 839.765, 556.362 821.500 C 563.789 812.290, 563.748 810.430, 556.134 811.288 C 542.392 812.837, 511.073 835.600, 478.046 868.044 C 471.197 874.773, 465.419 879.758, 465.207 879.122 C 464.155 875.966, 476.291 860.894, 493.225 844.324 L 505.669 832.148 496.084 836.960 C 490.813 839.607, 479.980 845.424, 472.012 849.886 C 464.043 854.349, 456.843 857.979, 456.012 857.953 C 453.463 857.873, 466.974 846.203, 476.418 840.328 C 488.717 832.676, 509.660 821.876, 520.750 817.467 C 525.837 815.445, 530 813.550, 530 813.257 C 530 811.719, 490.555 817.073, 461 822.622 C 427.979 828.822, 419.731 829.991, 409.500 829.919 C 398.867 829.843, 392.699 828.346, 392.187 825.714 C 391.915 824.319, 392.779 824.182, 398.701 824.678 C 407.379 825.406, 414.983 824.370, 458.248 816.572 C 499.247 809.181, 511.788 807.359, 533 805.707 C 547.926 804.545, 548.512 804.416, 548.822 802.234 C 549.017 800.855, 547.958 798.472, 546.115 796.145 C 543.380 792.693, 543.058 791.521, 542.793 784.089 L 542.500 775.856 537.368 774.122 C 530.976 771.961, 523.006 767.171, 514.419 760.327 L 507.810 755.061 504.939 760.780 C 499.783 771.049, 494.347 776.054, 475.933 787.484 C 449.879 803.655, 434.712 812.022, 430.392 812.605 L 426.500 813.131 430 810.011 C 434.649 805.867, 451.129 794.741, 464.615 786.641 C 479.936 777.439, 490.965 769.588, 493.183 766.306 C 494.226 764.763, 496.682 760.676, 498.640 757.224 C 502.903 749.710, 503.299 750.470, 490 740.651 C 478.038 731.819, 470.241 724.418, 463.930 715.905 C 459.157 709.467, 450.825 693.288, 449.490 687.866 L 448.841 685.231 440.462 685.754 C 395.402 688.565, 369.886 644.805, 384.577 589.910 C 388.203 576.359, 393.951 566.085, 402.965 557.041 C 411.097 548.883, 422.560 542.059, 428.353 541.930 C 430.084 541.891, 432.400 541.493, 433.500 541.044 C 435.374 540.280, 435.343 540.194, 433 539.675 C 425.937 538.108, 414.323 538.279, 408.656 540.033 M 427.776 550.415 C 411.359 555.157, 398.283 570.377, 391.908 592.164 C 389.201 601.413, 388.040 629.079, 389.987 637.918 C 391.550 645.018, 397.017 656.971, 401.001 662.001 C 408.640 671.646, 423.209 678, 437.685 678 L 446.159 678 445.579 675 C 445.261 673.350, 444.748 670.692, 444.441 669.094 C 444.037 666.995, 443.135 666.001, 441.191 665.517 C 434.380 663.821, 420 652.517, 420 648.859 C 420 647.664, 421.747 647.782, 422.518 649.028 C 423.384 650.430, 441.078 659.255, 441.725 658.608 C 442.009 658.324, 441.924 655.547, 441.536 652.438 C 440.884 647.227, 440.398 646.383, 435.317 641.655 C 432.286 638.833, 428.750 634.719, 427.460 632.512 C 425.194 628.637, 422.641 620, 423.761 620 C 424.062 620, 427.637 623.582, 431.704 627.960 C 436.143 632.738, 442.076 637.775, 446.549 640.563 C 454.210 645.338, 455.975 648, 451.481 648 C 449.395 648, 449.043 648.387, 449.436 650.250 C 449.697 651.487, 450.414 655.875, 451.030 660 C 454.053 680.257, 461.595 699.606, 471.515 712.560 C 477.257 720.059, 481.856 724.271, 496.559 735.500 C 501.600 739.350, 509.275 745.587, 513.613 749.360 C 529.442 763.127, 541.652 769.335, 553 769.386 C 560.766 769.421, 562.670 768.002, 566.733 759.157 C 568.667 754.946, 574.549 744.118, 579.804 735.096 C 595.213 708.641, 599.364 697.166, 603.032 670.887 C 605.881 650.474, 606.615 646.551, 611.117 627.674 C 614.492 613.523, 615.661 610.152, 618.473 606.468 C 620.311 604.059, 622.292 600.606, 622.874 598.794 C 624.771 592.890, 627.193 574.840, 626.549 571.407 C 625.822 567.534, 622.561 564.821, 619.542 565.579 C 618.022 565.960, 616.837 565.271, 615.196 563.052 C 612.881 559.920, 610.261 559.255, 607.038 560.980 C 605.547 561.778, 604.714 561.314, 602.552 558.480 C 599.477 554.448, 597.359 554.143, 593.502 557.177 L 590.734 559.355 588.783 556.677 C 587.695 555.183, 585.876 554.007, 584.667 554.015 C 580.044 554.048, 578.405 556.793, 576.066 568.420 C 573.925 579.066, 572.596 581.740, 570.367 579.890 C 569.245 578.958, 569 579.570, 569 583.301 C 569 588.140, 571.475 592.216, 580.281 601.873 L 584.269 606.247 583.723 613.873 C 583.116 622.350, 578.057 639.012, 573.180 648.596 C 570.167 654.515, 566.687 658.293, 557.651 665.454 C 547.362 673.607, 544.419 679.195, 542.487 694.250 C 541.698 700.399, 540.505 700.274, 538.972 693.882 C 537.274 686.804, 538.266 678.020, 541.514 671.381 C 544.435 665.412, 544.403 660.324, 541.400 653.115 C 538.618 646.438, 526.754 632, 524.049 632 C 523.675 632, 522.389 633.742, 521.193 635.870 C 519.997 637.999, 518.271 640.360, 517.358 641.118 C 515.417 642.729, 515.617 639.626, 518.530 623 C 522.445 600.644, 516.648 581.276, 501.898 567.435 C 491.034 557.241, 481.610 553.710, 466.222 554.069 C 457.970 554.261, 455.769 553.958, 451.667 552.064 C 445.618 549.271, 434.412 548.498, 427.776 550.415 M 355.365 554.574 C 352.183 557.948, 351.845 558.809, 352.318 562.337 C 352.634 564.693, 353.860 567.314, 355.335 568.790 L 357.820 571.274 361.255 569.151 C 363.145 567.984, 366.486 564.434, 368.681 561.264 C 374.667 552.616, 374.747 552.375, 370.809 554.809 C 366.096 557.722, 364.666 557.580, 361.561 553.890 L 358.944 550.780 355.365 554.574 M 445.500 562.399 C 443.300 563.095, 440.044 564.423, 438.263 565.351 C 431.859 568.689, 423.984 577, 427.226 577 C 428.547 577, 452.721 563.617, 454.450 561.928 C 455.821 560.589, 450.305 560.879, 445.500 562.399 M 633.557 584.223 C 631.578 587.048, 631.516 594.354, 633.458 595.965 C 635.856 597.956, 640 593.066, 640 588.245 C 640 582.180, 636.513 580.002, 633.557 584.223 M 360.565 594.924 C 360.071 595.707, 359.691 601.557, 359.720 607.924 C 359.833 632.649, 368.980 658.710, 384.466 678.427 C 387.681 682.521, 386.911 678.810, 382.482 668.867 C 373.948 649.709, 368.160 631.794, 365.447 616.133 C 361.335 592.398, 361.555 593.355, 360.565 594.924 M 527.065 598.101 C 527.620 599.971, 527.979 606.314, 527.861 612.198 L 527.647 622.896 534.752 630.376 C 538.660 634.490, 542.902 639.685, 544.179 641.920 C 545.455 644.156, 546.837 645.988, 547.250 645.992 C 548.631 646.006, 548.019 632.874, 546.372 627.154 C 543.512 617.221, 535.285 603.281, 528.635 597.101 L 526.054 594.702 527.065 598.101 M 402.047 602.750 C 397.418 608.352, 394.871 614.328, 394.265 621.014 C 393.602 628.327, 395.027 628.870, 397.511 622.250 C 398.491 619.638, 401.027 613.616, 403.146 608.868 C 405.266 604.120, 407 599.958, 407 599.618 C 407 597.997, 404.852 599.355, 402.047 602.750 M 330.529 619.351 C 329.057 628.431, 332.538 649.911, 336.617 656.924 L 338.115 659.500 337.549 657 C 336.102 650.602, 333.866 636.451, 332.652 626 C 331.373 614.998, 331.281 614.710, 330.529 619.351 M 469.528 647.029 C 474.243 651.950, 490.719 658.607, 496.235 657.820 C 499.704 657.325, 490.545 651.959, 478.794 647.600 C 466.978 643.218, 465.807 643.146, 469.528 647.029 M 579.824 668 C 579.464 668.825, 578.163 673.775, 576.932 679 C 574.379 689.840, 565.974 715.170, 562.989 721.021 C 554.447 737.765, 542.160 739.529, 530.826 725.637 C 525.043 718.549, 523.553 718.922, 526.529 726.714 C 531.403 739.477, 543.354 744.997, 554.405 739.590 C 565.870 733.981, 573.348 718.658, 579.545 688.074 C 581.012 680.836, 581.235 664.766, 579.824 668 M 989.635 674.073 C 987.752 675.554, 987.011 677.051, 987.040 679.323 L 987.080 682.500 988.536 679.819 C 991.319 674.694, 996.583 674.971, 999.950 680.420 C 1001.912 683.593, 1002 685.206, 1002 717.868 C 1002 739.956, 1002.353 752, 1003 752 C 1003.648 752, 1004 739.322, 1004 715.965 C 1004 676.427, 1004.027 676.617, 997.901 673.449 C 994.156 671.512, 992.756 671.618, 989.635 674.073 M 993 682 C 993 683.289, 993.506 683.998, 994.250 683.750 C 994.938 683.521, 995.500 682.733, 995.500 682 C 995.500 681.267, 994.938 680.479, 994.250 680.250 C 993.506 680.002, 993 680.711, 993 682 M 986 720 C 986 741.157, 986.341 751.907, 987 751.500 C 987.632 751.110, 988 739.509, 988 720 C 988 700.491, 987.632 688.890, 987 688.500 C 986.341 688.093, 986 698.843, 986 720 M 993.807 705.750 C 993.529 714.413, 993.603 728.475, 993.972 737 C 994.553 750.436, 994.666 748.338, 994.821 721.250 C 994.919 704.063, 994.845 690, 994.657 690 C 994.468 690, 994.086 697.087, 993.807 705.750 M 484.014 696.090 C 483.980 699.969, 490.380 710.217, 495.837 715.019 C 501.520 720.022, 517.923 730.410, 518.782 729.551 C 519.833 728.501, 512.166 720.445, 503.427 713.416 C 498.279 709.275, 491.808 703.325, 489.047 700.193 C 486.147 696.903, 484.022 695.171, 484.014 696.090 M 385 703.321 C 385 709.371, 396.468 735.756, 401.269 740.750 C 408.547 748.322, 407.580 742.416, 398.558 724.182 C 394.464 715.910, 389.739 707.242, 388.058 704.921 C 385.165 700.928, 385 700.842, 385 703.321 M 583.751 705.723 C 582.817 706.755, 581.366 709.546, 580.526 711.925 C 578.711 717.071, 578.717 717, 580.055 717 C 581.304 717, 586.318 706.454, 585.804 704.911 C 585.605 704.314, 584.703 704.671, 583.751 705.723 M 438 727.500 C 435.766 730.192, 408.574 750.330, 405.711 751.413 C 401.965 752.830, 402.327 756.365, 406.264 756.818 C 412.876 757.578, 440.964 733.262, 440.996 726.750 C 441.003 725.491, 439.317 725.913, 438 727.500 M 445.920 750.894 C 410.716 768.969, 406.727 771.335, 407.207 773.856 C 407.845 777.204, 411.983 775.824, 432.500 765.422 C 463.002 749.956, 480 739.240, 480 735.477 C 480 734.665, 479.663 734.037, 479.250 734.082 C 478.837 734.128, 463.839 741.693, 445.920 750.894 M 997 759.933 C 997 761.291, 997.646 762, 998.883 762 C 1001.418 762, 1002.087 765.072, 1001.334 773.250 L 1000.713 780 1009.356 780 L 1018 780 1018 770.090 L 1018 760.180 1009.250 759.511 C 1004.438 759.144, 999.712 758.623, 998.750 758.354 C 997.490 758.002, 997 758.444, 997 759.933 M 973.214 768.750 L 973.500 778.500 982.250 778.825 L 991 779.151 991 769.075 L 991 759 981.964 759 L 972.928 759 973.214 768.750 M 571.591 767.435 C 568.329 773.001, 563.504 775.989, 556.634 776.698 L 551.231 777.256 550.712 781.864 C 550.126 787.061, 551.743 791.152, 555.271 793.404 C 556.497 794.186, 564.846 797.115, 573.824 799.913 C 587.379 804.137, 591.429 805, 597.693 805 L 605.237 805 602.518 801.434 C 601.022 799.473, 600.012 797.655, 600.273 797.394 C 600.869 796.798, 607.780 800.697, 610.647 803.247 C 612.489 804.884, 615.825 805.361, 634.085 806.599 C 645.795 807.392, 655.854 807.878, 656.438 807.679 C 657.742 807.233, 650.945 803.720, 645.500 802.026 C 638.702 799.910, 630.754 793.542, 637.250 795.416 C 638.487 795.773, 643.325 796.911, 648 797.946 C 659.732 800.542, 664.183 802.209, 670.264 806.286 C 673.317 808.334, 677.369 810.068, 679.984 810.448 L 684.469 811.099 681.484 807.941 C 677.735 803.974, 665.201 795.419, 659.339 792.826 C 655.632 791.186, 651.817 790.772, 636.240 790.320 C 625.978 790.022, 615.764 789.227, 613.541 788.554 C 609.288 787.265, 602.423 782.963, 584.832 770.564 L 574.164 763.044 571.591 767.435 M 997.667 765.667 C 996.590 766.743, 996.897 779, 998 779 C 998.571 779, 999 776, 999 772 C 999 764.961, 998.891 764.443, 997.667 765.667 M 454 769.710 C 424.047 786.416, 401.440 801.850, 406.770 801.955 C 412.176 802.062, 442.763 784.197, 453.461 774.685 C 462.224 766.893, 462.428 765.009, 454 769.710 M 506.372 787.426 C 483.200 799.023, 477 802.543, 477 804.101 C 477 805.159, 476.934 805.171, 494 801.024 C 500.875 799.354, 513.401 796.916, 521.836 795.608 C 530.271 794.299, 537.654 792.746, 538.243 792.157 C 540.017 790.383, 537.156 788, 533.251 788 C 530.362 788, 514.896 791.051, 510.250 792.537 C 507.006 793.575, 509.722 791.725, 517.009 787.935 C 524.283 784.150, 530 779.304, 530 776.923 C 530 775.578, 530.414 775.394, 506.372 787.426 M 955.200 790.750 L 955.500 796.500 961.500 797.122 C 964.800 797.465, 973.013 798.023, 979.750 798.364 L 992 798.983 992.015 796.242 C 992.038 792.137, 993.328 790.832, 997.619 790.571 C 1002.563 790.271, 1005 792.280, 1005 796.655 L 1005 800 1013.349 800 C 1017.941 800, 1025.141 800.291, 1029.349 800.647 L 1037 801.293 1037 794.751 L 1037 788.208 1022.250 787.609 C 1014.138 787.279, 1000.075 786.551, 991 785.991 C 981.925 785.431, 970.090 784.979, 964.700 784.986 L 954.900 785 955.200 790.750 M 997.617 797 C 996.387 801.554, 997.366 866.289, 998.672 866.724 C 999.551 867.017, 999.849 858.929, 999.867 834.307 C 999.890 802.653, 999.197 791.151, 997.617 797 M 955.197 807.631 L 955.500 813.483 960 814.103 C 962.475 814.444, 970.688 815.035, 978.250 815.416 L 992 816.110 992 810.174 L 992 804.238 982.250 803.606 C 976.888 803.259, 968.539 802.705, 963.697 802.377 L 954.894 801.779 955.197 807.631 M 1005 810.847 L 1005 816.694 1016.250 817.343 C 1022.438 817.699, 1029.638 817.993, 1032.250 817.995 L 1037 818 1037 812.142 L 1037 806.285 1030.853 805.642 C 1027.473 805.289, 1020.273 805, 1014.853 805 L 1005 805 1005 810.847 M 668.406 828.271 C 668.256 846.277, 662.477 864.026, 646.698 894.944 C 637.343 913.273, 635.444 918, 637.435 918 C 640.715 918, 658.788 912.637, 673 907.448 C 695.984 899.054, 717.480 894.732, 719.554 898.087 C 720.563 899.720, 718.558 901.226, 712.387 903.473 L 706.821 905.500 703.850 914.500 C 689.187 958.927, 691.272 991.017, 710.223 1012.602 C 716.742 1020.026, 727.365 1074.774, 726.868 1098.386 L 726.638 1109.271 730.569 1111.255 C 732.731 1112.345, 735.224 1113.872, 736.109 1114.647 C 737.574 1115.928, 737.765 1115.014, 738.229 1104.491 C 738.983 1087.394, 740.978 1087.359, 743.026 1104.408 C 744.427 1116.072, 745.861 1120.207, 749.281 1122.449 C 753.390 1125.141, 759.601 1121.411, 766.340 1112.205 C 771.675 1104.917, 772.508 1100.901, 770.648 1091.434 C 766.459 1070.100, 766.068 1048.882, 769.425 1025 C 775.323 983.035, 775.298 943.144, 769.357 915.500 C 768.305 910.603, 767.878 903.015, 767.938 890.240 C 768.064 863.127, 765.792 854.898, 754.765 842.525 C 743.741 830.157, 716.585 821.770, 674 817.582 L 668.500 817.042 668.406 828.271 M 955.196 824.619 L 955.500 830.500 962 831.113 C 965.575 831.450, 973.788 832.015, 980.250 832.368 L 992 833.009 992 827.116 C 992 820.038, 993.183 820.455, 970.196 819.425 L 954.892 818.739 955.196 824.619 M 538.500 825.391 C 524.015 836.470, 502.938 860.186, 495.941 873.279 C 490.880 882.748, 493.031 881.916, 503.046 870.530 C 508.246 864.619, 520.487 851.202, 530.250 840.715 C 540.013 830.228, 548 821.277, 548 820.824 C 548 818.946, 545.109 820.336, 538.500 825.391 M 1004.998 827.600 L 1005 833.701 1014.154 834.350 C 1019.188 834.708, 1026.388 835, 1030.154 835 L 1037 835 1037 829 C 1037 824.929, 1036.598 822.963, 1035.750 822.884 C 1035.063 822.820, 1027.862 822.482, 1019.748 822.134 L 1004.997 821.500 1004.998 827.600 M 582.663 834.260 C 579.487 837.887, 565.772 864.815, 566.297 866.392 C 567.314 869.443, 583.491 843.213, 585.811 834.750 C 587.069 830.160, 586.351 830.049, 582.663 834.260 M 652.597 838.782 C 650.028 848.059, 640.459 873.063, 636.306 881.352 C 631.972 890, 632.639 890.896, 637.776 883.327 C 646.424 870.584, 652.987 855.020, 655.096 842.251 C 656.749 832.237, 655.059 829.890, 652.597 838.782 M 956 840.887 L 956 846.812 960.750 847.372 C 963.362 847.680, 969.775 848.191, 975 848.507 C 980.225 848.823, 986.188 849.328, 988.250 849.629 L 992 850.176 992 844.195 C 992 839.870, 991.595 838.059, 990.538 837.653 C 989.734 837.344, 982.646 836.819, 974.788 836.485 C 966.929 836.151, 959.487 835.672, 958.250 835.420 C 956.118 834.986, 956 835.273, 956 840.887 M 1005 844.593 L 1005 850.701 1014.154 851.350 C 1019.188 851.708, 1026.388 852, 1030.154 852 L 1037 852 1037 846.061 L 1037 840.123 1032.750 839.582 C 1030.412 839.285, 1023.212 838.917, 1016.750 838.764 L 1005 838.486 1005 844.593 M 561.156 851.528 C 554.369 857.319, 544.696 865.349, 539.659 869.372 C 527.844 878.809, 507.282 898.557, 508.239 899.547 C 511.519 902.939, 575 848.659, 575 842.463 C 575 839.948, 573.825 840.718, 561.156 851.528 M 955 857.321 C 955 860.379, 955.393 863.125, 955.874 863.422 C 957.406 864.369, 985.369 866.152, 988.750 865.518 C 991.936 864.921, 992 864.805, 992 859.553 L 992 854.196 986.250 853.622 C 983.087 853.306, 974.763 852.757, 967.750 852.403 L 955 851.759 955 857.321 M 1005 860.922 C 1005 864.908, 1005.430 866.951, 1006.343 867.302 C 1007.082 867.585, 1014.282 868.144, 1022.343 868.543 L 1037 869.269 1037 863.103 C 1037 859.042, 1036.573 856.806, 1035.750 856.552 C 1035.063 856.341, 1027.862 855.918, 1019.750 855.613 L 1005 855.059 1005 860.922 M 955.418 868.916 C 954.677 869.656, 954.974 879.866, 955.750 880.335 C 956.163 880.584, 961.675 881.106, 968 881.495 L 979.500 882.203 979.707 879.135 C 979.821 877.447, 980.620 874.702, 981.483 873.033 L 983.051 870 978.776 869.906 C 976.424 869.854, 970.301 869.516, 965.168 869.155 C 960.035 868.793, 955.648 868.686, 955.418 868.916 M 718.500 870.890 C 706.241 874.461, 678.376 887.224, 674.603 890.997 C 668.399 897.201, 716.416 878.287, 725.003 871.144 C 728.085 868.580, 726.626 868.523, 718.500 870.890 M 560.745 879.213 C 553.395 888.636, 543.380 899.030, 529.655 911.476 C 524.817 915.864, 521.331 919.610, 521.909 919.803 C 523.818 920.439, 539.361 909.478, 547.708 901.608 C 559.245 890.734, 568.492 877.439, 567.811 872.709 C 567.559 870.965, 566.210 872.207, 560.745 879.213 M 989 874 C 984.952 878.048, 987.370 888, 992.402 888 C 996.804 888, 999.656 882.517, 997.947 877.340 C 996.204 872.057, 992.373 870.627, 989 874 M 1006.030 875.103 C 1006.563 876.964, 1007 879.697, 1007 881.176 C 1007 884.591, 1007.507 884.724, 1023.750 885.568 L 1037 886.257 1037 880.256 L 1037 874.256 1033.250 873.680 C 1031.188 873.363, 1024.001 872.792, 1017.280 872.412 L 1005.059 871.720 1006.030 875.103 M 756.091 875 C 756.133 878.725, 761.547 895.349, 762.861 895.787 C 766.151 896.884, 762.486 879.795, 758.449 875.210 L 756.063 872.500 756.091 875 M 955.657 885.676 C 955.296 886.038, 955 888.682, 955 891.553 L 955 896.773 959.250 897.395 C 961.587 897.738, 970.025 898.455, 978 898.990 C 985.975 899.525, 997.900 900.419, 1004.500 900.978 C 1011.100 901.536, 1021.112 902.288, 1026.750 902.649 L 1037 903.304 1037 897.307 L 1037 891.310 1021.160 890.104 L 1005.320 888.899 1002.179 891.833 C 996.509 897.129, 988.747 896.741, 983.115 890.880 C 979.731 887.358, 978.819 886.963, 972.949 886.475 C 969.402 886.180, 964.208 885.732, 961.407 885.479 C 958.606 885.226, 956.018 885.315, 955.657 885.676 M 956 907.886 L 956 913.773 960.250 914.377 C 962.587 914.710, 973.050 915.675, 983.500 916.522 C 993.950 917.368, 1008.900 918.722, 1016.722 919.531 C 1024.543 920.339, 1032.306 921, 1033.972 921 L 1037 921 1037 915.079 C 1037 907.670, 1041.932 908.860, 995 904.946 C 988.675 904.418, 978.775 903.540, 973 902.994 C 967.225 902.448, 961.038 902.001, 959.250 902.001 L 956 902 956 907.886 M 678.086 913.998 C 668.509 917.296, 660.562 920.108, 660.426 920.247 C 660.290 920.386, 659.458 928.150, 658.578 937.500 C 657.698 946.850, 655.101 965.750, 652.807 979.500 C 647.875 1009.066, 647.020 1029.648, 650.285 1040.250 L 652.056 1046 656.348 1046 C 659.851 1046, 661.434 1046.679, 664.956 1049.694 C 669.312 1053.423, 673.972 1061.665, 673.990 1065.672 C 674.003 1068.437, 680.128 1073.721, 689.969 1079.455 C 698.100 1084.192, 705.400 1086.586, 713.848 1087.283 L 719.196 1087.725 718.520 1082.113 C 717.085 1070.216, 712.765 1046.920, 709.596 1034 C 706.491 1021.340, 705.926 1020.002, 700.504 1012.500 C 697.325 1008.100, 693.641 1002.080, 692.317 999.122 C 683.745 979.957, 684.403 950.692, 694.116 919.127 C 697.204 909.090, 697.414 907.999, 696.250 908.001 C 695.837 908.001, 687.664 910.700, 678.086 913.998 M 352.500 910.085 C 307.163 912.466, 273.068 915.696, 265.456 918.332 L 261.557 919.682 271.028 920.873 C 276.238 921.528, 290.400 923.656, 302.500 925.602 C 335.605 930.925, 342 932.469, 342 935.141 C 342 937.363, 321.626 934.898, 275.522 927.098 C 263.303 925.030, 257.217 924.383, 256.522 925.076 C 255.615 925.981, 254.308 946.998, 255.159 947.002 C 255.347 947.002, 263.150 948.342, 272.500 949.979 C 281.850 951.615, 298.275 954.490, 309 956.366 C 319.725 958.243, 331.313 960.098, 334.750 960.488 L 341 961.196 341.014 951.348 C 341.029 940.388, 341.618 937, 343.510 937 C 345.529 937, 346 939.474, 346 950.082 L 346 960 348.750 959.992 C 350.262 959.988, 355.325 959.529, 360 958.973 C 387.406 955.709, 422.306 952.716, 488 947.994 C 513.773 946.141, 549.189 943.015, 549.751 942.542 C 549.889 942.426, 543.814 941.121, 536.251 939.643 C 525.415 937.525, 519.638 936.960, 509 936.976 C 495.160 936.998, 485.348 935.726, 469.535 931.861 C 459.563 929.424, 461.844 929.358, 394.500 934.024 C 351.192 937.024, 347.616 937.177, 346.008 936.091 C 344.910 935.349, 344.811 934.789, 345.633 933.967 C 346.757 932.843, 372.950 929.751, 391.500 928.553 C 412.628 927.188, 428.676 925.965, 433 925.389 L 437.500 924.789 432 923.066 C 425.189 920.932, 421.510 919.033, 415.883 914.749 C 408.888 909.421, 390.661 908.080, 352.500 910.085 M 955.843 924.597 C 955.654 927.675, 955.753 930.350, 956.063 930.540 C 956.849 931.024, 981.364 933.621, 1007.500 935.990 C 1019.600 937.087, 1031.188 938.252, 1033.250 938.580 L 1037 939.176 1037 932.660 L 1037 926.144 1031.750 925.586 C 1022.544 924.608, 959.567 918.994, 957.843 918.997 C 956.538 918.999, 956.112 920.192, 955.843 924.597 M 643.500 924.482 C 640.750 925.198, 637.327 926.049, 635.893 926.375 C 633.649 926.884, 632.828 928.258, 630 936.233 C 623.983 953.205, 619.957 958.980, 614.115 959.016 C 612.677 959.025, 607.348 958.039, 602.274 956.825 C 597.200 955.611, 592.816 954.851, 592.531 955.136 C 591.281 956.386, 594.414 973.364, 597.577 982.483 C 602.715 997.295, 609.267 1031.482, 610.517 1050 C 611.553 1065.353, 611.901 1067, 614.111 1067 C 617.177 1067, 622.032 1069.829, 627.207 1074.632 C 634.435 1081.339, 640.922 1079.923, 647.021 1070.306 C 650.615 1064.638, 650.656 1063.736, 647.629 1056.874 C 644.281 1049.285, 641.082 1035.913, 640.357 1026.477 C 639.626 1016.971, 640.891 1004.868, 645.529 977 C 648.885 956.839, 650.281 946.093, 651.536 930.750 C 652.258 921.928, 652.524 922.135, 643.500 924.482 M 955.843 941.628 C 955.648 944.823, 955.932 947.384, 956.500 947.551 C 957.050 947.713, 968.975 949.018, 983 950.451 C 997.025 951.884, 1014.726 953.770, 1022.336 954.642 C 1038.544 956.500, 1038.696 956.442, 1037.399 948.810 L 1036.500 943.519 1018 941.837 C 1007.825 940.912, 990.623 939.220, 979.773 938.077 C 953.634 935.325, 956.250 934.937, 955.843 941.628 M 546.321 950.643 C 520.192 952.319, 470.318 955.834, 456.500 956.973 C 449.900 957.517, 441.125 958.205, 437 958.504 C 432.875 958.802, 412.850 960.489, 392.500 962.254 C 347.461 966.159, 329.353 966.376, 313.699 963.195 C 302.631 960.946, 298.167 960.461, 303.500 962.087 C 314.139 965.330, 339.940 969.173, 347.500 968.640 C 374.566 966.730, 400.304 964.719, 419.500 963.015 C 442.367 960.984, 465.354 959.222, 504.500 956.497 C 517.150 955.617, 535.756 954.245, 545.846 953.448 C 555.936 952.652, 565.048 952, 566.096 952 C 567.143 952, 568 951.353, 568 950.562 C 568 949.744, 567.169 949.205, 566.071 949.312 C 565.009 949.415, 556.122 950.014, 546.321 950.643 M 761.691 966.731 C 759.469 986.358, 758.518 1001.693, 759.586 1000.693 C 761.894 998.531, 764.168 984.716, 764.692 969.671 C 765.419 948.780, 763.893 947.284, 761.691 966.731 M 955.555 952.966 C 955.393 953.260, 955.314 955.968, 955.380 958.985 L 955.500 964.471 987.500 968.142 C 1005.100 970.162, 1023.438 972.139, 1028.250 972.536 L 1037 973.258 1037 967.190 L 1037 961.123 1032.750 960.575 C 1030.412 960.274, 1019.725 959.115, 1009 957.999 C 998.275 956.883, 983.875 955.321, 977 954.526 C 960.941 952.671, 955.921 952.306, 955.555 952.966 M 736.121 970.750 C 734.868 975.013, 731.403 984.496, 728.421 991.825 C 722.264 1006.959, 721.721 1009.551, 725.436 1006.060 C 731.440 1000.420, 738.065 983.036, 739.465 969.250 C 740.329 960.740, 738.873 961.393, 736.121 970.750 M 955.618 969.715 C 954.478 970.856, 954.986 979.743, 956.250 980.773 C 956.938 981.333, 963.816 982.510, 971.536 983.389 C 979.257 984.267, 997.001 986.332, 1010.969 987.977 C 1024.937 989.622, 1036.529 990.804, 1036.728 990.605 C 1036.928 990.406, 1037.183 987.610, 1037.295 984.394 L 1037.500 978.545 1031 977.812 C 1027.425 977.409, 1020.225 976.603, 1015 976.022 C 984.723 972.654, 961.167 969.936, 958.868 969.545 C 957.420 969.299, 955.958 969.375, 955.618 969.715 M 629.619 982.602 C 626.458 987.883, 624.132 992.465, 624.452 992.785 C 626.572 994.905, 634.825 983.179, 636.440 975.750 C 637.521 970.780, 635.455 972.856, 629.619 982.602 M 314.814 981.056 C 300.471 994.137, 291.753 1007.775, 284.381 1028.664 C 278.999 1043.911, 260.920 1100.264, 251.451 1131.304 L 248.156 1142.109 250.328 1142.921 C 258.804 1146.089, 273.040 1150.294, 273.553 1149.780 C 274.167 1149.167, 279.286 1132.623, 297.158 1073.500 C 312.439 1022.946, 314.131 1017.676, 316.738 1012.503 C 321.370 1003.310, 327.638 994.577, 335.914 985.784 C 345.132 975.989, 345.428 977.051, 332.918 975.052 C 323.123 973.487, 323.106 973.492, 314.814 981.056 M 365.828 974.742 L 358.155 975.081 346.217 986.791 C 327.132 1005.509, 323.654 1011.863, 313.166 1047.169 C 306.243 1070.472, 289.246 1126.535, 284.620 1141.320 L 282.174 1149.141 288.837 1148.458 C 292.502 1148.083, 295.798 1147.489, 296.162 1147.138 C 296.859 1146.466, 300.838 1133.836, 311.014 1100 C 324.368 1055.593, 334.344 1024.290, 336.512 1019.996 C 339.663 1013.752, 347.269 1004.750, 352.087 1001.561 C 355.402 999.368, 357.659 998.792, 364.808 998.315 C 376.769 997.517, 377 997.253, 377 984.345 C 377 975.083, 376.817 974.021, 375.250 974.201 C 374.288 974.312, 370.047 974.555, 365.828 974.742 M 364.357 980.992 C 361.552 982.124, 359 985.843, 359 988.799 C 359 991.497, 364.033 997, 366.500 997 C 370.954 997, 375.205 989.303, 373.379 984.545 C 372.870 983.220, 367.896 979.832, 366.800 980.063 C 366.635 980.098, 365.536 980.516, 364.357 980.992 M 365.754 987.250 C 365.158 988.872, 365.912 991, 367.083 991 C 367.587 991, 368 989.875, 368 988.500 C 368 985.892, 366.550 985.085, 365.754 987.250 M 955.582 988.433 C 955.277 989.570, 955.021 992.167, 955.014 994.205 C 954.998 998.572, 952.417 997.878, 982 1001.461 C 993.275 1002.827, 1010.021 1004.857, 1019.213 1005.972 C 1028.404 1007.087, 1036.167 1008, 1036.463 1008 C 1036.758 1008, 1037 1005.141, 1037 1001.648 L 1037 995.295 1028.250 994.629 C 1023.438 994.263, 1006.450 992.395, 990.500 990.478 C 974.550 988.561, 960.293 986.852, 958.819 986.680 C 956.804 986.444, 955.999 986.881, 955.582 988.433 M 955.333 1004.574 C 955.081 1005.233, 955.015 1007.730, 955.187 1010.124 C 955.491 1014.344, 955.621 1014.498, 959.500 1015.186 C 962.665 1015.747, 1012.035 1021.994, 1032.655 1024.442 C 1035.807 1024.817, 1036.954 1024.561, 1037.405 1023.386 C 1037.975 1021.902, 1038.268 1013.037, 1037.750 1012.966 C 1037.612 1012.947, 1028.275 1011.839, 1017 1010.504 C 1005.725 1009.170, 989.075 1007.194, 980 1006.115 C 955.840 1003.242, 955.844 1003.242, 955.333 1004.574 M 954.998 1032.250 L 954.996 1042.500 966.498 1042.189 L 978 1041.879 978 1033.485 L 978 1025.091 974.750 1024.572 C 968.313 1023.543, 957.095 1022, 956.058 1022 C 955.383 1022, 954.999 1025.707, 954.998 1032.250 M 985.212 1035.180 L 985.500 1044.361 988.414 1045.138 C 992.710 1046.283, 993 1045.708, 993 1036.058 C 993 1027.752, 992.868 1027.198, 990.750 1026.630 C 984.996 1025.088, 984.901 1025.234, 985.212 1035.180 M 1000 1052.383 L 1000 1076.767 1002.250 1077.370 C 1003.487 1077.701, 1004.837 1077.979, 1005.250 1077.986 C 1005.663 1077.994, 1006 1066.750, 1006 1053 L 1006 1028 1003 1028 L 1000 1028 1000 1052.383 M 1013.156 1039.038 C 1013.393 1045.943, 1013.910 1049.329, 1014.815 1049.887 C 1015.538 1050.333, 1020.382 1051.458, 1025.579 1052.386 C 1030.777 1053.314, 1035.712 1054.336, 1036.547 1054.657 C 1037.862 1055.161, 1038.028 1053.646, 1037.783 1043.370 L 1037.500 1031.500 1028 1030.336 C 1022.775 1029.695, 1017.220 1029.133, 1015.656 1029.086 L 1012.813 1029 1013.156 1039.038 M 892.975 1042.565 C 891.669 1046, 891.732 1054.716, 893.068 1055.542 C 893.655 1055.905, 896.805 1056.444, 900.068 1056.740 L 906 1057.278 906 1052.607 C 906 1050.038, 906.629 1046.430, 907.398 1044.590 L 908.796 1041.244 904.258 1040.622 C 895.820 1039.465, 894.037 1039.772, 892.975 1042.565 M 913.895 1044.610 L 911.500 1047.159 911.168 1080.579 L 910.836 1114 914.418 1114 L 918 1114 918 1078.559 C 918 1059.066, 917.615 1042.880, 917.145 1042.590 C 916.675 1042.299, 915.213 1043.208, 913.895 1044.610 M 896.200 1045.200 C 894.208 1047.192, 894.750 1051.796, 897.126 1053.068 C 900.198 1054.711, 904 1052.789, 904 1049.593 C 904 1045.131, 899.055 1042.345, 896.200 1045.200 M 656 1053.841 C 656 1054.268, 656.661 1055.491, 657.468 1056.559 C 660.508 1060.578, 658.132 1067.975, 651.004 1076.678 C 641.984 1087.692, 630.752 1088.798, 622 1079.534 C 615.586 1072.746, 606.852 1070.523, 605.108 1075.236 C 604.353 1077.278, 604.708 1077.581, 609.204 1078.732 C 611.912 1079.425, 616.129 1081.369, 618.575 1083.051 C 630.680 1091.380, 642.044 1091.046, 652.277 1082.062 C 657.679 1077.319, 660.353 1072.515, 659.623 1068.865 C 658.833 1064.915, 660.558 1061.651, 663.086 1062.312 C 665.573 1062.963, 665.500 1062.029, 662.750 1057.998 C 660.665 1054.942, 656 1052.069, 656 1053.841 M 858.250 1055.662 C 855.377 1056.822, 856.952 1059.901, 860.750 1060.551 C 862.813 1060.904, 872.781 1062.949, 882.902 1065.096 C 904.980 1069.780, 904 1069.732, 904 1066.128 C 904 1063.274, 903.935 1063.244, 893.750 1061.378 C 884.554 1059.693, 883.467 1059.269, 883.180 1057.250 C 882.869 1055.058, 882.560 1055.002, 871.180 1055.079 C 864.756 1055.122, 858.938 1055.385, 858.250 1055.662 M 1013.375 1058.465 C 1012.622 1060.427, 1013.350 1078.683, 1014.215 1079.549 C 1014.560 1079.893, 1020.052 1081.419, 1026.421 1082.940 L 1038 1085.705 1038 1073.852 C 1038 1067.334, 1037.862 1062, 1037.693 1062 C 1036.166 1062, 1015.666 1057.912, 1014.939 1057.462 C 1014.415 1057.138, 1013.711 1057.590, 1013.375 1058.465 M 857 1082.394 L 857 1099.923 860.750 1100.922 C 871.493 1103.785, 901.497 1111, 902.659 1111 C 903.730 1111, 904 1107.424, 904 1093.228 L 904 1075.455 892.250 1073.090 C 881.799 1070.986, 863.509 1066.776, 858.750 1065.379 C 857.130 1064.903, 857 1066.171, 857 1082.394 M 658.862 1083.656 C 654.041 1088.586, 644.662 1093.551, 638.224 1094.580 C 632.828 1095.443, 625.940 1093.210, 617.831 1087.969 C 610.530 1083.250, 604.216 1081.032, 603.122 1082.803 C 602.023 1084.581, 597.717 1103.050, 598.272 1103.605 C 599.753 1105.087, 622.065 1111.013, 628.282 1111.577 C 634.362 1112.127, 637.281 1111.800, 645.726 1109.619 C 656.574 1106.818, 662.175 1106.500, 673.900 1108.022 L 681.300 1108.983 685.513 1105.241 C 692.761 1098.805, 694.005 1093.895, 688.844 1092.096 C 687.109 1091.491, 682.271 1089.024, 678.094 1086.615 C 673.917 1084.206, 668.863 1081.551, 666.862 1080.716 L 663.224 1079.196 658.862 1083.656 M 925.227 1096.723 L 925.500 1114.446 935 1116.724 C 950.299 1120.391, 992.750 1129.953, 1016 1134.969 L 1037.500 1139.608 1037.773 1121.660 C 1037.923 1111.789, 1037.872 1103.538, 1037.658 1103.325 C 1037.169 1102.836, 1006.754 1095.992, 985 1091.476 C 975.925 1089.592, 959.129 1086.014, 947.675 1083.525 C 936.221 1081.036, 926.423 1079, 925.902 1079 C 925.330 1079, 925.062 1086.033, 925.227 1096.723 M 975 1080.922 C 968.347 1081.643, 969.191 1082, 985.682 1085.430 C 999.176 1088.238, 1033.507 1095.842, 1036.250 1096.631 C 1037.593 1097.018, 1038 1096.538, 1038 1094.567 C 1038 1093.155, 1037.736 1092, 1037.414 1092 C 1036.545 1092, 1014.597 1087.252, 997.603 1083.388 C 989.409 1081.524, 982.209 1080.073, 981.603 1080.163 C 980.996 1080.253, 978.025 1080.594, 975 1080.922 M 780.950 1091.250 C 780.922 1091.388, 780.682 1094.084, 780.418 1097.242 L 779.936 1102.983 783.658 1100.457 C 785.705 1099.068, 787.969 1098.158, 788.690 1098.434 C 789.410 1098.711, 790 1098.601, 790 1098.191 C 790 1097.193, 786.885 1092.687, 785.558 1091.765 C 784.574 1091.082, 781.063 1090.689, 780.950 1091.250 M 698.427 1093.681 C 696.826 1098.855, 693.791 1104.091, 691.535 1105.569 C 687.686 1108.091, 688.373 1109.356, 693.176 1108.588 C 695.566 1108.206, 698.386 1106.887, 699.768 1105.505 C 702.339 1102.933, 710.787 1098.453, 711.576 1099.242 C 712.640 1100.307, 710.696 1102.783, 707.210 1104.804 C 702.175 1107.722, 705.801 1107.795, 713.462 1104.928 C 718.851 1102.912, 719 1102.754, 719 1099.037 C 719 1094.733, 718.779 1094.616, 708.500 1093.492 C 705.200 1093.131, 701.710 1092.617, 700.745 1092.349 C 699.637 1092.042, 698.783 1092.533, 698.427 1093.681 M 790.042 1102.250 C 790.019 1103.763, 789.072 1105.928, 787.938 1107.062 L 785.876 1109.124 782.490 1107.126 L 779.104 1105.129 773.302 1113.799 C 765.572 1125.352, 758.221 1131.151, 750.494 1131.792 C 743.197 1132.397, 739.641 1130.763, 734.807 1124.584 C 728.715 1116.797, 720.870 1113.408, 719.567 1118 C 719.255 1119.100, 718.761 1120.848, 718.469 1121.884 C 718.067 1123.315, 718.608 1123.934, 720.719 1124.460 C 722.249 1124.841, 725.849 1126.708, 728.721 1128.610 C 739.177 1135.536, 749.348 1136.916, 758.500 1132.650 C 763.092 1130.510, 772.748 1122.508, 782.365 1112.872 C 785.528 1109.704, 786.936 1109, 790.115 1109 C 794.552 1109, 794.819 1108.149, 792 1103 L 790.084 1099.500 790.042 1102.250 M 1087.500 1104.603 C 1081.450 1105.389, 1073.912 1105.912, 1070.748 1105.766 C 1067.585 1105.620, 1064.997 1105.643, 1064.998 1105.818 C 1064.999 1105.993, 1069.355 1108.172, 1074.678 1110.659 L 1084.357 1115.182 1096.428 1113.484 C 1103.068 1112.550, 1110.525 1111.449, 1113 1111.038 L 1117.500 1110.291 1110.691 1107.109 C 1101.960 1103.028, 1100.686 1102.890, 1087.500 1104.603 M 594.032 1110.687 L 591.903 1113.393 594.381 1114.692 C 599.433 1117.339, 609.620 1118.970, 621 1118.955 C 632.259 1118.940, 633.941 1118.041, 625.500 1116.550 C 621.452 1115.835, 598.169 1109.223, 596.867 1108.418 C 596.478 1108.177, 595.202 1109.199, 594.032 1110.687 M 708.530 1111.126 C 700.099 1113.847, 687.186 1114.514, 671.739 1113.025 C 660.737 1111.965, 657.486 1111.979, 652.500 1113.109 L 646.500 1114.468 664 1115.145 C 673.625 1115.517, 687.308 1115.566, 694.407 1115.253 C 708.369 1114.638, 710.077 1115.485, 700.971 1118.510 C 696.785 1119.900, 692.160 1120.134, 672.733 1119.940 C 652.269 1119.736, 648.270 1119.964, 639.176 1121.854 C 622.970 1125.223, 604.902 1124.329, 593.577 1119.597 C 590.568 1118.339, 590.081 1118.348, 589.575 1119.664 C 586.684 1127.200, 596.865 1131.400, 618 1131.390 C 629.148 1131.385, 631.852 1131.013, 643 1127.942 C 655.165 1124.592, 655.924 1124.508, 671.327 1124.802 C 695.712 1125.267, 712 1121.551, 712 1115.524 C 712 1114.834, 712.933 1113.084, 714.073 1111.635 C 716.472 1108.584, 716.421 1108.580, 708.530 1111.126 M 788.984 1115.512 C 785.742 1117.904, 785.706 1118, 788.065 1118 C 789.474 1118, 791.077 1117.107, 791.829 1115.903 C 793.749 1112.828, 792.799 1112.697, 788.984 1115.512 M 1063 1130.958 L 1063 1148.915 1070.250 1151.022 C 1074.237 1152.181, 1078.241 1153.341, 1079.147 1153.599 C 1080.588 1154.011, 1080.881 1152.527, 1081.485 1141.785 C 1081.865 1135.028, 1082.024 1127.525, 1081.838 1125.110 L 1081.500 1120.721 1072.574 1116.860 C 1067.664 1114.737, 1063.501 1113, 1063.324 1113 C 1063.146 1113, 1063 1121.081, 1063 1130.958 M 1114.917 1116.402 C 1114.688 1116.624, 1108.786 1117.596, 1101.802 1118.563 L 1089.104 1120.322 1088.476 1125.411 C 1088.130 1128.210, 1087.994 1136.271, 1088.174 1143.325 L 1088.500 1156.149 1094 1155.490 C 1099.912 1154.781, 1115.065 1152.325, 1118.750 1151.479 C 1120.978 1150.967, 1121 1150.790, 1121 1133.481 L 1121 1116 1118.167 1116 C 1116.608 1116, 1115.146 1116.181, 1114.917 1116.402 M 797.035 1118.934 C 795.646 1121.530, 795.691 1121.686, 798 1122.290 C 799.100 1122.577, 800 1122.405, 800 1121.906 C 800 1121.408, 799.550 1121, 799 1121 C 798.450 1121, 798 1120.550, 798 1120 C 798 1119.450, 798.702 1119, 799.559 1119 C 800.416 1119, 800.840 1118.550, 800.500 1118 C 799.539 1116.445, 798.170 1116.814, 797.035 1118.934 M 774 1128.625 C 756.008 1144.537, 742.215 1144.863, 722.257 1129.845 C 719.923 1128.089, 717.781 1126.885, 717.497 1127.170 C 717.212 1127.454, 716.080 1131.920, 714.981 1137.094 C 713.881 1142.267, 712.747 1147.534, 712.460 1148.799 C 712.001 1150.816, 712.706 1151.442, 718.219 1153.914 C 726.557 1157.653, 734.582 1160.228, 736.643 1159.826 C 737.919 1159.577, 737.072 1158.143, 733.056 1153.750 C 730.165 1150.588, 728.431 1148, 729.204 1148 C 730.672 1148, 742 1158.796, 742 1160.196 C 742 1161.552, 745.452 1161.108, 755.178 1158.503 C 767.443 1155.217, 770.553 1155.331, 785.170 1159.606 C 805.872 1165.661, 803.412 1165.703, 810.253 1159.178 C 816.599 1153.127, 821.915 1145.236, 820.376 1144.153 C 813.345 1139.204, 794.447 1127.118, 791 1125.366 C 782.778 1121.186, 782.309 1121.275, 774 1128.625 M 806.015 1125.715 C 806.007 1126.944, 806.923 1128.424, 808.076 1129.041 C 809.924 1130.030, 810.037 1129.951, 809.109 1128.326 C 806.534 1123.814, 806.031 1123.390, 806.015 1125.715 M 198.750 1126.873 C 187.366 1128.525, 185.642 1129.373, 191.750 1130.315 C 193.813 1130.634, 200.450 1132.268, 206.500 1133.947 C 225.704 1139.276, 238.906 1142.427, 239.507 1141.826 C 239.828 1141.505, 240.182 1140.003, 240.295 1138.488 C 240.488 1135.892, 240.037 1135.576, 232.441 1133 C 228.008 1131.496, 222.504 1129.081, 220.210 1127.633 C 215.496 1124.657, 214.312 1124.615, 198.750 1126.873 M 172.750 1132.980 C 170.068 1135.092, 170 1135.399, 170 1145.464 C 170 1155.761, 170.006 1155.785, 172.618 1156.440 C 174.058 1156.802, 175.422 1156.912, 175.649 1156.684 C 175.876 1156.457, 175.935 1150.544, 175.781 1143.543 L 175.500 1130.814 172.750 1132.980 M 182 1144.399 L 182 1155.797 189.250 1158.412 C 207.544 1165.010, 324.120 1203.546, 324.534 1203.132 C 324.790 1202.876, 325 1197.878, 325 1192.024 C 325 1177.673, 325.135 1177.511, 337.172 1177.461 C 346.082 1177.423, 357.815 1176.388, 360.990 1175.361 C 362.326 1174.928, 333.901 1164.787, 309.056 1156.832 C 300.857 1154.207, 298.758 1153.900, 293.126 1154.503 C 281.702 1155.727, 281.642 1156.327, 292.585 1159.932 C 305.713 1164.255, 328.340 1174.239, 327.872 1175.500 C 326.878 1178.174, 323.844 1177.249, 269 1157.567 C 249.988 1150.744, 230.747 1145.046, 211.269 1140.471 C 203.146 1138.563, 193.647 1136.101, 190.161 1135.001 C 186.674 1133.900, 183.412 1133, 182.911 1133 C 182.410 1133, 182 1138.129, 182 1144.399 M 781.629 1134.987 C 782.108 1135.444, 786.457 1137.875, 791.293 1140.390 C 796.129 1142.905, 802.060 1146.321, 804.473 1147.981 C 809.238 1151.260, 811 1151.723, 811 1149.696 C 811 1145.556, 794.072 1135.726, 785.129 1134.673 C 782.725 1134.390, 781.150 1134.531, 781.629 1134.987 M 837.136 1145.602 C 835.430 1149.345, 831.918 1150.526, 828.204 1148.605 C 825.238 1147.072, 825.105 1147.095, 824.431 1149.258 C 823.630 1151.832, 819.209 1157.847, 814.224 1163.148 L 810.794 1166.796 813.647 1167.394 C 825.234 1169.823, 831.323 1170.045, 833.415 1168.116 C 837.060 1164.753, 846.015 1159.987, 849.823 1159.383 C 851.845 1159.062, 854.258 1158.395, 855.184 1157.900 C 857.305 1156.767, 858 1156.764, 858 1157.889 C 858 1158.377, 854.513 1160.599, 850.250 1162.826 C 837.999 1169.225, 837.238 1170.099, 844.500 1169.425 C 858.427 1168.133, 866.376 1163.975, 870.623 1155.761 C 872.925 1151.311, 871.215 1150.268, 857.944 1148.029 C 851.650 1146.966, 844.642 1145.440, 842.371 1144.636 C 838.332 1143.206, 838.218 1143.227, 837.136 1145.602 M 1048.917 1155.771 C 1048.871 1156.722, 1048.721 1158.519, 1048.583 1159.765 C 1048.445 1161.011, 1048.820 1162.426, 1049.416 1162.910 C 1050.772 1164.010, 1083.686 1173, 1086.358 1173 C 1089.623 1173, 1135.333 1165.782, 1137.750 1164.885 C 1140.425 1163.892, 1141.137 1157, 1138.565 1157 C 1136.214 1157, 1092.823 1163.074, 1088.669 1163.984 C 1086.080 1164.552, 1083.487 1164.391, 1080.669 1163.489 C 1078.376 1162.755, 1071.325 1160.752, 1065 1159.038 C 1058.675 1157.324, 1052.487 1155.499, 1051.250 1154.982 C 1049.430 1154.223, 1048.984 1154.374, 1048.917 1155.771 M 708.349 1158.591 C 707.089 1160.513, 706.910 1161.634, 707.671 1162.840 C 710.028 1166.576, 730.117 1170.969, 744.950 1170.992 C 751.609 1171.002, 750.573 1169.756, 742.500 1168.044 C 736.574 1166.788, 718.316 1160.249, 712.868 1157.432 C 710.206 1156.055, 709.970 1156.116, 708.349 1158.591 M 156.500 1157.915 C 153.585 1158.574, 153.656 1158.646, 159 1160.432 C 162.025 1161.444, 165.673 1162.863, 167.107 1163.587 C 168.780 1164.432, 170.750 1164.626, 172.607 1164.130 C 175.474 1163.363, 175.455 1163.340, 170.500 1161.509 C 167.750 1160.492, 164.790 1159.062, 163.921 1158.331 C 162.233 1156.908, 161.207 1156.850, 156.500 1157.915 M 148.170 1163.482 C 148.471 1165.998, 149.366 1166.545, 158.420 1169.755 L 168.341 1173.271 179.920 1171.482 C 195.284 1169.108, 196.244 1168.731, 191.183 1167.060 C 187.808 1165.946, 185.771 1165.971, 178.336 1167.213 L 169.500 1168.690 160.500 1165.467 C 155.550 1163.695, 150.677 1161.903, 149.670 1161.485 C 148.121 1160.841, 147.891 1161.147, 148.170 1163.482 M 757 1164.028 C 749.126 1166.148, 749.303 1166.209, 771.297 1168.962 C 779.985 1170.050, 787.460 1171.166, 787.908 1171.443 C 788.356 1171.720, 795.422 1173.082, 803.611 1174.471 C 818.426 1176.983, 828.831 1177.430, 842 1176.119 C 847.711 1175.551, 846.679 1175.383, 833.500 1174.736 C 817.137 1173.933, 805.426 1171.668, 786.168 1165.581 C 773.338 1161.526, 767.458 1161.213, 757 1164.028 M 875.248 1163.974 C 874.340 1165.428, 874.349 1165.951, 875.286 1166.268 C 876.022 1166.517, 875.106 1168.077, 872.960 1170.230 C 863.501 1179.717, 832.878 1183.358, 802.500 1178.606 C 783.731 1175.671, 784.137 1175.657, 777.500 1179.482 L 771.500 1182.939 779.621 1182.970 C 784.088 1182.986, 794.213 1183.726, 802.121 1184.614 C 833.288 1188.113, 863.044 1184.089, 873.222 1175 C 876.605 1171.979, 877.148 1170.911, 877.189 1167.202 C 877.246 1162.116, 876.835 1161.433, 875.248 1163.974 M 704.193 1172.150 C 704.843 1180.923, 716.036 1184.237, 745.557 1184.393 L 765.614 1184.500 771.966 1180.331 L 778.319 1176.163 774.282 1175.076 C 769.158 1173.696, 760.620 1173.525, 745.761 1174.504 C 732.361 1175.387, 722.381 1174.175, 711.879 1170.388 C 703.467 1167.354, 703.831 1167.271, 704.193 1172.150 M 863.250 1170.584 C 861.462 1171.366, 860 1172.198, 860 1172.433 C 860 1173.042, 865.506 1171.384, 867.676 1170.121 C 870.437 1168.516, 867.207 1168.854, 863.250 1170.584 M 355.745 1181.894 C 350.380 1182.864, 345.767 1183.434, 345.495 1183.162 C 345.223 1182.889, 345 1189.267, 345 1197.333 C 345 1208.423, 345.305 1211.990, 346.250 1211.958 C 346.938 1211.934, 352.900 1210.894, 359.500 1209.646 L 371.500 1207.377 371.500 1193.938 L 371.500 1180.500 368.500 1180.316 C 366.850 1180.214, 361.110 1180.925, 355.745 1181.894 M 330.471 1191.543 C 329.489 1204.646, 330.278 1208.337, 334.378 1209.820 C 336.173 1210.469, 337.960 1211, 338.349 1211 C 338.738 1211, 338.931 1204.820, 338.778 1197.266 L 338.500 1183.531 334.831 1182.936 L 331.161 1182.341 330.471 1191.543 M 379.484 1209.205 C 378.659 1211.043, 376.808 1211.712, 368 1213.356 C 362.225 1214.434, 358.094 1215.517, 358.819 1215.764 C 359.545 1216.011, 366.064 1215.211, 373.308 1213.986 C 380.551 1212.761, 387.494 1211.701, 388.738 1211.629 C 391.749 1211.457, 391.599 1211.143, 387.750 1209.569 C 381.278 1206.922, 380.524 1206.889, 379.484 1209.205 M 315.414 1210.862 C 315.801 1211.488, 316.765 1212, 317.556 1212 C 318.348 1212, 324.208 1213.775, 330.581 1215.944 C 338.802 1218.742, 342.796 1219.649, 344.333 1219.068 C 345.525 1218.617, 348.891 1217.921, 351.814 1217.522 C 354.737 1217.122, 356.913 1216.579, 356.649 1216.316 C 356.386 1216.053, 352.728 1216.359, 348.521 1216.997 C 340.925 1218.148, 340.805 1218.131, 331.685 1214.636 C 321.358 1210.678, 314.287 1209.037, 315.414 1210.862 M 308.251 1214.789 C 307.110 1217.762, 309.885 1219.403, 325.020 1224.700 C 337.628 1229.113, 341.184 1229.987, 344.474 1229.480 C 349.160 1228.759, 364.340 1226.119, 381.750 1222.999 L 394 1220.804 394 1217.541 L 394 1214.277 389.750 1215.122 C 374.070 1218.236, 344.813 1223.003, 341.385 1223.001 C 339.092 1223.001, 330.975 1220.855, 323.045 1218.153 C 311.297 1214.150, 308.721 1213.564, 308.251 1214.789" fill="#1f6b4c" fill-rule="evenodd"/>
</svg>